<svg width="264" height="352" viewBox="0 0 264 352" fill="none" xmlns="http://www.w3.org/2000/svg">
<path d="M34.0108 131.413C30.8833 131.413 28.1468 132.587 25.8013 134.933C23.4557 137.28 22.2829 140.018 22.2829 143.147V319.147C22.2829 322.276 23.4557 324.818 25.8013 326.773C28.1468 328.729 30.8833 329.707 34.0108 329.707H231.039C234.166 329.707 236.902 328.729 239.248 326.773C241.594 324.818 242.766 322.276 242.766 319.147V143.147C242.766 140.018 241.594 137.28 239.248 134.933C236.902 132.587 234.166 131.413 231.039 131.413H187.646C184.518 131.413 181.782 130.436 179.436 128.48C177.09 126.524 176.113 123.982 176.504 120.853C176.895 117.724 178.068 115.182 180.022 113.227C181.977 111.271 184.518 110.293 187.646 110.293H231.039C240.421 110.293 248.435 113.422 255.081 119.68C261.726 125.938 264.658 133.76 263.877 143.147V319.147C264.658 328.533 261.726 336.356 255.081 342.613C248.435 348.871 240.421 352 231.039 352H34.0108C24.6285 352 16.8099 348.871 10.5551 342.613C4.30021 336.356 0.781856 328.533 0 319.147V143.147C0.781856 133.76 4.30021 125.938 10.5551 119.68C16.8099 113.422 24.6285 110.293 34.0108 110.293H77.4038C80.5312 110.293 83.2677 111.271 85.6133 113.227C87.9588 115.182 88.9362 117.724 88.5452 120.853C88.1543 123.982 86.9815 126.72 85.0269 129.067C83.0722 131.413 80.5312 132.587 77.4038 132.587L34.0108 131.413ZM124.315 3.52001C126.661 1.17335 129.397 1.38283e-05 132.525 1.38283e-05C135.652 1.38283e-05 138.389 1.17335 140.734 3.52001L206.41 69.2267C208.756 71.5733 209.928 74.3111 209.928 77.44C209.928 80.5689 208.756 83.1111 206.41 85.0667C204.065 87.0222 201.328 88 198.201 88C195.073 88 192.728 86.8267 191.164 84.48L143.08 37.5467V231.147C143.08 234.276 142.102 236.818 140.148 238.773C138.193 240.729 135.652 241.707 132.525 241.707C129.397 241.707 126.856 240.729 124.902 238.773C122.947 236.818 121.97 234.276 121.97 231.147V37.5467L73.8854 84.48C72.3217 86.8267 69.9761 88 66.8487 88C63.7213 88 60.9848 87.0222 58.6392 85.0667C56.2937 83.1111 55.1209 80.5689 55.1209 77.44C55.1209 74.3111 56.2937 71.5733 58.6392 69.2267L124.315 3.52001Z" fill="white" fill-opacity="0.4"/>
</svg>
