<svg width="363" height="363" viewBox="0 0 363 363" fill="none" xmlns="http://www.w3.org/2000/svg">
<path d="M22.99 181.5C22.99 210.54 30.0483 237.16 44.165 261.36C58.2817 285.56 77.44 304.718 101.64 318.835C125.84 332.952 152.46 340.01 181.5 340.01C210.54 340.01 237.16 332.952 261.36 318.835C285.56 304.718 304.718 285.56 318.835 261.36C332.952 237.16 340.01 210.54 340.01 181.5C340.01 152.46 332.952 125.84 318.835 101.64C304.718 77.44 285.56 58.2817 261.36 44.165C237.16 30.0483 210.54 22.99 181.5 22.99C152.46 22.99 125.84 30.0483 101.64 44.165C77.44 58.2817 58.2817 77.44 44.165 101.64C30.0483 125.84 22.99 152.46 22.99 181.5ZM363 181.5C363 214.573 354.933 245.025 338.8 272.855C322.667 300.685 300.685 322.667 272.855 338.8C245.025 354.933 214.573 363 181.5 363C148.427 363 117.975 354.933 90.145 338.8C62.315 322.667 40.3333 300.685 24.2 272.855C8.06667 245.025 0 214.573 0 181.5C0 148.427 8.06667 117.975 24.2 90.145C40.3333 62.315 62.315 40.3333 90.145 24.2C117.975 8.06666 148.427 -1.14441e-05 181.5 -1.14441e-05C214.573 -1.14441e-05 245.025 8.06666 272.855 24.2C300.685 40.3333 322.667 62.315 338.8 90.145C354.933 117.975 363 148.427 363 181.5ZM192.39 101.64C192.39 98.4133 191.382 95.7917 189.365 93.775C187.348 91.7583 184.727 90.75 181.5 90.75C178.273 90.75 175.652 91.7583 173.635 93.775C171.618 95.7917 170.61 98.4133 170.61 101.64V233.53L121 185.13C119.387 182.71 116.967 181.5 113.74 181.5C110.513 181.5 107.69 182.508 105.27 184.525C102.85 186.542 101.64 189.163 101.64 192.39C101.64 195.617 102.85 198.44 105.27 200.86L173.03 268.62C175.45 271.04 178.273 272.25 181.5 272.25C184.727 272.25 187.55 271.04 189.97 268.62L257.73 200.86C260.15 198.44 261.36 195.617 261.36 192.39C261.36 189.163 260.15 186.542 257.73 184.525C255.31 182.508 252.487 181.5 249.26 181.5C246.033 181.5 243.613 182.71 242 185.13L192.39 233.53V101.64Z" fill="white" fill-opacity="0.4"/>
</svg>
