<svg width="322" height="322" viewBox="0 0 322 322" fill="none" xmlns="http://www.w3.org/2000/svg">
<path d="M317.771 3.40625C321.405 6.31291 322.131 9.94625 319.951 14.3062L201.141 311.876C198.961 317.69 194.783 320.778 188.606 321.141C182.43 321.505 177.525 319.143 173.891 314.056L109.581 211.596L7.12133 147.286C2.03467 143.653 -0.327 138.748 0.0363333 132.571C0.399667 126.395 3.488 122.216 9.30133 120.036L306.871 1.22625C311.231 -0.953753 314.865 -0.227086 317.771 3.40625ZM129.201 206.146L185.881 294.436L282.891 52.4562L129.201 206.146ZM268.721 38.2862L26.7413 135.296L115.031 191.976L268.721 38.2862Z" fill="white" fill-opacity="0.4"/>
</svg>
