<svg preserveAspectRatio="none" width="100%" height="100%" overflow="visible" style="display: block;" viewBox="0 0 12 14.6689" fill="none" xmlns="http://www.w3.org/2000/svg">
<g id="Group">
<path id="Vector" d="M11.3333 8.0003C11.3333 11.3336 9 13.0003 6.22667 13.967C6.08144 14.0162 5.92369 14.0138 5.78 13.9603C3 13.0003 0.666667 11.3336 0.666667 8.0003V3.33363C0.666667 3.15682 0.736905 2.98725 0.861929 2.86223C0.986953 2.7372 1.15652 2.66697 1.33333 2.66697C2.66667 2.66697 4.33333 1.86697 5.49333 0.853633C5.63457 0.732966 5.81424 0.666667 6 0.666667C6.18576 0.666667 6.36543 0.732966 6.50667 0.853633C7.67333 1.87363 9.33333 2.66697 10.6667 2.66697C10.8435 2.66697 11.013 2.7372 11.1381 2.86223C11.2631 2.98725 11.3333 3.15682 11.3333 3.33363V8.0003Z" stroke="var(--stroke-0, black)" stroke-width="1.33333" stroke-linecap="round" stroke-linejoin="round"/>
<path id="Vector_2" d="M4 7.33363L5.33333 8.66697L8 6.0003" stroke="var(--stroke-0, black)" stroke-width="1.33333" stroke-linecap="round" stroke-linejoin="round"/>
</g>
</svg>
