<svg preserveAspectRatio="none" width="100%" height="100%" overflow="visible" style="display: block;" viewBox="0 0 18.8342 13.5823" fill="none" xmlns="http://www.w3.org/2000/svg">
<g id="Group">
<path id="Vector" d="M0.721359 7.09563C0.648436 6.89918 0.648436 6.68308 0.721359 6.48663C1.4316 4.7645 2.63718 3.29204 4.18528 2.25591C5.73338 1.21979 7.55427 0.666667 9.41711 0.666667C11.2799 0.666667 13.1008 1.21979 14.6489 2.25591C16.197 3.29204 17.4026 4.7645 18.1129 6.48663C18.1858 6.68308 18.1858 6.89918 18.1129 7.09563C17.4026 8.81776 16.197 10.2902 14.6489 11.3263C13.1008 12.3625 11.2799 12.9156 9.41711 12.9156C7.55427 12.9156 5.73338 12.3625 4.18528 11.3263C2.63718 10.2902 1.4316 8.81776 0.721359 7.09563Z" stroke="var(--stroke-0, white)" stroke-width="1.33333"/>
<path id="Vector_2" d="M9.41711 9.41613C10.8669 9.41613 12.0421 8.24087 12.0421 6.79113C12.0421 5.34138 10.8669 4.16613 9.41711 4.16613C7.96736 4.16613 6.79211 5.34138 6.79211 6.79113C6.79211 8.24087 7.96736 9.41613 9.41711 9.41613Z" stroke="var(--stroke-0, white)" stroke-width="1.33333"/>
</g>
</svg>
