<svg width="96" height="49" viewBox="0 0 96 49" fill="none" xmlns="http://www.w3.org/2000/svg">
<path d="M38.8566 42.5369L37.1046 43.8175L36.7142 43.2843L37.9092 42.4131L37.3474 41.6466L36.3286 42.3893L35.9478 41.8704L36.9665 41.1277L36.3334 40.266L35.1384 41.142L34.748 40.6088L36.5 39.3281L38.8566 42.5511V42.5369Z" fill="white"/>
<path d="M34.7621 42.0418C34.5765 41.7609 34.2956 41.561 33.9004 41.7895C33.6338 41.9466 33.5624 42.1704 33.71 42.4179C33.9099 42.7654 34.2242 42.7036 34.5669 42.6607C35.2953 42.5512 35.8095 42.6607 36.1189 43.1939C36.4617 43.789 36.2237 44.4174 35.6381 44.7602C35.024 45.1172 34.367 44.884 34.0099 44.3032L34.6003 43.9604C34.7669 44.2175 35.0002 44.3746 35.3191 44.1889C35.5905 44.0318 35.6619 43.7795 35.5191 43.5367C35.3667 43.2701 35.024 43.3034 34.6812 43.3558C33.9052 43.4748 33.4339 43.3272 33.1149 42.7702C32.7626 42.1608 32.9626 41.58 33.5719 41.2277C34.2384 40.8421 34.9668 41.0706 35.3572 41.7038L34.7621 42.0466V42.0418Z" fill="white"/>
<path d="M31.7725 46.5882L31.5011 45.9789L32.4009 45.579L31.0488 42.5369L31.6725 42.2607L33.0245 45.3028L33.91 44.9077L34.1814 45.5171L31.7725 46.5882Z" fill="white"/>
<path d="M30.0981 47.1933C29.0269 47.5265 28.4319 46.4649 28.1605 45.5984C27.8701 44.6844 27.9082 43.5942 28.8794 43.2895C29.9315 42.961 30.5409 43.9703 30.8313 44.9081C31.0979 45.7746 31.0741 46.8933 30.0981 47.1933ZM29.0793 43.9322C28.4414 44.1321 28.7223 45.0747 28.8556 45.5032C28.9889 45.9364 29.3126 46.7315 29.8982 46.5458C30.5218 46.3506 30.2647 45.427 30.1171 44.9605C29.9838 44.5368 29.6601 43.7513 29.0793 43.9322Z" fill="white"/>
<path d="M28.4729 47.6357L27.7397 47.769L26.7971 46.1694L26.4686 47.9975L25.7402 48.1308L26.3163 45.4363L26.0544 44.0081L26.7352 43.8843L26.9923 45.3125L28.4729 47.6357Z" fill="white"/>
<path d="M23.7139 48.2499L21.543 48.2165L21.5525 47.5548L23.0331 47.5786L23.0474 46.6265L21.7858 46.6074L21.7953 45.9647L23.0569 45.9838L23.0712 44.9126L21.5858 44.8888L21.5953 44.2271L23.771 44.2604L23.7091 48.2499H23.7139Z" fill="white"/>
<path d="M21.5135 44.2319L20.8756 48.1833L20.2043 48.0738L19.3522 45.3459L18.9475 47.8739L18.2715 47.7644L18.9094 43.813L19.5759 43.9225L20.4281 46.6504L20.8328 44.1272L21.5088 44.2367L21.5135 44.2319Z" fill="white"/>
<path d="M16.7723 45.3935C16.6438 45.7172 16.4772 46.0314 16.2344 46.2885C15.9154 46.636 15.4203 46.9407 14.8062 46.6979C13.9207 46.3456 13.954 45.4697 14.1206 44.9031L14.7586 45.1555C14.7062 45.3792 14.6491 45.622 14.7919 45.822C14.8442 45.9172 14.9252 45.9838 15.0347 46.0267C15.0728 46.041 15.1108 46.0552 15.1585 46.0648C15.3013 46.0838 15.4298 46.0362 15.5393 45.9743C15.7107 45.8839 15.8583 45.6839 15.9725 45.4601C16.0868 45.2412 16.1772 45.0079 16.2391 44.8317C16.3867 44.4175 16.6152 43.732 16.0725 43.5178C15.6393 43.3464 15.3965 43.6511 15.2489 43.9415L14.611 43.6892C14.8728 43.1607 15.4584 42.5513 16.3201 42.8941C16.5867 42.9989 16.7771 43.1655 16.9056 43.3797C17.2294 43.932 17.058 44.6699 16.858 45.184L16.7723 45.3935Z" fill="white"/>
<path d="M15.2533 42.5464L12.2302 45.4219L11.6875 45.1124L12.6206 41.042L13.2538 41.4038L13.0443 42.2084L14.0298 42.7701L14.6153 42.1798L15.2485 42.5416L15.2533 42.5464ZM12.8682 42.8749L12.5016 44.3031L13.5489 43.2652L12.8682 42.8749Z" fill="white"/>
<path d="M10.2115 44.1938L9.66406 43.7844L11.654 41.1374L10.5448 40.3043L10.9542 39.7568L12.6062 40.9994L10.2068 44.1938H10.2115Z" fill="white"/>
<path d="M7.43163 41.9275L8.83605 39.3281L6.20813 40.6849L5.60352 40.0708L8.45519 37.2715L8.93602 37.7618L7.12219 39.5328L9.50731 38.3426L9.85008 38.6902L8.51232 41.1467L10.4118 39.2662L10.8879 39.7518L8.03624 42.5511L7.43163 41.937V41.9275Z" fill="white"/>
<path d="M8.49766 37.2955L4.5415 38.6285L4.17969 38.1191L6.74572 34.8247L7.16942 35.4198L6.64098 36.0625L7.29796 36.9908L8.07872 36.7052L8.50243 37.3003L8.49766 37.2955ZM6.19823 36.5862L5.26513 37.7287L6.6505 37.2289L6.19823 36.5862Z" fill="white"/>
<path d="M2.66211 35.6672L2.35742 34.9912L3.67614 33.6868L1.82422 33.8105L1.51953 33.1345L4.27123 33.0393L5.59471 32.4395L5.88035 33.0726L4.55687 33.6725L2.66687 35.672L2.66211 35.6672Z" fill="white"/>
<path d="M2.75113 30.8828C2.40836 30.959 2.05607 31.0018 1.70853 30.9494C1.24198 30.8828 0.708781 30.6495 0.561198 30.0068C0.346966 29.0785 1.08964 28.6119 1.64664 28.4215L1.79899 29.088C1.58475 29.1689 1.35148 29.2642 1.26579 29.4974C1.21818 29.5974 1.20866 29.6974 1.23246 29.8116C1.24198 29.8497 1.25626 29.8926 1.27055 29.9354C1.33244 30.064 1.44669 30.1401 1.56095 30.1973C1.73234 30.2829 1.97989 30.2925 2.22745 30.2591C2.47025 30.2306 2.71781 30.1687 2.89395 30.1163C3.31766 30.0068 4.01272 29.8021 3.88418 29.2356C3.77945 28.7786 3.39383 28.75 3.0701 28.7976L2.91776 28.1311C3.49857 28.0454 4.33645 28.1835 4.54116 29.088C4.60781 29.3689 4.57925 29.6164 4.47451 29.845C4.20315 30.4258 3.49857 30.7067 2.9606 30.8304L2.74161 30.8828H2.75113Z" fill="white"/>
<path d="M0.0615963 26.7838C-0.0288575 25.665 1.13752 25.3127 2.04206 25.2365C2.99896 25.1556 4.05584 25.427 4.14154 26.441C4.23199 27.5407 3.11322 27.9168 2.13727 27.993C1.23273 28.0644 0.147289 27.7931 0.0615963 26.779V26.7838ZM3.47027 26.4981C3.41315 25.8316 2.43244 25.8983 1.98493 25.9364C1.53266 25.9745 0.685251 26.1173 0.737619 26.7267C0.789987 27.3789 1.75165 27.3265 2.23725 27.2884C2.67999 27.2503 3.51788 27.1028 3.47027 26.4981Z" fill="white"/>
<path d="M3.98949 24.894L0 24.6084L0.0476072 23.9324L2.68981 22.8422L0.138061 22.6613L0.185668 21.9805L4.17516 22.2661L4.12755 22.9374L1.49011 24.0276L4.03709 24.2085L3.98949 24.894Z" fill="white"/>
<path d="M2.39482 20.2662C2.05681 20.171 1.72832 20.0377 1.44743 19.8282C1.06657 19.5473 0.714281 19.0903 0.890428 18.4524C1.14751 17.5335 2.01872 17.4764 2.59953 17.5811L2.41386 18.2429C2.18534 18.2143 1.93779 18.1858 1.75212 18.3476C1.66167 18.4095 1.60454 18.4952 1.57121 18.6095C1.56169 18.6475 1.55217 18.6904 1.54741 18.738C1.54265 18.8808 1.60454 19.0046 1.67595 19.1093C1.78544 19.2712 1.99968 19.395 2.23295 19.4854C2.46147 19.5759 2.70426 19.6425 2.88517 19.6806C3.30888 19.7854 4.01822 19.9425 4.17533 19.3807C4.29911 18.9284 3.97538 18.719 3.67069 18.6047L3.85636 17.943C4.4086 18.1477 5.0751 18.6666 4.82755 19.5616C4.75137 19.8377 4.60855 20.0424 4.40384 20.1948C3.88968 20.5756 3.13749 20.4852 2.60429 20.3376L2.3853 20.2757L2.39482 20.2662Z" fill="white"/>
<path d="M1.98584 15.3722C2.43334 14.3392 3.62829 14.582 4.46141 14.939C5.34691 15.3199 6.15147 16.053 5.74681 16.9909C5.30882 18.0002 4.1472 17.8097 3.24743 17.4194C2.4143 17.0575 1.58593 16.3101 1.9906 15.3722H1.98584ZM5.12791 16.7243C5.39451 16.1102 4.49474 15.7055 4.08531 15.5293C3.66637 15.3484 2.85705 15.0771 2.60949 15.6388C2.34765 16.2387 3.21886 16.6481 3.67113 16.8385C4.08055 17.0147 4.88988 17.2813 5.12791 16.7195V16.7243Z" fill="white"/>
<path d="M6.34117 15.534L2.92773 13.4536L3.28003 12.8776L6.12694 13.1204L3.94653 11.7874L4.30358 11.2065L7.71702 13.287L7.36473 13.863L4.52258 13.6202L6.70299 14.9485L6.34593 15.534H6.34117Z" fill="white"/>
<path d="M4.61719 10.7403L5.09326 10.1595L7.77355 11.4402L5.9978 9.05505L6.47387 8.479L8.85899 11.8734L8.41148 12.4161L4.61719 10.7403Z" fill="white"/>
<path d="M10.1918 10.4637L9.70617 10.9446L6.89258 8.10242L7.37817 7.62158L10.1918 10.4637Z" fill="white"/>
<path d="M9.09229 8.55526C8.8733 8.2839 8.68763 7.97921 8.58289 7.64596C8.44007 7.19845 8.42103 6.61764 8.93995 6.20822C9.68738 5.61789 10.4253 6.08444 10.8347 6.50339L10.2968 6.92709C10.1301 6.76999 9.94446 6.60336 9.70166 6.6224C9.59216 6.6224 9.49695 6.65573 9.40174 6.72714C9.36841 6.75094 9.33985 6.77951 9.30652 6.81759C9.21607 6.93185 9.19702 7.06515 9.19702 7.19369C9.19702 7.38888 9.29224 7.61263 9.42554 7.82211C9.55408 8.03158 9.71594 8.22201 9.83972 8.36483C10.1206 8.69808 10.6062 9.2408 11.0632 8.87423C11.4298 8.58382 11.287 8.22201 11.1061 7.95065L11.644 7.52694C11.9725 8.0173 12.2058 8.82662 11.4822 9.40267C11.2584 9.57881 11.0204 9.66451 10.7728 9.66451C10.1301 9.66927 9.57788 9.15511 9.23511 8.72664L9.09705 8.5505L9.09229 8.55526Z" fill="white"/>
<path d="M11.4304 6.73166C11.2591 6.42698 11.1162 6.10325 11.0639 5.75572C10.9925 5.28917 11.0639 4.71312 11.6352 4.38463C12.4635 3.91332 13.1253 4.4846 13.4633 4.96544L12.8682 5.30345C12.7254 5.12254 12.573 4.92735 12.3255 4.91307C12.216 4.89403 12.116 4.91307 12.016 4.97496C11.9779 4.994 11.9446 5.0178 11.9113 5.05113C11.8065 5.1511 11.7685 5.27964 11.7447 5.40818C11.7113 5.59861 11.7732 5.83665 11.878 6.06516C11.9779 6.29368 12.1065 6.50791 12.2064 6.66502C12.435 7.03635 12.8301 7.64572 13.3347 7.35532C13.7394 7.12204 13.6537 6.74595 13.5204 6.44602L14.1155 6.10801C14.3678 6.64121 14.4725 7.4791 13.668 7.94089C13.4204 8.08371 13.1729 8.12656 12.9253 8.09323C12.2921 8.00278 11.8208 7.40769 11.5495 6.93162L11.44 6.73643L11.4304 6.73166Z" fill="white"/>
<path d="M15.6637 6.92662L15.0353 7.19322L13.4785 3.51318L14.1069 3.24658L15.6637 6.92662Z" fill="white"/>
<path d="M16.1532 2.49956C17.2339 2.19488 17.8004 3.2708 18.048 4.14677C18.3098 5.07035 18.248 6.1558 17.2672 6.43192C16.2056 6.73185 15.6248 5.70829 15.363 4.76091C15.1202 3.88969 15.1773 2.77092 16.158 2.4948L16.1532 2.49956ZM17.0816 5.78446C17.7243 5.60355 17.472 4.65141 17.3482 4.22294C17.2244 3.78496 16.9245 2.98516 16.3341 3.15178C15.7057 3.32793 15.939 4.26103 16.0723 4.72758C16.1913 5.15605 16.496 5.95109 17.0816 5.78446Z" fill="white"/>
<path d="M18.7004 5.99876L18.291 2.0188L18.967 1.94739L20.5 4.36107L20.2382 1.81409L20.9189 1.74268L21.3284 5.72264L20.6571 5.79405L19.1241 3.38036L19.386 5.92259L18.7052 5.994L18.7004 5.99876Z" fill="white"/>
<path d="M22.8047 5.76512L23.3284 1.8042L24.3186 1.93274C25.0803 2.03271 25.4183 2.66113 25.5088 3.18957C25.5707 3.53234 25.5469 3.84179 25.4993 4.18932C25.4612 4.4464 25.3993 4.70348 25.2898 4.94152C25.0708 5.45091 24.5709 5.99364 23.7854 5.8889L22.8047 5.76036V5.76512ZM23.5712 5.1986L23.8759 5.23668C24.5328 5.32237 24.7423 4.61303 24.8137 4.10363L24.8375 3.92748C24.9042 3.41808 24.8899 2.68017 24.2329 2.59448L23.9235 2.55639L23.5759 5.20336L23.5712 5.1986Z" fill="white"/>
<path d="M26.5215 2.29919L28.6162 2.88L28.4401 3.51794L27.0118 3.1228L26.7548 4.04162L27.9687 4.37963L27.7974 4.99852L26.5834 4.66051L26.2977 5.69359L27.7259 6.08873L27.5498 6.72667L25.4551 6.14586L26.5262 2.29443L26.5215 2.29919Z" fill="white"/>
<path d="M29.2174 3.11353L29.8458 3.37537L28.5699 6.43175L29.8506 6.96495L29.5887 7.59337L27.6797 6.79357L29.2222 3.104L29.2174 3.11353Z" fill="white"/>
<path d="M34.691 6.03173L34.3292 6.58874L33.1438 5.8175L32.5773 6.68871L33.6341 7.37426L33.2723 7.9265L32.2154 7.24096L31.3252 8.61205L30.7539 8.24071L32.9296 4.88916L34.6863 6.03173H34.691Z" fill="white"/>
<path d="M35.1815 6.38867L35.7052 6.83618L34.0056 8.83568C33.7818 9.09752 33.5819 9.46886 33.939 9.77355C34.296 10.0782 34.634 9.81639 34.853 9.55931L36.5526 7.55981L37.0763 8.00732L35.3767 10.0068C34.8768 10.5972 34.1627 10.8399 33.5105 10.2829C32.8725 9.74022 32.9535 9.01183 33.4819 8.39294L35.1815 6.39343V6.38867Z" fill="white"/>
<path d="M39.2898 10.3784L38.7947 10.8259L38.1377 10.0975L35.6621 12.3303L35.2051 11.8209L37.6807 9.58813L37.0284 8.8645L37.5236 8.41699L39.2945 10.3784H39.2898Z" fill="white"/>
<path d="M39.6564 10.8496L40.0468 11.4161L37.8855 12.9062C37.6046 13.1014 37.3142 13.4061 37.5808 13.7965C37.8474 14.1821 38.2425 14.0155 38.5186 13.8251L40.68 12.335L41.0704 12.9015L38.909 14.3916C38.2711 14.8296 37.5189 14.8819 37.0333 14.1726C36.5572 13.4823 36.8286 12.8015 37.4951 12.3397L39.6564 10.8496Z" fill="white"/>
<path d="M42.1273 14.6107C42.6795 15.3296 42.3606 15.9294 41.9035 16.2865C41.556 16.5531 41.1276 16.7292 40.661 16.5198L39.7374 18.0575L39.3042 17.491L40.104 16.1389L39.7945 15.739L38.6377 16.6245L38.2188 16.0818L41.3894 13.6538L42.1225 14.6107H42.1273ZM40.3278 15.3343L40.6658 15.7723C40.8895 16.0627 41.2037 15.9532 41.4275 15.7819C41.6512 15.6105 41.8464 15.3296 41.6036 15.0106L41.2847 14.5964L40.3278 15.3296V15.3343Z" fill="white"/>
<path d="M43.9948 16.9671C44.6803 17.8574 43.8853 18.7857 43.1664 19.338C42.4047 19.9235 41.3716 20.2663 40.7527 19.457C40.0815 18.581 40.8194 17.6622 41.6001 17.0671C42.319 16.5196 43.3807 16.1578 43.9995 16.9671H43.9948ZM41.2859 19.0476C41.6906 19.5808 42.4809 18.9904 42.8379 18.7191C43.1997 18.443 43.8329 17.8669 43.4568 17.3813C43.0569 16.8624 42.2809 17.4242 41.8905 17.7193C41.5383 17.9907 40.9146 18.5667 41.2812 19.0476H41.2859Z" fill="white"/>
<path d="M44.6884 22.2373L43.9219 21.2375L44.4313 20.8472L45.1977 21.8469L44.6884 22.2373Z" fill="white"/>
<path d="M48.0456 22.3276L49.3644 24.051L48.8359 24.4557L47.9361 23.2798L47.1792 23.8606L47.9457 24.8603L47.4363 25.2507L46.6698 24.251L45.8224 24.9032L46.7269 26.0791L46.1985 26.4837L44.875 24.7556L48.0456 22.3276Z" fill="white"/>
<path d="M47.7972 26.5075C47.5402 26.7265 47.3783 27.0312 47.6592 27.393C47.8449 27.6358 48.0829 27.6786 48.3066 27.5025C48.6256 27.2597 48.5209 26.955 48.4352 26.6217C48.2352 25.9124 48.2733 25.3935 48.7637 25.0126C49.3064 24.5937 49.9634 24.7508 50.3728 25.284C50.806 25.8457 50.6584 26.5265 50.13 26.955L49.7158 26.4123C49.9491 26.2123 50.0729 25.9648 49.8491 25.6744C49.6587 25.4268 49.3968 25.3887 49.1731 25.5601C48.9303 25.7458 49.0017 26.0838 49.1017 26.4123C49.3207 27.1645 49.2302 27.6501 48.7256 28.0404C48.1686 28.4689 47.564 28.3451 47.1355 27.7881C46.669 27.174 46.7975 26.4265 47.3735 25.96L47.7925 26.5027L47.7972 26.5075Z" fill="white"/>
<path d="M52.8535 28.5928L52.3251 28.9974L51.7252 28.2167L49.083 30.2447L48.6641 29.702L51.3063 27.6739L50.7159 26.9027L51.2444 26.498L52.8487 28.5928H52.8535Z" fill="white"/>
<path d="M53.8776 29.8499C54.5631 30.7402 53.7681 31.6685 53.0492 32.2208C52.2875 32.8064 51.2544 33.1491 50.6355 32.3398C49.9643 31.4638 50.7022 30.545 51.483 29.9499C52.2018 29.4024 53.2635 29.0406 53.8824 29.8499H53.8776ZM51.1687 31.9304C51.5734 32.4636 52.3637 31.8733 52.7207 31.6019C53.0826 31.3258 53.7157 30.7497 53.3396 30.2641C52.9397 29.7452 52.1637 30.307 51.7734 30.6021C51.4211 30.8735 50.7974 31.4496 51.164 31.9304H51.1687Z" fill="white"/>
<path d="M54.7668 31.083L55.2191 31.6733L54.2289 33.2444L56.0046 32.7017L56.4569 33.2872L53.8004 34.0109L52.6483 34.8963L52.2246 34.3441L53.3767 33.4634L54.7621 31.0878L54.7668 31.083Z" fill="white"/>
<path d="M57.5183 34.6772L58.837 36.4006L58.3086 36.8053L57.4088 35.6294L56.6518 36.2102L57.4183 37.21L56.9089 37.6003L56.1424 36.6006L55.295 37.2528L56.1996 38.4287L55.6711 38.8334L54.3477 37.1052L57.5183 34.6772Z" fill="white"/>
<path d="M55.957 39.1998L59.1277 36.7671L59.5419 37.3051L58.2898 39.8711L60.3179 38.3143L60.732 38.857L57.5614 41.2898L57.152 40.7566L58.404 38.1905L56.376 39.7425L55.957 39.1998Z" fill="white"/>
<path d="M61.4421 41.685C61.6183 41.3803 61.8277 41.0994 62.0991 40.8756C62.4657 40.5757 62.9941 40.3472 63.5702 40.6757C64.3938 41.1518 64.2367 42.0087 63.9939 42.5467L63.3988 42.2039C63.4845 41.9897 63.5749 41.7564 63.4607 41.5374C63.4226 41.4374 63.3559 41.3565 63.2512 41.2993C63.2179 41.2803 63.1798 41.2613 63.1322 41.247C62.9941 41.2041 62.8608 41.2375 62.7418 41.2803C62.5609 41.347 62.3847 41.5231 62.2419 41.7278C62.0943 41.9278 61.9753 42.1468 61.8896 42.3134C61.6849 42.699 61.3612 43.3465 61.8658 43.6369C62.2705 43.8701 62.5561 43.6035 62.7418 43.3369L63.3369 43.6797C63.0036 44.1653 62.3371 44.6795 61.5326 44.2177C61.285 44.0748 61.1184 43.8844 61.0232 43.6511C60.7804 43.0561 61.0565 42.3515 61.3279 41.8754L61.4421 41.6802V41.685Z" fill="white"/>
<path d="M63.2548 45.1317L65.9493 41.9468L66.5206 42.1943L66.035 46.3409L65.3638 46.0505L65.4828 45.2269L64.4402 44.7746L63.9213 45.4269L63.25 45.1365L63.2548 45.1317ZM65.5875 44.5461L65.797 43.0893L64.8686 44.2367L65.5875 44.5509V44.5461Z" fill="white"/>
<path d="M67.9791 42.7655L68.6313 42.9607L67.6744 46.1361L69.0027 46.536L68.8075 47.1882L66.8223 46.5931L67.9744 42.7607L67.9791 42.7655Z" fill="white"/>
<path d="M71.2784 43.632L71.7831 46.5455L73.0113 43.851L73.8683 43.9604L73.3589 47.9261L72.6781 47.8404L73.0113 45.322L71.8735 47.7357L71.3879 47.6738L70.9166 44.9174L70.5881 47.5738L69.9121 47.4881L70.4215 43.5225L71.2784 43.632Z" fill="white"/>
<path d="M74.6141 47.9359L75.4568 43.8512L76.0804 43.7988L77.6324 47.6741L76.904 47.7359L76.6184 46.9552L75.4853 47.0552L75.3378 47.874L74.6094 47.9359H74.6141ZM76.3851 46.3077L75.871 44.9271L75.6044 46.3744L76.3851 46.303V46.3077Z" fill="white"/>
<path d="M78.7051 43.3416L79.4001 43.0749L80.6284 44.4651L80.6046 42.6084L81.2949 42.3418L81.2425 45.0935L81.771 46.4455L81.1235 46.6979L80.5998 45.3458L78.7098 43.3511L78.7051 43.3416Z" fill="white"/>
<path d="M83.8739 43.0228C83.6644 42.7419 83.4883 42.4324 83.3978 42.0944C83.2693 41.6421 83.274 41.0613 83.8025 40.6662C84.569 40.0997 85.2926 40.59 85.6877 41.028L85.1355 41.4374C84.9736 41.2756 84.7975 41.0994 84.5499 41.1137C84.4404 41.1137 84.3452 41.1423 84.25 41.2089C84.2167 41.2327 84.1833 41.2613 84.1548 41.2946C84.0596 41.4041 84.0357 41.5374 84.031 41.6659C84.0215 41.8611 84.1119 42.0897 84.2405 42.3039C84.3642 42.5181 84.5166 42.7133 84.6356 42.8609C84.907 43.2037 85.3735 43.7607 85.8401 43.4131C86.2162 43.1323 86.0876 42.7704 85.9162 42.4896L86.4685 42.0801C86.7779 42.58 86.9874 43.3989 86.24 43.9511C86.0114 44.1225 85.7687 44.1939 85.5211 44.1891C84.8784 44.1749 84.3452 43.6417 84.0167 43.1989L83.8834 43.018L83.8739 43.0228Z" fill="white"/>
<path d="M86.1028 38.6191C86.874 37.805 87.9119 38.4382 88.5736 39.0619C89.2734 39.7188 89.7733 40.6853 89.0735 41.4279C88.3165 42.2277 87.293 41.6469 86.5788 40.9709C85.9219 40.3473 85.3982 39.357 86.098 38.6191H86.1028ZM88.5879 40.9614C89.0449 40.4758 88.3451 39.7903 88.0166 39.4808C87.6881 39.1666 87.0168 38.6334 86.5979 39.0809C86.1456 39.557 86.8264 40.233 87.1787 40.571C87.5024 40.8757 88.1689 41.4041 88.5879 40.9614Z" fill="white"/>
<path d="M90.7685 39.4046L87.4551 37.1671L87.8359 36.6053L90.6686 36.9814L88.55 35.5485L88.9309 34.9819L92.2444 37.2195L91.8683 37.7765L89.0356 37.4051L91.1542 38.8334L90.7685 39.3999V39.4046Z" fill="white"/>
<path d="M91.6065 33.9203C91.2828 33.787 90.9686 33.6204 90.7115 33.3776C90.3639 33.0586 90.064 32.5588 90.3116 31.9494C90.6686 31.0639 91.5446 31.1067 92.1064 31.2734L91.8493 31.9113C91.6255 31.8589 91.3827 31.8018 91.1828 31.9399C91.0876 31.9922 91.0209 32.0684 90.9781 32.1779C90.9638 32.216 90.9495 32.2541 90.94 32.3017C90.9162 32.4445 90.9686 32.573 91.0304 32.6825C91.1209 32.8539 91.3208 33.0015 91.5398 33.1158C91.7588 33.2348 91.9921 33.3205 92.1683 33.3824C92.5777 33.5347 93.268 33.768 93.487 33.2253C93.6631 32.792 93.3584 32.5445 93.068 32.3969L93.3251 31.759C93.8536 32.0208 94.4582 32.6159 94.1106 33.4728C94.0011 33.7394 93.8393 33.9251 93.6203 34.0536C93.0633 34.3773 92.3254 34.2012 91.816 33.9965L91.6065 33.9108V33.9203Z" fill="white"/>
<path d="M91.2673 29.0215C91.5434 27.9313 92.7622 27.9789 93.6429 28.2027C94.576 28.4359 95.4853 29.0358 95.2377 30.0213C94.9664 31.0877 93.7857 31.0829 92.8383 30.8401C91.9624 30.6164 91.0197 30.007 91.2721 29.0215H91.2673ZM94.5808 29.8594C94.7426 29.2119 93.7952 28.9549 93.362 28.8454C92.9193 28.7359 92.0766 28.593 91.9243 29.1881C91.7624 29.8213 92.686 30.0831 93.1621 30.2069C93.5905 30.3164 94.4332 30.4497 94.5808 29.8594Z" fill="white"/>
<path d="M95.728 27.5267L91.748 27.1173L91.8195 26.4413L94.495 25.4368L91.948 25.1749L92.0194 24.4941L95.9994 24.9036L95.928 25.5748L93.2524 26.5793L95.7947 26.8412L95.7233 27.522L95.728 27.5267Z" fill="white"/>
<path d="M92.0487 24.1081L92.0201 23.3607L94.8718 22.5276L91.9583 21.9325L91.9297 21.1851L95.9715 22.1324L96.0001 22.8323L92.0535 24.1081H92.0487Z" fill="white"/>
<path d="M95.676 19.5049L95.776 20.1809L91.8246 20.7808L91.7246 20.1047L95.676 19.5049Z" fill="white"/>
<path d="M93.4723 18.9717C93.1342 19.0621 92.782 19.1193 92.4344 19.0812C91.9631 19.0336 91.4252 18.8241 91.249 18.1862C90.9967 17.2673 91.7203 16.7675 92.2726 16.558L92.4535 17.2197C92.244 17.3102 92.0155 17.4149 91.9393 17.6482C91.8965 17.7482 91.8869 17.8529 91.9203 17.9624C91.9298 18.0005 91.9441 18.0433 91.9631 18.0862C92.0298 18.2147 92.1488 18.2861 92.2678 18.3385C92.4439 18.4194 92.6915 18.4147 92.9391 18.3766C93.1819 18.3385 93.4247 18.2671 93.6008 18.21C94.0197 18.0814 94.7101 17.8482 94.5529 17.2864C94.4292 16.8341 94.0388 16.8246 93.7198 16.8817L93.5389 16.22C94.1197 16.1105 94.9576 16.22 95.2004 17.1102C95.2766 17.3864 95.2575 17.6387 95.1623 17.8672C94.9148 18.4623 94.2245 18.767 93.6913 18.9098L93.4723 18.9669V18.9717Z" fill="white"/>
<path d="M92.5146 15.7244C92.1956 15.872 91.8624 15.9815 91.5101 16.0053C91.0388 16.0386 90.4722 15.9196 90.1914 15.3197C89.7915 14.4533 90.4199 13.8439 90.9245 13.544L91.2149 14.1676C91.0245 14.2914 90.815 14.4342 90.7817 14.677C90.7531 14.7818 90.7674 14.8865 90.815 14.9913C90.834 15.0293 90.8531 15.0674 90.8817 15.1055C90.9721 15.2198 91.0959 15.2674 91.2244 15.3007C91.4101 15.3531 91.6577 15.3055 91.8909 15.2245C92.1242 15.1484 92.348 15.0341 92.5146 14.9484C92.905 14.7532 93.5477 14.4104 93.3001 13.8772C93.1049 13.4535 92.7193 13.5059 92.4099 13.6154L92.1194 12.9917C92.6717 12.787 93.5191 12.749 93.9095 13.5916C94.0285 13.8534 94.0571 14.101 93.9999 14.3438C93.8571 14.9674 93.2239 15.3864 92.7241 15.6197L92.5193 15.7149L92.5146 15.7244Z" fill="white"/>
<path d="M92.4003 10.959L92.7573 11.5398L89.3629 13.644L89.0059 13.0632L92.4003 10.9637V10.959Z" fill="white"/>
<path d="M87.7874 11.4543C87.0876 10.5736 87.8683 9.63572 88.5777 9.0692C89.3299 8.46935 90.3582 8.11229 90.9914 8.90733C91.6769 9.76902 90.9533 10.7069 90.182 11.3115C89.4679 11.8733 88.4158 12.2494 87.7826 11.4496L87.7874 11.4543ZM90.4629 9.33104C90.0488 8.80736 89.268 9.40721 88.9157 9.68333C88.5586 9.96421 87.935 10.5498 88.3158 11.0354C88.7205 11.5495 89.4917 10.9735 89.8774 10.6688C90.2249 10.3927 90.8438 9.80711 90.4629 9.33104Z" fill="white"/>
<path d="M89.2589 6.9602L86.5596 9.90709L86.0597 9.45006L86.85 6.70312L85.1218 8.58837L84.6172 8.12658L87.3165 5.17969L87.8116 5.63672L87.0261 8.38366L88.7543 6.49841L89.2589 6.9602Z" fill="white"/>
<path d="M84.8364 3.40406L82.8845 6.89367L82.0132 6.40808C81.342 6.03674 81.261 5.32263 81.3705 4.79896C81.4372 4.45618 81.58 4.18006 81.7514 3.87061C81.8799 3.64686 82.0371 3.42787 82.2227 3.24696C82.6131 2.85658 83.2796 2.53285 83.9699 2.91847L84.8364 3.40406ZM83.9128 3.64686L83.6462 3.49928C83.0654 3.17555 82.6083 3.75636 82.356 4.20863L82.2703 4.36573C82.018 4.81324 81.7609 5.50354 82.3417 5.82727L82.6131 5.97961L83.9175 3.64686H83.9128Z" fill="white"/>
<path d="M80.1938 5.46531L78.1562 4.70836L78.3895 4.0847L79.7797 4.59886L80.1129 3.70385L78.9323 3.26586L79.156 2.66125L80.3367 3.09924L80.708 2.09472L79.3179 1.5758L79.5464 0.952148L81.584 1.7091L80.1938 5.45579V5.46531Z" fill="white"/>
<path d="M77.6798 4.58458L77.0133 4.44176L77.7084 1.20446L76.3516 0.91406L76.4944 0.247559L78.5177 0.680785L77.6798 4.58458Z" fill="white"/>
<path d="M71.7205 4.00377V3.34203L73.1249 3.33251L73.1153 2.29467L71.8538 2.30419V1.64245L73.1106 1.63293L73.0963 0H73.7771L73.8057 3.98949L71.7109 4.00377H71.7205Z" fill="white"/>
<path d="M71.282 4.04192L70.6012 4.15618L70.1585 1.56635C70.1013 1.22833 69.9442 0.833194 69.4777 0.914126C69.0111 0.995059 69.0016 1.41876 69.0587 1.75677L69.5015 4.34185L68.8207 4.4561L68.3779 1.87103C68.2494 1.10932 68.5208 0.404729 69.3682 0.261907C70.1918 0.119085 70.7012 0.652286 70.8392 1.45209L71.282 4.04192Z" fill="white"/>
<path d="M65.9066 5.45103L65.6829 4.82262L66.6112 4.49413L65.502 1.35205L66.1494 1.12354L67.2587 4.26561L68.1775 3.94188L68.4012 4.5703L65.9114 5.45103H65.9066Z" fill="white"/>
<path d="M65.5128 5.64138L64.9082 5.96987L63.6514 3.66568C63.4848 3.36575 63.2134 3.04202 62.7992 3.27054C62.385 3.49905 62.5136 3.90372 62.6754 4.20364L63.9323 6.50783L63.3277 6.83632L62.0708 4.53213C61.6995 3.85135 61.7281 3.09915 62.4802 2.68973C63.2134 2.28983 63.8656 2.62784 64.256 3.33719L65.5128 5.64138Z" fill="white"/>
<path d="M61.7938 7.93602C61.0654 8.4835 60.4703 8.15501 60.118 7.69322C59.8562 7.34093 59.6848 6.91246 59.8943 6.44591L58.3613 5.50805L58.9326 5.07959L60.2799 5.89367L60.6846 5.58898L59.8086 4.42261L60.3561 4.01318L62.7555 7.21239L61.789 7.93602H61.7938ZM61.0892 6.12695L60.6465 6.4602C60.3513 6.67919 60.4608 6.99816 60.6274 7.22191C60.7988 7.45043 61.0749 7.64562 61.3987 7.40758L61.8176 7.09337L61.094 6.12695H61.0892Z" fill="white"/>
<path d="M59.5425 9.93552C58.7427 10.721 57.7286 10.0498 57.0907 9.40232C56.4147 8.71677 55.9529 7.73606 56.6765 7.02196C57.462 6.25072 58.4665 6.86961 59.1473 7.56944C59.7805 8.2169 60.2661 9.22141 59.5377 9.93552H59.5425ZM57.1478 7.50279C56.6717 7.96934 57.3478 8.68345 57.662 9.00242C57.9809 9.32615 58.6284 9.88315 59.0664 9.45469C59.5329 8.99766 58.8807 8.29307 58.5379 7.94554C58.2285 7.63133 57.581 7.07908 57.1478 7.50279Z" fill="white"/>
<path d="M15.9668 2.10449L16.8618 1.01904L17.1951 1.47131L15.9668 2.10449Z" fill="white"/>
<path d="M87.526 11.5874L86.2168 11.0732L86.5453 10.6162L87.526 11.5874Z" fill="white"/>
<path d="M72.5918 12.6064C73.9533 12.6064 75.234 12.8588 76.4384 13.3682C77.6381 13.8728 78.695 14.5726 79.6043 15.4676C80.5136 16.3627 81.2277 17.4148 81.7466 18.6288C82.2656 19.8427 82.5274 21.1424 82.5274 22.5278V32.4825H79.5281V22.5516C79.5281 21.5947 79.3472 20.6902 78.9902 19.838C78.6284 18.9858 78.138 18.2479 77.5096 17.6242C76.8812 17.0006 76.1433 16.5055 75.2911 16.1484C74.4389 15.7914 73.5296 15.6105 72.5727 15.6105C71.6158 15.6105 70.7113 15.7914 69.8734 16.1484C69.0355 16.5055 68.3023 17.0006 67.6739 17.6242C67.0455 18.2479 66.5456 18.9858 66.1743 19.838C65.803 20.6902 65.6125 21.5947 65.6125 22.5468C65.6125 23.499 65.7982 24.4035 66.1743 25.2366C66.5456 26.0745 67.0455 26.8029 67.6739 27.4313C68.2976 28.055 69.0355 28.5549 69.8734 28.9262C70.7113 29.2975 71.611 29.4832 72.5727 29.4832V32.4825C71.2111 32.4825 69.9258 32.2206 68.7118 31.7017C67.4978 31.1828 66.4409 30.4687 65.5316 29.5641C64.6271 28.6596 63.913 27.598 63.394 26.384C62.8751 25.17 62.6133 23.8846 62.6133 22.5278C62.6133 21.171 62.8751 19.8904 63.394 18.6907C63.913 17.4909 64.6271 16.4388 65.5364 15.5295C66.4457 14.625 67.5073 13.9109 68.7213 13.392C69.9353 12.873 71.2254 12.6112 72.587 12.6112L72.5918 12.6064Z" fill="white"/>
<path d="M23.3842 34.1204C21.9989 34.1204 20.6992 33.8586 19.4852 33.3397C18.2712 32.8207 17.2143 32.1066 16.305 31.2021C15.4005 30.2975 14.6864 29.2359 14.1675 28.0219C13.6486 26.8079 13.3867 25.5083 13.3867 24.1229C13.3867 22.7375 13.6486 21.4759 14.1675 20.2619C14.6864 19.048 15.4005 17.9911 16.305 17.0818C17.2096 16.1772 18.2712 15.4584 19.4852 14.9204C20.6992 14.3872 21.9989 14.1206 23.3842 14.1206C24.7696 14.1206 26.0312 14.3872 27.2452 14.9204C28.4592 15.4536 29.5161 16.1725 30.4254 17.0818C31.3299 17.9863 32.0488 19.048 32.5867 20.2619C33.1199 21.4759 33.3865 22.7613 33.3865 24.1229V26.0415H23.389V23.0422H30.3873C30.3873 22.2424 30.2064 21.4807 29.8493 20.7618C29.4875 20.0429 28.9876 19.4145 28.3497 18.8813C27.7117 18.3481 26.9643 17.9197 26.1121 17.6007C25.26 17.2817 24.3507 17.1199 23.3938 17.1199C22.4369 17.1199 21.4895 17.3008 20.6325 17.6578C19.7804 18.0196 19.0377 18.5195 18.414 19.1575C17.7856 19.7954 17.2953 20.5428 16.9335 21.395C16.5716 22.2472 16.3955 23.1565 16.3955 24.1134C16.3955 25.0703 16.5764 26.0177 16.9335 26.8746C17.2953 27.7268 17.7856 28.4694 18.414 29.0931C19.0425 29.7215 19.7804 30.2119 20.6325 30.5737C21.4847 30.9355 22.4035 31.1116 23.3938 31.1116V34.1109L23.3842 34.1204Z" fill="white"/>
</svg>
