<svg preserveAspectRatio="none" width="100%" height="100%" overflow="visible" style="display: block;" viewBox="0 0 96.0001 48.2499" fill="none" xmlns="http://www.w3.org/2000/svg">
<g id="Group">
<g id="Group_2">
<g id="Group_3">
<path id="Vector" d="M38.8571 42.537L37.1052 43.8176L36.7148 43.2844L37.9098 42.4132L37.348 41.6467L36.3292 42.3894L35.9483 41.8705L36.9671 41.1278L36.334 40.2661L35.139 41.1421L34.7486 40.6089L36.5006 39.3283L38.8571 42.5513V42.537Z" fill="var(--fill-0, white)"/>
<path id="Vector_2" d="M34.7627 42.0419C34.577 41.761 34.2961 41.5611 33.901 41.7896C33.6344 41.9467 33.563 42.1705 33.7106 42.418C33.9105 42.7655 34.2247 42.7037 34.5675 42.6608C35.2959 42.5513 35.8101 42.6608 36.1195 43.194C36.4623 43.7891 36.2242 44.4175 35.6387 44.7603C35.0245 45.1173 34.3676 44.8841 34.0105 44.3033L34.6008 43.9605C34.7675 44.2176 35.0007 44.3747 35.3197 44.189C35.5911 44.0319 35.6625 43.7796 35.5196 43.5368C35.3673 43.2702 35.0245 43.3035 34.6818 43.3559C33.9058 43.4749 33.4344 43.3273 33.1155 42.7703C32.7632 42.1609 32.9631 41.5801 33.5725 41.2278C34.239 40.8422 34.9674 41.0707 35.3578 41.7039L34.7627 42.0467V42.0419Z" fill="var(--fill-0, white)"/>
<path id="Vector_3" d="M31.7732 46.5885L31.5018 45.9791L32.4016 45.5792L31.0495 42.5371L31.6732 42.261L33.0252 45.3031L33.9107 44.9079L34.1821 45.5173L31.7732 46.5885Z" fill="var(--fill-0, white)"/>
<path id="Vector_4" d="M30.0973 47.1931C29.0261 47.5263 28.431 46.4647 28.1596 45.5982C27.8692 44.6842 27.9073 43.594 28.8785 43.2893C29.9306 42.9608 30.54 43.9701 30.8304 44.9079C31.097 45.7744 31.0732 46.8931 30.0973 47.1931ZM29.0785 43.932C28.4405 44.1319 28.7214 45.0746 28.8547 45.503C28.988 45.9362 29.3117 46.7313 29.8973 46.5456C30.521 46.3504 30.2639 45.4268 30.1163 44.9603C29.983 44.5366 29.6593 43.7511 29.0785 43.932Z" fill="var(--fill-0, white)"/>
<path id="Vector_5" d="M28.4738 47.6359L27.7407 47.7692L26.798 46.1696L26.4695 47.9977L25.7412 48.131L26.3172 45.4364L26.0554 44.0082L26.7361 43.8844L26.9932 45.3127L28.4738 47.6359Z" fill="var(--fill-0, white)"/>
<path id="Vector_6" d="M23.7132 48.2499L21.5423 48.2166L21.5518 47.5548L23.0324 47.5786L23.0467 46.6265L21.7851 46.6074L21.7946 45.9647L23.0562 45.9838L23.0705 44.9126L21.5851 44.8888L21.5946 44.2271L23.7703 44.2604L23.7084 48.2499H23.7132Z" fill="var(--fill-0, white)"/>
<path id="Vector_7" d="M21.5137 44.2318L20.8757 48.1832L20.2045 48.0737L19.3523 45.3458L18.9476 47.8737L18.2716 47.7642L18.9095 43.8128L19.576 43.9223L20.4282 46.6502L20.8329 44.127L21.5089 44.2365L21.5137 44.2318Z" fill="var(--fill-0, white)"/>
<path id="Vector_8" d="M16.7719 45.3935C16.6434 45.7172 16.4768 46.0314 16.234 46.2885C15.915 46.6361 15.4199 46.9407 14.8058 46.6979C13.9203 46.3457 13.9536 45.4697 14.1202 44.9032L14.7581 45.1555C14.7058 45.3792 14.6486 45.622 14.7915 45.822C14.8438 45.9172 14.9248 45.9838 15.0343 46.0267C15.0724 46.041 15.1104 46.0552 15.158 46.0648C15.3009 46.0838 15.4294 46.0362 15.5389 45.9743C15.7103 45.8839 15.8579 45.6839 15.9721 45.4602C16.0864 45.2412 16.1768 45.0079 16.2387 44.8317C16.3863 44.4176 16.6148 43.732 16.0721 43.5178C15.6389 43.3464 15.3961 43.6511 15.2485 43.9415L14.6106 43.6892C14.8724 43.1607 15.458 42.5514 16.3197 42.8941C16.5863 42.9989 16.7767 43.1655 16.9052 43.3797C17.229 43.932 17.0576 44.6699 16.8576 45.184L16.7719 45.3935Z" fill="var(--fill-0, white)"/>
<path id="Vector_9" d="M15.2533 42.5466L12.2302 45.422L11.6875 45.1126L12.6206 41.0422L13.2538 41.404L13.0443 42.2086L14.0298 42.7703L14.6153 42.18L15.2485 42.5418L15.2533 42.5466ZM12.8681 42.8751L12.5016 44.3033L13.5489 43.2654L12.8681 42.8751Z" fill="var(--fill-0, white)"/>
<path id="Vector_10" d="M10.2117 44.1937L9.66418 43.7843L11.6542 41.1373L10.5449 40.3042L10.9543 39.7567L12.6063 40.9992L10.2069 44.1937H10.2117Z" fill="var(--fill-0, white)"/>
<path id="Vector_11" d="M7.4315 41.9277L8.83591 39.3284L6.20799 40.6852L5.60338 40.071L8.45506 37.2717L8.93589 37.7621L7.12205 39.5331L9.50717 38.3429L9.84995 38.6904L8.51218 41.147L10.4117 39.2665L10.8878 39.7521L8.03611 42.5514L7.4315 41.9372V41.9277Z" fill="var(--fill-0, white)"/>
<path id="Vector_12" d="M8.49779 37.2955L4.54163 38.6285L4.17981 38.1191L6.74584 34.8246L7.16955 35.4197L6.64111 36.0624L7.29809 36.9908L8.07885 36.7051L8.50255 37.3002L8.49779 37.2955ZM6.19836 36.5861L5.26526 37.7287L6.65063 37.2288L6.19836 36.5861Z" fill="var(--fill-0, white)"/>
<path id="Vector_13" d="M2.66122 35.6674L2.35653 34.9914L3.67525 33.6869L1.82333 33.8107L1.51864 33.1347L4.27034 33.0395L5.59382 32.4396L5.87947 33.0728L4.55598 33.6727L2.66598 35.6722L2.66122 35.6674Z" fill="var(--fill-0, white)"/>
<path id="Vector_14" d="M2.75165 30.8829C2.40888 30.959 2.05659 31.0019 1.70905 30.9495C1.2425 30.8828 0.709302 30.6496 0.561719 30.0069C0.347487 29.0785 1.09016 28.612 1.64716 28.4216L1.79951 29.0881C1.58528 29.169 1.352 29.2642 1.26631 29.4975C1.2187 29.5975 1.20918 29.6974 1.23298 29.8117C1.2425 29.8498 1.25679 29.8926 1.27107 29.9355C1.33296 30.064 1.44721 30.1402 1.56147 30.1973C1.73286 30.283 1.98042 30.2925 2.22797 30.2592C2.47077 30.2306 2.71833 30.1687 2.89447 30.1164C3.31818 30.0069 4.01324 29.8022 3.8847 29.2356C3.77997 28.7786 3.39435 28.75 3.07062 28.7977L2.91828 28.1312C3.49909 28.0455 4.33697 28.1835 4.54169 29.0881C4.60834 29.3689 4.57977 29.6165 4.47503 29.845C4.20367 30.4258 3.49909 30.7067 2.96112 30.8305L2.74213 30.8829H2.75165Z" fill="var(--fill-0, white)"/>
<path id="Vector_15" d="M0.0619076 26.7839C-0.0285461 25.6651 1.13783 25.3128 2.04237 25.2366C2.99927 25.1557 4.05615 25.4271 4.14185 26.4411C4.2323 27.5408 3.11353 27.9169 2.13758 27.9931C1.23305 28.0645 0.147601 27.7931 0.0619076 26.7791V26.7839ZM3.47059 26.4982C3.41346 25.8317 2.43275 25.8984 1.98524 25.9365C1.53297 25.9746 0.685562 26.1174 0.73793 26.7267C0.790298 27.379 1.75196 27.3266 2.23756 27.2885C2.68031 27.2504 3.51819 27.1028 3.47059 26.4982Z" fill="var(--fill-0, white)"/>
<path id="Vector_16" d="M3.98949 24.8938L0 24.6081L0.0476072 23.9321L2.68981 22.8419L0.138061 22.661L0.185668 21.9802L4.17516 22.2659L4.12755 22.9371L1.49011 24.0273L4.03709 24.2082L3.98949 24.8938Z" fill="var(--fill-0, white)"/>
<path id="Vector_17" d="M2.39465 20.2663C2.05664 20.1711 1.72815 20.0378 1.44727 19.8283C1.06641 19.5474 0.714118 19.0904 0.890265 18.4525C1.14734 17.5336 2.01856 17.4765 2.59936 17.5813L2.4137 18.243C2.18518 18.2144 1.93762 18.1859 1.75196 18.3477C1.6615 18.4096 1.60437 18.4953 1.57105 18.6096C1.56153 18.6477 1.55201 18.6905 1.54724 18.7381C1.54248 18.8809 1.60437 19.0047 1.67578 19.1094C1.78528 19.2713 1.99951 19.3951 2.23279 19.4855C2.4613 19.576 2.7041 19.6426 2.88501 19.6807C3.30871 19.7855 4.01806 19.9426 4.17516 19.3808C4.29894 18.9285 3.97521 18.7191 3.67053 18.6048L3.8562 17.9431C4.40844 18.1478 5.07494 18.6667 4.82738 19.5617C4.75121 19.8378 4.60839 20.0425 4.40368 20.1949C3.88952 20.5758 3.13733 20.4853 2.60413 20.3377L2.38513 20.2758L2.39465 20.2663Z" fill="var(--fill-0, white)"/>
<path id="Vector_18" d="M1.98514 15.3724C2.43264 14.3394 3.62759 14.5821 4.46071 14.9392C5.34621 15.3201 6.15077 16.0532 5.74611 16.9911C5.30812 18.0003 4.1465 17.8099 3.24673 17.4195C2.4136 17.0577 1.58523 16.3103 1.9899 15.3724H1.98514ZM5.12721 16.7245C5.39381 16.1103 4.49404 15.7057 4.08461 15.5295C3.66567 15.3486 2.85635 15.0773 2.60879 15.639C2.34695 16.2389 3.21816 16.6483 3.67043 16.8387C4.07985 17.0149 4.88918 17.2815 5.12721 16.7197V16.7245Z" fill="var(--fill-0, white)"/>
<path id="Vector_19" d="M6.34124 15.5343L2.9278 13.4538L3.28009 12.8778L6.12701 13.1206L3.94659 11.7876L4.30365 11.2068L7.71709 13.2872L7.36479 13.8632L4.52264 13.6205L6.70305 14.9487L6.346 15.5343H6.34124Z" fill="var(--fill-0, white)"/>
<path id="Vector_20" d="M4.618 10.7402L5.09407 10.1594L7.77436 11.44L5.99861 9.05493L6.47468 8.47888L8.8598 11.8733L8.41229 12.416L4.618 10.7402Z" fill="var(--fill-0, white)"/>
<path id="Vector_21" d="M10.1927 10.464L9.70711 10.9448L6.89352 8.10264L7.37911 7.62181L10.1927 10.464Z" fill="var(--fill-0, white)"/>
<path id="Vector_22" d="M9.09297 8.55511C8.87398 8.28375 8.68831 7.97906 8.58357 7.64581C8.44075 7.19831 8.42171 6.6175 8.94063 6.20808C9.68806 5.61775 10.426 6.0843 10.8354 6.50324L10.2974 6.92695C10.1308 6.76984 9.94514 6.60322 9.70234 6.62226C9.59285 6.62226 9.49763 6.65558 9.40242 6.72699C9.36909 6.7508 9.34053 6.77936 9.3072 6.81745C9.21675 6.93171 9.19771 7.06501 9.19771 7.19355C9.19771 7.38874 9.29292 7.61249 9.42622 7.82196C9.55476 8.03143 9.71663 8.22186 9.84041 8.36468C10.1213 8.69793 10.6069 9.24066 11.0639 8.87408C11.4305 8.58368 11.2877 8.22186 11.1068 7.9505L11.6447 7.5268C11.9732 8.01715 12.2065 8.82647 11.4829 9.40252C11.2591 9.57867 11.0211 9.66436 10.7735 9.66436C10.1308 9.66912 9.57857 9.15496 9.23579 8.7265L9.09773 8.55035L9.09297 8.55511Z" fill="var(--fill-0, white)"/>
<path id="Vector_23" d="M11.4304 6.73157C11.2591 6.42689 11.1162 6.10316 11.0639 5.75563C10.9925 5.28908 11.0639 4.71303 11.6352 4.38454C12.4635 3.91323 13.1253 4.48451 13.4633 4.96535L12.8682 5.30336C12.7254 5.12245 12.573 4.92726 12.3255 4.91298C12.216 4.89394 12.116 4.91298 12.016 4.97487C11.9779 4.99391 11.9446 5.01771 11.9113 5.05104C11.8065 5.15101 11.7685 5.27955 11.7447 5.40809C11.7113 5.59852 11.7732 5.83656 11.878 6.06507C11.9779 6.29359 12.1065 6.50782 12.2064 6.66492C12.435 7.03626 12.8301 7.64563 13.3347 7.35523C13.7394 7.12195 13.6537 6.74586 13.5204 6.44593L14.1155 6.10792C14.3678 6.64112 14.4726 7.47901 13.668 7.9408C13.4204 8.08362 13.1729 8.12647 12.9253 8.09314C12.2921 8.00269 11.8208 7.4076 11.5495 6.93153L11.44 6.73634L11.4304 6.73157Z" fill="var(--fill-0, white)"/>
<path id="Vector_24" d="M15.6628 6.92677L15.0344 7.19337L13.4776 3.51333L14.1061 3.24673L15.6628 6.92677Z" fill="var(--fill-0, white)"/>
<path id="Vector_25" d="M16.153 2.4994C17.2337 2.19471 17.8002 3.27064 18.0478 4.14661C18.3096 5.07019 18.2478 6.15563 17.267 6.43176C16.2054 6.73168 15.6246 5.70813 15.3628 4.76074C15.12 3.88953 15.1771 2.77076 16.1578 2.49464L16.153 2.4994ZM17.0814 5.7843C17.7241 5.60339 17.4718 4.65125 17.348 4.22278C17.2242 3.78479 16.9243 2.98499 16.3339 3.15162C15.7055 3.32776 15.9388 4.26087 16.0721 4.72742C16.1911 5.15588 16.4958 5.95092 17.0814 5.7843Z" fill="var(--fill-0, white)"/>
<path id="Vector_26" d="M18.7001 5.99859L18.2907 2.01862L18.9667 1.94721L20.4996 4.3609L20.2378 1.81391L20.9186 1.7425L21.328 5.72246L20.6567 5.79388L19.1238 3.38019L19.3856 5.92242L18.7048 5.99383L18.7001 5.99859Z" fill="var(--fill-0, white)"/>
<path id="Vector_27" d="M22.8038 5.76526L23.3275 1.80433L24.3177 1.93287C25.0794 2.03285 25.4175 2.66126 25.5079 3.1897C25.5698 3.53248 25.546 3.84192 25.4984 4.18946C25.4603 4.44654 25.3984 4.70361 25.2889 4.94165C25.0699 5.45105 24.57 5.99377 23.7845 5.88903L22.8038 5.76049V5.76526ZM23.5703 5.19873L23.875 5.23682C24.532 5.32251 24.7414 4.61316 24.8128 4.10376L24.8366 3.92762C24.9033 3.41822 24.889 2.68031 24.232 2.59461L23.9226 2.55653L23.5751 5.20349L23.5703 5.19873Z" fill="var(--fill-0, white)"/>
<path id="Vector_28" d="M26.5221 2.29935L28.6168 2.88015L28.4407 3.51809L27.0125 3.12295L26.7554 4.04177L27.9694 4.37978L27.798 4.99868L26.584 4.66067L26.2983 5.69374L27.7266 6.08888L27.5504 6.72682L25.4557 6.14601L26.5269 2.29459L26.5221 2.29935Z" fill="var(--fill-0, white)"/>
<path id="Vector_29" d="M29.2166 3.11352L29.845 3.37536L28.5692 6.43175L29.8498 6.96495L29.588 7.59336L27.6789 6.79356L29.2214 3.104L29.2166 3.11352Z" fill="var(--fill-0, white)"/>
<path id="Vector_30" d="M34.6914 6.03185L34.3296 6.58885L33.1442 5.81761L32.5777 6.68883L33.6346 7.37437L33.2727 7.92662L32.2159 7.24107L31.3256 8.61216L30.7543 8.24082L32.93 4.88927L34.6867 6.03185H34.6914Z" fill="var(--fill-0, white)"/>
<path id="Vector_31" d="M35.1818 6.38885L35.7055 6.83636L34.0059 8.83587C33.7822 9.09771 33.5822 9.46904 33.9393 9.77373C34.2963 10.0784 34.6343 9.81658 34.8533 9.5595L36.5529 7.55999L37.0766 8.0075L35.377 10.007C34.8771 10.5973 34.163 10.8401 33.5108 10.2831C32.8729 9.7404 32.9538 9.01201 33.4822 8.39312L35.1818 6.39361V6.38885Z" fill="var(--fill-0, white)"/>
<path id="Vector_32" d="M39.2903 10.3785L38.7952 10.826L38.1383 10.0976L35.6627 12.3304L35.2056 11.821L37.6812 9.58818L37.029 8.86455L37.5241 8.41704L39.2951 10.3785H39.2903Z" fill="var(--fill-0, white)"/>
<path id="Vector_33" d="M39.6568 10.8497L40.0472 11.4162L37.8858 12.9063C37.6049 13.1015 37.3145 13.4062 37.5811 13.7966C37.8477 14.1822 38.2429 14.0156 38.519 13.8252L40.6804 12.3351L41.0707 12.9016L38.9094 14.3917C38.2714 14.8297 37.5192 14.882 37.0336 14.1727C36.5576 13.4824 36.8289 12.8016 37.4954 12.3398L39.6568 10.8497Z" fill="var(--fill-0, white)"/>
<path id="Vector_34" d="M42.1275 14.6107C42.6798 15.3296 42.3608 15.9295 41.9038 16.2865C41.5563 16.5531 41.1278 16.7293 40.6612 16.5198L39.7377 18.0575L39.3044 17.491L40.1042 16.1389L39.7948 15.739L38.6379 16.6245L38.219 16.0818L41.3896 13.6538L42.1228 14.6107H42.1275ZM40.328 15.3344L40.666 15.7724C40.8898 16.0628 41.204 15.9533 41.4277 15.7819C41.6515 15.6105 41.8467 15.3296 41.6039 15.0106L41.2849 14.5965L40.328 15.3296V15.3344Z" fill="var(--fill-0, white)"/>
<path id="Vector_35" d="M43.994 16.9672C44.6795 17.8575 43.8845 18.7858 43.1656 19.3381C42.4039 19.9236 41.3708 20.2664 40.7519 19.4571C40.0806 18.5811 40.8186 17.6623 41.5993 17.0672C42.3182 16.5197 43.3798 16.1579 43.9987 16.9672H43.994ZM41.2851 19.0477C41.6898 19.5809 42.48 18.9905 42.8371 18.7192C43.1989 18.4431 43.8321 17.867 43.456 17.3814C43.0561 16.8625 42.2801 17.4243 41.8897 17.7194C41.5374 17.9908 40.9138 18.5668 41.2803 19.0477H41.2851Z" fill="var(--fill-0, white)"/>
<path id="Vector_36" d="M44.6888 22.2374L43.9223 21.2376L44.4317 20.8472L45.1982 21.847L44.6888 22.2374Z" fill="var(--fill-0, white)"/>
<path id="Vector_37" d="M48.0451 22.3277L49.3638 24.0511L48.8354 24.4558L47.9356 23.2799L47.1787 23.8607L47.9451 24.8605L47.4357 25.2508L46.6693 24.2511L45.8219 24.9033L46.7264 26.0792L46.198 26.4839L44.8745 24.7557L48.0451 22.3277Z" fill="var(--fill-0, white)"/>
<path id="Vector_38" d="M47.7977 26.5077C47.5406 26.7267 47.3787 27.0314 47.6596 27.3932C47.8453 27.636 48.0833 27.6788 48.3071 27.5027C48.626 27.2599 48.5213 26.9552 48.4356 26.622C48.2357 25.9126 48.2737 25.3937 48.7641 25.0128C49.3068 24.5939 49.9638 24.751 50.3732 25.2842C50.8064 25.846 50.6589 26.5268 50.1304 26.9552L49.7162 26.4125C49.9495 26.2125 50.0733 25.965 49.8495 25.6746C49.6591 25.427 49.3973 25.3889 49.1735 25.5603C48.9307 25.746 49.0021 26.084 49.1021 26.4125C49.3211 27.1647 49.2306 27.6503 48.726 28.0407C48.169 28.4691 47.5644 28.3453 47.1359 27.7883C46.6694 27.1742 46.7979 26.4268 47.374 25.9602L47.7929 26.5029L47.7977 26.5077Z" fill="var(--fill-0, white)"/>
<path id="Vector_39" d="M52.8537 28.593L52.3252 28.9976L51.7254 28.2169L49.0832 30.245L48.6642 29.7022L51.3064 27.6742L50.7161 26.9029L51.2445 26.4983L52.8489 28.593H52.8537Z" fill="var(--fill-0, white)"/>
<path id="Vector_40" d="M53.8771 29.8498C54.5627 30.74 53.7676 31.6684 53.0487 32.2206C52.287 32.8062 51.2539 33.149 50.6351 32.3396C49.9638 31.4637 50.7017 30.5448 51.4825 29.9498C52.2013 29.4023 53.263 29.0405 53.8819 29.8498H53.8771ZM51.1683 31.9302C51.5729 32.4634 52.3632 31.8731 52.7203 31.6017C53.0821 31.3256 53.7152 30.7496 53.3391 30.264C52.9392 29.745 52.1632 30.3068 51.7729 30.602C51.4206 30.8733 50.7969 31.4494 51.1635 31.9302H51.1683Z" fill="var(--fill-0, white)"/>
<path id="Vector_41" d="M54.7675 31.0828L55.2197 31.6731L54.2295 33.2442L56.0053 32.7014L56.4575 33.287L53.801 34.0106L52.6489 34.8961L52.2252 34.3439L53.3773 33.4631L54.7627 31.0875L54.7675 31.0828Z" fill="var(--fill-0, white)"/>
<path id="Vector_42" d="M57.5191 34.677L58.8379 36.4004L58.3094 36.8051L57.4096 35.6292L56.6527 36.21L57.4192 37.2097L56.9098 37.6001L56.1433 36.6004L55.2959 37.2526L56.2004 38.4285L55.672 38.8332L54.3485 37.105L57.5191 34.677Z" fill="var(--fill-0, white)"/>
<path id="Vector_43" d="M55.9576 39.1998L59.1282 36.7671L59.5424 37.305L58.2903 39.8711L60.3184 38.3143L60.7326 38.857L57.5619 41.2898L57.1525 40.7566L58.4046 38.1905L56.3765 39.7425L55.9576 39.1998Z" fill="var(--fill-0, white)"/>
<path id="Vector_44" d="M61.4418 41.6848C61.6179 41.3801 61.8274 41.0993 62.0988 40.8755C62.4654 40.5756 62.9938 40.3471 63.5698 40.6755C64.3934 41.1516 64.2363 42.0086 63.9935 42.5465L63.3985 42.2037C63.4841 41.9895 63.5746 41.7562 63.4603 41.5372C63.4223 41.4373 63.3556 41.3563 63.2509 41.2992C63.2176 41.2802 63.1795 41.2611 63.1319 41.2468C62.9938 41.204 62.8605 41.2373 62.7415 41.2802C62.5606 41.3468 62.3844 41.523 62.2416 41.7277C62.094 41.9276 61.975 42.1466 61.8893 42.3132C61.6846 42.6989 61.3609 43.3463 61.8655 43.6367C62.2702 43.87 62.5558 43.6034 62.7415 43.3368L63.3366 43.6796C63.0033 44.1652 62.3368 44.6793 61.5323 44.2175C61.2847 44.0747 61.1181 43.8843 61.0229 43.651C60.7801 43.0559 61.0562 42.3513 61.3275 41.8753L61.4418 41.6801V41.6848Z" fill="var(--fill-0, white)"/>
<path id="Vector_45" d="M63.2557 45.1316L65.9502 41.9467L66.5215 42.1942L66.0359 46.3408L65.3647 46.0504L65.4837 45.2268L64.4411 44.7745L63.9222 45.4268L63.2509 45.1364L63.2557 45.1316ZM65.5884 44.546L65.7979 43.0892L64.8696 44.2366L65.5884 44.5508V44.546Z" fill="var(--fill-0, white)"/>
<path id="Vector_46" d="M67.9783 42.7655L68.6305 42.9607L67.6736 46.1361L69.0019 46.536L68.8067 47.1882L66.8215 46.5931L67.9736 42.7607L67.9783 42.7655Z" fill="var(--fill-0, white)"/>
<path id="Vector_47" d="M71.2776 43.632L71.7822 46.5456L73.0105 43.851L73.8674 43.9605L73.358 47.9262L72.6773 47.8405L73.0105 45.3221L71.8727 47.7357L71.3871 47.6739L70.9158 44.9174L70.5873 47.5739L69.9113 47.4882L70.4207 43.5225L71.2776 43.632Z" fill="var(--fill-0, white)"/>
<path id="Vector_48" d="M74.6149 47.9357L75.4576 43.851L76.0812 43.7987L77.6332 47.6739L76.9048 47.7358L76.6192 46.955L75.4861 47.055L75.3386 47.8738L74.6102 47.9357H74.6149ZM76.3859 46.3076L75.8718 44.927L75.6052 46.3742L76.3859 46.3028V46.3076Z" fill="var(--fill-0, white)"/>
<path id="Vector_49" d="M78.7042 43.3416L79.3993 43.075L80.6275 44.4651L80.6037 42.6085L81.294 42.3419L81.2417 45.0936L81.7701 46.4456L81.1226 46.6979L80.599 45.3459L78.709 43.3511L78.7042 43.3416Z" fill="var(--fill-0, white)"/>
<path id="Vector_50" d="M83.8745 43.0227C83.665 42.7418 83.4889 42.4324 83.3984 42.0944C83.2699 41.6421 83.2746 41.0613 83.8031 40.6662C84.5695 40.0996 85.2932 40.59 85.6883 41.028L85.1361 41.4374C84.9742 41.2755 84.7981 41.0994 84.5505 41.1137C84.441 41.1137 84.3458 41.1422 84.2506 41.2089C84.2172 41.2327 84.1839 41.2612 84.1554 41.2946C84.0601 41.4041 84.0363 41.5374 84.0316 41.6659C84.0221 41.8611 84.1125 42.0896 84.241 42.3038C84.3648 42.5181 84.5172 42.7133 84.6362 42.8608C84.9076 43.2036 85.3741 43.7606 85.8407 43.4131C86.2167 43.1322 86.0882 42.7704 85.9168 42.4895L86.4691 42.0801C86.7785 42.58 86.988 43.3988 86.2406 43.9511C86.012 44.1224 85.7692 44.1939 85.5217 44.1891C84.879 44.1748 84.3458 43.6416 84.0173 43.1989L83.884 43.018L83.8745 43.0227Z" fill="var(--fill-0, white)"/>
<path id="Vector_51" d="M86.1025 38.6189C86.8737 37.8048 87.9116 38.438 88.5733 39.0616C89.2731 39.7186 89.773 40.685 89.0732 41.4277C88.3162 42.2275 87.2927 41.6467 86.5786 40.9707C85.9216 40.347 85.3979 39.3568 86.0977 38.6189H86.1025ZM88.5876 40.9612C89.0446 40.4756 88.3448 39.79 88.0163 39.4806C87.6878 39.1664 87.0165 38.6332 86.5976 39.0807C86.1453 39.5567 86.8261 40.2328 87.1784 40.5708C87.5021 40.8755 88.1686 41.4039 88.5876 40.9612Z" fill="var(--fill-0, white)"/>
<path id="Vector_52" d="M90.7681 39.4045L87.4546 37.167L87.8355 36.6052L90.6681 36.9813L88.5496 35.5483L88.9304 34.9818L92.2439 37.2193L91.8678 37.7763L89.0352 37.405L91.1537 38.8332L90.7681 39.3997V39.4045Z" fill="var(--fill-0, white)"/>
<path id="Vector_53" d="M91.6059 33.9202C91.2822 33.7869 90.968 33.6203 90.7109 33.3775C90.3634 33.0585 90.0635 32.5586 90.311 31.9493C90.6681 31.0638 91.544 31.1066 92.1058 31.2732L91.8487 31.9112C91.625 31.8588 91.3822 31.8017 91.1822 31.9398C91.087 31.9921 91.0204 32.0683 90.9775 32.1778C90.9632 32.2159 90.949 32.254 90.9394 32.3016C90.9156 32.4444 90.968 32.5729 91.0299 32.6824C91.1203 32.8538 91.3203 33.0014 91.5393 33.1157C91.7583 33.2347 91.9915 33.3204 92.1677 33.3823C92.5771 33.5346 93.2674 33.7679 93.4864 33.2251C93.6626 32.7919 93.3579 32.5444 93.0675 32.3968L93.3245 31.7588C93.853 32.0207 94.4576 32.6158 94.1101 33.4727C94.0006 33.7393 93.8387 33.925 93.6197 34.0535C93.0627 34.3772 92.3248 34.2011 91.8154 33.9964L91.6059 33.9107V33.9202Z" fill="var(--fill-0, white)"/>
<path id="Vector_54" d="M91.2679 29.0214C91.544 27.9312 92.7628 27.9788 93.6435 28.2026C94.5766 28.4359 95.4859 29.0357 95.2384 30.0212C94.967 31.0876 93.7863 31.0828 92.839 30.84C91.963 30.6163 91.0204 30.0069 91.2727 29.0214H91.2679ZM94.5814 29.8593C94.7432 29.2119 93.7959 28.9548 93.3626 28.8453C92.9199 28.7358 92.0772 28.593 91.9249 29.1881C91.763 29.8212 92.6866 30.0831 93.1627 30.2068C93.5912 30.3163 94.4338 30.4496 94.5814 29.8593Z" fill="var(--fill-0, white)"/>
<path id="Vector_55" d="M95.7287 27.5266L91.7488 27.1172L91.8202 26.4412L94.4957 25.4366L91.9487 25.1748L92.0201 24.494L96.0001 24.9034L95.9287 25.5747L93.2532 26.5792L95.7954 26.8411L95.724 27.5218L95.7287 27.5266Z" fill="var(--fill-0, white)"/>
<path id="Vector_56" d="M92.0486 24.1083L92.0201 23.3609L94.8718 22.5277L91.9582 21.9327L91.9296 21.1852L95.9715 22.1326L96 22.8324L92.0534 24.1083H92.0486Z" fill="var(--fill-0, white)"/>
<path id="Vector_57" d="M95.6762 19.5048L95.7762 20.1808L91.8248 20.7807L91.7248 20.1046L95.6762 19.5048Z" fill="var(--fill-0, white)"/>
<path id="Vector_58" d="M93.4722 18.9715C93.1341 19.0619 92.7819 19.119 92.4343 19.081C91.963 19.0333 91.425 18.8239 91.2489 18.1859C90.9966 17.2671 91.7202 16.7672 92.2725 16.5578L92.4534 17.2195C92.2439 17.31 92.0154 17.4147 91.9392 17.648C91.8964 17.748 91.8868 17.8527 91.9202 17.9622C91.9297 18.0003 91.944 18.0431 91.963 18.086C92.0297 18.2145 92.1487 18.2859 92.2677 18.3383C92.4438 18.4192 92.6914 18.4145 92.939 18.3764C93.1818 18.3383 93.4245 18.2669 93.6007 18.2097C94.0196 18.0812 94.7099 17.8479 94.5528 17.2862C94.4291 16.8339 94.0387 16.8244 93.7197 16.8815L93.5388 16.2198C94.1196 16.1103 94.9575 16.2198 95.2003 17.11C95.2765 17.3861 95.2574 17.6385 95.1622 17.867C94.9147 18.4621 94.2244 18.7667 93.6912 18.9096L93.4722 18.9667V18.9715Z" fill="var(--fill-0, white)"/>
<path id="Vector_59" d="M92.5152 15.7246C92.1963 15.8722 91.863 15.9817 91.5107 16.0055C91.0394 16.0388 90.4729 15.9198 90.192 15.3199C89.7921 14.4535 90.4205 13.8441 90.9251 13.5442L91.2156 14.1678C91.0251 14.2916 90.8157 14.4344 90.7823 14.6772C90.7538 14.782 90.768 14.8867 90.8156 14.9914C90.8347 15.0295 90.8537 15.0676 90.8823 15.1057C90.9728 15.2199 91.0965 15.2676 91.2251 15.3009C91.4107 15.3532 91.6583 15.3056 91.8916 15.2247C92.1249 15.1485 92.3486 15.0343 92.5152 14.9486C92.9056 14.7534 93.5483 14.4106 93.3007 13.8774C93.1056 13.4537 92.7199 13.5061 92.4105 13.6156L92.1201 12.9919C92.6723 12.7872 93.5197 12.7491 93.9101 13.5918C94.0291 13.8536 94.0577 14.1012 94.0006 14.344C93.8578 14.9676 93.2246 15.3866 92.7247 15.6198L92.52 15.7151L92.5152 15.7246Z" fill="var(--fill-0, white)"/>
<path id="Vector_60" d="M92.4009 10.9592L92.7579 11.54L89.3635 13.6442L89.0065 13.0634L92.4009 10.964V10.9592Z" fill="var(--fill-0, white)"/>
<path id="Vector_61" d="M87.7878 11.4543C87.088 10.5736 87.8688 9.6357 88.5781 9.06917C89.3303 8.46932 90.3586 8.11227 90.9918 8.90731C91.6774 9.769 90.9537 10.7069 90.1825 11.3115C89.4684 11.8732 88.4163 12.2493 87.7831 11.4495L87.7878 11.4543ZM90.4634 9.33101C90.0492 8.80733 89.2684 9.40718 88.9161 9.6833C88.5591 9.96419 87.9354 10.5498 88.3163 11.0354C88.7209 11.5495 89.4922 10.9735 89.8778 10.6688C90.2253 10.3927 90.8442 9.80708 90.4634 9.33101Z" fill="var(--fill-0, white)"/>
<path id="Vector_62" d="M89.2589 6.96012L86.5596 9.90701L86.0597 9.44998L86.85 6.70304L85.1219 8.58829L84.6172 8.1265L87.3166 5.17961L87.8117 5.63664L87.0262 8.38358L88.7543 6.49833L89.2589 6.96012Z" fill="var(--fill-0, white)"/>
<path id="Vector_63" d="M84.8361 3.40403L82.8842 6.89364L82.013 6.40805C81.3417 6.03671 81.2608 5.32261 81.3703 4.79893C81.4369 4.45615 81.5798 4.18003 81.7511 3.87058C81.8797 3.64683 82.0368 3.42784 82.2225 3.24693C82.6128 2.85655 83.2793 2.53282 83.9696 2.91844L84.8361 3.40403ZM83.9125 3.64683L83.6459 3.49925C83.0651 3.17552 82.6081 3.75633 82.3558 4.2086L82.2701 4.3657C82.0177 4.81321 81.7607 5.50351 82.3415 5.82724L82.6128 5.97958L83.9173 3.64683H83.9125Z" fill="var(--fill-0, white)"/>
<path id="Vector_64" d="M80.1944 5.46531L78.1568 4.70836L78.39 4.0847L79.7802 4.59886L80.1134 3.70384L78.9328 3.26586L79.1565 2.66124L80.3372 3.09923L80.7085 2.09472L79.3184 1.5758L79.5469 0.952145L81.5845 1.7091L80.1944 5.45579V5.46531Z" fill="var(--fill-0, white)"/>
<path id="Vector_65" d="M77.6807 4.58459L77.0142 4.44177L77.7092 1.20447L76.3524 0.914068L76.4953 0.247567L78.5186 0.680793L77.6807 4.58459Z" fill="var(--fill-0, white)"/>
<path id="Vector_66" d="M71.7202 4.00377V3.34203L73.1247 3.33251L73.1151 2.29467L71.8535 2.30419V1.64245L73.1104 1.63293L73.0961 0H73.7769L73.8054 3.98949L71.7107 4.00377H71.7202Z" fill="var(--fill-0, white)"/>
<path id="Vector_67" d="M71.2823 4.04189L70.6016 4.15614L70.1588 1.56631C70.1017 1.2283 69.9446 0.833158 69.478 0.91409C69.0115 0.995023 69.002 1.41873 69.0591 1.75674L69.5018 4.34181L68.821 4.45607L68.3783 1.871C68.2498 1.10928 68.5211 0.404693 69.3685 0.261871C70.1921 0.119049 70.7015 0.652251 70.8396 1.45205L71.2823 4.04189Z" fill="var(--fill-0, white)"/>
<path id="Vector_68" d="M65.9074 5.45096L65.6836 4.82255L66.612 4.49406L65.5027 1.35198L66.1502 1.12347L67.2594 4.26554L68.1783 3.94181L68.402 4.57023L65.9122 5.45096H65.9074Z" fill="var(--fill-0, white)"/>
<path id="Vector_69" d="M65.5123 5.64148L64.9077 5.96997L63.6508 3.66578C63.4842 3.36585 63.2129 3.04212 62.7987 3.27064C62.3845 3.49915 62.513 3.90381 62.6749 4.20374L63.9317 6.50793L63.3271 6.83642L62.0703 4.53223C61.6989 3.85144 61.7275 3.09925 62.4797 2.68983C63.2129 2.28993 63.8651 2.62794 64.2554 3.33729L65.5123 5.64148Z" fill="var(--fill-0, white)"/>
<path id="Vector_70" d="M61.7941 7.93621C61.0657 8.48369 60.4706 8.1552 60.1184 7.69341C59.8565 7.34112 59.6851 6.91266 59.8946 6.4461L58.3616 5.50824L58.9329 5.07978L60.2802 5.89386L60.6849 5.58917L59.8089 4.4228L60.3564 4.01337L62.7558 7.21258L61.7894 7.93621H61.7941ZM61.0895 6.12714L60.6468 6.46039C60.3516 6.67938 60.4611 6.99835 60.6278 7.2221C60.7991 7.45062 61.0753 7.64581 61.399 7.40777L61.8179 7.09356L61.0943 6.12714H61.0895Z" fill="var(--fill-0, white)"/>
<path id="Vector_71" d="M59.5424 9.9357C58.7425 10.7212 57.7285 10.05 57.0906 9.4025C56.4146 8.71696 55.9528 7.73625 56.6764 7.02214C57.4619 6.2509 58.4664 6.8698 59.1472 7.56962C59.7804 8.21708 60.266 9.22159 59.5376 9.9357H59.5424ZM57.1477 7.50297C56.6716 7.96952 57.3477 8.68363 57.6619 9.0026C57.9808 9.32633 58.6283 9.88334 59.0663 9.45487C59.5328 8.99784 58.8806 8.29325 58.5378 7.94572C58.2284 7.63151 57.5809 7.07927 57.1477 7.50297Z" fill="var(--fill-0, white)"/>
</g>
<path id="Vector_72" d="M15.9675 2.10431L16.8625 1.01886L17.1958 1.47113L15.9675 2.10431Z" fill="var(--fill-0, white)"/>
<path id="Vector_73" d="M87.526 11.5875L86.2168 11.0734L86.5452 10.6163L87.526 11.5875Z" fill="var(--fill-0, white)"/>
</g>
<path id="Vector_74" d="M72.5915 12.6064C73.9531 12.6064 75.2337 12.8587 76.4382 13.3681C77.6379 13.8727 78.6948 14.5726 79.6041 15.4676C80.5134 16.3626 81.2275 17.4147 81.7464 18.6287C82.2653 19.8427 82.5272 21.1424 82.5272 22.5277V32.4824H79.5279V22.5515C79.5279 21.5946 79.347 20.6901 78.9899 19.8379C78.6281 18.9858 78.1378 18.2478 77.5094 17.6242C76.8809 17.0005 76.143 16.5054 75.2909 16.1484C74.4387 15.7913 73.5294 15.6104 72.5725 15.6104C71.6156 15.6104 70.711 15.7913 69.8732 16.1484C69.0353 16.5054 68.3021 17.0005 67.6737 17.6242C67.0453 18.2478 66.5454 18.9858 66.1741 19.8379C65.8027 20.6901 65.6123 21.5946 65.6123 22.5468C65.6123 23.4989 65.798 24.4035 66.1741 25.2366C66.5454 26.0745 67.0453 26.8029 67.6737 27.4313C68.2974 28.0549 69.0353 28.5548 69.8732 28.9262C70.711 29.2975 71.6108 29.4832 72.5725 29.4832V32.4824C71.2109 32.4824 69.9255 32.2206 68.7115 31.7017C67.4976 31.1827 66.4407 30.4686 65.5314 29.5641C64.6268 28.6596 63.9127 27.5979 63.3938 26.3839C62.8749 25.1699 62.6131 23.8845 62.6131 22.5277C62.6131 21.1709 62.8749 19.8903 63.3938 18.6906C63.9127 17.4909 64.6268 16.4388 65.5361 15.5295C66.4454 14.6249 67.5071 13.9108 68.7211 13.3919C69.935 12.873 71.2252 12.6111 72.5868 12.6111L72.5915 12.6064Z" fill="var(--fill-0, white)"/>
<path id="Vector_75" d="M23.3847 34.1202C21.9994 34.1202 20.6997 33.8583 19.4857 33.3394C18.2717 32.8205 17.2148 32.1064 16.3055 31.2019C15.401 30.2973 14.6869 29.2357 14.168 28.0217C13.6491 26.8077 13.3872 25.508 13.3872 24.1227C13.3872 22.7373 13.6491 21.4757 14.168 20.2617C14.6869 19.0477 15.401 17.9909 16.3055 17.0816C17.2101 16.177 18.2717 15.4581 19.4857 14.9202C20.6997 14.387 21.9994 14.1204 23.3847 14.1204C24.7701 14.1204 26.0317 14.387 27.2457 14.9202C28.4597 15.4534 29.5165 16.1723 30.4258 17.0816C31.3304 17.9861 32.0492 19.0477 32.5872 20.2617C33.1204 21.4757 33.387 22.7611 33.387 24.1227V26.0412H23.3895V23.042H30.3878C30.3878 22.2422 30.2069 21.4805 29.8498 20.7616C29.488 20.0427 28.9881 19.4143 28.3502 18.8811C27.7122 18.3479 26.9648 17.9194 26.1126 17.6005C25.2605 17.2815 24.3512 17.1196 23.3943 17.1196C22.4373 17.1196 21.49 17.3005 20.633 17.6576C19.7809 18.0194 19.0382 18.5193 18.4145 19.1572C17.7861 19.7952 17.2958 20.5426 16.934 21.3948C16.5721 22.2469 16.396 23.1562 16.396 24.1131C16.396 25.07 16.5769 26.0174 16.934 26.8744C17.2958 27.7265 17.7861 28.4692 18.4145 29.0929C19.043 29.7213 19.7809 30.2116 20.633 30.5734C21.4852 30.9353 22.404 31.1114 23.3943 31.1114V34.1107L23.3847 34.1202Z" fill="var(--fill-0, white)"/>
</g>
</svg>
