<svg preserveAspectRatio="none" width="100%" height="100%" overflow="visible" style="display: block;" viewBox="0 0 14 16" fill="none" xmlns="http://www.w3.org/2000/svg">
<path id="Primary" d="M11.7812 6.53125L7.53125 10.7812C7.2375 11.075 6.7625 11.075 6.47188 10.7812L2.21875 6.53125C1.925 6.2375 1.925 5.7625 2.21875 5.47188C2.5125 5.18125 2.9875 5.17813 3.27813 5.47188L6.24687 8.44063V0.75C6.24687 0.334375 6.58125 0 6.99687 0C7.4125 0 7.74687 0.334375 7.74687 0.75V8.44063L10.7156 5.47188C11.0094 5.17813 11.4844 5.17813 11.775 5.47188C12.0656 5.76563 12.0687 6.24062 11.775 6.53125H11.7812ZM1.5 10.75V13C1.5 13.8281 2.17188 14.5 3 14.5H11C11.8281 14.5 12.5 13.8281 12.5 13V10.75C12.5 10.3344 12.8344 10 13.25 10C13.6656 10 14 10.3344 14 10.75V13C14 14.6562 12.6562 16 11 16H3C1.34375 16 0 14.6562 0 13V10.75C0 10.3344 0.334375 10 0.75 10C1.16563 10 1.5 10.3344 1.5 10.75Z" fill="var(--fill-0, #F6F7F9)"/>
</svg>
