<svg preserveAspectRatio="none" width="100%" height="100%" overflow="visible" style="display: block;" viewBox="0 0 100.718 100" fill="none" xmlns="http://www.w3.org/2000/svg">
<g id="Group">
<path id="Vector" d="M69.7248 31.5634C69.6991 31.5988 69.6726 31.6338 69.646 31.6687C69.6618 31.6235 69.6772 31.5774 69.6935 31.5317L69.7248 31.563V31.5634Z" fill="var(--fill-0, #AFEAFF)"/>
<path id="Vector_2" d="M73.9319 93.718C66.7678 97.7196 58.5111 100 49.7222 100C22.2611 100 0 77.7386 0 50.2786C0 22.8186 21.1824 1.65177 47.7102 0.595922L47.1138 51.2716L73.9314 93.718H73.9319Z" fill="var(--fill-0, #9EE5FF)"/>
<path id="Vector_3" d="M71.7219 4.44667L53.038 48.7555L53.0357 48.9247L99.1751 61.9951C100.183 58.0499 100.718 53.9164 100.718 49.6572C100.718 29.5928 88.8346 12.305 71.7219 4.44667ZM70.9205 31.047C70.9363 31.0018 70.9517 30.9557 70.968 30.91L70.9992 30.9412C70.9736 30.9766 70.947 31.0116 70.9205 31.0465V31.047Z" fill="var(--fill-0, #00A7E4)"/>
<path id="Vector_4" d="M99.1751 61.9943C96.1021 74.0308 88.6371 84.3102 78.5878 91.0259L53.0357 48.9234L99.1751 61.9938V61.9943Z" fill="var(--fill-0, #00A7E4)"/>
<path id="Vector_5" d="M71.7219 4.44659L53.038 48.7555L53.565 0C60.019 0.328031 66.1477 1.88758 71.7219 4.44659Z" fill="var(--fill-0, white)"/>
</g>
</svg>
