<svg width="510" height="553" viewBox="0 0 510 553" fill="none" xmlns="http://www.w3.org/2000/svg">
<path d="M269.154 495.472C266.774 487.218 257.64 482.318 248.735 484.527C239.843 486.736 234.563 495.225 236.943 503.479C239.323 511.732 248.458 516.633 257.362 514.424C266.255 512.214 271.534 503.725 269.154 495.472ZM258.341 464.521L253.061 467.38L247.781 464.521L171.688 423.264V427.043L247.781 468.3L249.557 469.264L253.061 471.171L256.553 469.264L258.341 468.3L332.839 427.907V424.117L258.341 464.521ZM258.341 464.521L253.061 467.38L247.781 464.521L171.688 423.264V427.043L247.781 468.3L249.557 469.264L253.061 471.171L256.553 469.264L258.341 468.3L332.839 427.907V424.117L258.341 464.521ZM269.154 495.472C266.774 487.218 257.64 482.318 248.735 484.527C239.843 486.736 234.563 495.225 236.943 503.479C239.323 511.732 248.458 516.633 257.362 514.424C266.255 512.214 271.534 503.725 269.154 495.472ZM269.154 495.472C266.774 487.218 257.64 482.318 248.735 484.527C239.843 486.736 234.563 495.225 236.943 503.479C239.323 511.732 248.458 516.633 257.362 514.424C266.255 512.214 271.534 503.725 269.154 495.472ZM258.341 464.521L253.061 467.38L247.781 464.521L171.688 423.264V427.043L247.781 468.3L249.557 469.264L253.061 471.171L256.553 469.264L258.341 468.3L332.839 427.907V424.117L258.341 464.521ZM258.341 464.521L253.061 467.38L247.781 464.521L171.688 423.264V427.043L247.781 468.3L249.557 469.264L253.061 471.171L256.553 469.264L258.341 468.3L332.839 427.907V424.117L258.341 464.521ZM269.154 495.472C266.774 487.218 257.64 482.318 248.735 484.527C239.843 486.736 234.563 495.225 236.943 503.479C239.323 511.732 248.458 516.633 257.362 514.424C266.255 512.214 271.534 503.725 269.154 495.472ZM269.154 495.472C266.774 487.218 257.64 482.318 248.735 484.527C239.843 486.736 234.563 495.225 236.943 503.479C239.323 511.732 248.458 516.633 257.362 514.424C266.255 512.214 271.534 503.725 269.154 495.472ZM258.341 464.521L253.061 467.38L247.781 464.521L171.688 423.264V427.043L247.781 468.3L249.557 469.264L253.061 471.171L256.553 469.264L258.341 468.3L332.839 427.907V424.117L258.341 464.521ZM253.061 467.38L247.781 464.521L171.688 423.264V427.043L247.781 468.3L249.557 469.264L253.061 471.171L256.553 469.264L258.341 468.3L332.839 427.907V424.117L258.341 464.521L253.061 467.38ZM248.735 484.516C239.843 486.725 234.563 495.214 236.943 503.467C239.323 511.721 248.458 516.622 257.362 514.412C266.255 512.203 271.534 503.714 269.154 495.461C266.774 487.207 257.64 482.306 248.735 484.516ZM253.061 467.38L247.781 464.521L171.688 423.264V427.043L247.781 468.3L249.557 469.264L253.061 471.171L256.553 469.264L258.341 468.3L332.839 427.907V424.117L258.341 464.521L253.061 467.38ZM248.735 484.516C239.843 486.725 234.563 495.214 236.943 503.467C239.323 511.721 248.458 516.622 257.362 514.412C266.255 512.203 271.534 503.714 269.154 495.461C266.774 487.207 257.64 482.306 248.735 484.516ZM269.154 495.461C266.774 487.207 257.64 482.306 248.735 484.516C239.843 486.725 234.563 495.214 236.943 503.467C239.323 511.721 248.458 516.622 257.362 514.412C266.255 512.203 271.534 503.714 269.154 495.461ZM258.341 464.51L253.061 467.369L247.781 464.51L171.688 423.253V427.032L247.781 468.289L249.557 469.253L253.061 471.16L256.553 469.253L258.341 468.289L332.839 427.896V424.105L258.341 464.51ZM258.341 464.51L253.061 467.369L247.781 464.51L171.688 423.253V427.032L247.781 468.289L249.557 469.253L253.061 471.16L256.553 469.253L258.341 468.289L332.839 427.896V424.105L258.341 464.51ZM269.154 495.461C266.774 487.207 257.64 482.306 248.735 484.516C239.843 486.725 234.563 495.214 236.943 503.467C239.323 511.721 248.458 516.622 257.362 514.412C266.255 512.203 271.534 503.714 269.154 495.461ZM269.154 495.461C266.774 487.207 257.64 482.306 248.735 484.516C239.843 486.725 234.563 495.214 236.943 503.467C239.323 511.721 248.458 516.622 257.362 514.412C266.255 512.203 271.534 503.714 269.154 495.461ZM258.341 464.51L253.061 467.369L247.781 464.51L171.688 423.253V427.032L247.781 468.289L249.557 469.253L253.061 471.16L256.553 469.253L258.341 468.289L332.839 427.896V424.105L258.341 464.51ZM258.341 464.51L253.061 467.369L247.781 464.51L171.688 423.253V427.032L247.781 468.289L249.557 469.253L253.061 471.16L256.553 469.253L258.341 468.289L332.839 427.896V424.105L258.341 464.51ZM269.154 495.461C266.774 487.207 257.64 482.306 248.735 484.516C239.843 486.725 234.563 495.214 236.943 503.467C239.323 511.721 248.458 516.622 257.362 514.412C266.255 512.203 271.534 503.714 269.154 495.461ZM251.551 296.444V450.559H255.006V296.444H251.551ZM73.5804 184.73V184.864L77.0721 186.759V186.625L73.5804 184.73ZM73.5441 266.29V268.196H77.06L73.5441 266.29ZM432.179 265.65H432.143V268.207H432.565V265.449L432.179 265.662V265.65ZM65.6786 160.406C63.2984 152.153 54.1643 147.252 45.2598 149.461C36.3673 151.67 31.0874 160.16 33.4676 168.413C35.8478 176.655 44.9819 181.567 53.8864 179.358C62.7789 177.149 68.0588 168.66 65.6786 160.406ZM478.707 160.406C476.327 152.153 467.193 147.252 458.288 149.461C449.396 151.67 444.116 160.16 446.496 168.413C448.876 176.655 458.011 181.567 466.915 179.358C475.808 177.149 481.087 168.66 478.707 160.406ZM72.6379 184.359L73.5441 184.853V182.913L72.6379 184.359ZM73.5804 184.741V184.875L77.0721 186.771V186.636L73.5804 184.741ZM78.6911 176.297L77.9662 175.904L77.2171 177.104L77.1204 177.25L78.7878 176.353L78.6911 176.308V176.297ZM73.5804 184.741V184.875L77.0721 186.771V186.636L73.5804 184.741ZM253.061 81.8516L171.639 126.013L175.228 127.841L253.061 85.6419L335.147 130.173H335.159L338.675 128.3L253.061 81.874V81.8516ZM429.038 286.251V371.96L350.455 414.585V418.364L431.684 374.326L432.553 373.844V284.367L429.038 286.262V286.251ZM77.0721 371.949V287.092L73.5562 285.185V373.821L154.084 417.478V413.699L77.0721 371.937V371.949ZM478.707 160.395C476.327 152.141 467.193 147.241 458.288 149.45C449.396 151.659 444.116 160.148 446.496 168.402C448.876 176.644 458.011 181.556 466.915 179.347C475.808 177.138 481.087 168.649 478.707 160.395ZM429.038 286.239V371.949L350.455 414.573V418.353L431.684 374.315L432.553 373.833V284.355L429.038 286.251V286.239ZM72.6379 184.359L73.5441 184.853V182.913L72.6379 184.359ZM73.5804 184.741V184.875L77.0721 186.771V186.636L73.5804 184.741ZM432.179 265.662H432.143V268.218H432.565V265.46L432.179 265.673V265.662ZM253.061 81.8404L171.639 126.001L175.228 127.829L253.061 85.6307L335.147 130.162H335.159L338.675 128.289L253.061 81.8628V81.8404ZM251.551 296.455V450.571H255.006V296.455H251.551ZM77.0721 371.949V287.092L73.5562 285.185V373.821L154.084 417.478V413.699L77.0721 371.937V371.949ZM78.7032 176.285L77.9783 175.893L77.2292 177.093L77.1325 177.239L78.7998 176.341L78.7032 176.297V176.285ZM73.5562 266.301V268.207H77.0721L73.5562 266.301ZM65.6786 160.406C63.2984 152.153 54.1643 147.252 45.2598 149.461C36.3673 151.67 31.0874 160.16 33.4676 168.413C35.8478 176.655 44.9819 181.567 53.8864 179.358C62.7789 177.149 68.0588 168.66 65.6786 160.406ZM65.6786 160.406C63.2984 152.153 54.1643 147.252 45.2598 149.461C36.3673 151.67 31.0874 160.16 33.4676 168.413C35.8478 176.655 44.9819 181.567 53.8864 179.358C62.7789 177.149 68.0588 168.66 65.6786 160.406ZM72.6379 184.359L73.5441 184.853V182.913L72.6379 184.359ZM73.5804 184.741V184.875L77.0721 186.771V186.636L73.5804 184.741ZM73.5441 266.301V268.207H77.06L73.5441 266.301ZM78.6911 176.285L77.9662 175.893L77.2171 177.093L77.1204 177.239L78.7878 176.341L78.6911 176.297V176.285ZM77.06 371.949V287.092L73.5441 285.185V373.821L154.072 417.478V413.699L77.06 371.937V371.949ZM251.538 296.455V450.571H254.994V296.455H251.538ZM253.049 81.8404L171.627 126.001L175.215 127.829L253.049 85.6307L335.135 130.162H335.147L338.663 128.289L253.049 81.8628V81.8404ZM432.167 265.65H432.131V268.207H432.553V265.449L432.167 265.662V265.65ZM429.038 286.239V371.949L350.455 414.573V418.353L431.684 374.315L432.553 373.833V284.355L429.038 286.251V286.239ZM478.707 160.395C476.327 152.141 467.193 147.241 458.288 149.45C449.396 151.659 444.116 160.148 446.496 168.402C448.876 176.644 458.011 181.556 466.915 179.347C475.808 177.138 481.087 168.649 478.707 160.395ZM478.707 160.395C476.327 152.141 467.193 147.241 458.288 149.45C449.396 151.659 444.116 160.148 446.496 168.402C448.876 176.644 458.011 181.556 466.915 179.347C475.808 177.138 481.087 168.649 478.707 160.395ZM429.038 286.239V371.949L350.455 414.573V418.353L431.684 374.315L432.553 373.833V284.355L429.038 286.251V286.239ZM432.167 265.65H432.131V268.207H432.553V265.449L432.167 265.662V265.65ZM253.061 81.8404L171.639 126.001L175.228 127.829L253.061 85.6307L335.147 130.162H335.159L338.675 128.289L253.061 81.8628V81.8404ZM251.551 296.455V450.571H255.006V296.455H251.551ZM77.0721 371.949V287.092L73.5562 285.185V373.821L154.084 417.478V413.699L77.0721 371.937V371.949ZM78.7032 176.285L77.9783 175.893L77.2292 177.093L77.1325 177.239L78.7998 176.341L78.7032 176.297V176.285ZM73.5562 266.301V268.207H77.0721L73.5562 266.301ZM72.65 184.359L73.5562 184.853V182.913L72.65 184.359ZM73.5924 184.741V184.875L77.0842 186.771V186.636L73.5924 184.741ZM65.6786 160.406C63.2984 152.153 54.1643 147.252 45.2598 149.461C36.3673 151.67 31.0874 160.16 33.4676 168.413C35.8478 176.655 44.9819 181.567 53.8864 179.358C62.7789 177.149 68.0588 168.66 65.6786 160.406ZM65.6786 160.406C63.2984 152.153 54.1643 147.252 45.2598 149.461C36.3673 151.67 31.0874 160.16 33.4676 168.413C35.8478 176.655 44.9819 181.567 53.8864 179.358C62.7789 177.149 68.0588 168.66 65.6786 160.406ZM72.6379 184.359L73.5441 184.853V182.913L72.6379 184.359ZM73.5804 184.741V184.875L77.0721 186.771V186.636L73.5804 184.741ZM73.5441 266.301V268.207H77.06L73.5441 266.301ZM78.6911 176.285L77.9662 175.893L77.2171 177.093L77.1204 177.239L78.7878 176.341L78.6911 176.297V176.285ZM77.06 371.949V287.092L73.5441 285.185V373.821L154.072 417.478V413.699L77.06 371.937V371.949ZM251.538 296.455V450.571H254.994V296.455H251.538ZM253.049 81.8404L171.627 126.001L175.215 127.829L253.049 85.6307L335.135 130.162H335.147L338.663 128.289L253.049 81.8628V81.8404ZM432.167 265.65H432.131V268.207H432.553V265.449L432.167 265.662V265.65ZM429.038 286.239V371.949L350.455 414.573V418.353L431.684 374.315L432.553 373.833V284.355L429.038 286.251V286.239ZM478.707 160.395C476.327 152.141 467.193 147.241 458.288 149.45C449.396 151.659 444.116 160.148 446.496 168.402C448.876 176.644 458.011 181.556 466.915 179.347C475.808 177.138 481.087 168.649 478.707 160.395ZM478.707 160.395C476.327 152.141 467.193 147.241 458.288 149.45C449.396 151.659 444.116 160.148 446.496 168.402C448.876 176.644 458.011 181.556 466.915 179.347C475.808 177.138 481.087 168.649 478.707 160.395ZM429.038 286.239V371.949L350.455 414.573V418.353L431.684 374.315L432.553 373.833V284.355L429.038 286.251V286.239ZM432.167 265.65H432.131V268.207H432.553V265.449L432.167 265.662V265.65ZM253.061 81.8404L171.639 126.001L175.228 127.829L253.061 85.6307L335.147 130.162H335.159L338.675 128.289L253.061 81.8628V81.8404ZM251.551 296.455V450.571H255.006V296.455H251.551ZM77.0721 371.949V287.092L73.5562 285.185V373.821L154.084 417.478V413.699L77.0721 371.937V371.949ZM78.7032 176.285L77.9783 175.893L77.2292 177.093L77.1325 177.239L78.7998 176.341L78.7032 176.297V176.285ZM73.5562 266.301V268.207H77.0721L73.5562 266.301ZM72.65 184.359L73.5562 184.853V182.913L72.65 184.359ZM73.5924 184.741V184.875L77.0842 186.771V186.636L73.5924 184.741ZM65.6786 160.406C63.2984 152.153 54.1643 147.252 45.2598 149.461C36.3673 151.67 31.0874 160.16 33.4676 168.413C35.8478 176.655 44.9819 181.567 53.8864 179.358C62.7789 177.149 68.0588 168.66 65.6786 160.406ZM65.6786 160.406C63.2984 152.153 54.1643 147.252 45.2598 149.461C36.3673 151.67 31.0874 160.16 33.4676 168.413C35.8478 176.655 44.9819 181.567 53.8864 179.358C62.7789 177.149 68.0588 168.66 65.6786 160.406ZM72.6379 184.359L73.5441 184.853V182.913L72.6379 184.359ZM73.5441 266.301V268.207H77.06L73.5441 266.301ZM73.5804 184.741V184.875L77.0721 186.771V186.636L73.5804 184.741ZM78.6911 176.297L77.9662 175.904L77.2171 177.104L77.1204 177.25L78.7878 176.353L78.6911 176.308V176.297ZM77.06 371.96V287.103L73.5441 285.197V373.833L154.072 417.489V413.71L77.06 371.949V371.96ZM251.538 296.467V450.582H254.994V296.467H251.538ZM253.049 81.8516L171.627 126.013L175.215 127.841L253.049 85.6419L335.135 130.173H335.147L338.663 128.3L253.049 81.874V81.8516ZM423.939 178.169L423.842 178.124L423.721 178.192L423.794 178.237L423.927 178.181L423.939 178.169ZM428.76 177.149L427.684 176.554L427.298 176.341L427.612 176.588L427.902 176.812L428.784 177.182L428.965 177.25L428.76 177.138V177.149ZM432.155 265.662H432.118V268.218H432.541V265.46L432.155 265.673V265.662ZM432.336 182.431L432.408 182.543H432.529V182.431H432.324H432.336ZM432.759 184.427L432.565 184.741H432.529V184.763V184.853L432.771 184.46V184.416L432.759 184.427ZM429.013 286.262V371.971L350.431 414.596V418.375L431.659 374.337L432.529 373.855V284.378L429.013 286.273V286.262ZM478.683 160.417C476.303 152.164 467.169 147.263 458.264 149.472C449.372 151.682 444.092 160.171 446.472 168.424C448.852 176.667 457.986 181.578 466.891 179.369C475.783 177.16 481.063 168.671 478.683 160.417ZM478.683 160.417C476.303 152.164 467.169 147.263 458.264 149.472C449.372 151.682 444.092 160.171 446.472 168.424C448.852 176.667 457.986 181.578 466.891 179.369C475.783 177.16 481.063 168.671 478.683 160.417ZM432.759 184.427L432.565 184.741H432.529V184.763V184.853L432.771 184.46V184.416L432.759 184.427ZM429.013 286.262V371.971L350.431 414.596V418.375L431.659 374.337L432.529 373.855V284.378L429.013 286.273V286.262ZM432.336 182.442L432.408 182.554H432.529V182.442H432.324H432.336ZM432.155 265.673H432.118V268.23H432.541V265.471L432.155 265.684V265.673ZM428.76 177.16L427.684 176.566L427.298 176.353L427.612 176.599L427.902 176.824L428.784 177.194L428.965 177.261L428.76 177.149V177.16ZM423.939 178.181L423.842 178.136L423.721 178.203L423.794 178.248L423.927 178.192L423.939 178.181ZM253.049 81.8628L171.627 126.024L175.215 127.852L253.049 85.6531L335.135 130.184H335.147L338.663 128.312L253.049 81.8852V81.8628ZM251.538 296.478V450.593H254.994V296.478H251.538ZM77.06 371.971V287.114L73.5441 285.208V373.844L154.072 417.5V413.721L77.06 371.96V371.971ZM78.6911 176.308L77.9662 175.915L77.2171 177.115L77.1204 177.261L78.7878 176.364L78.6911 176.319V176.308ZM73.5804 184.752V184.887L77.0721 186.782V186.647L73.5804 184.752ZM73.5441 266.312V268.218H77.06L73.5441 266.312ZM72.6379 184.371L73.5441 184.864V182.924L72.6379 184.371ZM65.6786 160.417C63.2984 152.164 54.1643 147.263 45.2598 149.472C36.3673 151.682 31.0874 160.171 33.4676 168.424C35.8478 176.667 44.9819 181.578 53.8864 179.369C62.7789 177.16 68.0588 168.671 65.6786 160.417ZM65.6786 160.417C63.2984 152.164 54.1643 147.263 45.2598 149.472C36.3673 151.682 31.0874 160.171 33.4676 168.424C35.8478 176.667 44.9819 181.578 53.8864 179.369C62.7789 177.16 68.0588 168.671 65.6786 160.417ZM72.6379 184.371L73.5441 184.864V182.924L72.6379 184.371ZM73.5441 266.312V268.218H77.06L73.5441 266.312ZM73.5804 184.752V184.887L77.0721 186.782V186.647L73.5804 184.752ZM78.6911 176.308L77.9662 175.915L77.2171 177.115L77.1204 177.261L78.7878 176.364L78.6911 176.319V176.308ZM77.06 371.971V287.114L73.5441 285.208V373.844L154.072 417.5V413.721L77.06 371.96V371.971ZM251.538 296.478V450.593H254.994V296.478H251.538ZM253.049 81.8628L171.627 126.024L175.215 127.852L253.049 85.6531L335.135 130.184H335.147L338.663 128.312L253.049 81.8852V81.8628ZM423.939 178.181L423.842 178.136L423.721 178.203L423.794 178.248L423.927 178.192L423.939 178.181ZM428.76 177.16L427.684 176.566L427.298 176.353L427.612 176.599L427.902 176.824L428.784 177.194L428.965 177.261L428.76 177.149V177.16ZM432.155 265.673H432.118V268.23H432.541V265.471L432.155 265.684V265.673ZM432.336 182.442L432.408 182.554H432.529V182.442H432.324H432.336ZM432.759 184.438L432.565 184.752H432.529V184.774V184.864L432.771 184.472V184.427L432.759 184.438ZM429.013 286.273V371.982L350.431 414.607V418.386L431.659 374.348L432.529 373.866V284.389L429.013 286.284V286.273ZM478.683 160.429C476.303 152.175 467.169 147.275 458.264 149.484C449.372 151.693 444.092 160.182 446.472 168.436C448.852 176.678 457.986 181.59 466.891 179.38C475.783 177.171 481.063 168.682 478.683 160.429ZM478.683 160.429C476.303 152.175 467.169 147.275 458.264 149.484C449.372 151.693 444.092 160.182 446.472 168.436C448.852 176.678 457.986 181.59 466.891 179.38C475.783 177.171 481.063 168.682 478.683 160.429ZM432.565 184.763H432.529V184.786V184.875L432.771 184.483V184.438L432.565 184.752V184.763ZM429.013 371.982L350.431 414.607V418.386L431.659 374.348L432.529 373.866V284.389L429.013 286.284V371.993V371.982ZM432.529 182.565V182.453H432.324L432.396 182.565H432.517H432.529ZM432.106 265.695V268.23H432.529V265.471L432.143 265.684H432.106V265.695ZM427.878 176.835L428.76 177.205L428.941 177.272L428.735 177.16L427.66 176.566L427.273 176.353L427.588 176.599L427.878 176.824V176.835ZM423.794 178.259L423.927 178.192L423.83 178.136L423.709 178.203L423.782 178.248L423.794 178.259ZM171.603 126.024L175.191 127.852L253.025 85.6531L335.111 130.184H335.123L338.639 128.312L253.025 81.8852L171.603 126.046V126.024ZM251.514 450.604H254.97V296.489H251.514V450.604ZM77.0721 287.103L73.5562 285.197V373.833L154.084 417.489V413.71L77.0721 371.949V287.092V287.103ZM78.7032 176.285L77.9783 175.893L77.2292 177.093L77.1325 177.239L78.7998 176.341L78.7032 176.297V176.285ZM77.0721 186.625L73.5804 184.73V184.864L77.0721 186.759V186.625ZM73.5562 268.207H77.0721L73.5562 266.301V268.207ZM73.5562 182.913L72.65 184.359L73.5562 184.853V182.913ZM45.2719 149.461C36.3794 151.67 31.0995 160.16 33.4797 168.413C35.8598 176.655 44.994 181.567 53.8985 179.358C62.791 177.149 68.0709 168.66 65.6907 160.406C63.3105 152.153 54.1764 147.252 45.2719 149.461ZM254.994 0L0 138.27V414.73L254.994 553L510 414.73V138.27L254.994 0ZM499.44 409.101L254.994 541.651L10.5719 409.101V143.91L254.994 11.3599L499.44 143.91V409.101ZM466.927 179.358C475.82 177.149 481.1 168.66 478.719 160.406C476.339 152.153 467.205 147.252 458.3 149.461C449.408 151.67 444.128 160.16 446.508 168.413C448.888 176.655 458.023 181.567 466.927 179.358ZM432.565 373.833V284.355L429.05 286.251V371.96L350.467 414.585V418.364L431.696 374.326L432.565 373.844V373.833ZM432.565 184.763V184.853L432.807 184.46V184.416L432.602 184.73H432.565V184.752V184.763ZM432.565 182.543V182.431H432.36L432.433 182.543H432.553H432.565ZM432.143 268.207H432.565V265.449L432.179 265.662H432.143V268.218V268.207ZM427.914 176.812L428.796 177.182L428.977 177.25L428.772 177.138L427.696 176.543L427.31 176.33L427.624 176.577L427.914 176.801V176.812ZM423.83 178.237L423.963 178.169L423.866 178.113L423.746 178.181L423.818 178.225L423.83 178.237ZM171.639 126.001L175.228 127.829L253.061 85.6307L335.147 130.162H335.159L338.675 128.289L253.061 81.8628L171.639 126.024V126.001ZM251.551 450.582H255.006V296.467H251.551V450.582ZM77.0721 287.103L73.5562 285.197V373.833L154.084 417.489V413.71L77.0721 371.949V287.092V287.103ZM78.7032 176.285L77.9783 175.893L77.2292 177.093L77.1325 177.239L78.7998 176.341L78.7032 176.297V176.285ZM77.0721 186.625L73.5804 184.73V184.864L77.0721 186.759V186.625ZM73.5562 268.207H77.0721L73.5562 266.301V268.207ZM73.5562 182.913L72.65 184.359L73.5562 184.853V182.913ZM45.2719 149.461C36.3794 151.67 31.0995 160.16 33.4797 168.413C35.8598 176.655 44.994 181.567 53.8985 179.358C62.791 177.149 68.0709 168.66 65.6907 160.406C63.3105 152.153 54.1764 147.252 45.2719 149.461ZM65.6907 160.406C63.3105 152.153 54.1764 147.252 45.2719 149.461C36.3794 151.67 31.0995 160.16 33.4797 168.413C35.8598 176.655 44.994 181.567 53.8985 179.358C62.791 177.149 68.0709 168.66 65.6907 160.406ZM72.65 184.359L73.5562 184.853V182.913L72.65 184.359ZM73.5562 266.301V268.207H77.0721L73.5562 266.301ZM73.5924 184.741V184.875L77.0842 186.771V186.636L73.5924 184.741ZM78.7032 176.297L77.9783 175.904L77.2292 177.104L77.1325 177.25L78.7998 176.353L78.7032 176.308V176.297ZM77.0721 371.96V287.103L73.5562 285.197V373.833L154.084 417.489V413.71L77.0721 371.949V371.96ZM251.551 296.467V450.582H255.006V296.467H251.551ZM253.061 81.8516L171.639 126.013L175.228 127.841L253.061 85.6419L335.147 130.173H335.159L338.675 128.3L253.061 81.874V81.8516ZM423.951 178.169L423.854 178.124L423.733 178.192L423.806 178.237L423.939 178.181L423.951 178.169ZM428.772 177.149L427.696 176.554L427.31 176.341L427.624 176.588L427.914 176.812L428.796 177.182L428.977 177.25L428.772 177.138V177.149ZM432.167 265.662H432.131V268.218H432.553V265.46L432.167 265.673V265.662ZM432.348 182.431L432.42 182.543H432.541V182.431H432.336H432.348ZM429.025 286.251V371.96L350.443 414.585V418.364L431.671 374.326L432.541 373.844V284.367L429.025 286.262V286.251ZM432.771 184.416L432.578 184.73H432.541V184.752V184.842L432.783 184.449V184.404L432.771 184.416ZM478.695 160.406C476.315 152.153 467.181 147.252 458.276 149.461C449.384 151.67 444.104 160.16 446.484 168.413C448.864 176.655 457.998 181.567 466.903 179.358C475.795 177.149 481.075 168.66 478.695 160.406ZM478.695 160.406C476.315 152.153 467.181 147.252 458.276 149.461C449.384 151.67 444.104 160.16 446.484 168.413C448.864 176.655 457.998 181.567 466.903 179.358C475.795 177.149 481.075 168.66 478.695 160.406ZM429.025 286.251V371.96L350.443 414.585V418.364L431.671 374.326L432.541 373.844V284.367L429.025 286.262V286.251ZM432.771 184.416L432.578 184.73H432.541V184.752V184.842L432.783 184.449V184.404L432.771 184.416ZM432.348 182.419L432.42 182.532H432.541V182.419H432.336H432.348ZM432.167 265.65H432.131V268.207H432.553V265.449L432.167 265.662V265.65ZM428.772 177.138L427.696 176.543L427.31 176.33L427.624 176.577L427.914 176.801L428.796 177.171L428.977 177.239L428.772 177.126V177.138ZM423.951 178.158L423.854 178.113L423.733 178.181L423.806 178.225L423.939 178.169L423.951 178.158ZM253.061 81.8404L171.639 126.001L175.228 127.829L253.061 85.6307L335.147 130.162H335.159L338.675 128.289L253.061 81.8628V81.8404ZM251.551 296.455V450.571H255.006V296.455H251.551ZM77.0721 371.949V287.092L73.5562 285.185V373.821L154.084 417.478V413.699L77.0721 371.937V371.949ZM78.7032 176.285L77.9783 175.893L77.2292 177.093L77.1325 177.239L78.7998 176.341L78.7032 176.297V176.285ZM73.5924 184.73V184.864L77.0842 186.759V186.625L73.5924 184.73ZM73.5562 266.29V268.196H77.0721L73.5562 266.29ZM72.65 184.348L73.5562 184.842V182.902L72.65 184.348ZM65.6907 160.395C63.3105 152.141 54.1764 147.241 45.2719 149.45C36.3794 151.659 31.0995 160.148 33.4797 168.402C35.8598 176.644 44.994 181.556 53.8985 179.347C62.791 177.138 68.0709 168.649 65.6907 160.395ZM65.6907 160.395C63.3105 152.141 54.1764 147.241 45.2719 149.45C36.3794 151.659 31.0995 160.148 33.4797 168.402C35.8598 176.644 44.994 181.556 53.8985 179.347C62.791 177.138 68.0709 168.649 65.6907 160.395ZM72.65 184.348L73.5562 184.842V182.902L72.65 184.348ZM73.5562 266.29V268.196H77.0721L73.5562 266.29ZM73.5924 184.73V184.864L77.0842 186.759V186.625L73.5924 184.73ZM78.7032 176.285L77.9783 175.893L77.2292 177.093L77.1325 177.239L78.7998 176.341L78.7032 176.297V176.285ZM77.0721 371.949V287.092L73.5562 285.185V373.821L154.084 417.478V413.699L77.0721 371.937V371.949ZM251.551 296.455V450.571H255.006V296.455H251.551ZM253.061 81.8404L171.639 126.001L175.228 127.829L253.061 85.6307L335.147 130.162H335.159L338.675 128.289L253.061 81.8628V81.8404ZM423.951 178.158L423.854 178.113L423.733 178.181L423.806 178.225L423.939 178.169L423.951 178.158ZM428.772 177.138L427.696 176.543L427.31 176.33L427.624 176.577L427.914 176.801L428.796 177.171L428.977 177.239L428.772 177.126V177.138ZM432.167 265.65H432.131V268.207H432.553V265.449L432.167 265.662V265.65ZM432.348 182.419L432.42 182.532H432.541V182.419H432.336H432.348ZM429.025 286.239V371.949L350.443 414.573V418.353L431.671 374.315L432.541 373.833V284.355L429.025 286.251V286.239ZM432.771 184.404L432.578 184.718H432.541V184.741V184.83L432.783 184.438V184.393L432.771 184.404ZM478.695 160.395C476.315 152.141 467.181 147.241 458.276 149.45C449.384 151.659 444.104 160.148 446.484 168.402C448.864 176.644 457.998 181.556 466.903 179.347C475.795 177.138 481.075 168.649 478.695 160.395ZM478.695 160.395C476.315 152.141 467.181 147.241 458.276 149.45C449.384 151.659 444.104 160.148 446.484 168.402C448.864 176.644 457.998 181.556 466.903 179.347C475.795 177.138 481.075 168.649 478.695 160.395ZM429.025 286.239V371.949L350.443 414.573V418.353L431.671 374.315L432.541 373.833V284.355L429.025 286.251V286.239ZM432.155 265.65H432.118V268.207H432.541V265.449L432.155 265.662V265.65ZM253.061 81.8404L171.639 126.001L175.228 127.829L253.061 85.6307L335.147 130.162H335.159L338.675 128.289L253.061 81.8628V81.8404ZM251.551 296.455V450.571H255.006V296.455H251.551ZM77.0721 371.949V287.092L73.5562 285.185V373.821L154.084 417.478V413.699L77.0721 371.937V371.949ZM78.7032 176.285L77.9783 175.893L77.2292 177.093L77.1325 177.239L78.7998 176.341L78.7032 176.297V176.285ZM73.5562 266.301V268.207H77.0721L73.5562 266.301ZM72.65 184.359L73.5562 184.853V182.913L72.65 184.359ZM73.5924 184.741V184.875L77.0842 186.771V186.636L73.5924 184.741ZM65.6786 160.406C63.2984 152.153 54.1643 147.252 45.2598 149.461C36.3673 151.67 31.0874 160.16 33.4676 168.413C35.8478 176.655 44.9819 181.567 53.8864 179.358C62.7789 177.149 68.0588 168.66 65.6786 160.406ZM65.6786 160.406C63.2984 152.153 54.1643 147.252 45.2598 149.461C36.3673 151.67 31.0874 160.16 33.4676 168.413C35.8478 176.655 44.9819 181.567 53.8864 179.358C62.7789 177.149 68.0588 168.66 65.6786 160.406ZM72.6379 184.359L73.5441 184.853V182.913L72.6379 184.359ZM73.5804 184.741V184.875L77.0721 186.771V186.636L73.5804 184.741ZM73.5441 266.301V268.207H77.06L73.5441 266.301ZM78.6911 176.285L77.9662 175.893L77.2171 177.093L77.1204 177.239L78.7878 176.341L78.6911 176.297V176.285ZM77.06 371.949V287.092L73.5441 285.185V373.821L154.072 417.478V413.699L77.06 371.937V371.949ZM251.538 296.455V450.571H254.994V296.455H251.538ZM253.049 81.8404L171.627 126.001L175.215 127.829L253.049 85.6307L335.135 130.162H335.147L338.663 128.289L253.049 81.8628V81.8404ZM432.167 265.65H432.131V268.207H432.553V265.449L432.167 265.662V265.65ZM429.038 286.239V371.949L350.455 414.573V418.353L431.684 374.315L432.553 373.833V284.355L429.038 286.251V286.239ZM478.707 160.395C476.327 152.141 467.193 147.241 458.288 149.45C449.396 151.659 444.116 160.148 446.496 168.402C448.876 176.644 458.011 181.556 466.915 179.347C475.808 177.138 481.087 168.649 478.707 160.395ZM478.707 160.395C476.327 152.141 467.193 147.241 458.288 149.45C449.396 151.659 444.116 160.148 446.496 168.402C448.876 176.644 458.011 181.556 466.915 179.347C475.808 177.138 481.087 168.649 478.707 160.395ZM429.038 286.239V371.949L350.455 414.573V418.353L431.684 374.315L432.553 373.833V284.355L429.038 286.251V286.239ZM432.167 265.65H432.131V268.207H432.553V265.449L432.167 265.662V265.65ZM253.061 81.8404L171.639 126.001L175.228 127.829L253.061 85.6307L335.147 130.162H335.159L338.675 128.289L253.061 81.8628V81.8404ZM251.551 296.455V450.571H255.006V296.455H251.551ZM77.0721 371.949V287.092L73.5562 285.185V373.821L154.084 417.478V413.699L77.0721 371.937V371.949ZM78.7032 176.285L77.9783 175.893L77.2292 177.093L77.1325 177.239L78.7998 176.341L78.7032 176.297V176.285ZM73.5562 266.301V268.207H77.0721L73.5562 266.301ZM72.65 184.359L73.5562 184.853V182.913L72.65 184.359ZM73.5924 184.741V184.875L77.0842 186.771V186.636L73.5924 184.741ZM65.6786 160.406C63.2984 152.153 54.1643 147.252 45.2598 149.461C36.3673 151.67 31.0874 160.16 33.4676 168.413C35.8478 176.655 44.9819 181.567 53.8864 179.358C62.7789 177.149 68.0588 168.66 65.6786 160.406ZM65.6786 160.406C63.2984 152.153 54.1643 147.252 45.2598 149.461C36.3673 151.67 31.0874 160.16 33.4676 168.413C35.8478 176.655 44.9819 181.567 53.8864 179.358C62.7789 177.149 68.0588 168.66 65.6786 160.406ZM72.6379 184.359L73.5441 184.853V182.913L72.6379 184.359ZM73.5804 184.741V184.875L77.0721 186.771V186.636L73.5804 184.741ZM73.5441 266.301V268.207H77.06L73.5441 266.301ZM78.6911 176.285L77.9662 175.893L77.2171 177.093L77.1204 177.239L78.7878 176.341L78.6911 176.297V176.285ZM77.06 371.949V287.092L73.5441 285.185V373.821L154.072 417.478V413.699L77.06 371.937V371.949ZM251.538 296.455V450.571H254.994V296.455H251.538ZM253.049 81.8404L171.627 126.001L175.215 127.829L253.049 85.6307L335.135 130.162H335.147L338.663 128.289L253.049 81.8628V81.8404ZM432.167 265.65H432.131V268.207H432.553V265.449L432.167 265.662V265.65ZM429.038 286.239V371.949L350.455 414.573V418.353L431.684 374.315L432.553 373.833V284.355L429.038 286.251V286.239ZM478.707 160.395C476.327 152.141 467.193 147.241 458.288 149.45C449.396 151.659 444.116 160.148 446.496 168.402C448.876 176.644 458.011 181.556 466.915 179.347C475.808 177.138 481.087 168.649 478.707 160.395ZM478.707 160.395C476.327 152.141 467.193 147.241 458.288 149.45C449.396 151.659 444.116 160.148 446.496 168.402C448.876 176.644 458.011 181.556 466.915 179.347C475.808 177.138 481.087 168.649 478.707 160.395ZM429.038 286.239V371.949L350.455 414.573V418.353L431.684 374.315L432.553 373.833V284.355L429.038 286.251V286.239ZM72.6379 184.359L73.5441 184.853V182.913L72.6379 184.359ZM73.5804 184.741V184.875L77.0721 186.771V186.636L73.5804 184.741ZM432.179 265.662H432.143V268.218H432.565V265.46L432.179 265.673V265.662ZM253.061 81.8404L171.639 126.001L175.228 127.829L253.061 85.6307L335.147 130.162H335.159L338.675 128.289L253.061 81.8628V81.8404ZM251.551 296.455V450.571H255.006V296.455H251.551ZM77.0721 371.949V287.092L73.5562 285.185V373.821L154.084 417.478V413.699L77.0721 371.937V371.949ZM78.7032 176.285L77.9783 175.893L77.2292 177.093L77.1325 177.239L78.7998 176.341L78.7032 176.297V176.285ZM73.5562 266.301V268.207H77.0721L73.5562 266.301ZM65.6786 160.406C63.2984 152.153 54.1643 147.252 45.2598 149.461C36.3673 151.67 31.0874 160.16 33.4676 168.413C35.8478 176.655 44.9819 181.567 53.8864 179.358C62.7789 177.149 68.0588 168.66 65.6786 160.406ZM427.322 176.341L427.636 176.588L427.708 176.554L427.322 176.341ZM423.963 178.169L423.866 178.124L423.746 178.192L423.818 178.237L423.951 178.181L423.963 178.169ZM432.795 184.427L432.602 184.741H432.565V184.763V184.853L432.807 184.46V184.416L432.795 184.427ZM432.372 182.431L432.445 182.543H432.565V182.431H432.36H432.372ZM428.784 177.149L428.808 177.182L428.989 177.25L428.784 177.138V177.149ZM432.795 184.427L432.602 184.741H432.565V184.763V184.853L432.807 184.46V184.416L432.795 184.427ZM432.372 182.431L432.445 182.543H432.565V182.431H432.36H432.372ZM423.878 178.124L423.758 178.192L423.83 178.237L423.951 178.169L423.854 178.124H423.878ZM423.878 178.124L423.758 178.192L423.83 178.237L423.951 178.169L423.854 178.124H423.878ZM428.796 177.149L427.721 176.554L427.334 176.341L427.648 176.588L427.938 176.812L428.82 177.182L429.001 177.25L428.796 177.138V177.149ZM432.807 184.427L432.614 184.741H432.578V184.763V184.853L432.819 184.46V184.416L432.807 184.427ZM432.384 182.431L432.457 182.543H432.578V182.431H432.372H432.384ZM432.384 182.431L432.457 182.543H432.578V182.431H432.372H432.384ZM432.819 184.427L432.626 184.741H432.59V184.763V184.853L432.831 184.46V184.416L432.819 184.427ZM428.808 177.149L427.733 176.554L427.346 176.341L427.66 176.588L427.95 176.812L428.832 177.182L429.013 177.25L428.808 177.138V177.149ZM423.89 178.124L423.77 178.192L423.842 178.237L423.963 178.169L423.866 178.124H423.89ZM423.89 178.124L423.77 178.192L423.842 178.237L423.963 178.169L423.866 178.124H423.89ZM428.808 177.149L427.733 176.554L427.346 176.341L427.66 176.588L427.95 176.812L428.832 177.182L429.013 177.25L428.808 177.138V177.149ZM432.819 184.427L432.626 184.741H432.59V184.763V184.853L432.831 184.46V184.416L432.819 184.427ZM432.396 182.431L432.469 182.543H432.59V182.431H432.384H432.396ZM423.903 178.124L423.782 178.192L423.854 178.237L423.975 178.169L423.878 178.124H423.903ZM428.82 177.149L427.745 176.554L427.358 176.341L427.672 176.588L427.962 176.812L428.844 177.182L429.025 177.25L428.82 177.138V177.149ZM432.831 184.427L432.638 184.741H432.602V184.763V184.853L432.843 184.46V184.416L432.831 184.427ZM432.408 182.431L432.481 182.543H432.602V182.431H432.396H432.408ZM432.408 182.431L432.481 182.543H432.602V182.431H432.396H432.408ZM432.843 184.427L432.65 184.741H432.614V184.763V184.853L432.855 184.46V184.416L432.843 184.427ZM428.832 177.149L427.757 176.554L427.37 176.341L427.684 176.588L427.974 176.812L428.856 177.182L429.038 177.25L428.832 177.138V177.149ZM423.915 178.124L423.794 178.192L423.866 178.237L423.987 178.169L423.89 178.124H423.915ZM423.915 178.124L423.794 178.192L423.866 178.237L423.987 178.169L423.89 178.124H423.915ZM428.832 177.149L427.757 176.554L427.37 176.341L427.684 176.588L427.974 176.812L428.856 177.182L429.038 177.25L428.832 177.138V177.149ZM432.843 184.427L432.65 184.741H432.614V184.763V184.853L432.855 184.46V184.416L432.843 184.427ZM432.42 182.431L432.493 182.543H432.614V182.431H432.408H432.42ZM432.42 182.431L432.493 182.543H432.614V182.431H432.408H432.42ZM423.927 178.124L423.806 178.192L423.878 178.237L423.999 178.169L423.903 178.124H423.927ZM423.927 178.124L423.806 178.192L423.878 178.237L423.999 178.169L423.903 178.124H423.927ZM432.433 182.431L432.505 182.543H432.626V182.431H432.42H432.433ZM432.868 184.427L432.674 184.741H432.638V184.763V184.853L432.88 184.46V184.416L432.868 184.427ZM423.939 178.124L423.818 178.192L423.89 178.237L424.011 178.169L423.915 178.124H423.939ZM432.565 182.431H432.445L432.517 182.543H432.638L432.565 182.431ZM432.638 184.763V184.853V184.752V184.763ZM428.856 177.149L427.781 176.554L427.394 176.341L427.708 176.588L427.998 176.812L428.88 177.182L429.062 177.25L428.856 177.138V177.149ZM432.868 184.427L432.674 184.741H432.638V184.763V184.853L432.88 184.46V184.416L432.868 184.427ZM432.638 184.763V184.853V184.752V184.763ZM432.638 182.431V182.543H432.517L432.445 182.431H432.65H432.638ZM432.868 184.472L432.638 184.864V184.774H432.674L432.868 184.438V184.483V184.472ZM424.035 178.181L423.903 178.248L423.83 178.192L423.951 178.124L424.048 178.169L424.035 178.181ZM432.674 265.336V268.095H432.251V265.561L432.674 265.336ZM78.824 176.218L78.7032 176.285L77.2292 177.082L77.1688 177.115L77.0721 177.25L77.1204 177.227L78.7878 176.33L78.9086 176.263L78.8119 176.218H78.824ZM432.143 265.673V268.095H432.179V265.662H432.143V265.673ZM432.59 179.111L432.167 178.842V178.977H432.131L429.001 177.272L428.977 177.25L428.796 177.182L427.914 176.812L427.624 176.588L427.31 176.341L356.23 137.787L352.714 139.66L423.758 178.181L423.878 178.113L423.975 178.158L423.842 178.225L423.77 178.169L253.121 270.708L82.4366 178.158L157.551 137.429L153.951 135.589L78.9569 176.252L78.8361 176.319L77.1688 177.216L77.1204 177.239L74.4623 178.685L73.6045 179.167V182.52H73.8341L73.6045 182.89V184.83H73.6408V184.718L77.1325 186.614V186.748L73.6408 184.853V266.166L77.1567 268.073H84.2006V190.449L253.145 282.057L422.09 190.449V268.073H432.203V265.65H432.239V265.538L432.662 265.314V268.073H433.085V179.358L432.662 179.089L432.59 179.111ZM432.795 184.46L432.565 184.853V184.763H432.602L432.795 184.427L432.565 182.924L432.336 182.554H432.445L432.372 182.442H432.578V182.554H432.457L432.614 182.812L432.843 184.359L432.807 184.427V184.472L432.795 184.46ZM432.831 184.348L432.795 184.416L432.565 182.913L432.336 182.543H432.445L432.602 182.801L432.831 184.348Z" fill="#00A7E4"/>
</svg>
