<svg width="29" height="29" viewBox="0 0 29 29" fill="none" xmlns="http://www.w3.org/2000/svg">
<path d="M1.83667 14.5C1.83667 16.82 2.40056 18.9467 3.52833 20.88C4.65611 22.8133 6.18667 24.3439 8.12 25.4717C10.0533 26.5994 12.18 27.1633 14.5 27.1633C16.82 27.1633 18.9467 26.5994 20.88 25.4717C22.8133 24.3439 24.3439 22.8133 25.4717 20.88C26.5994 18.9467 27.1633 16.82 27.1633 14.5C27.1633 12.18 26.5994 10.0533 25.4717 8.12C24.3439 6.18667 22.8133 4.65611 20.88 3.52833C18.9467 2.40056 16.82 1.83667 14.5 1.83667C12.18 1.83667 10.0533 2.40056 8.12 3.52833C6.18667 4.65611 4.65611 6.18667 3.52833 8.12C2.40056 10.0533 1.83667 12.18 1.83667 14.5ZM29 14.5C29 17.1422 28.3556 19.575 27.0667 21.7983C25.7778 24.0217 24.0217 25.7778 21.7983 27.0667C19.575 28.3556 17.1422 29 14.5 29C11.8578 29 9.425 28.3556 7.20167 27.0667C4.97833 25.7778 3.22222 24.0217 1.93333 21.7983C0.644444 19.575 0 17.1422 0 14.5C0 11.8578 0.644444 9.425 1.93333 7.20167C3.22222 4.97833 4.97833 3.22222 7.20167 1.93333C9.425 0.644445 11.8578 0 14.5 0C17.1422 0 19.575 0.644445 21.7983 1.93333C24.0217 3.22222 25.7778 4.97833 27.0667 7.20167C28.3556 9.425 29 11.8578 29 14.5ZM15.37 8.12C15.37 7.86222 15.2894 7.65278 15.1283 7.49167C14.9672 7.33056 14.7578 7.25 14.5 7.25C14.2422 7.25 14.0328 7.33056 13.8717 7.49167C13.7106 7.65278 13.63 7.86222 13.63 8.12V18.6567L9.66667 14.79C9.53778 14.5967 9.34444 14.5 9.08667 14.5C8.82889 14.5 8.60333 14.5806 8.41 14.7417C8.21667 14.9028 8.12 15.1122 8.12 15.37C8.12 15.6278 8.21667 15.8533 8.41 16.0467L13.8233 21.46C14.0167 21.6533 14.2422 21.75 14.5 21.75C14.7578 21.75 14.9833 21.6533 15.1767 21.46L20.59 16.0467C20.7833 15.8533 20.88 15.6278 20.88 15.37C20.88 15.1122 20.7833 14.9028 20.59 14.7417C20.3967 14.5806 20.1711 14.5 19.9133 14.5C19.6556 14.5 19.4622 14.5967 19.3333 14.79L15.37 18.6567V8.12Z" fill="white"/>
</svg>
