<svg width="29" height="29" viewBox="0 0 29 29" fill="none" xmlns="http://www.w3.org/2000/svg">
<path d="M6.37999 10.8267C6.12222 10.8267 5.89666 10.9233 5.70333 11.1167C5.50999 11.31 5.41333 11.5356 5.41333 11.7933V26.2933C5.41333 26.5511 5.50999 26.7606 5.70333 26.9217C5.89666 27.0828 6.12222 27.1633 6.37999 27.1633H22.62C22.8778 27.1633 23.1033 27.0828 23.2967 26.9217C23.49 26.7606 23.5867 26.5511 23.5867 26.2933V11.7933C23.5867 11.5356 23.49 11.31 23.2967 11.1167C23.1033 10.9233 22.8778 10.8267 22.62 10.8267H19.0433C18.7855 10.8267 18.56 10.7461 18.3667 10.585C18.1733 10.4239 18.0928 10.2144 18.125 9.95667C18.1572 9.69889 18.2539 9.48944 18.415 9.32833C18.5761 9.16722 18.7855 9.08667 19.0433 9.08667H22.62C23.3933 9.08667 24.0539 9.34444 24.6017 9.86C25.1494 10.3756 25.3911 11.02 25.3267 11.7933V26.2933C25.3911 27.0667 25.1494 27.7111 24.6017 28.2267C24.0539 28.7422 23.3933 29 22.62 29H6.37999C5.60666 29 4.96222 28.7422 4.44666 28.2267C3.9311 27.7111 3.6411 27.0667 3.57666 26.2933V11.7933C3.6411 11.02 3.9311 10.3756 4.44666 9.86C4.96222 9.34444 5.60666 9.08667 6.37999 9.08667H9.95666C10.2144 9.08667 10.44 9.16722 10.6333 9.32833C10.8267 9.48944 10.9072 9.69889 10.875 9.95667C10.8428 10.2144 10.7461 10.44 10.585 10.6333C10.4239 10.8267 10.2144 10.9233 9.95666 10.9233L6.37999 10.8267ZM13.8233 0.290001C14.0167 0.0966682 14.2422 0 14.5 0C14.7578 0 14.9833 0.0966682 15.1767 0.290001L20.59 5.70333C20.7833 5.89667 20.88 6.12222 20.88 6.38C20.88 6.63778 20.7833 6.84722 20.59 7.00833C20.3967 7.16945 20.1711 7.25 19.9133 7.25C19.6555 7.25 19.4622 7.15333 19.3333 6.96L15.37 3.09333V19.0433C15.37 19.3011 15.2894 19.5106 15.1283 19.6717C14.9672 19.8328 14.7578 19.9133 14.5 19.9133C14.2422 19.9133 14.0328 19.8328 13.8717 19.6717C13.7105 19.5106 13.63 19.3011 13.63 19.0433V3.09333L9.66666 6.96C9.53777 7.15333 9.34444 7.25 9.08666 7.25C8.82888 7.25 8.60333 7.16945 8.40999 7.00833C8.21666 6.84722 8.11999 6.63778 8.11999 6.38C8.11999 6.12222 8.21666 5.89667 8.40999 5.70333L13.8233 0.290001Z" fill="white"/>
</svg>
