<svg width="29" height="29" viewBox="0 0 29 29" fill="none" xmlns="http://www.w3.org/2000/svg">
<path d="M1.83643 20.88C1.83643 21.1378 1.91698 21.3472 2.07809 21.5083C2.2392 21.6694 2.44865 21.75 2.70643 21.75H24.0698L18.3664 27.4533C18.1731 27.6467 18.0764 27.8722 18.0764 28.13C18.0764 28.3878 18.1731 28.5972 18.3664 28.7583C18.5598 28.9194 18.7853 29 19.0431 29C19.3009 29 19.5264 28.9033 19.7198 28.71L26.9698 21.46C27.0986 21.3311 27.1631 21.1378 27.1631 20.88C27.1631 20.6222 27.0986 20.3967 26.9698 20.2033L19.7198 12.9533C19.5264 12.76 19.3009 12.6633 19.0431 12.6633C18.7853 12.6633 18.5598 12.76 18.3664 12.9533C18.1731 13.1467 18.0764 13.3722 18.0764 13.63C18.0764 13.8878 18.1731 14.0811 18.3664 14.21L24.0698 19.9133H2.70643C2.44865 19.9133 2.2392 20.01 2.07809 20.2033C1.91698 20.3967 1.83643 20.6222 1.83643 20.88ZM27.1631 8.12C27.1631 8.37778 27.0825 8.60333 26.9214 8.79667C26.7603 8.99 26.5509 9.08667 26.2931 9.08667H4.92976L10.6331 14.79C10.8264 14.9189 10.9231 15.1122 10.9231 15.37C10.9231 15.6278 10.8264 15.8533 10.6331 16.0467C10.4398 16.24 10.2142 16.3367 9.95643 16.3367C9.69865 16.3367 9.47309 16.24 9.27976 16.0467L2.02976 8.79667C1.90087 8.60333 1.83643 8.37778 1.83643 8.12C1.83643 7.86222 1.90087 7.66889 2.02976 7.54L9.27976 0.290001C9.47309 0.0966682 9.69865 0 9.95643 0C10.2142 0 10.4398 0.0805569 10.6331 0.241667C10.8264 0.402779 10.9231 0.612223 10.9231 0.870001C10.9231 1.12778 10.8264 1.35333 10.6331 1.54667L4.92976 7.25H26.2931C26.5509 7.25 26.7603 7.33056 26.9214 7.49167C27.0825 7.65278 27.1631 7.86222 27.1631 8.12Z" fill="white"/>
</svg>
