<svg width="20" height="19" viewBox="0 0 20 19" fill="none" xmlns="http://www.w3.org/2000/svg">
<path d="M12.0063 14.82C12.0063 14.9889 11.9429 15.1367 11.8163 15.2633C11.6896 15.39 11.5418 15.4533 11.3729 15.4533H1.87294C1.70405 15.4533 1.56683 15.39 1.46128 15.2633C1.35572 15.1367 1.30294 14.9889 1.30294 14.82V4.18C1.30294 4.01111 1.35572 3.86333 1.46128 3.73666C1.56683 3.61 1.70405 3.54666 1.87294 3.54666H11.3729C11.5418 3.54666 11.6896 3.61 11.8163 3.73666C11.9429 3.86333 12.0063 4.01111 12.0063 4.18V6.52333C12.0063 6.69222 12.0591 6.84 12.1646 6.96666C12.2702 7.09333 12.4074 7.14611 12.5763 7.125C12.7452 7.10388 12.8824 7.04055 12.9879 6.935C13.0935 6.82944 13.1463 6.69222 13.1463 6.52333V4.18C13.1463 3.67333 12.9774 3.24055 12.6396 2.88166C12.3018 2.52277 11.8796 2.36444 11.3729 2.40666H1.87294C1.36628 2.36444 0.944054 2.52277 0.606276 2.88166C0.268498 3.24055 0.0996094 3.67333 0.0996094 4.18V14.82C0.0996094 15.3267 0.268498 15.7594 0.606276 16.1183C0.944054 16.4772 1.36628 16.6567 1.87294 16.6567H11.3729C11.8796 16.6567 12.3018 16.4772 12.6396 16.1183C12.9774 15.7594 13.1463 15.3267 13.1463 14.82V12.4767C13.1463 12.3078 13.0935 12.16 12.9879 12.0333C12.8824 11.9067 12.7452 11.8539 12.5763 11.875C12.4074 11.8961 12.2596 11.9594 12.1329 12.065C12.0063 12.1706 11.9429 12.3078 11.9429 12.4767L12.0063 14.82ZM18.9096 9.94333C19.0363 9.81666 19.0996 9.66888 19.0996 9.5C19.0996 9.33111 19.0363 9.18333 18.9096 9.05666L15.3629 5.51C15.2363 5.38333 15.0885 5.32 14.9196 5.32C14.7507 5.32 14.6135 5.38333 14.5079 5.51C14.4024 5.63666 14.3496 5.78444 14.3496 5.95333C14.3496 6.12222 14.4129 6.24888 14.5396 6.33333L17.0729 8.93H6.62294C6.45405 8.93 6.31683 8.98277 6.21128 9.08833C6.10572 9.19388 6.05294 9.33111 6.05294 9.5C6.05294 9.66888 6.10572 9.80611 6.21128 9.91166C6.31683 10.0172 6.45405 10.07 6.62294 10.07H17.0729L14.5396 12.6667C14.4129 12.7511 14.3496 12.8778 14.3496 13.0467C14.3496 13.2156 14.4024 13.3633 14.5079 13.49C14.6135 13.6167 14.7507 13.68 14.9196 13.68C15.0885 13.68 15.2363 13.6167 15.3629 13.49L18.9096 9.94333Z" fill="#2B547E"/>
</svg>
