<svg width="20" height="19" viewBox="0 0 20 19" fill="none" xmlns="http://www.w3.org/2000/svg">
<path d="M9.60017 9.5C10.5713 9.5 11.4052 9.15166 12.1018 8.455C12.7985 7.75833 13.1468 6.91389 13.1468 5.92166C13.1468 4.92944 12.7985 4.09555 12.1018 3.42C11.4052 2.74444 10.5713 2.39611 9.60017 2.375C8.62906 2.35389 7.79517 2.69166 7.0985 3.38833C6.40184 4.085 6.0535 4.92944 6.0535 5.92166C6.0535 6.91389 6.40184 7.75833 7.0985 8.455C7.79517 9.15166 8.62906 9.5 9.60017 9.5ZM12.0068 5.95333C12.0068 6.58666 11.7746 7.13555 11.3102 7.6C10.8457 8.06444 10.2757 8.29666 9.60017 8.29666C8.92461 8.29666 8.35461 8.06444 7.89017 7.6C7.42572 7.13555 7.20406 6.57611 7.22517 5.92166C7.24628 5.26722 7.4785 4.70778 7.92184 4.24333C8.36517 3.77889 8.92461 3.54666 9.60017 3.54666C10.2757 3.54666 10.8457 3.77889 11.3102 4.24333C11.7746 4.70778 12.0068 5.27777 12.0068 5.95333ZM16.7568 15.4533C16.7568 15.7911 16.6618 16.0444 16.4718 16.2133C16.2818 16.3822 16.0813 16.5089 15.8702 16.5933H15.5535H3.64684H3.33017C3.11906 16.5089 2.92906 16.3822 2.76017 16.2133C2.59128 16.0444 2.50684 15.7911 2.50684 15.4533C2.50684 14.9044 2.67572 14.3133 3.0135 13.68C3.47795 12.8356 4.17461 12.16 5.1035 11.6533C6.28572 11.02 7.78461 10.7033 9.60017 10.7033C11.4157 10.7033 12.9146 11.02 14.0968 11.6533C15.0257 12.16 15.7224 12.8356 16.1868 13.68C16.5668 14.3133 16.7568 14.9044 16.7568 15.4533ZM15.5535 15.4533C15.5535 15.2 15.4902 14.9256 15.3635 14.63C15.1524 14.2078 14.8779 13.8067 14.5402 13.4267C14.0757 13.0044 13.5057 12.6456 12.8302 12.35C11.9013 12.0122 10.8246 11.8539 9.60017 11.875C8.37572 11.8961 7.29906 12.0544 6.37017 12.35C5.69461 12.6456 5.12461 13.0044 4.66017 13.4267C4.32239 13.8067 4.04795 14.2078 3.83684 14.63C3.71017 14.9256 3.64684 15.2 3.64684 15.4533H15.5535Z" fill="#2B547E"/>
</svg>
