<svg width="30" height="30" viewBox="0 0 30 30" fill="none" xmlns="http://www.w3.org/2000/svg">
<path d="M28.7099 0.302088C29.0321 0.559866 29.0965 0.882088 28.9032 1.26875L18.3665 27.6588C18.1732 28.1743 17.8027 28.4482 17.2549 28.4804C16.7071 28.5126 16.2721 28.3032 15.9499 27.8521L10.2465 18.7654L1.15988 13.0621C0.708765 12.7399 0.49932 12.3049 0.531543 11.7571C0.563765 11.2093 0.837654 10.8388 1.35321 10.6454L27.7432 0.108755C28.1299 -0.0845776 28.4521 -0.020134 28.7099 0.302088ZM11.9865 18.2821L17.0132 26.1121L25.6165 4.65209L11.9865 18.2821ZM24.3599 3.39542L2.89988 11.9988L10.7299 17.0254L24.3599 3.39542Z" fill="white"/>
</svg>
