<svg width="318" height="364" viewBox="0 0 318 364" fill="none" xmlns="http://www.w3.org/2000/svg">
<path d="M0 262.08C0 265.316 1.01145 267.944 3.03435 269.967C5.05725 271.989 7.68702 273 10.9237 273H279.16L207.55 344.587C205.122 347.013 203.908 349.844 203.908 353.08C203.908 356.316 205.122 358.944 207.55 360.967C209.977 362.989 212.809 364 216.046 364C219.282 364 222.115 362.787 224.542 360.36L315.573 269.36C317.191 267.742 318 265.316 318 262.08C318 258.844 317.191 256.013 315.573 253.587L224.542 162.587C222.115 160.16 219.282 158.947 216.046 158.947C212.809 158.947 209.977 160.16 207.55 162.587C205.122 165.013 203.908 167.844 203.908 171.08C203.908 174.316 205.122 176.742 207.55 178.36L279.16 249.947H10.9237C7.68702 249.947 5.05725 251.16 3.03435 253.587C1.01145 256.013 0 258.844 0 262.08ZM318 101.92C318 105.156 316.989 107.987 314.966 110.413C312.943 112.84 310.313 114.053 307.076 114.053H38.8397L110.45 185.64C112.878 187.258 114.092 189.684 114.092 192.92C114.092 196.156 112.878 198.987 110.45 201.413C108.023 203.84 105.191 205.053 101.954 205.053C98.7176 205.053 95.8855 203.84 93.458 201.413L2.42748 110.413C0.80916 107.987 0 105.156 0 101.92C0 98.6844 0.80916 96.2578 2.42748 94.64L93.458 3.63999C95.8855 1.21332 98.7176 -1.04904e-05 101.954 -1.04904e-05C105.191 -1.04904e-05 108.023 1.0111 110.45 3.03332C112.878 5.05555 114.092 7.68443 114.092 10.92C114.092 14.1555 112.878 16.9867 110.45 19.4133L38.8397 91H307.076C310.313 91 312.943 92.0111 314.966 94.0333C316.989 96.0555 318 98.6844 318 101.92Z" fill="white" fill-opacity="0.4"/>
</svg>
