<svg preserveAspectRatio="none" width="100%" height="100%" overflow="visible" style="display: block;" viewBox="0 0 1327.4 237" fill="none" xmlns="http://www.w3.org/2000/svg">
<g id="Vector">
<path d="M3 234C90.7931 234 149.104 3 236.897 3C324.691 3 391.604 234 479.397 234C567.191 234 614.897 16.0744 787.397 16.0744C959.897 16.0744 1062.6 234 1150.4 234C1238.19 234 1236.6 234 1324.4 234" stroke="url(#paint0_linear_0_28)" stroke-width="6" stroke-linecap="round"/>
<path d="M3 234C90.7931 234 149.104 3 236.897 3C324.691 3 391.604 234 479.397 234C567.191 234 614.897 16.0744 787.397 16.0744C959.897 16.0744 1062.6 234 1150.4 234C1238.19 234 1236.6 234 1324.4 234" stroke="url(#paint1_linear_0_28)" stroke-width="6" stroke-linecap="round"/>
<path d="M3 234C90.7931 234 149.104 3 236.897 3C324.691 3 391.604 234 479.397 234C567.191 234 614.897 16.0744 787.397 16.0744C959.897 16.0744 1062.6 234 1150.4 234C1238.19 234 1236.6 234 1324.4 234" stroke="url(#paint2_linear_0_28)" stroke-width="6" stroke-linecap="round"/>
</g>
<defs>
<linearGradient id="paint0_linear_0_28" x1="3" y1="118.5" x2="1324.4" y2="118.5" gradientUnits="userSpaceOnUse">
<stop stop-color="white"/>
<stop offset="1" stop-color="white"/>
</linearGradient>
<linearGradient id="paint1_linear_0_28" x1="2.99997" y1="10.6059" x2="86.7264" y2="458.01" gradientUnits="userSpaceOnUse">
<stop stop-color="#2290FF"/>
<stop offset="1" stop-color="white"/>
</linearGradient>
<linearGradient id="paint2_linear_0_28" x1="1324.4" y1="10.6059" x2="1240.67" y2="458.01" gradientUnits="userSpaceOnUse">
<stop stop-color="#0D5C9A" stop-opacity="0.15"/>
<stop offset="1" stop-color="white" stop-opacity="0.1"/>
</linearGradient>
</defs>
</svg>
