<svg preserveAspectRatio="none" width="100%" height="100%" overflow="visible" style="display: block;" viewBox="0 0 141 141" fill="none" xmlns="http://www.w3.org/2000/svg">
<g id="circle">
<g id="Ellipse 256" filter="url(#filter0_d_0_32)">
<path d="M132 64.5C132 98.4655 104.466 126 70.5 126C36.5345 126 9 98.4655 9 64.5C9 30.5345 36.5345 3 70.5 3C104.466 3 132 30.5345 132 64.5ZM24.3577 64.5C24.3577 89.9837 45.0163 110.642 70.5 110.642C95.9837 110.642 116.642 89.9837 116.642 64.5C116.642 39.0163 95.9837 18.3577 70.5 18.3577C45.0163 18.3577 24.3577 39.0163 24.3577 64.5Z" fill="var(--fill-0, white)" fill-opacity="0.2" shape-rendering="crispEdges"/>
</g>
<g id="Ellipse 257" filter="url(#filter1_d_0_32)">
<path d="M29.209 99.0221C25.9555 101.742 25.4936 106.627 28.5979 109.516C34.0896 114.628 40.487 118.707 47.4845 121.531C56.8633 125.316 67.0308 126.729 77.0864 125.646C87.1419 124.563 96.7752 121.017 105.133 115.321C113.49 109.626 120.315 101.957 125 92.9947C129.686 84.032 132.09 74.052 131.997 63.9387C131.905 53.8254 129.32 43.8909 124.471 35.0153C119.623 26.1397 112.66 18.5968 104.199 13.0549C97.8873 8.9201 90.887 5.99436 83.5553 4.40166C79.4111 3.50139 75.6635 6.66799 75.2863 10.8921V10.8921C74.9092 15.1162 78.0568 18.7836 82.16 19.8552C86.9828 21.1148 91.5862 23.1519 95.7841 25.9017C102.132 30.0597 107.356 35.719 110.994 42.3782C114.632 49.0374 116.571 56.4911 116.64 64.0789C116.71 71.6667 114.906 79.1545 111.391 85.879C107.875 92.6035 102.755 98.3572 96.4844 102.63C90.2138 106.904 82.9861 109.564 75.4416 110.377C67.8971 111.19 60.2686 110.129 53.2319 107.289C48.5783 105.411 44.2784 102.793 40.492 99.5518C37.2704 96.7938 32.4626 96.3018 29.209 99.0221V99.0221Z" fill="url(#paint0_linear_0_32)" shape-rendering="crispEdges"/>
</g>
</g>
<defs>
<filter id="filter0_d_0_32" x="0" y="0" width="141" height="141" filterUnits="userSpaceOnUse" color-interpolation-filters="sRGB">
<feFlood flood-opacity="0" result="BackgroundImageFix"/>
<feColorMatrix in="SourceAlpha" type="matrix" values="0 0 0 0 0 0 0 0 0 0 0 0 0 0 0 0 0 0 127 0" result="hardAlpha"/>
<feOffset dy="6"/>
<feGaussianBlur stdDeviation="4.5"/>
<feComposite in2="hardAlpha" operator="out"/>
<feColorMatrix type="matrix" values="0 0 0 0 0.250958 0 0 0 0 0.250958 0 0 0 0 0.250958 0 0 0 0.25 0"/>
<feBlend mode="normal" in2="BackgroundImageFix" result="effect1_dropShadow_0_32"/>
<feBlend mode="normal" in="SourceGraphic" in2="effect1_dropShadow_0_32" result="shape"/>
</filter>
<filter id="filter1_d_0_32" x="17.5024" y="1.24784" width="123.498" height="139.752" filterUnits="userSpaceOnUse" color-interpolation-filters="sRGB">
<feFlood flood-opacity="0" result="BackgroundImageFix"/>
<feColorMatrix in="SourceAlpha" type="matrix" values="0 0 0 0 0 0 0 0 0 0 0 0 0 0 0 0 0 0 127 0" result="hardAlpha"/>
<feOffset dy="6"/>
<feGaussianBlur stdDeviation="4.5"/>
<feComposite in2="hardAlpha" operator="out"/>
<feColorMatrix type="matrix" values="0 0 0 0 0.250958 0 0 0 0 0.250958 0 0 0 0 0.250958 0 0 0 0.25 0"/>
<feBlend mode="normal" in2="BackgroundImageFix" result="effect1_dropShadow_0_32"/>
<feBlend mode="normal" in="SourceGraphic" in2="effect1_dropShadow_0_32" result="shape"/>
</filter>
<linearGradient id="paint0_linear_0_32" x1="20.5" y1="85.5" x2="99.5" y2="-2" gradientUnits="userSpaceOnUse">
<stop stop-color="white"/>
<stop offset="1" stop-color="#FFBB00" stop-opacity="0.5"/>
</linearGradient>
</defs>
</svg>
