<svg preserveAspectRatio="none" width="100%" height="100%" overflow="visible" style="display: block;" viewBox="0 0 141 141" fill="none" xmlns="http://www.w3.org/2000/svg">
<g id="circle">
<g id="Ellipse 256" filter="url(#filter0_d_0_38)">
<path d="M132 64.5C132 98.4655 104.466 126 70.5 126C36.5345 126 9 98.4655 9 64.5C9 30.5345 36.5345 3 70.5 3C104.466 3 132 30.5345 132 64.5ZM24.3577 64.5C24.3577 89.9837 45.0163 110.642 70.5 110.642C95.9837 110.642 116.642 89.9837 116.642 64.5C116.642 39.0163 95.9837 18.3577 70.5 18.3577C45.0163 18.3577 24.3577 39.0163 24.3577 64.5Z" fill="var(--fill-0, white)" fill-opacity="0.2" shape-rendering="crispEdges"/>
</g>
<g id="Ellipse 257" filter="url(#filter1_d_0_38)">
<path d="M120.294 84.9282C124.217 86.5378 128.753 84.6686 129.862 80.5751C131.975 72.7711 132.536 64.6015 131.482 56.5347C130.096 45.9212 125.963 35.8532 119.493 27.3261C113.024 18.7991 104.44 12.1083 94.5919 7.91526C87.1068 4.72838 79.0881 3.06821 71.0033 3.00204C66.7625 2.96733 63.7408 6.83272 64.2345 11.0448V11.0448C64.7282 15.2569 68.5585 18.2039 72.7942 18.4148C78.2077 18.6843 83.5519 19.9066 88.5757 22.0455C95.9646 25.1915 102.405 30.2115 107.259 36.6092C112.113 43.0068 115.214 50.5607 116.254 58.5238C116.961 63.938 116.699 69.4139 115.501 74.7C114.563 78.836 116.37 83.3185 120.294 84.9282V84.9282Z" fill="url(#paint0_linear_0_38)" shape-rendering="crispEdges"/>
</g>
</g>
<defs>
<filter id="filter0_d_0_38" x="0" y="0" width="141" height="141" filterUnits="userSpaceOnUse" color-interpolation-filters="sRGB">
<feFlood flood-opacity="0" result="BackgroundImageFix"/>
<feColorMatrix in="SourceAlpha" type="matrix" values="0 0 0 0 0 0 0 0 0 0 0 0 0 0 0 0 0 0 127 0" result="hardAlpha"/>
<feOffset dy="6"/>
<feGaussianBlur stdDeviation="4.5"/>
<feComposite in2="hardAlpha" operator="out"/>
<feColorMatrix type="matrix" values="0 0 0 0 0.250958 0 0 0 0 0.250958 0 0 0 0 0.250958 0 0 0 0.25 0"/>
<feBlend mode="normal" in2="BackgroundImageFix" result="effect1_dropShadow_0_38"/>
<feBlend mode="normal" in="SourceGraphic" in2="effect1_dropShadow_0_38" result="shape"/>
</filter>
<filter id="filter1_d_0_38" x="55.1816" y="0.001806" width="85.8184" height="100.502" filterUnits="userSpaceOnUse" color-interpolation-filters="sRGB">
<feFlood flood-opacity="0" result="BackgroundImageFix"/>
<feColorMatrix in="SourceAlpha" type="matrix" values="0 0 0 0 0 0 0 0 0 0 0 0 0 0 0 0 0 0 127 0" result="hardAlpha"/>
<feOffset dy="6"/>
<feGaussianBlur stdDeviation="4.5"/>
<feComposite in2="hardAlpha" operator="out"/>
<feColorMatrix type="matrix" values="0 0 0 0 0.250958 0 0 0 0 0.250958 0 0 0 0 0.250958 0 0 0 0.25 0"/>
<feBlend mode="normal" in2="BackgroundImageFix" result="effect1_dropShadow_0_38"/>
<feBlend mode="normal" in="SourceGraphic" in2="effect1_dropShadow_0_38" result="shape"/>
</filter>
<linearGradient id="paint0_linear_0_38" x1="20.5" y1="85.5" x2="99.5" y2="-2" gradientUnits="userSpaceOnUse">
<stop stop-color="white"/>
<stop offset="1" stop-color="#FFBB00" stop-opacity="0.5"/>
</linearGradient>
</defs>
</svg>
