<svg width="1440" height="1134" viewBox="0 0 1440 1134" fill="none" xmlns="http://www.w3.org/2000/svg">
<path d="M-8.13354 176.416L-98.3786 124.295V0.5H-119V276.492H-98.3786V223.816L-30.8381 262.826L-20.5179 244.974L-98.3786 200.002V148.11L-18.4347 194.268L-8.13354 176.416Z" stroke="url(#paint0_linear_3177_526)" stroke-opacity="0.6" stroke-miterlimit="10"/>
<path d="M147.626 100.595L57.362 152.697V276.492H36.7405V0.5H57.362V53.1946L124.922 14.1658L135.223 32.0365L57.362 76.9903V128.901L137.306 82.7433L147.626 100.595Z" stroke="url(#paint1_linear_3177_526)" stroke-opacity="0.6" stroke-miterlimit="10"/>
<path d="M-88.5552 100.595L1.70894 152.697V276.492H22.3304V0.5H1.70894V53.1946L-65.8506 14.1658L-76.1709 32.0365L1.70894 76.9903V128.901L-78.2349 82.7433L-88.5552 100.595Z" stroke="url(#paint2_linear_3177_526)" stroke-opacity="0.6" stroke-miterlimit="10"/>
<path d="M69.7272 176.416L159.991 124.295V0.5H180.594V276.492H159.991V223.816L92.4318 262.826L82.1115 244.974L159.991 200.002V148.11L80.0283 194.268L69.7272 176.416Z" stroke="url(#paint3_linear_3177_526)" stroke-opacity="0.6" stroke-miterlimit="10"/>
<path d="M305.908 176.416L215.644 124.295V0.5H195.023V276.492H215.644V223.816L283.204 262.826L293.505 244.974L215.644 200.002V148.11L295.588 194.268L305.908 176.416Z" stroke="url(#paint4_linear_3177_526)" stroke-opacity="0.6" stroke-miterlimit="10"/>
<path d="M461.649 100.595L371.385 152.697V276.492H350.763V0.5H371.385V53.1946L438.944 14.1658L449.246 32.0365L371.385 76.9903V128.901L451.329 82.7433L461.649 100.595Z" stroke="url(#paint5_linear_3177_526)" stroke-opacity="0.6" stroke-miterlimit="10"/>
<path d="M225.468 100.595L315.732 152.697V276.492H336.353V0.5H315.732V53.1946L248.172 14.1658L237.871 32.0365L315.732 76.9903V128.901L235.788 82.7433L225.468 100.595Z" stroke="url(#paint6_linear_3177_526)" stroke-opacity="0.6" stroke-miterlimit="10"/>
<path d="M383.75 176.416L474.014 124.295V0.5H494.636V276.492H474.014V223.816L406.455 262.826L396.134 244.974L474.014 200.002V148.11L394.07 194.268L383.75 176.416Z" stroke="url(#paint7_linear_3177_526)" stroke-opacity="0.6" stroke-miterlimit="10"/>
<path d="M619.931 176.416L529.667 124.295V0.5H509.046V276.492H529.667V223.816L597.227 262.826L607.528 244.974L529.667 200.002V148.11L609.611 194.268L619.931 176.416Z" stroke="url(#paint8_linear_3177_526)" stroke-opacity="0.6" stroke-miterlimit="10"/>
<path d="M775.672 100.595L685.408 152.697V276.492H664.786V0.5H685.408V53.1946L752.967 14.1658L763.268 32.0365L685.408 76.9903V128.901L765.351 82.7433L775.672 100.595Z" stroke="url(#paint9_linear_3177_526)" stroke-opacity="0.6" stroke-miterlimit="10"/>
<path d="M539.491 100.595L629.755 152.697V276.492H650.376V0.5H629.755V53.1946L562.195 14.1658L551.894 32.0365L629.755 76.9903V128.901L549.811 82.7433L539.491 100.595Z" stroke="url(#paint10_linear_3177_526)" stroke-opacity="0.6" stroke-miterlimit="10"/>
<path d="M697.773 176.416L788.037 124.295V0.5H808.658V276.492H788.037V223.816L720.478 262.826L710.176 244.974L788.037 200.002V148.11L708.093 194.268L697.773 176.416Z" stroke="url(#paint11_linear_3177_526)" stroke-opacity="0.6" stroke-miterlimit="10"/>
<path d="M933.954 176.416L843.69 124.295V0.5H823.069V276.492H843.69V223.816L911.25 262.826L921.551 244.974L843.69 200.002V148.11L923.634 194.268L933.954 176.416Z" stroke="url(#paint12_linear_3177_526)" stroke-opacity="0.6" stroke-miterlimit="10"/>
<path d="M1089.69 100.595L999.431 152.697V276.492H978.809V0.5H999.431V53.1946L1066.99 14.1658L1077.31 32.0365L999.431 76.9903V128.901L1079.37 82.7433L1089.69 100.595Z" stroke="url(#paint13_linear_3177_526)" stroke-opacity="0.6" stroke-miterlimit="10"/>
<path d="M853.513 100.595L943.778 152.697V276.492H964.399V0.5H943.778V53.1946L876.218 14.1658L865.917 32.0365L943.778 76.9903V128.901L863.834 82.7433L853.513 100.595Z" stroke="url(#paint14_linear_3177_526)" stroke-opacity="0.6" stroke-miterlimit="10"/>
<path d="M1011.8 176.416L1102.06 124.295V0.5H1122.68V276.492H1102.06V223.816L1034.5 262.826L1024.2 244.974L1102.06 200.002V148.11L1022.12 194.268L1011.8 176.416Z" stroke="url(#paint15_linear_3177_526)" stroke-opacity="0.6" stroke-miterlimit="10"/>
<path d="M1247.98 176.416L1157.71 124.295V0.5H1137.09V276.492H1157.71V223.816L1225.27 262.826L1235.57 244.974L1157.71 200.002V148.11L1237.66 194.268L1247.98 176.416Z" stroke="url(#paint16_linear_3177_526)" stroke-opacity="0.6" stroke-miterlimit="10"/>
<path d="M1403.72 100.595L1313.45 152.697V276.492H1292.85V0.5H1313.45V53.1946L1381.01 14.1658L1391.33 32.0365L1313.45 76.9903V128.901L1393.42 82.7433L1403.72 100.595Z" stroke="url(#paint17_linear_3177_526)" stroke-opacity="0.6" stroke-miterlimit="10"/>
<path d="M1167.54 100.595L1257.8 152.697V276.492H1278.42V0.5H1257.8V53.1946L1190.24 14.1658L1179.94 32.0365L1257.8 76.9903V128.901L1177.86 82.7433L1167.54 100.595Z" stroke="url(#paint18_linear_3177_526)" stroke-opacity="0.6" stroke-miterlimit="10"/>
<path d="M1325.82 176.416L1416.08 124.295V0.5H1436.7V276.492H1416.08V223.816L1348.52 262.826L1338.22 244.974L1416.08 200.002V148.11L1336.14 194.268L1325.82 176.416Z" stroke="url(#paint19_linear_3177_526)" stroke-opacity="0.6" stroke-miterlimit="10"/>
<path d="M1562 176.416L1471.74 124.295V0.5H1451.11V276.492H1471.74V223.816L1539.3 262.826L1549.62 244.974L1471.74 200.002V148.11L1551.68 194.268L1562 176.416Z" stroke="url(#paint20_linear_3177_526)" stroke-opacity="0.6" stroke-miterlimit="10"/>
<path d="M-8.13354 462.079L-98.3786 409.958V286.163H-119V562.155H-98.3786V509.479L-30.8381 548.489L-20.5179 530.637L-98.3786 485.684V433.773L-18.4347 479.931L-8.13354 462.079Z" stroke="url(#paint21_linear_3177_526)" stroke-opacity="0.6" stroke-miterlimit="10"/>
<path d="M147.626 386.258L57.362 438.36V562.155H36.7405V286.163H57.362V338.858L124.922 299.848L135.223 317.699L57.362 362.653V414.564L137.306 368.406L147.626 386.258Z" stroke="url(#paint22_linear_3177_526)" stroke-opacity="0.6" stroke-miterlimit="10"/>
<path d="M-88.5552 386.258L1.70894 438.36V562.155H22.3304V286.163H1.70894V338.858L-65.8506 299.848L-76.1709 317.699L1.70894 362.653V414.564L-78.2349 368.406L-88.5552 386.258Z" stroke="url(#paint23_linear_3177_526)" stroke-opacity="0.6" stroke-miterlimit="10"/>
<path d="M69.7272 462.079L159.991 409.958V286.163H180.594V562.155H159.991V509.479L92.4318 548.489L82.1115 530.637L159.991 485.684V433.773L80.0283 479.931L69.7272 462.079Z" stroke="url(#paint24_linear_3177_526)" stroke-opacity="0.6" stroke-miterlimit="10"/>
<path d="M305.908 462.079L215.644 409.958V286.163H195.023V562.155H215.644V509.479L283.204 548.489L293.505 530.637L215.644 485.684V433.773L295.588 479.931L305.908 462.079Z" stroke="url(#paint25_linear_3177_526)" stroke-opacity="0.6" stroke-miterlimit="10"/>
<path d="M461.649 386.258L371.385 438.36V562.155H350.763V286.163H371.385V338.858L438.944 299.848L449.246 317.699L371.385 362.653V414.564L451.329 368.406L461.649 386.258Z" stroke="url(#paint26_linear_3177_526)" stroke-opacity="0.6" stroke-miterlimit="10"/>
<path d="M225.468 386.258L315.732 438.36V562.155H336.353V286.163H315.732V338.858L248.172 299.848L237.871 317.699L315.732 362.653V414.564L235.788 368.406L225.468 386.258Z" stroke="url(#paint27_linear_3177_526)" stroke-opacity="0.6" stroke-miterlimit="10"/>
<path d="M383.75 462.079L474.014 409.958V286.163H494.636V562.155H474.014V509.479L406.455 548.489L396.134 530.637L474.014 485.684V433.773L394.07 479.931L383.75 462.079Z" stroke="url(#paint28_linear_3177_526)" stroke-opacity="0.6" stroke-miterlimit="10"/>
<path d="M619.931 462.079L529.667 409.958V286.163H509.046V562.155H529.667V509.479L597.227 548.489L607.528 530.637L529.667 485.684V433.773L609.611 479.931L619.931 462.079Z" stroke="url(#paint29_linear_3177_526)" stroke-opacity="0.6" stroke-miterlimit="10"/>
<path d="M775.672 386.258L685.408 438.36V562.155H664.786V286.163H685.408V338.858L752.967 299.848L763.268 317.699L685.408 362.653V414.564L765.351 368.406L775.672 386.258Z" stroke="url(#paint30_linear_3177_526)" stroke-opacity="0.6" stroke-miterlimit="10"/>
<path d="M539.491 386.258L629.755 438.36V562.155H650.376V286.163H629.755V338.858L562.195 299.848L551.894 317.699L629.755 362.653V414.564L549.811 368.406L539.491 386.258Z" stroke="url(#paint31_linear_3177_526)" stroke-opacity="0.6" stroke-miterlimit="10"/>
<path d="M697.773 462.079L788.037 409.958V286.163H808.658V562.155H788.037V509.479L720.478 548.489L710.176 530.637L788.037 485.684V433.773L708.093 479.931L697.773 462.079Z" stroke="url(#paint32_linear_3177_526)" stroke-opacity="0.6" stroke-miterlimit="10"/>
<path d="M933.954 462.079L843.69 409.958V286.163H823.069V562.155H843.69V509.479L911.25 548.489L921.551 530.637L843.69 485.684V433.773L923.634 479.931L933.954 462.079Z" stroke="url(#paint33_linear_3177_526)" stroke-opacity="0.6" stroke-miterlimit="10"/>
<path d="M1089.69 386.258L999.431 438.36V562.155H978.809V286.163H999.431V338.858L1066.99 299.848L1077.31 317.699L999.431 362.653V414.564L1079.37 368.406L1089.69 386.258Z" stroke="url(#paint34_linear_3177_526)" stroke-opacity="0.6" stroke-miterlimit="10"/>
<path d="M853.513 386.258L943.778 438.36V562.155H964.399V286.163H943.778V338.858L876.218 299.848L865.917 317.699L943.778 362.653V414.564L863.834 368.406L853.513 386.258Z" stroke="url(#paint35_linear_3177_526)" stroke-opacity="0.6" stroke-miterlimit="10"/>
<path d="M1011.8 462.079L1102.06 409.958V286.163H1122.68V562.155H1102.06V509.479L1034.5 548.489L1024.2 530.637L1102.06 485.684V433.773L1022.12 479.931L1011.8 462.079Z" stroke="url(#paint36_linear_3177_526)" stroke-opacity="0.6" stroke-miterlimit="10"/>
<path d="M1247.98 462.079L1157.71 409.958V286.163H1137.09V562.155H1157.71V509.479L1225.27 548.489L1235.57 530.637L1157.71 485.684V433.773L1237.66 479.931L1247.98 462.079Z" stroke="url(#paint37_linear_3177_526)" stroke-opacity="0.6" stroke-miterlimit="10"/>
<path d="M1403.72 386.258L1313.45 438.36V562.155H1292.85V286.163H1313.45V338.858L1381.01 299.848L1391.33 317.699L1313.45 362.653V414.564L1393.42 368.406L1403.72 386.258Z" stroke="url(#paint38_linear_3177_526)" stroke-opacity="0.6" stroke-miterlimit="10"/>
<path d="M1167.54 386.258L1257.8 438.36V562.155H1278.42V286.163H1257.8V338.858L1190.24 299.848L1179.94 317.699L1257.8 362.653V414.564L1177.86 368.406L1167.54 386.258Z" stroke="url(#paint39_linear_3177_526)" stroke-opacity="0.6" stroke-miterlimit="10"/>
<path d="M1325.82 462.079L1416.08 409.958V286.163H1436.7V562.155H1416.08V509.479L1348.52 548.489L1338.22 530.637L1416.08 485.684V433.773L1336.14 479.931L1325.82 462.079Z" stroke="url(#paint40_linear_3177_526)" stroke-opacity="0.6" stroke-miterlimit="10"/>
<path d="M1562 462.079L1471.74 409.958V286.163H1451.11V562.155H1471.74V509.479L1539.3 548.489L1549.62 530.637L1471.74 485.684V433.773L1551.68 479.931L1562 462.079Z" stroke="url(#paint41_linear_3177_526)" stroke-opacity="0.6" stroke-miterlimit="10"/>
<path d="M-8.13354 747.742L-98.3786 695.621V571.845H-119V847.837H-98.3786V795.142L-30.8381 834.152L-20.5179 816.3L-98.3786 771.347V719.436L-18.4347 765.594L-8.13354 747.742Z" stroke="url(#paint42_linear_3177_526)" stroke-opacity="0.6" stroke-miterlimit="10"/>
<path d="M147.626 671.921L57.362 724.042V847.837H36.7405V571.845H57.362V624.52L124.922 585.511L135.223 603.362L57.362 648.316V700.227L137.306 654.069L147.626 671.921Z" stroke="url(#paint43_linear_3177_526)" stroke-opacity="0.6" stroke-miterlimit="10"/>
<path d="M-88.5552 671.921L1.70894 724.042V847.837H22.3304V571.845H1.70894V624.52L-65.8506 585.511L-76.1709 603.362L1.70894 648.316V700.227L-78.2349 654.069L-88.5552 671.921Z" stroke="url(#paint44_linear_3177_526)" stroke-opacity="0.6" stroke-miterlimit="10"/>
<path d="M69.7272 747.742L159.991 695.621V571.845H180.594V847.837H159.991V795.142L92.4318 834.152L82.1115 816.3L159.991 771.347V719.436L80.0283 765.594L69.7272 747.742Z" stroke="url(#paint45_linear_3177_526)" stroke-opacity="0.6" stroke-miterlimit="10"/>
<path d="M305.908 747.742L215.644 695.621V571.845H195.023V847.837H215.644V795.142L283.204 834.152L293.505 816.3L215.644 771.347V719.436L295.588 765.594L305.908 747.742Z" stroke="url(#paint46_linear_3177_526)" stroke-opacity="0.6" stroke-miterlimit="10"/>
<path d="M461.649 671.921L371.385 724.042V847.837H350.763V571.845H371.385V624.52L438.944 585.511L449.246 603.362L371.385 648.316V700.227L451.329 654.069L461.649 671.921Z" stroke="url(#paint47_linear_3177_526)" stroke-opacity="0.6" stroke-miterlimit="10"/>
<path d="M225.468 671.921L315.732 724.042V847.837H336.353V571.845H315.732V624.52L248.172 585.511L237.871 603.362L315.732 648.316V700.227L235.788 654.069L225.468 671.921Z" stroke="url(#paint48_linear_3177_526)" stroke-opacity="0.6" stroke-miterlimit="10"/>
<path d="M383.75 747.742L474.014 695.621V571.845H494.636V847.837H474.014V795.142L406.455 834.152L396.134 816.3L474.014 771.347V719.436L394.07 765.594L383.75 747.742Z" stroke="url(#paint49_linear_3177_526)" stroke-opacity="0.6" stroke-miterlimit="10"/>
<path d="M619.931 747.742L529.667 695.621V571.845H509.046V847.837H529.667V795.142L597.227 834.152L607.528 816.3L529.667 771.347V719.436L609.611 765.594L619.931 747.742Z" stroke="url(#paint50_linear_3177_526)" stroke-opacity="0.6" stroke-miterlimit="10"/>
<path d="M775.672 671.921L685.408 724.042V847.837H664.786V571.845H685.408V624.52L752.967 585.511L763.268 603.362L685.408 648.316V700.227L765.351 654.069L775.672 671.921Z" stroke="url(#paint51_linear_3177_526)" stroke-opacity="0.6" stroke-miterlimit="10"/>
<path d="M539.491 671.921L629.755 724.042V847.837H650.376V571.845H629.755V624.52L562.195 585.511L551.894 603.362L629.755 648.316V700.227L549.811 654.069L539.491 671.921Z" stroke="url(#paint52_linear_3177_526)" stroke-opacity="0.6" stroke-miterlimit="10"/>
<path d="M697.773 747.742L788.037 695.621V571.845H808.658V847.837H788.037V795.142L720.478 834.152L710.176 816.3L788.037 771.347V719.436L708.093 765.594L697.773 747.742Z" stroke="url(#paint53_linear_3177_526)" stroke-opacity="0.6" stroke-miterlimit="10"/>
<path d="M933.954 747.742L843.69 695.621V571.845H823.069V847.837H843.69V795.142L911.25 834.152L921.551 816.3L843.69 771.347V719.436L923.634 765.594L933.954 747.742Z" stroke="url(#paint54_linear_3177_526)" stroke-opacity="0.6" stroke-miterlimit="10"/>
<path d="M1089.69 671.921L999.431 724.042V847.837H978.809V571.845H999.431V624.52L1066.99 585.511L1077.31 603.362L999.431 648.316V700.227L1079.37 654.069L1089.69 671.921Z" stroke="url(#paint55_linear_3177_526)" stroke-opacity="0.6" stroke-miterlimit="10"/>
<path d="M853.513 671.921L943.778 724.042V847.837H964.399V571.845H943.778V624.52L876.218 585.511L865.917 603.362L943.778 648.316V700.227L863.834 654.069L853.513 671.921Z" stroke="url(#paint56_linear_3177_526)" stroke-opacity="0.6" stroke-miterlimit="10"/>
<path d="M1011.8 747.742L1102.06 695.621V571.845H1122.68V847.837H1102.06V795.142L1034.5 834.152L1024.2 816.3L1102.06 771.347V719.436L1022.12 765.594L1011.8 747.742Z" stroke="url(#paint57_linear_3177_526)" stroke-opacity="0.6" stroke-miterlimit="10"/>
<path d="M1247.98 747.742L1157.71 695.621V571.845H1137.09V847.837H1157.71V795.142L1225.27 834.152L1235.57 816.3L1157.71 771.347V719.436L1237.66 765.594L1247.98 747.742Z" stroke="url(#paint58_linear_3177_526)" stroke-opacity="0.6" stroke-miterlimit="10"/>
<path d="M1403.72 671.921L1313.45 724.042V847.837H1292.85V571.845H1313.45V624.52L1381.01 585.511L1391.33 603.362L1313.45 648.316V700.227L1393.42 654.069L1403.72 671.921Z" stroke="url(#paint59_linear_3177_526)" stroke-opacity="0.6" stroke-miterlimit="10"/>
<path d="M1167.54 671.921L1257.8 724.042V847.837H1278.42V571.845H1257.8V624.52L1190.24 585.511L1179.94 603.362L1257.8 648.316V700.227L1177.86 654.069L1167.54 671.921Z" stroke="url(#paint60_linear_3177_526)" stroke-opacity="0.6" stroke-miterlimit="10"/>
<path d="M1325.82 747.742L1416.08 695.621V571.845H1436.7V847.837H1416.08V795.142L1348.52 834.152L1338.22 816.3L1416.08 771.347V719.436L1336.14 765.594L1325.82 747.742Z" stroke="url(#paint61_linear_3177_526)" stroke-opacity="0.6" stroke-miterlimit="10"/>
<path d="M1562 747.742L1471.74 695.621V571.845H1451.11V847.837H1471.74V795.142L1539.3 834.152L1549.62 816.3L1471.74 771.347V719.436L1551.68 765.594L1562 747.742Z" stroke="url(#paint62_linear_3177_526)" stroke-opacity="0.6" stroke-miterlimit="10"/>
<path d="M-8.13354 1033.41L-98.3786 981.303V857.508H-119V1133.5H-98.3786V1080.81L-30.8381 1119.83L-20.5179 1101.96L-98.3786 1057.01V1005.1L-18.4347 1051.26L-8.13354 1033.41Z" stroke="url(#paint63_linear_3177_526)" stroke-opacity="0.6" stroke-miterlimit="10"/>
<path d="M147.626 957.584L57.362 1009.7V1133.5H36.7405V857.508H57.362V910.183L124.922 871.174L135.223 889.025L57.362 933.979V985.89L137.306 939.732L147.626 957.584Z" stroke="url(#paint64_linear_3177_526)" stroke-opacity="0.6" stroke-miterlimit="10"/>
<path d="M-88.5552 957.584L1.70894 1009.7V1133.5H22.3304V857.508H1.70894V910.183L-65.8506 871.174L-76.1709 889.025L1.70894 933.979V985.89L-78.2349 939.732L-88.5552 957.584Z" stroke="url(#paint65_linear_3177_526)" stroke-opacity="0.6" stroke-miterlimit="10"/>
<path d="M69.7272 1033.41L159.991 981.303V857.508H180.594V1133.5H159.991V1080.81L92.4318 1119.83L82.1115 1101.96L159.991 1057.01V1005.1L80.0283 1051.26L69.7272 1033.41Z" stroke="url(#paint66_linear_3177_526)" stroke-opacity="0.6" stroke-miterlimit="10"/>
<path d="M305.908 1033.41L215.644 981.303V857.508H195.023V1133.5H215.644V1080.81L283.204 1119.83L293.505 1101.96L215.644 1057.01V1005.1L295.588 1051.26L305.908 1033.41Z" stroke="url(#paint67_linear_3177_526)" stroke-opacity="0.6" stroke-miterlimit="10"/>
<path d="M461.649 957.584L371.385 1009.7V1133.5H350.763V857.508H371.385V910.183L438.944 871.174L449.246 889.025L371.385 933.979V985.89L451.329 939.732L461.649 957.584Z" stroke="url(#paint68_linear_3177_526)" stroke-opacity="0.6" stroke-miterlimit="10"/>
<path d="M225.468 957.584L315.732 1009.7V1133.5H336.353V857.508H315.732V910.183L248.172 871.174L237.871 889.025L315.732 933.979V985.89L235.788 939.732L225.468 957.584Z" stroke="url(#paint69_linear_3177_526)" stroke-opacity="0.6" stroke-miterlimit="10"/>
<path d="M383.75 1033.41L474.014 981.303V857.508H494.636V1133.5H474.014V1080.81L406.455 1119.83L396.134 1101.96L474.014 1057.01V1005.1L394.07 1051.26L383.75 1033.41Z" stroke="url(#paint70_linear_3177_526)" stroke-opacity="0.6" stroke-miterlimit="10"/>
<path d="M619.931 1033.41L529.667 981.303V857.508H509.046V1133.5H529.667V1080.81L597.227 1119.83L607.528 1101.96L529.667 1057.01V1005.1L609.611 1051.26L619.931 1033.41Z" stroke="url(#paint71_linear_3177_526)" stroke-opacity="0.6" stroke-miterlimit="10"/>
<path d="M775.672 957.584L685.408 1009.7V1133.5H664.786V857.508H685.408V910.183L752.967 871.174L763.268 889.025L685.408 933.979V985.89L765.351 939.732L775.672 957.584Z" stroke="url(#paint72_linear_3177_526)" stroke-opacity="0.6" stroke-miterlimit="10"/>
<path d="M539.491 957.584L629.755 1009.7V1133.5H650.376V857.508H629.755V910.183L562.195 871.174L551.894 889.025L629.755 933.979V985.89L549.811 939.732L539.491 957.584Z" stroke="url(#paint73_linear_3177_526)" stroke-opacity="0.6" stroke-miterlimit="10"/>
<path d="M697.773 1033.41L788.037 981.303V857.508H808.658V1133.5H788.037V1080.81L720.478 1119.83L710.176 1101.96L788.037 1057.01V1005.1L708.093 1051.26L697.773 1033.41Z" stroke="url(#paint74_linear_3177_526)" stroke-opacity="0.6" stroke-miterlimit="10"/>
<path d="M933.954 1033.41L843.69 981.303V857.508H823.069V1133.5H843.69V1080.81L911.25 1119.83L921.551 1101.96L843.69 1057.01V1005.1L923.634 1051.26L933.954 1033.41Z" stroke="url(#paint75_linear_3177_526)" stroke-opacity="0.6" stroke-miterlimit="10"/>
<path d="M1089.69 957.584L999.431 1009.7V1133.5H978.809V857.508H999.431V910.183L1066.99 871.174L1077.31 889.025L999.431 933.979V985.89L1079.37 939.732L1089.69 957.584Z" stroke="url(#paint76_linear_3177_526)" stroke-opacity="0.6" stroke-miterlimit="10"/>
<path d="M853.513 957.584L943.778 1009.7V1133.5H964.399V857.508H943.778V910.183L876.218 871.174L865.917 889.025L943.778 933.979V985.89L863.834 939.732L853.513 957.584Z" stroke="url(#paint77_linear_3177_526)" stroke-opacity="0.6" stroke-miterlimit="10"/>
<path d="M1011.8 1033.41L1102.06 981.303V857.508H1122.68V1133.5H1102.06V1080.81L1034.5 1119.83L1024.2 1101.96L1102.06 1057.01V1005.1L1022.12 1051.26L1011.8 1033.41Z" stroke="url(#paint78_linear_3177_526)" stroke-opacity="0.6" stroke-miterlimit="10"/>
<path d="M1247.98 1033.41L1157.71 981.303V857.508H1137.09V1133.5H1157.71V1080.81L1225.27 1119.83L1235.57 1101.96L1157.71 1057.01V1005.1L1237.66 1051.26L1247.98 1033.41Z" stroke="url(#paint79_linear_3177_526)" stroke-opacity="0.6" stroke-miterlimit="10"/>
<path d="M1403.72 957.584L1313.45 1009.7V1133.5H1292.85V857.508H1313.45V910.183L1381.01 871.174L1391.33 889.025L1313.45 933.979V985.89L1393.42 939.732L1403.72 957.584Z" stroke="url(#paint80_linear_3177_526)" stroke-opacity="0.6" stroke-miterlimit="10"/>
<path d="M1167.54 957.584L1257.8 1009.7V1133.5H1278.42V857.508H1257.8V910.183L1190.24 871.174L1179.94 889.025L1257.8 933.979V985.89L1177.86 939.732L1167.54 957.584Z" stroke="url(#paint81_linear_3177_526)" stroke-opacity="0.6" stroke-miterlimit="10"/>
<path d="M1325.82 1033.41L1416.08 981.303V857.508H1436.7V1133.5H1416.08V1080.81L1348.52 1119.83L1338.22 1101.96L1416.08 1057.01V1005.1L1336.14 1051.26L1325.82 1033.41Z" stroke="url(#paint82_linear_3177_526)" stroke-opacity="0.6" stroke-miterlimit="10"/>
<path d="M1562 1033.41L1471.74 981.303V857.508H1451.11V1133.5H1471.74V1080.81L1539.3 1119.83L1549.62 1101.96L1471.74 1057.01V1005.1L1551.68 1051.26L1562 1033.41Z" stroke="url(#paint83_linear_3177_526)" stroke-opacity="0.6" stroke-miterlimit="10"/>
<defs>
<linearGradient id="paint0_linear_3177_526" x1="1499.48" y1="270.486" x2="1485.35" y2="1065.12" gradientUnits="userSpaceOnUse">
<stop/>
<stop offset="0.211538" stop-color="#2290FF"/>
<stop offset="0.533654"/>
<stop offset="0.730769" stop-color="#2290FF"/>
<stop offset="1"/>
</linearGradient>
<linearGradient id="paint1_linear_3177_526" x1="1499.48" y1="270.486" x2="1485.35" y2="1065.12" gradientUnits="userSpaceOnUse">
<stop/>
<stop offset="0.211538" stop-color="#2290FF"/>
<stop offset="0.533654"/>
<stop offset="0.730769" stop-color="#2290FF"/>
<stop offset="1"/>
</linearGradient>
<linearGradient id="paint2_linear_3177_526" x1="1499.48" y1="270.486" x2="1485.35" y2="1065.12" gradientUnits="userSpaceOnUse">
<stop/>
<stop offset="0.211538" stop-color="#2290FF"/>
<stop offset="0.533654"/>
<stop offset="0.730769" stop-color="#2290FF"/>
<stop offset="1"/>
</linearGradient>
<linearGradient id="paint3_linear_3177_526" x1="1499.48" y1="270.486" x2="1485.35" y2="1065.12" gradientUnits="userSpaceOnUse">
<stop/>
<stop offset="0.211538" stop-color="#2290FF"/>
<stop offset="0.533654"/>
<stop offset="0.730769" stop-color="#2290FF"/>
<stop offset="1"/>
</linearGradient>
<linearGradient id="paint4_linear_3177_526" x1="1499.48" y1="270.486" x2="1485.35" y2="1065.12" gradientUnits="userSpaceOnUse">
<stop/>
<stop offset="0.211538" stop-color="#2290FF"/>
<stop offset="0.533654"/>
<stop offset="0.730769" stop-color="#2290FF"/>
<stop offset="1"/>
</linearGradient>
<linearGradient id="paint5_linear_3177_526" x1="1499.48" y1="270.486" x2="1485.35" y2="1065.12" gradientUnits="userSpaceOnUse">
<stop/>
<stop offset="0.211538" stop-color="#2290FF"/>
<stop offset="0.533654"/>
<stop offset="0.730769" stop-color="#2290FF"/>
<stop offset="1"/>
</linearGradient>
<linearGradient id="paint6_linear_3177_526" x1="1499.48" y1="270.486" x2="1485.35" y2="1065.12" gradientUnits="userSpaceOnUse">
<stop/>
<stop offset="0.211538" stop-color="#2290FF"/>
<stop offset="0.533654"/>
<stop offset="0.730769" stop-color="#2290FF"/>
<stop offset="1"/>
</linearGradient>
<linearGradient id="paint7_linear_3177_526" x1="1499.48" y1="270.486" x2="1485.35" y2="1065.12" gradientUnits="userSpaceOnUse">
<stop/>
<stop offset="0.211538" stop-color="#2290FF"/>
<stop offset="0.533654"/>
<stop offset="0.730769" stop-color="#2290FF"/>
<stop offset="1"/>
</linearGradient>
<linearGradient id="paint8_linear_3177_526" x1="1499.48" y1="270.486" x2="1485.35" y2="1065.12" gradientUnits="userSpaceOnUse">
<stop/>
<stop offset="0.211538" stop-color="#2290FF"/>
<stop offset="0.533654"/>
<stop offset="0.730769" stop-color="#2290FF"/>
<stop offset="1"/>
</linearGradient>
<linearGradient id="paint9_linear_3177_526" x1="1499.48" y1="270.486" x2="1485.35" y2="1065.12" gradientUnits="userSpaceOnUse">
<stop/>
<stop offset="0.211538" stop-color="#2290FF"/>
<stop offset="0.533654"/>
<stop offset="0.730769" stop-color="#2290FF"/>
<stop offset="1"/>
</linearGradient>
<linearGradient id="paint10_linear_3177_526" x1="1499.48" y1="270.486" x2="1485.35" y2="1065.12" gradientUnits="userSpaceOnUse">
<stop/>
<stop offset="0.211538" stop-color="#2290FF"/>
<stop offset="0.533654"/>
<stop offset="0.730769" stop-color="#2290FF"/>
<stop offset="1"/>
</linearGradient>
<linearGradient id="paint11_linear_3177_526" x1="1499.48" y1="270.486" x2="1485.35" y2="1065.12" gradientUnits="userSpaceOnUse">
<stop/>
<stop offset="0.211538" stop-color="#2290FF"/>
<stop offset="0.533654"/>
<stop offset="0.730769" stop-color="#2290FF"/>
<stop offset="1"/>
</linearGradient>
<linearGradient id="paint12_linear_3177_526" x1="1499.48" y1="270.486" x2="1485.35" y2="1065.12" gradientUnits="userSpaceOnUse">
<stop/>
<stop offset="0.211538" stop-color="#2290FF"/>
<stop offset="0.533654"/>
<stop offset="0.730769" stop-color="#2290FF"/>
<stop offset="1"/>
</linearGradient>
<linearGradient id="paint13_linear_3177_526" x1="1499.48" y1="270.486" x2="1485.35" y2="1065.12" gradientUnits="userSpaceOnUse">
<stop/>
<stop offset="0.211538" stop-color="#2290FF"/>
<stop offset="0.533654"/>
<stop offset="0.730769" stop-color="#2290FF"/>
<stop offset="1"/>
</linearGradient>
<linearGradient id="paint14_linear_3177_526" x1="1499.48" y1="270.486" x2="1485.35" y2="1065.12" gradientUnits="userSpaceOnUse">
<stop/>
<stop offset="0.211538" stop-color="#2290FF"/>
<stop offset="0.533654"/>
<stop offset="0.730769" stop-color="#2290FF"/>
<stop offset="1"/>
</linearGradient>
<linearGradient id="paint15_linear_3177_526" x1="1499.48" y1="270.486" x2="1485.35" y2="1065.12" gradientUnits="userSpaceOnUse">
<stop/>
<stop offset="0.211538" stop-color="#2290FF"/>
<stop offset="0.533654"/>
<stop offset="0.730769" stop-color="#2290FF"/>
<stop offset="1"/>
</linearGradient>
<linearGradient id="paint16_linear_3177_526" x1="1499.48" y1="270.486" x2="1485.35" y2="1065.12" gradientUnits="userSpaceOnUse">
<stop/>
<stop offset="0.211538" stop-color="#2290FF"/>
<stop offset="0.533654"/>
<stop offset="0.730769" stop-color="#2290FF"/>
<stop offset="1"/>
</linearGradient>
<linearGradient id="paint17_linear_3177_526" x1="1499.48" y1="270.486" x2="1485.35" y2="1065.12" gradientUnits="userSpaceOnUse">
<stop/>
<stop offset="0.211538" stop-color="#2290FF"/>
<stop offset="0.533654"/>
<stop offset="0.730769" stop-color="#2290FF"/>
<stop offset="1"/>
</linearGradient>
<linearGradient id="paint18_linear_3177_526" x1="1499.48" y1="270.486" x2="1485.35" y2="1065.12" gradientUnits="userSpaceOnUse">
<stop/>
<stop offset="0.211538" stop-color="#2290FF"/>
<stop offset="0.533654"/>
<stop offset="0.730769" stop-color="#2290FF"/>
<stop offset="1"/>
</linearGradient>
<linearGradient id="paint19_linear_3177_526" x1="1499.48" y1="270.486" x2="1485.35" y2="1065.12" gradientUnits="userSpaceOnUse">
<stop/>
<stop offset="0.211538" stop-color="#2290FF"/>
<stop offset="0.533654"/>
<stop offset="0.730769" stop-color="#2290FF"/>
<stop offset="1"/>
</linearGradient>
<linearGradient id="paint20_linear_3177_526" x1="1499.48" y1="270.486" x2="1485.35" y2="1065.12" gradientUnits="userSpaceOnUse">
<stop/>
<stop offset="0.211538" stop-color="#2290FF"/>
<stop offset="0.533654"/>
<stop offset="0.730769" stop-color="#2290FF"/>
<stop offset="1"/>
</linearGradient>
<linearGradient id="paint21_linear_3177_526" x1="1499.48" y1="270.486" x2="1485.35" y2="1065.12" gradientUnits="userSpaceOnUse">
<stop/>
<stop offset="0.211538" stop-color="#2290FF"/>
<stop offset="0.533654"/>
<stop offset="0.730769" stop-color="#2290FF"/>
<stop offset="1"/>
</linearGradient>
<linearGradient id="paint22_linear_3177_526" x1="1499.48" y1="270.486" x2="1485.35" y2="1065.12" gradientUnits="userSpaceOnUse">
<stop/>
<stop offset="0.211538" stop-color="#2290FF"/>
<stop offset="0.533654"/>
<stop offset="0.730769" stop-color="#2290FF"/>
<stop offset="1"/>
</linearGradient>
<linearGradient id="paint23_linear_3177_526" x1="1499.48" y1="270.486" x2="1485.35" y2="1065.12" gradientUnits="userSpaceOnUse">
<stop/>
<stop offset="0.211538" stop-color="#2290FF"/>
<stop offset="0.533654"/>
<stop offset="0.730769" stop-color="#2290FF"/>
<stop offset="1"/>
</linearGradient>
<linearGradient id="paint24_linear_3177_526" x1="1499.48" y1="270.486" x2="1485.35" y2="1065.12" gradientUnits="userSpaceOnUse">
<stop/>
<stop offset="0.211538" stop-color="#2290FF"/>
<stop offset="0.533654"/>
<stop offset="0.730769" stop-color="#2290FF"/>
<stop offset="1"/>
</linearGradient>
<linearGradient id="paint25_linear_3177_526" x1="1499.48" y1="270.486" x2="1485.35" y2="1065.12" gradientUnits="userSpaceOnUse">
<stop/>
<stop offset="0.211538" stop-color="#2290FF"/>
<stop offset="0.533654"/>
<stop offset="0.730769" stop-color="#2290FF"/>
<stop offset="1"/>
</linearGradient>
<linearGradient id="paint26_linear_3177_526" x1="1499.48" y1="270.486" x2="1485.35" y2="1065.12" gradientUnits="userSpaceOnUse">
<stop/>
<stop offset="0.211538" stop-color="#2290FF"/>
<stop offset="0.533654"/>
<stop offset="0.730769" stop-color="#2290FF"/>
<stop offset="1"/>
</linearGradient>
<linearGradient id="paint27_linear_3177_526" x1="1499.48" y1="270.486" x2="1485.35" y2="1065.12" gradientUnits="userSpaceOnUse">
<stop/>
<stop offset="0.211538" stop-color="#2290FF"/>
<stop offset="0.533654"/>
<stop offset="0.730769" stop-color="#2290FF"/>
<stop offset="1"/>
</linearGradient>
<linearGradient id="paint28_linear_3177_526" x1="1499.48" y1="270.486" x2="1485.35" y2="1065.12" gradientUnits="userSpaceOnUse">
<stop/>
<stop offset="0.211538" stop-color="#2290FF"/>
<stop offset="0.533654"/>
<stop offset="0.730769" stop-color="#2290FF"/>
<stop offset="1"/>
</linearGradient>
<linearGradient id="paint29_linear_3177_526" x1="1499.48" y1="270.486" x2="1485.35" y2="1065.12" gradientUnits="userSpaceOnUse">
<stop/>
<stop offset="0.211538" stop-color="#2290FF"/>
<stop offset="0.533654"/>
<stop offset="0.730769" stop-color="#2290FF"/>
<stop offset="1"/>
</linearGradient>
<linearGradient id="paint30_linear_3177_526" x1="1499.48" y1="270.486" x2="1485.35" y2="1065.12" gradientUnits="userSpaceOnUse">
<stop/>
<stop offset="0.211538" stop-color="#2290FF"/>
<stop offset="0.533654"/>
<stop offset="0.730769" stop-color="#2290FF"/>
<stop offset="1"/>
</linearGradient>
<linearGradient id="paint31_linear_3177_526" x1="1499.48" y1="270.486" x2="1485.35" y2="1065.12" gradientUnits="userSpaceOnUse">
<stop/>
<stop offset="0.211538" stop-color="#2290FF"/>
<stop offset="0.533654"/>
<stop offset="0.730769" stop-color="#2290FF"/>
<stop offset="1"/>
</linearGradient>
<linearGradient id="paint32_linear_3177_526" x1="1499.48" y1="270.486" x2="1485.35" y2="1065.12" gradientUnits="userSpaceOnUse">
<stop/>
<stop offset="0.211538" stop-color="#2290FF"/>
<stop offset="0.533654"/>
<stop offset="0.730769" stop-color="#2290FF"/>
<stop offset="1"/>
</linearGradient>
<linearGradient id="paint33_linear_3177_526" x1="1499.48" y1="270.486" x2="1485.35" y2="1065.12" gradientUnits="userSpaceOnUse">
<stop/>
<stop offset="0.211538" stop-color="#2290FF"/>
<stop offset="0.533654"/>
<stop offset="0.730769" stop-color="#2290FF"/>
<stop offset="1"/>
</linearGradient>
<linearGradient id="paint34_linear_3177_526" x1="1499.48" y1="270.486" x2="1485.35" y2="1065.12" gradientUnits="userSpaceOnUse">
<stop/>
<stop offset="0.211538" stop-color="#2290FF"/>
<stop offset="0.533654"/>
<stop offset="0.730769" stop-color="#2290FF"/>
<stop offset="1"/>
</linearGradient>
<linearGradient id="paint35_linear_3177_526" x1="1499.48" y1="270.486" x2="1485.35" y2="1065.12" gradientUnits="userSpaceOnUse">
<stop/>
<stop offset="0.211538" stop-color="#2290FF"/>
<stop offset="0.533654"/>
<stop offset="0.730769" stop-color="#2290FF"/>
<stop offset="1"/>
</linearGradient>
<linearGradient id="paint36_linear_3177_526" x1="1499.48" y1="270.486" x2="1485.35" y2="1065.12" gradientUnits="userSpaceOnUse">
<stop/>
<stop offset="0.211538" stop-color="#2290FF"/>
<stop offset="0.533654"/>
<stop offset="0.730769" stop-color="#2290FF"/>
<stop offset="1"/>
</linearGradient>
<linearGradient id="paint37_linear_3177_526" x1="1499.48" y1="270.486" x2="1485.35" y2="1065.12" gradientUnits="userSpaceOnUse">
<stop/>
<stop offset="0.211538" stop-color="#2290FF"/>
<stop offset="0.533654"/>
<stop offset="0.730769" stop-color="#2290FF"/>
<stop offset="1"/>
</linearGradient>
<linearGradient id="paint38_linear_3177_526" x1="1499.48" y1="270.486" x2="1485.35" y2="1065.12" gradientUnits="userSpaceOnUse">
<stop/>
<stop offset="0.211538" stop-color="#2290FF"/>
<stop offset="0.533654"/>
<stop offset="0.730769" stop-color="#2290FF"/>
<stop offset="1"/>
</linearGradient>
<linearGradient id="paint39_linear_3177_526" x1="1499.48" y1="270.486" x2="1485.35" y2="1065.12" gradientUnits="userSpaceOnUse">
<stop/>
<stop offset="0.211538" stop-color="#2290FF"/>
<stop offset="0.533654"/>
<stop offset="0.730769" stop-color="#2290FF"/>
<stop offset="1"/>
</linearGradient>
<linearGradient id="paint40_linear_3177_526" x1="1499.48" y1="270.486" x2="1485.35" y2="1065.12" gradientUnits="userSpaceOnUse">
<stop/>
<stop offset="0.211538" stop-color="#2290FF"/>
<stop offset="0.533654"/>
<stop offset="0.730769" stop-color="#2290FF"/>
<stop offset="1"/>
</linearGradient>
<linearGradient id="paint41_linear_3177_526" x1="1499.48" y1="270.486" x2="1485.35" y2="1065.12" gradientUnits="userSpaceOnUse">
<stop/>
<stop offset="0.211538" stop-color="#2290FF"/>
<stop offset="0.533654"/>
<stop offset="0.730769" stop-color="#2290FF"/>
<stop offset="1"/>
</linearGradient>
<linearGradient id="paint42_linear_3177_526" x1="1499.48" y1="270.486" x2="1485.35" y2="1065.12" gradientUnits="userSpaceOnUse">
<stop/>
<stop offset="0.211538" stop-color="#2290FF"/>
<stop offset="0.533654"/>
<stop offset="0.730769" stop-color="#2290FF"/>
<stop offset="1"/>
</linearGradient>
<linearGradient id="paint43_linear_3177_526" x1="1499.48" y1="270.486" x2="1485.35" y2="1065.12" gradientUnits="userSpaceOnUse">
<stop/>
<stop offset="0.211538" stop-color="#2290FF"/>
<stop offset="0.533654"/>
<stop offset="0.730769" stop-color="#2290FF"/>
<stop offset="1"/>
</linearGradient>
<linearGradient id="paint44_linear_3177_526" x1="1499.48" y1="270.486" x2="1485.35" y2="1065.12" gradientUnits="userSpaceOnUse">
<stop/>
<stop offset="0.211538" stop-color="#2290FF"/>
<stop offset="0.533654"/>
<stop offset="0.730769" stop-color="#2290FF"/>
<stop offset="1"/>
</linearGradient>
<linearGradient id="paint45_linear_3177_526" x1="1499.48" y1="270.486" x2="1485.35" y2="1065.12" gradientUnits="userSpaceOnUse">
<stop/>
<stop offset="0.211538" stop-color="#2290FF"/>
<stop offset="0.533654"/>
<stop offset="0.730769" stop-color="#2290FF"/>
<stop offset="1"/>
</linearGradient>
<linearGradient id="paint46_linear_3177_526" x1="1499.48" y1="270.486" x2="1485.35" y2="1065.12" gradientUnits="userSpaceOnUse">
<stop/>
<stop offset="0.211538" stop-color="#2290FF"/>
<stop offset="0.533654"/>
<stop offset="0.730769" stop-color="#2290FF"/>
<stop offset="1"/>
</linearGradient>
<linearGradient id="paint47_linear_3177_526" x1="1499.48" y1="270.486" x2="1485.35" y2="1065.12" gradientUnits="userSpaceOnUse">
<stop/>
<stop offset="0.211538" stop-color="#2290FF"/>
<stop offset="0.533654"/>
<stop offset="0.730769" stop-color="#2290FF"/>
<stop offset="1"/>
</linearGradient>
<linearGradient id="paint48_linear_3177_526" x1="1499.48" y1="270.486" x2="1485.35" y2="1065.12" gradientUnits="userSpaceOnUse">
<stop/>
<stop offset="0.211538" stop-color="#2290FF"/>
<stop offset="0.533654"/>
<stop offset="0.730769" stop-color="#2290FF"/>
<stop offset="1"/>
</linearGradient>
<linearGradient id="paint49_linear_3177_526" x1="1499.48" y1="270.486" x2="1485.35" y2="1065.12" gradientUnits="userSpaceOnUse">
<stop/>
<stop offset="0.211538" stop-color="#2290FF"/>
<stop offset="0.533654"/>
<stop offset="0.730769" stop-color="#2290FF"/>
<stop offset="1"/>
</linearGradient>
<linearGradient id="paint50_linear_3177_526" x1="1499.48" y1="270.486" x2="1485.35" y2="1065.12" gradientUnits="userSpaceOnUse">
<stop/>
<stop offset="0.211538" stop-color="#2290FF"/>
<stop offset="0.533654"/>
<stop offset="0.730769" stop-color="#2290FF"/>
<stop offset="1"/>
</linearGradient>
<linearGradient id="paint51_linear_3177_526" x1="1499.48" y1="270.486" x2="1485.35" y2="1065.12" gradientUnits="userSpaceOnUse">
<stop/>
<stop offset="0.211538" stop-color="#2290FF"/>
<stop offset="0.533654"/>
<stop offset="0.730769" stop-color="#2290FF"/>
<stop offset="1"/>
</linearGradient>
<linearGradient id="paint52_linear_3177_526" x1="1499.48" y1="270.486" x2="1485.35" y2="1065.12" gradientUnits="userSpaceOnUse">
<stop/>
<stop offset="0.211538" stop-color="#2290FF"/>
<stop offset="0.533654"/>
<stop offset="0.730769" stop-color="#2290FF"/>
<stop offset="1"/>
</linearGradient>
<linearGradient id="paint53_linear_3177_526" x1="1499.48" y1="270.486" x2="1485.35" y2="1065.12" gradientUnits="userSpaceOnUse">
<stop/>
<stop offset="0.211538" stop-color="#2290FF"/>
<stop offset="0.533654"/>
<stop offset="0.730769" stop-color="#2290FF"/>
<stop offset="1"/>
</linearGradient>
<linearGradient id="paint54_linear_3177_526" x1="1499.48" y1="270.486" x2="1485.35" y2="1065.12" gradientUnits="userSpaceOnUse">
<stop/>
<stop offset="0.211538" stop-color="#2290FF"/>
<stop offset="0.533654"/>
<stop offset="0.730769" stop-color="#2290FF"/>
<stop offset="1"/>
</linearGradient>
<linearGradient id="paint55_linear_3177_526" x1="1499.48" y1="270.486" x2="1485.35" y2="1065.12" gradientUnits="userSpaceOnUse">
<stop/>
<stop offset="0.211538" stop-color="#2290FF"/>
<stop offset="0.533654"/>
<stop offset="0.730769" stop-color="#2290FF"/>
<stop offset="1"/>
</linearGradient>
<linearGradient id="paint56_linear_3177_526" x1="1499.48" y1="270.486" x2="1485.35" y2="1065.12" gradientUnits="userSpaceOnUse">
<stop/>
<stop offset="0.211538" stop-color="#2290FF"/>
<stop offset="0.533654"/>
<stop offset="0.730769" stop-color="#2290FF"/>
<stop offset="1"/>
</linearGradient>
<linearGradient id="paint57_linear_3177_526" x1="1499.48" y1="270.486" x2="1485.35" y2="1065.12" gradientUnits="userSpaceOnUse">
<stop/>
<stop offset="0.211538" stop-color="#2290FF"/>
<stop offset="0.533654"/>
<stop offset="0.730769" stop-color="#2290FF"/>
<stop offset="1"/>
</linearGradient>
<linearGradient id="paint58_linear_3177_526" x1="1499.48" y1="270.486" x2="1485.35" y2="1065.12" gradientUnits="userSpaceOnUse">
<stop/>
<stop offset="0.211538" stop-color="#2290FF"/>
<stop offset="0.533654"/>
<stop offset="0.730769" stop-color="#2290FF"/>
<stop offset="1"/>
</linearGradient>
<linearGradient id="paint59_linear_3177_526" x1="1499.48" y1="270.486" x2="1485.35" y2="1065.12" gradientUnits="userSpaceOnUse">
<stop/>
<stop offset="0.211538" stop-color="#2290FF"/>
<stop offset="0.533654"/>
<stop offset="0.730769" stop-color="#2290FF"/>
<stop offset="1"/>
</linearGradient>
<linearGradient id="paint60_linear_3177_526" x1="1499.48" y1="270.486" x2="1485.35" y2="1065.12" gradientUnits="userSpaceOnUse">
<stop/>
<stop offset="0.211538" stop-color="#2290FF"/>
<stop offset="0.533654"/>
<stop offset="0.730769" stop-color="#2290FF"/>
<stop offset="1"/>
</linearGradient>
<linearGradient id="paint61_linear_3177_526" x1="1499.48" y1="270.486" x2="1485.35" y2="1065.12" gradientUnits="userSpaceOnUse">
<stop/>
<stop offset="0.211538" stop-color="#2290FF"/>
<stop offset="0.533654"/>
<stop offset="0.730769" stop-color="#2290FF"/>
<stop offset="1"/>
</linearGradient>
<linearGradient id="paint62_linear_3177_526" x1="1499.48" y1="270.486" x2="1485.35" y2="1065.12" gradientUnits="userSpaceOnUse">
<stop/>
<stop offset="0.211538" stop-color="#2290FF"/>
<stop offset="0.533654"/>
<stop offset="0.730769" stop-color="#2290FF"/>
<stop offset="1"/>
</linearGradient>
<linearGradient id="paint63_linear_3177_526" x1="1499.48" y1="270.486" x2="1485.35" y2="1065.12" gradientUnits="userSpaceOnUse">
<stop/>
<stop offset="0.211538" stop-color="#2290FF"/>
<stop offset="0.533654"/>
<stop offset="0.730769" stop-color="#2290FF"/>
<stop offset="1"/>
</linearGradient>
<linearGradient id="paint64_linear_3177_526" x1="1499.48" y1="270.486" x2="1485.35" y2="1065.12" gradientUnits="userSpaceOnUse">
<stop/>
<stop offset="0.211538" stop-color="#2290FF"/>
<stop offset="0.533654"/>
<stop offset="0.730769" stop-color="#2290FF"/>
<stop offset="1"/>
</linearGradient>
<linearGradient id="paint65_linear_3177_526" x1="1499.48" y1="270.486" x2="1485.35" y2="1065.12" gradientUnits="userSpaceOnUse">
<stop/>
<stop offset="0.211538" stop-color="#2290FF"/>
<stop offset="0.533654"/>
<stop offset="0.730769" stop-color="#2290FF"/>
<stop offset="1"/>
</linearGradient>
<linearGradient id="paint66_linear_3177_526" x1="1499.48" y1="270.486" x2="1485.35" y2="1065.12" gradientUnits="userSpaceOnUse">
<stop/>
<stop offset="0.211538" stop-color="#2290FF"/>
<stop offset="0.533654"/>
<stop offset="0.730769" stop-color="#2290FF"/>
<stop offset="1"/>
</linearGradient>
<linearGradient id="paint67_linear_3177_526" x1="1499.48" y1="270.486" x2="1485.35" y2="1065.12" gradientUnits="userSpaceOnUse">
<stop/>
<stop offset="0.211538" stop-color="#2290FF"/>
<stop offset="0.533654"/>
<stop offset="0.730769" stop-color="#2290FF"/>
<stop offset="1"/>
</linearGradient>
<linearGradient id="paint68_linear_3177_526" x1="1499.48" y1="270.486" x2="1485.35" y2="1065.12" gradientUnits="userSpaceOnUse">
<stop/>
<stop offset="0.211538" stop-color="#2290FF"/>
<stop offset="0.533654"/>
<stop offset="0.730769" stop-color="#2290FF"/>
<stop offset="1"/>
</linearGradient>
<linearGradient id="paint69_linear_3177_526" x1="1499.48" y1="270.486" x2="1485.35" y2="1065.12" gradientUnits="userSpaceOnUse">
<stop/>
<stop offset="0.211538" stop-color="#2290FF"/>
<stop offset="0.533654"/>
<stop offset="0.730769" stop-color="#2290FF"/>
<stop offset="1"/>
</linearGradient>
<linearGradient id="paint70_linear_3177_526" x1="1499.48" y1="270.486" x2="1485.35" y2="1065.12" gradientUnits="userSpaceOnUse">
<stop/>
<stop offset="0.211538" stop-color="#2290FF"/>
<stop offset="0.533654"/>
<stop offset="0.730769" stop-color="#2290FF"/>
<stop offset="1"/>
</linearGradient>
<linearGradient id="paint71_linear_3177_526" x1="1499.48" y1="270.486" x2="1485.35" y2="1065.12" gradientUnits="userSpaceOnUse">
<stop/>
<stop offset="0.211538" stop-color="#2290FF"/>
<stop offset="0.533654"/>
<stop offset="0.730769" stop-color="#2290FF"/>
<stop offset="1"/>
</linearGradient>
<linearGradient id="paint72_linear_3177_526" x1="1499.48" y1="270.486" x2="1485.35" y2="1065.12" gradientUnits="userSpaceOnUse">
<stop/>
<stop offset="0.211538" stop-color="#2290FF"/>
<stop offset="0.533654"/>
<stop offset="0.730769" stop-color="#2290FF"/>
<stop offset="1"/>
</linearGradient>
<linearGradient id="paint73_linear_3177_526" x1="1499.48" y1="270.486" x2="1485.35" y2="1065.12" gradientUnits="userSpaceOnUse">
<stop/>
<stop offset="0.211538" stop-color="#2290FF"/>
<stop offset="0.533654"/>
<stop offset="0.730769" stop-color="#2290FF"/>
<stop offset="1"/>
</linearGradient>
<linearGradient id="paint74_linear_3177_526" x1="1499.48" y1="270.486" x2="1485.35" y2="1065.12" gradientUnits="userSpaceOnUse">
<stop/>
<stop offset="0.211538" stop-color="#2290FF"/>
<stop offset="0.533654"/>
<stop offset="0.730769" stop-color="#2290FF"/>
<stop offset="1"/>
</linearGradient>
<linearGradient id="paint75_linear_3177_526" x1="1499.48" y1="270.486" x2="1485.35" y2="1065.12" gradientUnits="userSpaceOnUse">
<stop/>
<stop offset="0.211538" stop-color="#2290FF"/>
<stop offset="0.533654"/>
<stop offset="0.730769" stop-color="#2290FF"/>
<stop offset="1"/>
</linearGradient>
<linearGradient id="paint76_linear_3177_526" x1="1499.48" y1="270.486" x2="1485.35" y2="1065.12" gradientUnits="userSpaceOnUse">
<stop/>
<stop offset="0.211538" stop-color="#2290FF"/>
<stop offset="0.533654"/>
<stop offset="0.730769" stop-color="#2290FF"/>
<stop offset="1"/>
</linearGradient>
<linearGradient id="paint77_linear_3177_526" x1="1499.48" y1="270.486" x2="1485.35" y2="1065.12" gradientUnits="userSpaceOnUse">
<stop/>
<stop offset="0.211538" stop-color="#2290FF"/>
<stop offset="0.533654"/>
<stop offset="0.730769" stop-color="#2290FF"/>
<stop offset="1"/>
</linearGradient>
<linearGradient id="paint78_linear_3177_526" x1="1499.48" y1="270.486" x2="1485.35" y2="1065.12" gradientUnits="userSpaceOnUse">
<stop/>
<stop offset="0.211538" stop-color="#2290FF"/>
<stop offset="0.533654"/>
<stop offset="0.730769" stop-color="#2290FF"/>
<stop offset="1"/>
</linearGradient>
<linearGradient id="paint79_linear_3177_526" x1="1499.48" y1="270.486" x2="1485.35" y2="1065.12" gradientUnits="userSpaceOnUse">
<stop/>
<stop offset="0.211538" stop-color="#2290FF"/>
<stop offset="0.533654"/>
<stop offset="0.730769" stop-color="#2290FF"/>
<stop offset="1"/>
</linearGradient>
<linearGradient id="paint80_linear_3177_526" x1="1499.48" y1="270.486" x2="1485.35" y2="1065.12" gradientUnits="userSpaceOnUse">
<stop/>
<stop offset="0.211538" stop-color="#2290FF"/>
<stop offset="0.533654"/>
<stop offset="0.730769" stop-color="#2290FF"/>
<stop offset="1"/>
</linearGradient>
<linearGradient id="paint81_linear_3177_526" x1="1499.48" y1="270.486" x2="1485.35" y2="1065.12" gradientUnits="userSpaceOnUse">
<stop/>
<stop offset="0.211538" stop-color="#2290FF"/>
<stop offset="0.533654"/>
<stop offset="0.730769" stop-color="#2290FF"/>
<stop offset="1"/>
</linearGradient>
<linearGradient id="paint82_linear_3177_526" x1="1499.48" y1="270.486" x2="1485.35" y2="1065.12" gradientUnits="userSpaceOnUse">
<stop/>
<stop offset="0.211538" stop-color="#2290FF"/>
<stop offset="0.533654"/>
<stop offset="0.730769" stop-color="#2290FF"/>
<stop offset="1"/>
</linearGradient>
<linearGradient id="paint83_linear_3177_526" x1="1499.48" y1="270.486" x2="1485.35" y2="1065.12" gradientUnits="userSpaceOnUse">
<stop/>
<stop offset="0.211538" stop-color="#2290FF"/>
<stop offset="0.533654"/>
<stop offset="0.730769" stop-color="#2290FF"/>
<stop offset="1"/>
</linearGradient>
</defs>
</svg>
