<svg width="385" height="518" viewBox="0 0 385 518" fill="none" xmlns="http://www.w3.org/2000/svg">
<path d="M2 360.939L92.5016 485.415C107.652 506.253 128.237 517.967 149.704 517.967H231.452C252.115 517.967 271.99 507.116 286.984 487.651L384.592 360.939L346.537 315.338L220.316 479.397C205.135 499.124 181.363 499.267 166.057 479.719L37.3369 315.338L2 360.939Z" fill="white"/>
<path d="M383.952 279.616L286.587 406.623C271.667 426.085 251.929 436.889 231.452 436.889H149.704C128.763 436.889 108.623 425.587 93.6172 405.356L92.9062 404.387L2.62305 279.612L37.3379 234.598L165.663 399.265V399.264C173.395 409.186 183.303 414.153 193.236 414.094C203.17 414.034 213.045 408.949 220.713 398.937L346.552 234.583L383.952 279.616Z" stroke="white"/>
<path d="M169.204 91.5176H213.733C230.253 91.5177 246.17 100.13 258.22 115.668L258.792 116.413L299.127 169.669L299.277 169.867H299.285L335.524 217.692L299.477 265.702L258.791 319.908C246.674 336.052 230.513 345.051 213.733 345.051H169.204C152.37 345.051 136.17 336.022 124.053 319.804V319.803L48.1609 218.364L48.4421 217.994L48.6707 217.692L48.4421 217.391L48.1619 217.021L124.052 116.519C136.175 100.466 152.368 91.5177 169.204 91.5176ZM189.688 139.1C182.148 139.228 174.688 143.206 168.997 150.914L119.931 217.402L119.714 217.698L119.93 217.995L168.996 285.08V285.079C174.686 292.862 182.146 296.88 189.688 297.011C196.852 297.135 204.007 293.748 209.711 286.905V286.963L210.607 285.798L262.758 218.005L262.993 217.698L262.756 217.394L210.605 150.218C204.765 142.695 197.229 138.971 189.688 139.1Z" stroke="white"/>
<path d="M149.704 0.5H231.452C251.931 0.500084 271.669 11.208 286.588 30.4893L383.949 156.316L346.553 200.939L220.704 38.1035C213.035 28.1811 203.16 23.1435 193.229 23.084C183.297 23.0245 173.389 27.9443 165.656 37.7764L37.3389 200.925L2.62598 156.327L92.9053 32.7021C107.982 12.0596 128.429 0.50014 149.704 0.5Z" stroke="white"/>
<path d="M299.525 251.231L259.19 198.231C247 182.203 230.702 173.258 213.733 173.258H169.204C152.18 173.258 135.851 182.263 123.653 198.336L47.5359 298.656L48.0435 299.324L47.5359 299.992L123.653 401.243C135.843 417.481 152.18 426.568 169.204 426.568H213.733C230.702 426.568 247 417.511 259.19 401.348L299.877 347.402L336.151 299.324L299.533 251.231H299.525ZM210.211 366.792C198.692 381.695 180.629 381.38 169.4 366.094L120.334 299.332L169.4 233.162C180.629 218.026 198.692 217.711 210.211 232.479L262.361 299.332L210.211 366.8V366.792Z" fill="white"/>
<path d="M336.346 299.039L336.143 299.324L299.526 251.231L299.978 250.653L336.346 299.039Z" fill="white"/>
<path d="M0 221.45L90.5016 98.1152C105.652 77.4719 126.237 65.8633 147.704 65.8633H229.452C250.115 65.8633 269.99 76.6164 284.984 95.9016L382.592 221.443L344.537 266.631L218.308 104.088C203.127 84.5406 179.355 84.398 164.049 103.766L35.3369 266.631L0 221.45Z" fill="white"/>
<path d="M334.346 282.772L297.978 330.723L297.869 330.588L334.143 282.51L334.346 282.772Z" fill="white"/>
</svg>
