<svg width="66" height="66" viewBox="0 0 66 66" fill="none" xmlns="http://www.w3.org/2000/svg">
<path d="M0 33C0 14.7746 14.7746 0 33 0V0C51.2254 0 66 14.7746 66 33V33C66 51.2254 51.2254 66 33 66V66C14.7746 66 0 51.2254 0 33V33Z" fill="#2290FF"/>
<path d="M32.9809 16.0001C30.6706 16.0111 28.8 17.9097 28.8 20.25C28.8 21.5746 29.4042 22.5924 30.0496 23.5897C30.646 24.5106 29.8972 25.7179 28.8164 25.5819C25.6258 25.1824 22.3961 24.5637 22.3961 24.5637L22.3934 24.5664C22.1985 24.523 21.9996 24.5007 21.8 24.5C21.0574 24.5 20.3452 24.7985 19.8201 25.3299C19.295 25.8613 19 26.5819 19 27.3334V34.1704C19 35.4596 20.4091 36.2606 21.4801 35.5622C22.5063 34.8921 23.5741 34.3043 24.9965 34.4361C26.7535 34.5976 28.2931 35.9226 28.6879 37.6623C29.3151 40.446 27.2432 42.9167 24.6 42.9167C23.382 42.9167 22.4259 42.3857 21.5047 41.785C20.4225 41.0795 19 41.8555 19 43.1574V46.5524C19 48.7369 20.253 50 21.8 50H33H44.2C45.747 50 47 48.7321 47 47.1667V27.3334C47 26.5819 46.705 25.8613 46.1799 25.3299C45.6548 24.7985 44.9426 24.5 44.2 24.5C44.0014 24.5009 43.8034 24.5232 43.6094 24.5664L43.6039 24.5637C43.6039 24.5637 40.3742 25.1824 37.1836 25.5819C36.1 25.7179 35.3567 24.5065 35.9559 23.5814C36.6657 22.4849 37.3237 21.3594 37.1809 19.8322C37.0157 18.06 35.7062 16.5102 33.9926 16.1135C33.6487 16.0338 33.3109 15.9985 32.9809 16.0001Z" fill="white"/>
</svg>
