<svg preserveAspectRatio="none" width="100%" height="100%" overflow="visible" style="display: block;" viewBox="0 0 497 570" fill="none" xmlns="http://www.w3.org/2000/svg">
<g id="animar-decorativo" clip-path="url(#clip0_0_4)">
<path id="Vector" d="M431.802 155C431.535 159.367 431.282 163.733 431.042 168.1C428.882 207.4 427.802 246.7 427.802 286C427.802 325.3 428.882 364.6 431.042 403.9C431.282 408.267 431.535 412.633 431.802 417C432.068 412.633 432.322 408.267 432.562 403.9C434.722 364.6 435.802 325.3 435.802 286C435.802 246.7 434.722 207.4 432.562 168.1C432.322 163.733 432.068 159.367 431.802 155Z" fill="url(#paint0_linear_0_4)" fill-opacity="0.5"/>
<path id="Vector_2" d="M412.984 141C412.718 145.867 412.464 150.733 412.224 155.6C410.064 199.4 408.984 243.2 408.984 287C408.984 330.8 410.064 374.6 412.224 418.4C412.464 423.267 412.718 428.133 412.984 433C413.251 428.133 413.504 423.267 413.744 418.4C415.904 374.6 416.984 330.8 416.984 287C416.984 243.2 415.904 199.4 413.744 155.6C413.504 150.733 413.251 145.867 412.984 141Z" fill="url(#paint1_linear_0_4)" fill-opacity="0.5"/>
<path id="Vector_3" d="M373.37 119C373.103 124.6 372.85 130.2 372.61 135.8C370.45 186.2 369.37 236.6 369.37 287C369.37 337.4 370.45 387.8 372.61 438.2C372.85 443.8 373.103 449.4 373.37 455C373.637 449.4 373.89 443.8 374.13 438.2C376.29 387.8 377.37 337.4 377.37 287C377.37 236.6 376.29 186.2 374.13 135.8C373.89 130.2 373.637 124.6 373.37 119Z" fill="url(#paint2_linear_0_4)" fill-opacity="0.5"/>
<path id="Vector_4" d="M393.178 132C392.911 137.133 392.658 142.267 392.418 147.4C390.258 193.6 389.178 239.8 389.178 286C389.178 332.2 390.258 378.4 392.418 424.6C392.658 429.733 392.911 434.867 393.178 440C393.444 434.867 393.698 429.733 393.938 424.6C396.098 378.4 397.178 332.2 397.178 286C397.178 239.8 396.098 193.6 393.938 147.4C393.698 142.267 393.444 137.133 393.178 132Z" fill="url(#paint3_linear_0_4)" fill-opacity="0.5"/>
<path id="Vector_5" d="M352.572 107C352.306 112.983 352.052 118.967 351.812 124.95C349.652 178.8 348.572 232.65 348.572 286.5C348.572 340.35 349.652 394.2 351.812 448.05C352.052 454.033 352.306 460.017 352.572 466C352.839 460.017 353.092 454.033 353.332 448.05C355.492 394.2 356.572 340.35 356.572 286.5C356.572 232.65 355.492 178.8 353.332 124.95C353.092 118.967 352.839 112.983 352.572 107Z" fill="url(#paint4_linear_0_4)" fill-opacity="0.5"/>
<path id="Vector_6" d="M330.784 92C330.518 98.4833 330.264 104.967 330.024 111.45C327.864 169.8 326.784 228.15 326.784 286.5C326.784 344.85 327.864 403.2 330.024 461.55C330.264 468.033 330.518 474.517 330.784 481C331.051 474.517 331.304 468.033 331.544 461.55C333.704 403.2 334.784 344.85 334.784 286.5C334.784 228.15 333.704 169.8 331.544 111.45C331.304 104.967 331.051 98.4833 330.784 92Z" fill="url(#paint5_linear_0_4)" fill-opacity="0.5"/>
<path id="Vector_7" d="M310.977 84C310.71 90.7667 310.457 97.5333 310.217 104.3C308.057 165.2 306.977 226.1 306.977 287C306.977 347.9 308.057 408.8 310.217 469.7C310.457 476.467 310.71 483.233 310.977 490C311.243 483.233 311.497 476.467 311.737 469.7C313.897 408.8 314.977 347.9 314.977 287C314.977 226.1 313.897 165.2 311.737 104.3C311.497 97.5333 311.243 90.7667 310.977 84Z" fill="url(#paint6_linear_0_4)" fill-opacity="0.5"/>
<path id="Vector_8" d="M290.179 67C289.912 74.3 289.659 81.6 289.419 88.9C287.259 154.6 286.179 220.3 286.179 286C286.179 351.7 287.259 417.4 289.419 483.1C289.659 490.4 289.912 497.7 290.179 505C290.445 497.7 290.699 490.4 290.939 483.1C293.099 417.4 294.179 351.7 294.179 286C294.179 220.3 293.099 154.6 290.939 88.9C290.699 81.6 290.445 74.3 290.179 67Z" fill="url(#paint7_linear_0_4)" fill-opacity="0.5"/>
<path id="Vector_9" d="M268.391 51C268.124 58.8833 267.871 66.7667 267.631 74.65C265.471 145.6 264.391 216.55 264.391 287.5C264.391 358.45 265.471 429.4 267.631 500.35C267.871 508.233 268.124 516.117 268.391 524C268.657 516.117 268.911 508.233 269.151 500.35C271.311 429.4 272.391 358.45 272.391 287.5C272.391 216.55 271.311 145.6 269.151 74.65C268.911 66.7667 268.657 58.8833 268.391 51Z" fill="url(#paint8_linear_0_4)" fill-opacity="0.5"/>
<path id="Vector_10" d="M247.593 41C247.326 49.1667 247.073 57.3333 246.833 65.5C244.673 139 243.593 212.5 243.593 286C243.593 359.5 244.673 433 246.833 506.5C247.073 514.667 247.326 522.833 247.593 531C247.859 522.833 248.113 514.667 248.353 506.5C250.513 433 251.593 359.5 251.593 286C251.593 212.5 250.513 139 248.353 65.5C248.113 57.3333 247.859 49.1667 247.593 41Z" fill="url(#paint9_linear_0_4)" fill-opacity="0.5"/>
<path id="Vector_11" d="M227.785 33C227.518 41.4333 227.265 49.8667 227.025 58.3C224.865 134.2 223.785 210.1 223.785 286C223.785 361.9 224.865 437.8 227.025 513.7C227.265 522.133 227.519 530.567 227.785 539C228.052 530.567 228.305 522.133 228.545 513.7C230.705 437.8 231.785 361.9 231.785 286C231.785 210.1 230.705 134.2 228.545 58.3C228.305 49.8667 228.052 41.4333 227.785 33Z" fill="url(#paint10_linear_0_4)" fill-opacity="0.5"/>
<path id="Vector_12" d="M205.997 27C205.73 35.65 205.477 44.3 205.237 52.95C203.077 130.8 201.997 208.65 201.997 286.5C201.997 364.35 203.077 442.2 205.237 520.05C205.477 528.7 205.73 537.35 205.997 546C206.264 537.35 206.517 528.7 206.757 520.05C208.917 442.2 209.997 364.35 209.997 286.5C209.997 208.65 208.917 130.8 206.757 52.95C206.517 44.3 206.264 35.65 205.997 27Z" fill="url(#paint11_linear_0_4)" fill-opacity="0.5"/>
<path id="Vector_13" d="M184.209 27C183.942 35.65 183.689 44.3 183.449 52.95C181.289 130.8 180.209 208.65 180.209 286.5C180.209 364.35 181.289 442.2 183.449 520.05C183.689 528.7 183.942 537.35 184.209 546C184.476 537.35 184.729 528.7 184.969 520.05C187.129 442.2 188.209 364.35 188.209 286.5C188.209 208.65 187.129 130.8 184.969 52.95C184.729 44.3 184.476 35.65 184.209 27Z" fill="url(#paint12_linear_0_4)" fill-opacity="0.5"/>
<path id="Vector_14" d="M163.411 21C163.144 29.8333 162.891 38.6667 162.651 47.5C160.491 127 159.411 206.5 159.411 286C159.411 365.5 160.491 445 162.651 524.5C162.891 533.333 163.144 542.167 163.411 551C163.678 542.167 163.931 533.333 164.171 524.5C166.331 445 167.411 365.5 167.411 286C167.411 206.5 166.331 127 164.171 47.5C163.931 38.6667 163.678 29.8333 163.411 21Z" fill="url(#paint13_linear_0_4)" fill-opacity="0.5"/>
<path id="Vector_15" d="M142.613 21C142.347 29.8333 142.093 38.6667 141.853 47.5C139.693 127 138.613 206.5 138.613 286C138.613 365.5 139.693 445 141.853 524.5C142.093 533.333 142.347 542.167 142.613 551C142.88 542.167 143.133 533.333 143.373 524.5C145.533 445 146.613 365.5 146.613 286C146.613 206.5 145.533 127 143.373 47.5C143.133 38.6667 142.88 29.8333 142.613 21Z" fill="url(#paint14_linear_0_4)" fill-opacity="0.5"/>
<path id="Vector_16" d="M121.815 17C121.549 26 121.295 35 121.055 44C118.895 125 117.815 206 117.815 287C117.815 368 118.895 449 121.055 530C121.295 539 121.549 548 121.815 557C122.082 548 122.335 539 122.575 530C124.735 449 125.815 368 125.815 287C125.815 206 124.735 125 122.575 44C122.335 35 122.082 26 121.815 17Z" fill="url(#paint15_linear_0_4)" fill-opacity="0.5"/>
<path id="Vector_17" d="M101.018 9C100.751 18.25 100.498 27.5 100.258 36.75C98.0976 120 97.0176 203.25 97.0176 286.5C97.0176 369.75 98.0976 453 100.258 536.25C100.498 545.5 100.751 554.75 101.018 564C101.284 554.75 101.538 545.5 101.778 536.25C103.938 453 105.018 369.75 105.018 286.5C105.018 203.25 103.938 120 101.778 36.75C101.538 27.5 101.284 18.25 101.018 9Z" fill="url(#paint16_linear_0_4)" fill-opacity="0.5"/>
<path id="Vector_18" d="M79.2295 4C78.9628 13.4333 78.7095 22.8667 78.4695 32.3C76.3095 117.2 75.2295 202.1 75.2295 287C75.2295 371.9 76.3095 456.8 78.4695 541.7C78.7095 551.133 78.9628 560.567 79.2295 570C79.4962 560.567 79.7495 551.133 79.9895 541.7C82.1495 456.8 83.2295 371.9 83.2295 287C83.2295 202.1 82.1495 117.2 79.9895 32.3C79.7495 22.8667 79.4962 13.4333 79.2295 4Z" fill="url(#paint17_linear_0_4)" fill-opacity="0.5"/>
<path id="Vector_19" d="M59.8213 0C59.5546 4.23881 59.3013 8.47761 59.0613 12.7164C56.9013 50.8657 55.8213 89.0149 55.8213 127.164C55.8213 165.313 56.9013 203.463 59.0613 241.612C59.3013 245.851 59.5546 250.09 59.8213 254.328C60.088 250.09 60.3413 245.851 60.5813 241.612C62.7413 203.463 63.8213 165.313 63.8213 127.164C63.8213 89.0149 62.7413 50.8657 60.5813 12.7164C60.3413 8.47761 60.088 4.23881 59.8213 0Z" fill="url(#paint18_linear_0_4)" fill-opacity="0.5"/>
<path id="Vector_20" d="M59.8213 312.612C59.5546 316.851 59.3013 321.089 59.0613 325.328C56.9013 363.477 55.8213 401.627 55.8213 439.776C55.8213 477.925 56.9013 516.075 59.0613 554.224C59.3013 558.463 59.5546 562.701 59.8213 566.94C60.088 562.701 60.3413 558.463 60.5813 554.224C62.7413 516.075 63.8213 477.925 63.8213 439.776C63.8213 401.627 62.7413 363.477 60.5813 325.328C60.3413 321.089 60.088 316.851 59.8213 312.612Z" fill="url(#paint19_linear_0_4)" fill-opacity="0.5"/>
<path id="Vector_21" d="M39.8809 10.5967C39.6142 14.4823 39.3609 18.3678 39.1209 22.2534C36.9609 57.2236 35.8809 92.1937 35.8809 127.164C35.8809 162.134 36.9609 197.104 39.1209 232.074C39.3609 235.96 39.6142 239.845 39.8809 243.731C40.1475 239.845 40.4009 235.96 40.6409 232.074C42.8009 197.104 43.8809 162.134 43.8809 127.164C43.8809 92.1937 42.8009 57.2236 40.6409 22.2534C40.4009 18.3678 40.1475 14.4823 39.8809 10.5967Z" fill="url(#paint20_linear_0_4)" fill-opacity="0.5"/>
<path id="Vector_22" d="M39.8809 323.208C39.6142 327.094 39.3609 330.98 39.1209 334.865C36.9609 369.835 35.8809 404.806 35.8809 439.776C35.8809 474.746 36.9609 509.716 39.1209 544.686C39.3609 548.572 39.6142 552.457 39.8809 556.343C40.1475 552.457 40.4009 548.572 40.6409 544.686C42.8009 509.716 43.8809 474.746 43.8809 439.776C43.8809 404.806 42.8009 369.835 40.6409 334.865C40.4009 330.98 40.1475 327.094 39.8809 323.208Z" fill="url(#paint21_linear_0_4)" fill-opacity="0.5"/>
<path id="Vector_23" d="M19.9404 25.4326C19.6738 28.8413 19.4204 32.25 19.1804 35.6587C17.0204 66.3371 15.9404 97.0154 15.9404 127.694C15.9404 158.372 17.0204 189.051 19.1804 219.729C19.4204 223.138 19.6738 226.546 19.9404 229.955C20.2071 226.546 20.4604 223.138 20.7004 219.729C22.8604 189.051 23.9404 158.372 23.9404 127.694C23.9404 97.0155 22.8604 66.3371 20.7004 35.6587C20.4604 32.25 20.2071 28.8413 19.9404 25.4326Z" fill="url(#paint22_linear_0_4)" fill-opacity="0.5"/>
<path id="Vector_24" d="M19.9404 338.044C19.6738 341.453 19.4204 344.862 19.1804 348.271C17.0204 378.949 15.9404 409.627 15.9404 440.306C15.9404 470.984 17.0204 501.662 19.1804 532.341C19.4204 535.749 19.6738 539.158 19.9404 542.567C20.2071 539.158 20.4604 535.749 20.7004 532.341C22.8604 501.662 23.9404 470.984 23.9404 440.306C23.9404 409.627 22.8604 378.949 20.7004 348.271C20.4604 344.862 20.2071 341.453 19.9404 338.044Z" fill="url(#paint23_linear_0_4)" fill-opacity="0.5"/>
<path id="Vector_25" d="M0 25.4326C-0.266667 28.8413 -0.52 32.25 -0.76 35.6587C-2.92 66.3371 -4 97.0154 -4 127.694C-3.99999 158.372 -2.91999 189.051 -0.759991 219.729C-0.519991 223.138 -0.266658 226.546 9.05991e-06 229.955C0.266675 226.546 0.520009 223.138 0.760008 219.729C2.92001 189.051 4.00001 158.372 4 127.694C4 97.0155 2.92 66.3371 0.76 35.6587C0.52 32.25 0.266667 28.8413 0 25.4326Z" fill="url(#paint24_linear_0_4)" fill-opacity="0.5"/>
<path id="Vector_26" d="M0 338.044C-0.266667 341.453 -0.52 344.862 -0.76 348.271C-2.92 378.949 -4 409.627 -4 440.306C-3.99999 470.984 -2.91999 501.662 -0.759991 532.341C-0.519991 535.749 -0.266658 539.158 9.05991e-06 542.567C0.266675 539.158 0.520009 535.749 0.760008 532.341C2.92001 501.662 4.00001 470.984 4 440.306C4 409.627 2.92 378.949 0.76 348.271C0.52 344.862 0.266667 341.453 0 338.044Z" fill="url(#paint25_linear_0_4)" fill-opacity="0.5"/>
<path id="Vector_27" d="M452.6 183C452.333 186.45 452.08 189.9 451.84 193.35C449.68 224.4 448.6 255.45 448.6 286.5C448.6 317.55 449.68 348.6 451.84 379.65C452.08 383.1 452.333 386.55 452.6 390C452.866 386.55 453.12 383.1 453.36 379.65C455.52 348.6 456.6 317.55 456.6 286.5C456.6 255.45 455.52 224.4 453.36 193.35C453.12 189.9 452.866 186.45 452.6 183Z" fill="url(#paint26_linear_0_4)" fill-opacity="0.5"/>
<path id="Vector_28" d="M472.407 204C472.141 206.717 471.887 209.433 471.647 212.15C469.487 236.6 468.407 261.05 468.407 285.5C468.407 309.95 469.487 334.4 471.647 358.85C471.887 361.567 472.141 364.283 472.407 367C472.674 364.283 472.927 361.567 473.167 358.85C475.327 334.4 476.407 309.95 476.407 285.5C476.407 261.05 475.327 236.6 473.167 212.15C472.927 209.433 472.674 206.717 472.407 204Z" fill="url(#paint27_linear_0_4)" fill-opacity="0.5"/>
<path id="Vector_29" d="M492.215 233C491.948 234.767 491.695 236.533 491.455 238.3C489.295 254.2 488.215 270.1 488.215 286C488.215 301.9 489.295 317.8 491.455 333.7C491.695 335.467 491.948 337.233 492.215 339C492.482 337.233 492.735 335.467 492.975 333.7C495.135 317.8 496.215 301.9 496.215 286C496.215 270.1 495.135 254.2 492.975 238.3C492.735 236.533 492.482 234.767 492.215 233Z" fill="url(#paint28_linear_0_4)" fill-opacity="0.5"/>
</g>
<defs>
<linearGradient id="paint0_linear_0_4" x1="432.302" y1="155" x2="432.302" y2="417" gradientUnits="userSpaceOnUse">
<stop/>
<stop offset="0.5" stop-color="#2290FF"/>
<stop offset="1"/>
</linearGradient>
<linearGradient id="paint1_linear_0_4" x1="413.484" y1="141" x2="413.484" y2="433" gradientUnits="userSpaceOnUse">
<stop/>
<stop offset="0.5" stop-color="#2290FF"/>
<stop offset="1"/>
</linearGradient>
<linearGradient id="paint2_linear_0_4" x1="373.87" y1="119" x2="373.87" y2="455" gradientUnits="userSpaceOnUse">
<stop/>
<stop offset="0.5" stop-color="#2290FF"/>
<stop offset="1"/>
</linearGradient>
<linearGradient id="paint3_linear_0_4" x1="393.678" y1="132" x2="393.678" y2="440" gradientUnits="userSpaceOnUse">
<stop/>
<stop offset="0.5" stop-color="#2290FF"/>
<stop offset="1"/>
</linearGradient>
<linearGradient id="paint4_linear_0_4" x1="353.072" y1="107" x2="353.072" y2="466" gradientUnits="userSpaceOnUse">
<stop/>
<stop offset="0.5" stop-color="#2290FF"/>
<stop offset="1"/>
</linearGradient>
<linearGradient id="paint5_linear_0_4" x1="331.284" y1="92" x2="331.284" y2="481" gradientUnits="userSpaceOnUse">
<stop/>
<stop offset="0.5" stop-color="#2290FF"/>
<stop offset="1"/>
</linearGradient>
<linearGradient id="paint6_linear_0_4" x1="311.477" y1="84" x2="311.477" y2="490" gradientUnits="userSpaceOnUse">
<stop/>
<stop offset="0.5" stop-color="#2290FF"/>
<stop offset="1"/>
</linearGradient>
<linearGradient id="paint7_linear_0_4" x1="290.679" y1="67" x2="290.679" y2="505" gradientUnits="userSpaceOnUse">
<stop/>
<stop offset="0.5" stop-color="#2290FF"/>
<stop offset="1"/>
</linearGradient>
<linearGradient id="paint8_linear_0_4" x1="268.891" y1="51" x2="268.891" y2="524" gradientUnits="userSpaceOnUse">
<stop/>
<stop offset="0.5" stop-color="#2290FF"/>
<stop offset="1"/>
</linearGradient>
<linearGradient id="paint9_linear_0_4" x1="248.093" y1="41" x2="248.093" y2="531" gradientUnits="userSpaceOnUse">
<stop/>
<stop offset="0.5" stop-color="#2290FF"/>
<stop offset="1"/>
</linearGradient>
<linearGradient id="paint10_linear_0_4" x1="228.285" y1="33" x2="228.285" y2="539" gradientUnits="userSpaceOnUse">
<stop/>
<stop offset="0.5" stop-color="#2290FF"/>
<stop offset="1"/>
</linearGradient>
<linearGradient id="paint11_linear_0_4" x1="206.497" y1="27" x2="206.497" y2="546" gradientUnits="userSpaceOnUse">
<stop/>
<stop offset="0.5" stop-color="#2290FF"/>
<stop offset="1"/>
</linearGradient>
<linearGradient id="paint12_linear_0_4" x1="184.709" y1="27" x2="184.709" y2="546" gradientUnits="userSpaceOnUse">
<stop/>
<stop offset="0.5" stop-color="#2290FF"/>
<stop offset="1"/>
</linearGradient>
<linearGradient id="paint13_linear_0_4" x1="163.911" y1="21" x2="163.911" y2="551" gradientUnits="userSpaceOnUse">
<stop/>
<stop offset="0.5" stop-color="#2290FF"/>
<stop offset="1"/>
</linearGradient>
<linearGradient id="paint14_linear_0_4" x1="143.113" y1="21" x2="143.113" y2="551" gradientUnits="userSpaceOnUse">
<stop/>
<stop offset="0.5" stop-color="#2290FF"/>
<stop offset="1"/>
</linearGradient>
<linearGradient id="paint15_linear_0_4" x1="122.315" y1="17" x2="122.315" y2="557" gradientUnits="userSpaceOnUse">
<stop/>
<stop offset="0.5" stop-color="#2290FF"/>
<stop offset="1"/>
</linearGradient>
<linearGradient id="paint16_linear_0_4" x1="101.518" y1="9" x2="101.518" y2="564" gradientUnits="userSpaceOnUse">
<stop/>
<stop offset="0.5" stop-color="#2290FF"/>
<stop offset="1"/>
</linearGradient>
<linearGradient id="paint17_linear_0_4" x1="79.7295" y1="4" x2="79.7295" y2="570" gradientUnits="userSpaceOnUse">
<stop/>
<stop offset="0.245192" stop-color="#2290FF"/>
<stop offset="0.586538"/>
<stop offset="0.75" stop-color="#2290FF"/>
<stop offset="1"/>
</linearGradient>
<linearGradient id="paint18_linear_0_4" x1="60.3213" y1="-2.18557e-08" x2="60.3213" y2="254.328" gradientUnits="userSpaceOnUse">
<stop/>
<stop offset="0.5" stop-color="#2290FF"/>
<stop offset="1"/>
</linearGradient>
<linearGradient id="paint19_linear_0_4" x1="60.3213" y1="312.612" x2="60.3213" y2="566.94" gradientUnits="userSpaceOnUse">
<stop/>
<stop offset="0.5" stop-color="#2290FF"/>
<stop offset="1"/>
</linearGradient>
<linearGradient id="paint20_linear_0_4" x1="40.3809" y1="10.5967" x2="40.3809" y2="243.731" gradientUnits="userSpaceOnUse">
<stop/>
<stop offset="0.5" stop-color="#2290FF"/>
<stop offset="1"/>
</linearGradient>
<linearGradient id="paint21_linear_0_4" x1="40.3809" y1="323.208" x2="40.3809" y2="556.343" gradientUnits="userSpaceOnUse">
<stop/>
<stop offset="0.5" stop-color="#2290FF"/>
<stop offset="1"/>
</linearGradient>
<linearGradient id="paint22_linear_0_4" x1="20.4404" y1="25.4326" x2="20.4404" y2="229.955" gradientUnits="userSpaceOnUse">
<stop/>
<stop offset="0.5" stop-color="#2290FF"/>
<stop offset="1"/>
</linearGradient>
<linearGradient id="paint23_linear_0_4" x1="20.4404" y1="338.044" x2="20.4404" y2="542.567" gradientUnits="userSpaceOnUse">
<stop/>
<stop offset="0.5" stop-color="#2290FF"/>
<stop offset="1"/>
</linearGradient>
<linearGradient id="paint24_linear_0_4" x1="0.499996" y1="25.4326" x2="0.500005" y2="229.955" gradientUnits="userSpaceOnUse">
<stop/>
<stop offset="0.5" stop-color="#2290FF"/>
<stop offset="1"/>
</linearGradient>
<linearGradient id="paint25_linear_0_4" x1="0.499996" y1="338.044" x2="0.500005" y2="542.567" gradientUnits="userSpaceOnUse">
<stop/>
<stop offset="0.5" stop-color="#2290FF"/>
<stop offset="1"/>
</linearGradient>
<linearGradient id="paint26_linear_0_4" x1="453.1" y1="183" x2="453.1" y2="390" gradientUnits="userSpaceOnUse">
<stop/>
<stop offset="0.5" stop-color="#2290FF"/>
<stop offset="1"/>
</linearGradient>
<linearGradient id="paint27_linear_0_4" x1="472.907" y1="204" x2="472.907" y2="367" gradientUnits="userSpaceOnUse">
<stop/>
<stop offset="0.5" stop-color="#2290FF"/>
<stop offset="1"/>
</linearGradient>
<linearGradient id="paint28_linear_0_4" x1="492.715" y1="233" x2="492.715" y2="339" gradientUnits="userSpaceOnUse">
<stop/>
<stop offset="0.5" stop-color="#2290FF"/>
<stop offset="1"/>
</linearGradient>
<clipPath id="clip0_0_4">
<rect width="497" height="570" fill="white"/>
</clipPath>
</defs>
</svg>
