<svg preserveAspectRatio="none" width="100%" height="100%" overflow="visible" style="display: block;" viewBox="0 0 593 361" fill="none" xmlns="http://www.w3.org/2000/svg">
<g id="animar-decorativo" clip-path="url(#clip0_0_34)">
<path id="Vector" d="M75.3066 175C75.5733 169.783 75.8266 164.567 76.0666 159.35C78.2266 112.4 79.3067 65.45 79.3067 18.5C79.3067 -28.45 78.2267 -75.4 76.0667 -122.35C75.8267 -127.567 75.5733 -132.783 75.3067 -138C75.04 -132.783 74.7867 -127.567 74.5467 -122.35C72.3867 -75.4 71.3067 -28.45 71.3067 18.5C71.3067 65.45 72.3866 112.4 74.5466 159.35C74.7866 164.567 75.04 169.783 75.3066 175Z" fill="url(#paint0_linear_0_34)" fill-opacity="0.5"/>
<path id="Vector_2" d="M99.0752 193C99.3419 187.183 99.5952 181.367 99.8352 175.55C101.995 123.2 103.075 70.85 103.075 18.5C103.075 -33.85 101.995 -86.2 99.8352 -138.55C99.5952 -144.367 99.3419 -150.183 99.0752 -156C98.8085 -150.183 98.5552 -144.367 98.3152 -138.55C96.1552 -86.2 95.0752 -33.85 95.0752 18.5C95.0752 70.85 96.1552 123.2 98.3152 175.55C98.5552 181.367 98.8085 187.183 99.0752 193Z" fill="url(#paint1_linear_0_34)" fill-opacity="0.5"/>
<path id="Vector_3" d="M146.613 219C146.88 212.317 147.133 205.633 147.373 198.95C149.533 138.8 150.613 78.65 150.613 18.5C150.613 -41.65 149.533 -101.8 147.373 -161.95C147.133 -168.633 146.88 -175.317 146.613 -182C146.347 -175.317 146.093 -168.633 145.853 -161.95C143.693 -101.8 142.613 -41.65 142.613 18.5C142.613 78.65 143.693 138.8 145.853 198.95C146.093 205.633 146.347 212.317 146.613 219Z" fill="url(#paint2_linear_0_34)" fill-opacity="0.5"/>
<path id="Vector_4" d="M122.845 203C123.111 196.867 123.365 190.733 123.605 184.6C125.765 129.4 126.845 74.2 126.845 19C126.845 -36.2 125.765 -91.4 123.605 -146.6C123.365 -152.733 123.111 -158.867 122.845 -165C122.578 -158.867 122.325 -152.733 122.085 -146.6C119.925 -91.4 118.845 -36.2 118.845 19C118.845 74.2 119.925 129.4 122.085 184.6C122.325 190.733 122.578 196.867 122.845 203Z" fill="url(#paint3_linear_0_34)" fill-opacity="0.5"/>
<path id="Vector_5" d="M170.382 233C170.649 225.85 170.902 218.7 171.142 211.55C173.302 147.2 174.382 82.85 174.382 18.5C174.382 -45.85 173.302 -110.2 171.142 -174.55C170.902 -181.7 170.649 -188.85 170.382 -196C170.115 -188.85 169.862 -181.7 169.622 -174.55C167.462 -110.2 166.382 -45.85 166.382 18.5C166.382 82.85 167.462 147.2 169.622 211.55C169.862 218.7 170.115 225.85 170.382 233Z" fill="url(#paint4_linear_0_34)" fill-opacity="0.5"/>
<path id="Vector_6" d="M196.132 251C196.399 243.25 196.652 235.5 196.892 227.75C199.052 158 200.132 88.25 200.132 18.5C200.132 -51.25 199.052 -121 196.892 -190.75C196.652 -198.5 196.399 -206.25 196.132 -214C195.865 -206.25 195.612 -198.5 195.372 -190.75C193.212 -121 192.132 -51.25 192.132 18.5C192.132 88.25 193.212 158 195.372 227.75C195.612 235.5 195.865 243.25 196.132 251Z" fill="url(#paint5_linear_0_34)" fill-opacity="0.5"/>
<path id="Vector_7" d="M220.892 261C221.158 252.917 221.412 244.833 221.652 236.75C223.812 164 224.892 91.25 224.892 18.5C224.892 -54.25 223.812 -127 221.652 -199.75C221.412 -207.833 221.158 -215.917 220.892 -224C220.625 -215.917 220.372 -207.833 220.132 -199.75C217.972 -127 216.892 -54.25 216.892 18.5C216.892 91.25 217.972 164 220.132 236.75C220.372 244.833 220.625 252.917 220.892 261Z" fill="url(#paint6_linear_0_34)" fill-opacity="0.5"/>
<path id="Vector_8" d="M245.65 281C245.917 272.267 246.17 263.533 246.41 254.8C248.57 176.2 249.65 97.6 249.65 19C249.65 -59.6 248.57 -138.2 246.41 -216.8C246.17 -225.533 245.917 -234.267 245.65 -243C245.384 -234.267 245.13 -225.533 244.89 -216.8C242.73 -138.2 241.65 -59.6 241.65 19C241.65 97.6 242.73 176.2 244.89 254.8C245.13 263.533 245.384 272.267 245.65 281Z" fill="url(#paint7_linear_0_34)" fill-opacity="0.5"/>
<path id="Vector_9" d="M271.4 301C271.667 291.567 271.92 282.133 272.16 272.7C274.32 187.8 275.4 102.9 275.4 18C275.4 -66.8999 274.32 -151.8 272.16 -236.7C271.92 -246.133 271.667 -255.567 271.4 -265C271.134 -255.567 270.88 -246.133 270.64 -236.7C268.48 -151.8 267.4 -66.8999 267.4 18C267.4 102.9 268.48 187.8 270.64 272.7C270.88 282.133 271.134 291.567 271.4 301Z" fill="url(#paint8_linear_0_34)" fill-opacity="0.5"/>
<path id="Vector_10" d="M296.159 312C296.426 302.233 296.679 292.467 296.919 282.7C299.079 194.8 300.159 106.9 300.159 19C300.159 -68.8999 299.079 -156.8 296.919 -244.7C296.679 -254.467 296.426 -264.233 296.159 -274C295.893 -264.233 295.639 -254.467 295.399 -244.7C293.239 -156.8 292.159 -68.8999 292.159 19C292.159 106.9 293.239 194.8 295.399 282.7C295.639 292.467 295.893 302.233 296.159 312Z" fill="url(#paint9_linear_0_34)" fill-opacity="0.5"/>
<path id="Vector_11" d="M320.919 322C321.186 311.9 321.439 301.8 321.679 291.7C323.839 200.8 324.919 109.9 324.919 19C324.919 -71.9 323.839 -162.8 321.679 -253.7C321.439 -263.8 321.186 -273.9 320.919 -284C320.652 -273.9 320.399 -263.8 320.159 -253.7C317.999 -162.8 316.919 -71.9 316.919 19C316.919 109.9 317.999 200.8 320.159 291.7C320.399 301.8 320.652 311.9 320.919 322Z" fill="url(#paint10_linear_0_34)" fill-opacity="0.5"/>
<path id="Vector_12" d="M346.668 329C346.935 318.667 347.188 308.333 347.428 298C349.588 205 350.668 112 350.668 19C350.668 -74 349.588 -167 347.428 -260C347.188 -270.333 346.935 -280.667 346.668 -291C346.401 -280.667 346.148 -270.333 345.908 -260C343.748 -167 342.668 -74 342.668 19C342.668 112 343.748 205 345.908 298C346.148 308.333 346.401 318.667 346.668 329Z" fill="url(#paint11_linear_0_34)" fill-opacity="0.5"/>
<path id="Vector_13" d="M371.428 329C371.694 318.667 371.948 308.333 372.188 298C374.348 205 375.428 112 375.428 19C375.428 -74 374.348 -167 372.188 -260C371.948 -270.333 371.694 -280.667 371.428 -291C371.161 -280.667 370.908 -270.333 370.668 -260C368.508 -167 367.428 -74 367.428 19C367.428 112 368.508 205 370.668 298C370.908 308.333 371.161 318.667 371.428 329Z" fill="url(#paint12_linear_0_34)" fill-opacity="0.5"/>
<path id="Vector_14" d="M396.187 336C396.453 325.433 396.707 314.867 396.947 304.3C399.107 209.2 400.187 114.1 400.187 19C400.187 -76.1 399.107 -171.2 396.947 -266.3C396.707 -276.867 396.453 -287.433 396.187 -298C395.92 -287.433 395.667 -276.867 395.427 -266.3C393.267 -171.2 392.187 -76.1 392.187 19C392.187 114.1 393.267 209.2 395.427 304.3C395.667 314.867 395.92 325.433 396.187 336Z" fill="url(#paint13_linear_0_34)" fill-opacity="0.5"/>
<path id="Vector_15" d="M421.937 336C422.203 325.433 422.457 314.867 422.697 304.3C424.857 209.2 425.937 114.1 425.937 19C425.937 -76.1 424.857 -171.2 422.697 -266.3C422.457 -276.867 422.203 -287.433 421.937 -298C421.67 -287.433 421.417 -276.867 421.177 -266.3C419.017 -171.2 417.937 -76.1 417.937 19C417.937 114.1 419.017 209.2 421.177 304.3C421.417 314.867 421.67 325.433 421.937 336Z" fill="url(#paint14_linear_0_34)" fill-opacity="0.5"/>
<path id="Vector_16" d="M446.696 341C446.963 330.25 447.216 319.5 447.456 308.75C449.616 212 450.696 115.25 450.696 18.5C450.696 -78.25 449.616 -175 447.456 -271.75C447.216 -282.5 446.963 -293.25 446.696 -304C446.43 -293.25 446.176 -282.5 445.936 -271.75C443.776 -175 442.696 -78.25 442.696 18.5C442.696 115.25 443.776 212 445.936 308.75C446.176 319.5 446.43 330.25 446.696 341Z" fill="url(#paint15_linear_0_34)" fill-opacity="0.5"/>
<path id="Vector_17" d="M471.455 350C471.722 338.95 471.975 327.9 472.215 316.85C474.375 217.4 475.455 117.95 475.455 18.5C475.455 -80.95 474.375 -180.4 472.215 -279.85C471.975 -290.9 471.722 -301.95 471.455 -313C471.188 -301.95 470.935 -290.9 470.695 -279.85C468.535 -180.4 467.455 -80.95 467.455 18.5C467.455 117.95 468.535 217.4 470.695 316.85C470.935 327.9 471.188 338.95 471.455 350Z" fill="url(#paint16_linear_0_34)" fill-opacity="0.5"/>
<path id="Vector_18" d="M497.205 357C497.472 345.717 497.725 334.433 497.965 323.15C500.125 221.6 501.205 120.05 501.205 18.5C501.205 -83.05 500.125 -184.6 497.965 -286.15C497.725 -297.433 497.472 -308.717 497.205 -320C496.938 -308.717 496.685 -297.433 496.445 -286.15C494.285 -184.6 493.205 -83.05 493.205 18.5C493.205 120.05 494.285 221.6 496.445 323.15C496.685 334.433 496.938 345.717 497.205 357Z" fill="url(#paint17_linear_0_34)" fill-opacity="0.5"/>
<path id="Vector_19" d="M520.784 361C521.051 355.934 521.304 350.868 521.544 345.802C523.704 300.207 524.784 254.612 524.784 209.017C524.784 163.422 523.704 117.827 521.544 72.2324C521.304 67.1663 521.051 62.1002 520.784 57.0341C520.518 62.1002 520.264 67.1663 520.024 72.2324C517.864 117.827 516.784 163.422 516.784 209.017C516.784 254.612 517.864 300.207 520.024 345.802C520.264 350.868 520.518 355.934 520.784 361Z" fill="url(#paint18_linear_0_34)" fill-opacity="0.5"/>
<path id="Vector_20" d="M544.616 348.335C544.883 343.691 545.136 339.047 545.376 334.403C547.536 292.608 548.616 250.813 548.616 209.017C548.616 167.222 547.536 125.427 545.376 83.6313C545.136 78.9874 544.883 74.3435 544.616 69.6996C544.35 74.3435 544.096 78.9874 543.856 83.6313C541.696 125.427 540.616 167.222 540.616 209.017C540.616 250.813 541.696 292.608 543.856 334.403C544.096 339.047 544.35 343.691 544.616 348.335Z" fill="url(#paint19_linear_0_34)" fill-opacity="0.5"/>
<path id="Vector_21" d="M568.448 330.604C568.715 326.53 568.968 322.456 569.208 318.382C571.368 281.716 572.448 245.05 572.448 208.384C572.448 171.718 571.368 135.052 569.208 98.3862C568.968 94.3122 568.715 90.2383 568.448 86.1643C568.182 90.2383 567.928 94.3122 567.688 98.3862C565.528 135.052 564.448 171.718 564.448 208.384C564.448 245.05 565.528 281.716 567.688 318.382C567.928 322.456 568.182 326.53 568.448 330.604Z" fill="url(#paint20_linear_0_34)" fill-opacity="0.5"/>
<path id="Vector_22" d="M592.28 330.604C592.547 326.53 592.8 322.456 593.04 318.382C595.2 281.716 596.28 245.05 596.28 208.384C596.28 171.718 595.2 135.052 593.04 98.3862C592.8 94.3122 592.547 90.2383 592.28 86.1643C592.014 90.2383 591.76 94.3122 591.52 98.3862C589.36 135.052 588.28 171.718 588.28 208.384C588.28 245.05 589.36 281.716 591.52 318.382C591.76 322.456 592.014 326.53 592.28 330.604Z" fill="url(#paint21_linear_0_34)" fill-opacity="0.5"/>
<path id="Vector_23" d="M51.5381 142C51.8048 137.9 52.0581 133.8 52.2981 129.7C54.4581 92.8 55.5381 55.9 55.5381 19C55.5381 -17.9 54.4581 -54.8 52.2981 -91.7C52.0581 -95.8 51.8048 -99.9 51.5381 -104C51.2714 -99.9 51.0181 -95.8 50.7781 -91.7C48.6181 -54.8 47.5381 -17.9 47.5381 19C47.5381 55.9 48.6181 92.8 50.7781 129.7C51.0181 133.8 51.2714 137.9 51.5381 142Z" fill="url(#paint22_linear_0_34)" fill-opacity="0.5"/>
<path id="Vector_24" d="M27.7686 117C28.0352 113.75 28.2886 110.5 28.5286 107.25C30.6886 78 31.7686 48.75 31.7686 19.5C31.7686 -9.75001 30.6886 -39 28.5286 -68.25C28.2886 -71.5 28.0352 -74.75 27.7686 -78C27.5019 -74.75 27.2486 -71.5 27.0086 -68.25C24.8486 -39 23.7686 -9.75001 23.7686 19.5C23.7686 48.75 24.8486 78 27.0086 107.25C27.2486 110.5 27.5019 113.75 27.7686 117Z" fill="url(#paint23_linear_0_34)" fill-opacity="0.5"/>
<path id="Vector_25" d="M4 82C4.26667 79.9 4.52 77.8 4.76 75.7C6.92 56.8 8 37.9 8.00001 19C8.00001 0.0999985 6.92001 -18.8 4.76001 -37.7C4.52001 -39.8 4.26668 -41.9 4.00001 -44C3.73334 -41.9 3.48001 -39.8 3.24001 -37.7C1.08001 -18.8 7.15993e-06 0.0999985 5.50763e-06 19C3.85534e-06 37.9 1.08 56.8 3.24 75.7C3.48 77.8 3.73333 79.9 4 82Z" fill="url(#paint24_linear_0_34)" fill-opacity="0.5"/>
</g>
<defs>
<linearGradient id="paint0_linear_0_34" x1="74.8066" y1="175" x2="74.8067" y2="-138" gradientUnits="userSpaceOnUse">
<stop/>
<stop offset="0.5" stop-color="#2290FF"/>
<stop offset="1"/>
</linearGradient>
<linearGradient id="paint1_linear_0_34" x1="98.5752" y1="193" x2="98.5752" y2="-156" gradientUnits="userSpaceOnUse">
<stop/>
<stop offset="0.5" stop-color="#2290FF"/>
<stop offset="1"/>
</linearGradient>
<linearGradient id="paint2_linear_0_34" x1="146.113" y1="219" x2="146.113" y2="-182" gradientUnits="userSpaceOnUse">
<stop/>
<stop offset="0.5" stop-color="#2290FF"/>
<stop offset="1"/>
</linearGradient>
<linearGradient id="paint3_linear_0_34" x1="122.345" y1="203" x2="122.345" y2="-165" gradientUnits="userSpaceOnUse">
<stop/>
<stop offset="0.5" stop-color="#2290FF"/>
<stop offset="1"/>
</linearGradient>
<linearGradient id="paint4_linear_0_34" x1="169.882" y1="233" x2="169.882" y2="-196" gradientUnits="userSpaceOnUse">
<stop/>
<stop offset="0.5" stop-color="#2290FF"/>
<stop offset="1"/>
</linearGradient>
<linearGradient id="paint5_linear_0_34" x1="195.632" y1="251" x2="195.632" y2="-214" gradientUnits="userSpaceOnUse">
<stop/>
<stop offset="0.5" stop-color="#2290FF"/>
<stop offset="1"/>
</linearGradient>
<linearGradient id="paint6_linear_0_34" x1="220.392" y1="261" x2="220.392" y2="-224" gradientUnits="userSpaceOnUse">
<stop/>
<stop offset="0.5" stop-color="#2290FF"/>
<stop offset="1"/>
</linearGradient>
<linearGradient id="paint7_linear_0_34" x1="245.15" y1="281" x2="245.15" y2="-243" gradientUnits="userSpaceOnUse">
<stop/>
<stop offset="0.5" stop-color="#2290FF"/>
<stop offset="1"/>
</linearGradient>
<linearGradient id="paint8_linear_0_34" x1="270.9" y1="301" x2="270.9" y2="-265" gradientUnits="userSpaceOnUse">
<stop/>
<stop offset="0.5" stop-color="#2290FF"/>
<stop offset="1"/>
</linearGradient>
<linearGradient id="paint9_linear_0_34" x1="295.659" y1="312" x2="295.659" y2="-274" gradientUnits="userSpaceOnUse">
<stop/>
<stop offset="0.5" stop-color="#2290FF"/>
<stop offset="1"/>
</linearGradient>
<linearGradient id="paint10_linear_0_34" x1="320.419" y1="322" x2="320.419" y2="-284" gradientUnits="userSpaceOnUse">
<stop/>
<stop offset="0.5" stop-color="#2290FF"/>
<stop offset="1"/>
</linearGradient>
<linearGradient id="paint11_linear_0_34" x1="346.168" y1="329" x2="346.168" y2="-291" gradientUnits="userSpaceOnUse">
<stop/>
<stop offset="0.5" stop-color="#2290FF"/>
<stop offset="1"/>
</linearGradient>
<linearGradient id="paint12_linear_0_34" x1="370.928" y1="329" x2="370.928" y2="-291" gradientUnits="userSpaceOnUse">
<stop/>
<stop offset="0.5" stop-color="#2290FF"/>
<stop offset="1"/>
</linearGradient>
<linearGradient id="paint13_linear_0_34" x1="395.687" y1="336" x2="395.687" y2="-298" gradientUnits="userSpaceOnUse">
<stop/>
<stop offset="0.5" stop-color="#2290FF"/>
<stop offset="1"/>
</linearGradient>
<linearGradient id="paint14_linear_0_34" x1="421.437" y1="336" x2="421.437" y2="-298" gradientUnits="userSpaceOnUse">
<stop/>
<stop offset="0.5" stop-color="#2290FF"/>
<stop offset="1"/>
</linearGradient>
<linearGradient id="paint15_linear_0_34" x1="446.196" y1="341" x2="446.196" y2="-304" gradientUnits="userSpaceOnUse">
<stop/>
<stop offset="0.5" stop-color="#2290FF"/>
<stop offset="1"/>
</linearGradient>
<linearGradient id="paint16_linear_0_34" x1="470.955" y1="350" x2="470.955" y2="-313" gradientUnits="userSpaceOnUse">
<stop/>
<stop offset="0.5" stop-color="#2290FF"/>
<stop offset="1"/>
</linearGradient>
<linearGradient id="paint17_linear_0_34" x1="496.705" y1="357" x2="496.705" y2="-320" gradientUnits="userSpaceOnUse">
<stop/>
<stop offset="0.245192" stop-color="#2290FF"/>
<stop offset="0.586538"/>
<stop offset="0.75" stop-color="#2290FF"/>
<stop offset="1"/>
</linearGradient>
<linearGradient id="paint18_linear_0_34" x1="520.284" y1="361" x2="520.284" y2="57.0341" gradientUnits="userSpaceOnUse">
<stop/>
<stop offset="0.5" stop-color="#2290FF"/>
<stop offset="1"/>
</linearGradient>
<linearGradient id="paint19_linear_0_34" x1="544.116" y1="348.335" x2="544.116" y2="69.6996" gradientUnits="userSpaceOnUse">
<stop/>
<stop offset="0.5" stop-color="#2290FF"/>
<stop offset="1"/>
</linearGradient>
<linearGradient id="paint20_linear_0_34" x1="567.948" y1="330.604" x2="567.948" y2="86.1643" gradientUnits="userSpaceOnUse">
<stop/>
<stop offset="0.5" stop-color="#2290FF"/>
<stop offset="1"/>
</linearGradient>
<linearGradient id="paint21_linear_0_34" x1="591.78" y1="330.604" x2="591.78" y2="86.1643" gradientUnits="userSpaceOnUse">
<stop/>
<stop offset="0.5" stop-color="#2290FF"/>
<stop offset="1"/>
</linearGradient>
<linearGradient id="paint22_linear_0_34" x1="51.0381" y1="142" x2="51.0381" y2="-104" gradientUnits="userSpaceOnUse">
<stop/>
<stop offset="0.5" stop-color="#2290FF"/>
<stop offset="1"/>
</linearGradient>
<linearGradient id="paint23_linear_0_34" x1="27.2686" y1="117" x2="27.2686" y2="-78" gradientUnits="userSpaceOnUse">
<stop/>
<stop offset="0.5" stop-color="#2290FF"/>
<stop offset="1"/>
</linearGradient>
<linearGradient id="paint24_linear_0_34" x1="3.5" y1="82" x2="3.50001" y2="-44" gradientUnits="userSpaceOnUse">
<stop/>
<stop offset="0.5" stop-color="#2290FF"/>
<stop offset="1"/>
</linearGradient>
<clipPath id="clip0_0_34">
<rect width="593" height="361" fill="white"/>
</clipPath>
</defs>
</svg>
