<svg width="18" height="18" viewBox="0 0 18 18" fill="none" xmlns="http://www.w3.org/2000/svg">
  <rect width="18" height="18" rx="9" fill="#8247E5"/>
  <path d="M5.6 6.833L7.943 5.483C8.257 5.302 8.643 5.302 8.957 5.483L11.3 6.833C11.614 7.015 11.807 7.35 11.807 7.713V10.413C11.807 10.775 11.614 11.111 11.3 11.292L8.957 12.642C8.643 12.823 8.257 12.823 7.943 12.642L5.6 11.292C5.286 11.111 5.093 10.775 5.093 10.413V7.713C5.093 7.35 5.286 7.015 5.6 6.833Z" stroke="white" stroke-width="1.2"/>
  <path d="M6.8 7.472L8.45 8.425V10.33M10.9 7.472L9.25 8.425M8.45 8.425L9.25 8.425" stroke="white" stroke-width="1.2" stroke-linecap="round" stroke-linejoin="round"/>
</svg>
