<svg preserveAspectRatio="none" width="100%" height="100%" overflow="visible" style="display: block;" viewBox="0 0 18.8342 18.8333" fill="none" xmlns="http://www.w3.org/2000/svg">
<g id="Group">
<path id="Vector" d="M8.30848 3.35817C10.3467 3.11527 12.4084 3.54613 14.1787 4.58496C15.9491 5.62379 17.3308 7.21348 18.1129 9.11129C18.1858 9.30774 18.1858 9.52384 18.1129 9.72029C17.7908 10.4997 17.3659 11.2324 16.8494 11.899M11.2406 11.3049C10.7455 11.7831 10.0824 12.0477 9.39418 12.0417C8.70592 12.0357 8.04753 11.7596 7.56084 11.2729C7.07414 10.7862 6.79807 10.1279 6.79209 9.43959C6.78611 8.75133 7.05069 8.08825 7.52886 7.59317" stroke="var(--stroke-0, white)" stroke-width="1.33333" stroke-linecap="round" stroke-linejoin="round"/>
<path id="Vector_2" d="M14.2112 14.2283C13.0505 14.9158 11.7555 15.3457 10.414 15.4886C9.07259 15.6316 7.71607 15.4843 6.43654 15.0568C5.15701 14.6293 3.9844 13.9316 2.99829 13.0109C2.01218 12.0903 1.23564 10.9684 0.721359 9.72117C0.648436 9.52472 0.648436 9.30862 0.721359 9.11217C1.49716 7.23079 2.8622 5.65176 4.61161 4.61204M0.667109 0.666667L18.1671 18.1667" stroke="var(--stroke-0, white)" stroke-width="1.33333" stroke-linecap="round" stroke-linejoin="round"/>
</g>
</svg>
