<svg width="29" height="29" viewBox="0 0 29 29" fill="none" xmlns="http://www.w3.org/2000/svg">
<path d="M4.65195 10.4158C4.47558 9.62139 4.50266 8.79527 4.73068 8.01408C4.9587 7.23289 5.38027 6.52192 5.95631 5.94709C6.53235 5.37225 7.2442 4.95217 8.02587 4.72579C8.80753 4.49941 9.63371 4.47406 10.4278 4.65209C10.8648 3.96854 11.467 3.40601 12.1786 3.01635C12.8902 2.6267 13.6885 2.42245 14.4999 2.42245C15.3112 2.42245 16.1095 2.6267 16.8211 3.01635C17.5328 3.40601 18.1349 3.96854 18.572 4.65209C19.3672 4.47328 20.1948 4.49852 20.9777 4.72545C21.7607 4.95238 22.4735 5.37363 23.0498 5.95002C23.6262 6.52641 24.0475 7.23922 24.2744 8.02213C24.5014 8.80505 24.5266 9.63264 24.3478 10.4279C25.0313 10.865 25.5939 11.4671 25.9835 12.1787C26.3732 12.8904 26.5774 13.6887 26.5774 14.5C26.5774 15.3113 26.3732 16.1096 25.9835 16.8213C25.5939 17.5329 25.0313 18.135 24.3478 18.5721C24.5258 19.3662 24.5005 20.1923 24.2741 20.974C24.0477 21.7557 23.6276 22.4675 23.0528 23.0436C22.478 23.6196 21.767 24.0412 20.9858 24.2692C20.2046 24.4972 19.3785 24.5243 18.584 24.3479C18.1475 25.0341 17.545 25.599 16.8321 25.9904C16.1192 26.3818 15.3191 26.587 14.5059 26.587C13.6927 26.587 12.8926 26.3818 12.1797 25.9904C11.4669 25.599 10.8643 25.0341 10.4278 24.3479C9.63371 24.526 8.80753 24.5006 8.02587 24.2742C7.2442 24.0478 6.53235 23.6278 5.95631 23.0529C5.38027 22.4781 4.9587 21.7671 4.73068 20.9859C4.50266 20.2047 4.47558 19.3786 4.65195 18.5842C3.96315 18.1483 3.39578 17.5452 3.00263 16.8311C2.60948 16.1171 2.40332 15.3152 2.40332 14.5C2.40332 13.6849 2.60948 12.8829 3.00263 12.1689C3.39578 11.4548 3.96315 10.8518 4.65195 10.4158Z" stroke="#C1E7FE" stroke-width="2" stroke-linecap="round" stroke-linejoin="round"/>
<path d="M10.875 14.5L13.2917 16.9167L18.125 12.0833" stroke="#C1E7FE" stroke-width="2" stroke-linecap="round" stroke-linejoin="round"/>
</svg>
