<svg width="23" height="23" viewBox="0 0 23 23" fill="none" xmlns="http://www.w3.org/2000/svg">
<path d="M4.79199 14.375H3.83366C3.32533 14.375 2.83782 14.1731 2.47837 13.8136C2.11893 13.4542 1.91699 12.9667 1.91699 12.4583V3.83334C1.91699 3.32501 2.11893 2.8375 2.47837 2.47805C2.83782 2.11861 3.32533 1.91667 3.83366 1.91667H12.4587C12.967 1.91667 13.4545 2.11861 13.8139 2.47805C14.1734 2.8375 14.3753 3.32501 14.3753 3.83334V4.79167M10.542 8.625H19.167C20.2255 8.625 21.0837 9.48313 21.0837 10.5417V19.1667C21.0837 20.2252 20.2255 21.0833 19.167 21.0833H10.542C9.48345 21.0833 8.62533 20.2252 8.62533 19.1667V10.5417C8.62533 9.48313 9.48345 8.625 10.542 8.625Z" stroke="#C8CFDA" stroke-width="2" stroke-linecap="round" stroke-linejoin="round"/>
</svg>
