<svg width="54" height="54" viewBox="0 0 54 54" fill="none" xmlns="http://www.w3.org/2000/svg">
<path d="M28.8044 48.3824C28.5851 47.5765 27.7433 47.0979 26.9227 47.3137C26.1032 47.5294 25.6166 48.3583 25.8359 49.1643C26.0553 49.9702 26.8971 50.4488 27.7177 50.233C28.5372 50.0173 29.0238 49.1884 28.8044 48.3824ZM27.8079 45.3601L27.3213 45.6393L26.8347 45.3601L19.8222 41.3314V41.7004L26.8347 45.7291L26.9984 45.8233L27.3213 46.0095L27.6431 45.8233L27.8079 45.7291L34.6734 41.7848V41.4146L27.8079 45.3601ZM27.8079 45.3601L27.3213 45.6393L26.8347 45.3601L19.8222 41.3314V41.7004L26.8347 45.7291L26.9984 45.8233L27.3213 46.0095L27.6431 45.8233L27.8079 45.7291L34.6734 41.7848V41.4146L27.8079 45.3601ZM28.8044 48.3824C28.5851 47.5765 27.7433 47.0979 26.9227 47.3137C26.1032 47.5294 25.6166 48.3583 25.8359 49.1643C26.0553 49.9702 26.8971 50.4488 27.7177 50.233C28.5372 50.0173 29.0238 49.1884 28.8044 48.3824ZM28.8044 48.3824C28.5851 47.5765 27.7433 47.0979 26.9227 47.3137C26.1032 47.5294 25.6166 48.3583 25.8359 49.1643C26.0553 49.9702 26.8971 50.4488 27.7177 50.233C28.5372 50.0173 29.0238 49.1884 28.8044 48.3824ZM27.8079 45.3601L27.3213 45.6393L26.8347 45.3601L19.8222 41.3314V41.7004L26.8347 45.7291L26.9984 45.8233L27.3213 46.0095L27.6431 45.8233L27.8079 45.7291L34.6734 41.7848V41.4146L27.8079 45.3601ZM27.8079 45.3601L27.3213 45.6393L26.8347 45.3601L19.8222 41.3314V41.7004L26.8347 45.7291L26.9984 45.8233L27.3213 46.0095L27.6431 45.8233L27.8079 45.7291L34.6734 41.7848V41.4146L27.8079 45.3601ZM28.8044 48.3824C28.5851 47.5765 27.7433 47.0979 26.9227 47.3137C26.1032 47.5294 25.6166 48.3583 25.8359 49.1643C26.0553 49.9702 26.8971 50.4488 27.7177 50.233C28.5372 50.0173 29.0238 49.1884 28.8044 48.3824ZM28.8044 48.3824C28.5851 47.5765 27.7433 47.0979 26.9227 47.3137C26.1032 47.5294 25.6166 48.3583 25.8359 49.1643C26.0553 49.9702 26.8971 50.4488 27.7177 50.233C28.5372 50.0173 29.0238 49.1884 28.8044 48.3824ZM27.8079 45.3601L27.3213 45.6393L26.8347 45.3601L19.8222 41.3314V41.7004L26.8347 45.7291L26.9984 45.8233L27.3213 46.0095L27.6431 45.8233L27.8079 45.7291L34.6734 41.7848V41.4146L27.8079 45.3601ZM27.3213 45.6393L26.8347 45.3601L19.8222 41.3314V41.7004L26.8347 45.7291L26.9984 45.8233L27.3213 46.0095L27.6431 45.8233L27.8079 45.7291L34.6734 41.7848V41.4146L27.8079 45.3601L27.3213 45.6393ZM26.9227 47.3126C26.1032 47.5283 25.6166 48.3572 25.8359 49.1632C26.0553 49.9691 26.8971 50.4477 27.7177 50.2319C28.5372 50.0162 29.0238 49.1873 28.8044 48.3813C28.5851 47.5754 27.7433 47.0968 26.9227 47.3126ZM27.3213 45.6393L26.8347 45.3601L19.8222 41.3314V41.7004L26.8347 45.7291L26.9984 45.8233L27.3213 46.0095L27.6431 45.8233L27.8079 45.7291L34.6734 41.7848V41.4146L27.8079 45.3601L27.3213 45.6393ZM26.9227 47.3126C26.1032 47.5283 25.6166 48.3572 25.8359 49.1632C26.0553 49.9691 26.8971 50.4477 27.7177 50.2319C28.5372 50.0162 29.0238 49.1873 28.8044 48.3813C28.5851 47.5754 27.7433 47.0968 26.9227 47.3126ZM28.8044 48.3813C28.5851 47.5754 27.7433 47.0968 26.9227 47.3126C26.1032 47.5283 25.6166 48.3572 25.8359 49.1632C26.0553 49.9691 26.8971 50.4477 27.7177 50.2319C28.5372 50.0162 29.0238 49.1873 28.8044 48.3813ZM27.8079 45.359L27.3213 45.6382L26.8347 45.359L19.8222 41.3303V41.6993L26.8347 45.728L26.9984 45.8222L27.3213 46.0084L27.6431 45.8222L27.8079 45.728L34.6734 41.7837V41.4135L27.8079 45.359ZM27.8079 45.359L27.3213 45.6382L26.8347 45.359L19.8222 41.3303V41.6993L26.8347 45.728L26.9984 45.8222L27.3213 46.0084L27.6431 45.8222L27.8079 45.728L34.6734 41.7837V41.4135L27.8079 45.359ZM28.8044 48.3813C28.5851 47.5754 27.7433 47.0968 26.9227 47.3126C26.1032 47.5283 25.6166 48.3572 25.8359 49.1632C26.0553 49.9691 26.8971 50.4477 27.7177 50.2319C28.5372 50.0162 29.0238 49.1873 28.8044 48.3813ZM28.8044 48.3813C28.5851 47.5754 27.7433 47.0968 26.9227 47.3126C26.1032 47.5283 25.6166 48.3572 25.8359 49.1632C26.0553 49.9691 26.8971 50.4477 27.7177 50.2319C28.5372 50.0162 29.0238 49.1873 28.8044 48.3813ZM27.8079 45.359L27.3213 45.6382L26.8347 45.359L19.8222 41.3303V41.6993L26.8347 45.728L26.9984 45.8222L27.3213 46.0084L27.6431 45.8222L27.8079 45.728L34.6734 41.7837V41.4135L27.8079 45.359ZM27.8079 45.359L27.3213 45.6382L26.8347 45.359L19.8222 41.3303V41.6993L26.8347 45.728L26.9984 45.8222L27.3213 46.0084L27.6431 45.8222L27.8079 45.728L34.6734 41.7837V41.4135L27.8079 45.359ZM28.8044 48.3813C28.5851 47.5754 27.7433 47.0968 26.9227 47.3126C26.1032 47.5283 25.6166 48.3572 25.8359 49.1632C26.0553 49.9691 26.8971 50.4477 27.7177 50.2319C28.5372 50.0162 29.0238 49.1873 28.8044 48.3813ZM27.1821 28.9475V43.9968H27.5006V28.9475H27.1821ZM10.7809 18.0387V18.0518L11.1027 18.2369V18.2238L10.7809 18.0387ZM10.7776 26.003V26.1891H11.1016L10.7776 26.003ZM43.8282 25.9405H43.8249V26.1902H43.8639V25.9208L43.8282 25.9416V25.9405ZM10.0527 15.6635C9.83338 14.8576 8.99161 14.379 8.171 14.5948C7.3515 14.8105 6.86492 15.6394 7.08427 16.4454C7.30362 17.2503 8.14539 17.7299 8.966 17.5142C9.78551 17.2984 10.2721 16.4695 10.0527 15.6635ZM48.1162 15.6635C47.8968 14.8576 47.055 14.379 46.2344 14.5948C45.4149 14.8105 44.9283 15.6394 45.1477 16.4454C45.367 17.2503 46.2088 17.7299 47.0294 17.5142C47.8489 17.2984 48.3355 16.4695 48.1162 15.6635ZM10.6941 18.0026L10.7776 18.0507V17.8613L10.6941 18.0026ZM10.7809 18.0398V18.0529L11.1027 18.238V18.2248L10.7809 18.0398ZM11.2519 17.2152L11.1851 17.1769L11.1161 17.2941L11.1072 17.3083L11.2608 17.2207L11.2519 17.2163V17.2152ZM10.7809 18.0398V18.0529L11.1027 18.238V18.2248L10.7809 18.0398ZM27.3213 7.99274L19.8177 12.305L20.1484 12.4835L27.3213 8.36287L34.8861 12.7113H34.8872L35.2112 12.5284L27.3213 7.99493V7.99274ZM43.5387 27.9521V36.3216L36.2968 40.4838V40.8529L43.7826 36.5526L43.8628 36.5055V27.7682L43.5387 27.9532V27.9521ZM11.1027 36.3205V28.0343L10.7787 27.8481V36.5034L18.1999 40.7664V40.3973L11.1027 36.3194V36.3205ZM48.1162 15.6624C47.8968 14.8565 47.055 14.378 46.2344 14.5937C45.4149 14.8094 44.9283 15.6384 45.1477 16.4443C45.367 17.2492 46.2088 17.7288 47.0294 17.5131C47.8489 17.2973 48.3355 16.4684 48.1162 15.6624ZM43.5387 27.951V36.3205L36.2968 40.4828V40.8518L43.7826 36.5515L43.8628 36.5045V27.7671L43.5387 27.9521V27.951ZM10.6941 18.0026L10.7776 18.0507V17.8613L10.6941 18.0026ZM10.7809 18.0398V18.0529L11.1027 18.238V18.2248L10.7809 18.0398ZM43.8282 25.9416H43.8249V26.1913H43.8639V25.9219L43.8282 25.9427V25.9416ZM27.3213 7.99165L19.8177 12.3039L20.1484 12.4824L27.3213 8.36177L34.8861 12.7102H34.8872L35.2112 12.5273L27.3213 7.99384V7.99165ZM27.1821 28.9486V43.9979H27.5006V28.9486H27.1821ZM11.1027 36.3205V28.0343L10.7787 27.8481V36.5034L18.1999 40.7664V40.3973L11.1027 36.3194V36.3205ZM11.253 17.2141L11.1862 17.1758L11.1172 17.293L11.1083 17.3072L11.2619 17.2196L11.253 17.2152V17.2141ZM10.7787 26.0041V26.1902H11.1027L10.7787 26.0041ZM10.0527 15.6635C9.83338 14.8576 8.99161 14.379 8.171 14.5948C7.3515 14.8105 6.86492 15.6394 7.08427 16.4454C7.30362 17.2503 8.14539 17.7299 8.966 17.5142C9.78551 17.2984 10.2721 16.4695 10.0527 15.6635ZM10.0527 15.6635C9.83338 14.8576 8.99161 14.379 8.171 14.5948C7.3515 14.8105 6.86492 15.6394 7.08427 16.4454C7.30362 17.2503 8.14539 17.7299 8.966 17.5142C9.78551 17.2984 10.2721 16.4695 10.0527 15.6635ZM10.6941 18.0026L10.7776 18.0507V17.8613L10.6941 18.0026ZM10.7809 18.0398V18.0529L11.1027 18.238V18.2248L10.7809 18.0398ZM10.7776 26.0041V26.1902H11.1016L10.7776 26.0041ZM11.2519 17.2141L11.1851 17.1758L11.1161 17.293L11.1072 17.3072L11.2608 17.2196L11.2519 17.2152V17.2141ZM11.1016 36.3205V28.0343L10.7776 27.8481V36.5034L18.1988 40.7664V40.3973L11.1016 36.3194V36.3205ZM27.181 28.9486V43.9979H27.4994V28.9486H27.181ZM27.3202 7.99165L19.8166 12.3039L20.1473 12.4824L27.3202 8.36177L34.885 12.7102H34.8861L35.2101 12.5273L27.3202 7.99384V7.99165ZM43.8271 25.9405H43.8238V26.1902H43.8628V25.9208L43.8271 25.9416V25.9405ZM43.5387 27.951V36.3205L36.2968 40.4828V40.8518L43.7826 36.5515L43.8628 36.5045V27.7671L43.5387 27.9521V27.951ZM48.1162 15.6624C47.8968 14.8565 47.055 14.378 46.2344 14.5937C45.4149 14.8094 44.9283 15.6384 45.1477 16.4443C45.367 17.2492 46.2088 17.7288 47.0294 17.5131C47.8489 17.2973 48.3355 16.4684 48.1162 15.6624ZM48.1162 15.6624C47.8968 14.8565 47.055 14.378 46.2344 14.5937C45.4149 14.8094 44.9283 15.6384 45.1477 16.4443C45.367 17.2492 46.2088 17.7288 47.0294 17.5131C47.8489 17.2973 48.3355 16.4684 48.1162 15.6624ZM43.5387 27.951V36.3205L36.2968 40.4828V40.8518L43.7826 36.5515L43.8628 36.5045V27.7671L43.5387 27.9521V27.951ZM43.8271 25.9405H43.8238V26.1902H43.8628V25.9208L43.8271 25.9416V25.9405ZM27.3213 7.99165L19.8177 12.3039L20.1484 12.4824L27.3213 8.36177L34.8861 12.7102H34.8872L35.2112 12.5273L27.3213 7.99384V7.99165ZM27.1821 28.9486V43.9979H27.5006V28.9486H27.1821ZM11.1027 36.3205V28.0343L10.7787 27.8481V36.5034L18.1999 40.7664V40.3973L11.1027 36.3194V36.3205ZM11.253 17.2141L11.1862 17.1758L11.1172 17.293L11.1083 17.3072L11.2619 17.2196L11.253 17.2152V17.2141ZM10.7787 26.0041V26.1902H11.1027L10.7787 26.0041ZM10.6952 18.0026L10.7787 18.0507V17.8613L10.6952 18.0026ZM10.782 18.0398V18.0529L11.1038 18.238V18.2248L10.782 18.0398ZM10.0527 15.6635C9.83338 14.8576 8.99161 14.379 8.171 14.5948C7.3515 14.8105 6.86492 15.6394 7.08427 16.4454C7.30362 17.2503 8.14539 17.7299 8.966 17.5142C9.78551 17.2984 10.2721 16.4695 10.0527 15.6635ZM10.0527 15.6635C9.83338 14.8576 8.99161 14.379 8.171 14.5948C7.3515 14.8105 6.86492 15.6394 7.08427 16.4454C7.30362 17.2503 8.14539 17.7299 8.966 17.5142C9.78551 17.2984 10.2721 16.4695 10.0527 15.6635ZM10.6941 18.0026L10.7776 18.0507V17.8613L10.6941 18.0026ZM10.7809 18.0398V18.0529L11.1027 18.238V18.2248L10.7809 18.0398ZM10.7776 26.0041V26.1902H11.1016L10.7776 26.0041ZM11.2519 17.2141L11.1851 17.1758L11.1161 17.293L11.1072 17.3072L11.2608 17.2196L11.2519 17.2152V17.2141ZM11.1016 36.3205V28.0343L10.7776 27.8481V36.5034L18.1988 40.7664V40.3973L11.1016 36.3194V36.3205ZM27.181 28.9486V43.9979H27.4994V28.9486H27.181ZM27.3202 7.99165L19.8166 12.3039L20.1473 12.4824L27.3202 8.36177L34.885 12.7102H34.8861L35.2101 12.5273L27.3202 7.99384V7.99165ZM43.8271 25.9405H43.8238V26.1902H43.8628V25.9208L43.8271 25.9416V25.9405ZM43.5387 27.951V36.3205L36.2968 40.4828V40.8518L43.7826 36.5515L43.8628 36.5045V27.7671L43.5387 27.9521V27.951ZM48.1162 15.6624C47.8968 14.8565 47.055 14.378 46.2344 14.5937C45.4149 14.8094 44.9283 15.6384 45.1477 16.4443C45.367 17.2492 46.2088 17.7288 47.0294 17.5131C47.8489 17.2973 48.3355 16.4684 48.1162 15.6624ZM48.1162 15.6624C47.8968 14.8565 47.055 14.378 46.2344 14.5937C45.4149 14.8094 44.9283 15.6384 45.1477 16.4443C45.367 17.2492 46.2088 17.7288 47.0294 17.5131C47.8489 17.2973 48.3355 16.4684 48.1162 15.6624ZM43.5387 27.951V36.3205L36.2968 40.4828V40.8518L43.7826 36.5515L43.8628 36.5045V27.7671L43.5387 27.9521V27.951ZM43.8271 25.9405H43.8238V26.1902H43.8628V25.9208L43.8271 25.9416V25.9405ZM27.3213 7.99165L19.8177 12.3039L20.1484 12.4824L27.3213 8.36177L34.8861 12.7102H34.8872L35.2112 12.5273L27.3213 7.99384V7.99165ZM27.1821 28.9486V43.9979H27.5006V28.9486H27.1821ZM11.1027 36.3205V28.0343L10.7787 27.8481V36.5034L18.1999 40.7664V40.3973L11.1027 36.3194V36.3205ZM11.253 17.2141L11.1862 17.1758L11.1172 17.293L11.1083 17.3072L11.2619 17.2196L11.253 17.2152V17.2141ZM10.7787 26.0041V26.1902H11.1027L10.7787 26.0041ZM10.6952 18.0026L10.7787 18.0507V17.8613L10.6952 18.0026ZM10.782 18.0398V18.0529L11.1038 18.238V18.2248L10.782 18.0398ZM10.0527 15.6635C9.83338 14.8576 8.99161 14.379 8.171 14.5948C7.3515 14.8105 6.86492 15.6394 7.08427 16.4454C7.30362 17.2503 8.14539 17.7299 8.966 17.5142C9.78551 17.2984 10.2721 16.4695 10.0527 15.6635ZM10.0527 15.6635C9.83338 14.8576 8.99161 14.379 8.171 14.5948C7.3515 14.8105 6.86492 15.6394 7.08427 16.4454C7.30362 17.2503 8.14539 17.7299 8.966 17.5142C9.78551 17.2984 10.2721 16.4695 10.0527 15.6635ZM10.6941 18.0026L10.7776 18.0507V17.8613L10.6941 18.0026ZM10.7776 26.0041V26.1902H11.1016L10.7776 26.0041ZM10.7809 18.0398V18.0529L11.1027 18.238V18.2248L10.7809 18.0398ZM11.2519 17.2152L11.1851 17.1769L11.1161 17.2941L11.1072 17.3083L11.2608 17.2207L11.2519 17.2163V17.2152ZM11.1016 36.3216V28.0354L10.7776 27.8492V36.5045L18.1988 40.7675V40.3984L11.1016 36.3205V36.3216ZM27.181 28.9497V43.9989H27.4994V28.9497H27.181ZM27.3202 7.99274L19.8166 12.305L20.1473 12.4835L27.3202 8.36287L34.885 12.7113H34.8861L35.2101 12.5284L27.3202 7.99493V7.99274ZM43.0689 17.3981L43.06 17.3937L43.0488 17.4003L43.0555 17.4047L43.0678 17.3992L43.0689 17.3981ZM43.5131 17.2984L43.414 17.2404L43.3784 17.2196L43.4074 17.2437L43.4341 17.2656L43.5154 17.3017L43.5321 17.3083L43.5131 17.2973V17.2984ZM43.826 25.9416H43.8227V26.1913H43.8616V25.9219L43.826 25.9427V25.9416ZM43.8427 17.8142L43.8494 17.8252H43.8605V17.8142H43.8416H43.8427ZM43.8817 18.0091L43.8639 18.0398H43.8605V18.042V18.0507L43.8828 18.0124V18.008L43.8817 18.0091ZM43.5365 27.9532V36.3227L36.2946 40.4849V40.854L43.7804 36.5537L43.8605 36.5066V27.7693L43.5365 27.9543V27.9532ZM48.1139 15.6646C47.8946 14.8587 47.0528 14.3801 46.2322 14.5959C45.4127 14.8116 44.9261 15.6405 45.1455 16.4465C45.3648 17.2514 46.2066 17.731 47.0272 17.5153C47.8467 17.2995 48.3333 16.4706 48.1139 15.6646ZM48.1139 15.6646C47.8946 14.8587 47.0528 14.3801 46.2322 14.5959C45.4127 14.8116 44.9261 15.6405 45.1455 16.4465C45.3648 17.2514 46.2066 17.731 47.0272 17.5153C47.8467 17.2995 48.3333 16.4706 48.1139 15.6646ZM43.8817 18.0091L43.8639 18.0398H43.8605V18.042V18.0507L43.8828 18.0124V18.008L43.8817 18.0091ZM43.5365 27.9532V36.3227L36.2946 40.4849V40.854L43.7804 36.5537L43.8605 36.5066V27.7693L43.5365 27.9543V27.9532ZM43.8427 17.8153L43.8494 17.8263H43.8605V17.8153H43.8416H43.8427ZM43.826 25.9427H43.8227V26.1924H43.8616V25.923L43.826 25.9438V25.9427ZM43.5131 17.2995L43.414 17.2415L43.3784 17.2207L43.4074 17.2448L43.4341 17.2667L43.5154 17.3028L43.5321 17.3094L43.5131 17.2984V17.2995ZM43.0689 17.3992L43.06 17.3948L43.0488 17.4014L43.0555 17.4058L43.0678 17.4003L43.0689 17.3992ZM27.3202 7.99384L19.8166 12.3061L20.1473 12.4846L27.3202 8.36396L34.885 12.7124H34.8861L35.2101 12.5295L27.3202 7.99603V7.99384ZM27.181 28.9508V44H27.4994V28.9508H27.181ZM11.1016 36.3227V28.0365L10.7776 27.8503V36.5055L18.1988 40.7686V40.3995L11.1016 36.3216V36.3227ZM11.2519 17.2163L11.1851 17.178L11.1161 17.2952L11.1072 17.3094L11.2608 17.2218L11.2519 17.2174V17.2163ZM10.7809 18.0409V18.054L11.1027 18.2391V18.2259L10.7809 18.0409ZM10.7776 26.0052V26.1913H11.1016L10.7776 26.0052ZM10.6941 18.0037L10.7776 18.0518V17.8624L10.6941 18.0037ZM10.0527 15.6646C9.83338 14.8587 8.99161 14.3801 8.171 14.5959C7.3515 14.8116 6.86492 15.6405 7.08427 16.4465C7.30362 17.2514 8.14539 17.731 8.966 17.5153C9.78551 17.2995 10.2721 16.4706 10.0527 15.6646ZM10.0527 15.6646C9.83338 14.8587 8.99161 14.3801 8.171 14.5959C7.3515 14.8116 6.86492 15.6405 7.08427 16.4465C7.30362 17.2514 8.14539 17.731 8.966 17.5153C9.78551 17.2995 10.2721 16.4706 10.0527 15.6646ZM10.6941 18.0037L10.7776 18.0518V17.8624L10.6941 18.0037ZM10.7776 26.0052V26.1913H11.1016L10.7776 26.0052ZM10.7809 18.0409V18.054L11.1027 18.2391V18.2259L10.7809 18.0409ZM11.2519 17.2163L11.1851 17.178L11.1161 17.2952L11.1072 17.3094L11.2608 17.2218L11.2519 17.2174V17.2163ZM11.1016 36.3227V28.0365L10.7776 27.8503V36.5055L18.1988 40.7686V40.3995L11.1016 36.3216V36.3227ZM27.181 28.9508V44H27.4994V28.9508H27.181ZM27.3202 7.99384L19.8166 12.3061L20.1473 12.4846L27.3202 8.36396L34.885 12.7124H34.8861L35.2101 12.5295L27.3202 7.99603V7.99384ZM43.0689 17.3992L43.06 17.3948L43.0488 17.4014L43.0555 17.4058L43.0678 17.4003L43.0689 17.3992ZM43.5131 17.2995L43.414 17.2415L43.3784 17.2207L43.4074 17.2448L43.4341 17.2667L43.5154 17.3028L43.5321 17.3094L43.5131 17.2984V17.2995ZM43.826 25.9427H43.8227V26.1924H43.8616V25.923L43.826 25.9438V25.9427ZM43.8427 17.8153L43.8494 17.8263H43.8605V17.8153H43.8416H43.8427ZM43.8817 18.0102L43.8639 18.0409H43.8605V18.0431V18.0518L43.8828 18.0135V18.0091L43.8817 18.0102ZM43.5365 27.9543V36.3238L36.2946 40.486V40.8551L43.7804 36.5548L43.8605 36.5077V27.7704L43.5365 27.9554V27.9543ZM48.1139 15.6657C47.8946 14.8598 47.0528 14.3812 46.2322 14.597C45.4127 14.8127 44.9261 15.6416 45.1455 16.4476C45.3648 17.2524 46.2066 17.7321 47.0272 17.5164C47.8467 17.3006 48.3333 16.4717 48.1139 15.6657ZM48.1139 15.6657C47.8946 14.8598 47.0528 14.3812 46.2322 14.597C45.4127 14.8127 44.9261 15.6416 45.1455 16.4476C45.3648 17.2524 46.2066 17.7321 47.0272 17.5164C47.8467 17.3006 48.3333 16.4717 48.1139 15.6657ZM43.8639 18.042H43.8605V18.0442V18.0529L43.8828 18.0146V18.0102L43.8639 18.0409V18.042ZM43.5365 36.3238L36.2946 40.486V40.8551L43.7804 36.5548L43.8605 36.5077V27.7704L43.5365 27.9554V36.3249V36.3238ZM43.8605 17.8273V17.8164H43.8416L43.8483 17.8273H43.8594H43.8605ZM43.8216 25.9449V26.1924H43.8605V25.923L43.8249 25.9438H43.8216V25.9449ZM43.4319 17.2678L43.5131 17.3039L43.5298 17.3105L43.5109 17.2995L43.4118 17.2415L43.3762 17.2207L43.4051 17.2448L43.4319 17.2667V17.2678ZM43.0555 17.4069L43.0678 17.4003L43.0588 17.3948L43.0477 17.4014L43.0544 17.4058L43.0555 17.4069ZM19.8144 12.3061L20.1451 12.4846L27.318 8.36396L34.8828 12.7124H34.8839L35.2079 12.5295L27.318 7.99603L19.8144 12.3083V12.3061ZM27.1788 44.0011H27.4972V28.9519H27.1788V44.0011ZM11.1027 28.0354L10.7787 27.8492V36.5045L18.1999 40.7675V40.3984L11.1027 36.3205V28.0343V28.0354ZM11.253 17.2141L11.1862 17.1758L11.1172 17.293L11.1083 17.3072L11.2619 17.2196L11.253 17.2152V17.2141ZM11.1027 18.2238L10.7809 18.0387V18.0518L11.1027 18.2369V18.2238ZM10.7787 26.1902H11.1027L10.7787 26.0041V26.1902ZM10.7787 17.8613L10.6952 18.0026L10.7787 18.0507V17.8613ZM8.17211 14.5948C7.35261 14.8105 6.86603 15.6394 7.08538 16.4454C7.30473 17.2503 8.1465 17.7299 8.96712 17.5142C9.78662 17.2984 10.2732 16.4695 10.0538 15.6635C9.8345 14.8576 8.99273 14.379 8.17211 14.5948ZM27.4994 0L4 13.5019V40.4981L27.4994 54L51 40.4981V13.5019L27.4994 0ZM50.0268 39.9484L27.4994 52.8918L4.97427 39.9484V14.0527L27.4994 1.10928L50.0268 14.0527V39.9484ZM47.0305 17.5142C47.85 17.2984 48.3366 16.4695 48.1173 15.6635C47.8979 14.8576 47.0561 14.379 46.2355 14.5948C45.416 14.8105 44.9295 15.6394 45.1488 16.4454C45.3682 17.2503 46.2099 17.7299 47.0305 17.5142ZM43.8639 36.5045V27.7671L43.5399 27.9521V36.3216L36.298 40.4838V40.8529L43.7837 36.5526L43.8639 36.5055V36.5045ZM43.8639 18.042V18.0507L43.8861 18.0124V18.008L43.8672 18.0387H43.8639V18.0409V18.042ZM43.8639 17.8252V17.8142H43.8449L43.8516 17.8252H43.8628H43.8639ZM43.8249 26.1902H43.8639V25.9208L43.8282 25.9416H43.8249V26.1913V26.1902ZM43.4352 17.2656L43.5165 17.3017L43.5332 17.3083L43.5143 17.2973L43.4152 17.2393L43.3795 17.2185L43.4085 17.2426L43.4352 17.2645V17.2656ZM43.0588 17.4047L43.0711 17.3981L43.0622 17.3926L43.0511 17.3992L43.0577 17.4036L43.0588 17.4047ZM19.8177 12.3039L20.1484 12.4824L27.3213 8.36177L34.8861 12.7102H34.8872L35.2112 12.5273L27.3213 7.99384L19.8177 12.3061V12.3039ZM27.1821 43.9989H27.5006V28.9497H27.1821V43.9989ZM11.1027 28.0354L10.7787 27.8492V36.5045L18.1999 40.7675V40.3984L11.1027 36.3205V28.0343V28.0354ZM11.253 17.2141L11.1862 17.1758L11.1172 17.293L11.1083 17.3072L11.2619 17.2196L11.253 17.2152V17.2141ZM11.1027 18.2238L10.7809 18.0387V18.0518L11.1027 18.2369V18.2238ZM10.7787 26.1902H11.1027L10.7787 26.0041V26.1902ZM10.7787 17.8613L10.6952 18.0026L10.7787 18.0507V17.8613ZM8.17211 14.5948C7.35261 14.8105 6.86603 15.6394 7.08538 16.4454C7.30473 17.2503 8.1465 17.7299 8.96712 17.5142C9.78662 17.2984 10.2732 16.4695 10.0538 15.6635C9.8345 14.8576 8.99273 14.379 8.17211 14.5948ZM10.0538 15.6635C9.8345 14.8576 8.99273 14.379 8.17211 14.5948C7.35261 14.8105 6.86603 15.6394 7.08538 16.4454C7.30473 17.2503 8.1465 17.7299 8.96712 17.5142C9.78662 17.2984 10.2732 16.4695 10.0538 15.6635ZM10.6952 18.0026L10.7787 18.0507V17.8613L10.6952 18.0026ZM10.7787 26.0041V26.1902H11.1027L10.7787 26.0041ZM10.782 18.0398V18.0529L11.1038 18.238V18.2248L10.782 18.0398ZM11.253 17.2152L11.1862 17.1769L11.1172 17.2941L11.1083 17.3083L11.2619 17.2207L11.253 17.2163V17.2152ZM11.1027 36.3216V28.0354L10.7787 27.8492V36.5045L18.1999 40.7675V40.3984L11.1027 36.3205V36.3216ZM27.1821 28.9497V43.9989H27.5006V28.9497H27.1821ZM27.3213 7.99274L19.8177 12.305L20.1484 12.4835L27.3213 8.36287L34.8861 12.7113H34.8872L35.2112 12.5284L27.3213 7.99493V7.99274ZM43.07 17.3981L43.0611 17.3937L43.0499 17.4003L43.0566 17.4047L43.0689 17.3992L43.07 17.3981ZM43.5143 17.2984L43.4152 17.2404L43.3795 17.2196L43.4085 17.2437L43.4352 17.2656L43.5165 17.3017L43.5332 17.3083L43.5143 17.2973V17.2984ZM43.8271 25.9416H43.8238V26.1913H43.8628V25.9219L43.8271 25.9427V25.9416ZM43.8438 17.8142L43.8505 17.8252H43.8616V17.8142H43.8427H43.8438ZM43.5376 27.9521V36.3216L36.2957 40.4838V40.8529L43.7815 36.5526L43.8616 36.5055V27.7682L43.5376 27.9532V27.9521ZM43.8828 18.008L43.865 18.0387H43.8616V18.0409V18.0496L43.8839 18.0113V18.0069L43.8828 18.008ZM48.115 15.6635C47.8957 14.8576 47.0539 14.379 46.2333 14.5948C45.4138 14.8105 44.9272 15.6394 45.1466 16.4454C45.3659 17.2503 46.2077 17.7299 47.0283 17.5142C47.8478 17.2984 48.3344 16.4695 48.115 15.6635ZM48.115 15.6635C47.8957 14.8576 47.0539 14.379 46.2333 14.5948C45.4138 14.8105 44.9272 15.6394 45.1466 16.4454C45.3659 17.2503 46.2077 17.7299 47.0283 17.5142C47.8478 17.2984 48.3344 16.4695 48.115 15.6635ZM43.5376 27.9521V36.3216L36.2957 40.4838V40.8529L43.7815 36.5526L43.8616 36.5055V27.7682L43.5376 27.9532V27.9521ZM43.8828 18.008L43.865 18.0387H43.8616V18.0409V18.0496L43.8839 18.0113V18.0069L43.8828 18.008ZM43.8438 17.8131L43.8505 17.8241H43.8616V17.8131H43.8427H43.8438ZM43.8271 25.9405H43.8238V26.1902H43.8628V25.9208L43.8271 25.9416V25.9405ZM43.5143 17.2973L43.4152 17.2393L43.3795 17.2185L43.4085 17.2426L43.4352 17.2645L43.5165 17.3006L43.5332 17.3072L43.5143 17.2963V17.2973ZM43.07 17.397L43.0611 17.3926L43.0499 17.3992L43.0566 17.4036L43.0689 17.3981L43.07 17.397ZM27.3213 7.99165L19.8177 12.3039L20.1484 12.4824L27.3213 8.36177L34.8861 12.7102H34.8872L35.2112 12.5273L27.3213 7.99384V7.99165ZM27.1821 28.9486V43.9979H27.5006V28.9486H27.1821ZM11.1027 36.3205V28.0343L10.7787 27.8481V36.5034L18.1999 40.7664V40.3973L11.1027 36.3194V36.3205ZM11.253 17.2141L11.1862 17.1758L11.1172 17.293L11.1083 17.3072L11.2619 17.2196L11.253 17.2152V17.2141ZM10.782 18.0387V18.0518L11.1038 18.2369V18.2238L10.782 18.0387ZM10.7787 26.003V26.1891H11.1027L10.7787 26.003ZM10.6952 18.0015L10.7787 18.0496V17.8602L10.6952 18.0015ZM10.0538 15.6624C9.8345 14.8565 8.99273 14.378 8.17211 14.5937C7.35261 14.8094 6.86603 15.6384 7.08538 16.4443C7.30473 17.2492 8.1465 17.7288 8.96712 17.5131C9.78662 17.2973 10.2732 16.4684 10.0538 15.6624ZM10.0538 15.6624C9.8345 14.8565 8.99273 14.378 8.17211 14.5937C7.35261 14.8094 6.86603 15.6384 7.08538 16.4443C7.30473 17.2492 8.1465 17.7288 8.96712 17.5131C9.78662 17.2973 10.2732 16.4684 10.0538 15.6624ZM10.6952 18.0015L10.7787 18.0496V17.8602L10.6952 18.0015ZM10.7787 26.003V26.1891H11.1027L10.7787 26.003ZM10.782 18.0387V18.0518L11.1038 18.2369V18.2238L10.782 18.0387ZM11.253 17.2141L11.1862 17.1758L11.1172 17.293L11.1083 17.3072L11.2619 17.2196L11.253 17.2152V17.2141ZM11.1027 36.3205V28.0343L10.7787 27.8481V36.5034L18.1999 40.7664V40.3973L11.1027 36.3194V36.3205ZM27.1821 28.9486V43.9979H27.5006V28.9486H27.1821ZM27.3213 7.99165L19.8177 12.3039L20.1484 12.4824L27.3213 8.36177L34.8861 12.7102H34.8872L35.2112 12.5273L27.3213 7.99384V7.99165ZM43.07 17.397L43.0611 17.3926L43.0499 17.3992L43.0566 17.4036L43.0689 17.3981L43.07 17.397ZM43.5143 17.2973L43.4152 17.2393L43.3795 17.2185L43.4085 17.2426L43.4352 17.2645L43.5165 17.3006L43.5332 17.3072L43.5143 17.2963V17.2973ZM43.8271 25.9405H43.8238V26.1902H43.8628V25.9208L43.8271 25.9416V25.9405ZM43.8438 17.8131L43.8505 17.8241H43.8616V17.8131H43.8427H43.8438ZM43.5376 27.951V36.3205L36.2957 40.4828V40.8518L43.7815 36.5515L43.8616 36.5045V27.7671L43.5376 27.9521V27.951ZM43.8828 18.0069L43.865 18.0376H43.8616V18.0398V18.0485L43.8839 18.0102V18.0058L43.8828 18.0069ZM48.115 15.6624C47.8957 14.8565 47.0539 14.378 46.2333 14.5937C45.4138 14.8094 44.9272 15.6384 45.1466 16.4443C45.3659 17.2492 46.2077 17.7288 47.0283 17.5131C47.8478 17.2973 48.3344 16.4684 48.115 15.6624ZM48.115 15.6624C47.8957 14.8565 47.0539 14.378 46.2333 14.5937C45.4138 14.8094 44.9272 15.6384 45.1466 16.4443C45.3659 17.2492 46.2077 17.7288 47.0283 17.5131C47.8478 17.2973 48.3344 16.4684 48.115 15.6624ZM43.5376 27.951V36.3205L36.2957 40.4828V40.8518L43.7815 36.5515L43.8616 36.5045V27.7671L43.5376 27.9521V27.951ZM43.826 25.9405H43.8227V26.1902H43.8616V25.9208L43.826 25.9416V25.9405ZM27.3213 7.99165L19.8177 12.3039L20.1484 12.4824L27.3213 8.36177L34.8861 12.7102H34.8872L35.2112 12.5273L27.3213 7.99384V7.99165ZM27.1821 28.9486V43.9979H27.5006V28.9486H27.1821ZM11.1027 36.3205V28.0343L10.7787 27.8481V36.5034L18.1999 40.7664V40.3973L11.1027 36.3194V36.3205ZM11.253 17.2141L11.1862 17.1758L11.1172 17.293L11.1083 17.3072L11.2619 17.2196L11.253 17.2152V17.2141ZM10.7787 26.0041V26.1902H11.1027L10.7787 26.0041ZM10.6952 18.0026L10.7787 18.0507V17.8613L10.6952 18.0026ZM10.782 18.0398V18.0529L11.1038 18.238V18.2248L10.782 18.0398ZM10.0527 15.6635C9.83338 14.8576 8.99161 14.379 8.171 14.5948C7.3515 14.8105 6.86492 15.6394 7.08427 16.4454C7.30362 17.2503 8.14539 17.7299 8.966 17.5142C9.78551 17.2984 10.2721 16.4695 10.0527 15.6635ZM10.0527 15.6635C9.83338 14.8576 8.99161 14.379 8.171 14.5948C7.3515 14.8105 6.86492 15.6394 7.08427 16.4454C7.30362 17.2503 8.14539 17.7299 8.966 17.5142C9.78551 17.2984 10.2721 16.4695 10.0527 15.6635ZM10.6941 18.0026L10.7776 18.0507V17.8613L10.6941 18.0026ZM10.7809 18.0398V18.0529L11.1027 18.238V18.2248L10.7809 18.0398ZM10.7776 26.0041V26.1902H11.1016L10.7776 26.0041ZM11.2519 17.2141L11.1851 17.1758L11.1161 17.293L11.1072 17.3072L11.2608 17.2196L11.2519 17.2152V17.2141ZM11.1016 36.3205V28.0343L10.7776 27.8481V36.5034L18.1988 40.7664V40.3973L11.1016 36.3194V36.3205ZM27.181 28.9486V43.9979H27.4994V28.9486H27.181ZM27.3202 7.99165L19.8166 12.3039L20.1473 12.4824L27.3202 8.36177L34.885 12.7102H34.8861L35.2101 12.5273L27.3202 7.99384V7.99165ZM43.8271 25.9405H43.8238V26.1902H43.8628V25.9208L43.8271 25.9416V25.9405ZM43.5387 27.951V36.3205L36.2968 40.4828V40.8518L43.7826 36.5515L43.8628 36.5045V27.7671L43.5387 27.9521V27.951ZM48.1162 15.6624C47.8968 14.8565 47.055 14.378 46.2344 14.5937C45.4149 14.8094 44.9283 15.6384 45.1477 16.4443C45.367 17.2492 46.2088 17.7288 47.0294 17.5131C47.8489 17.2973 48.3355 16.4684 48.1162 15.6624ZM48.1162 15.6624C47.8968 14.8565 47.055 14.378 46.2344 14.5937C45.4149 14.8094 44.9283 15.6384 45.1477 16.4443C45.367 17.2492 46.2088 17.7288 47.0294 17.5131C47.8489 17.2973 48.3355 16.4684 48.1162 15.6624ZM43.5387 27.951V36.3205L36.2968 40.4828V40.8518L43.7826 36.5515L43.8628 36.5045V27.7671L43.5387 27.9521V27.951ZM43.8271 25.9405H43.8238V26.1902H43.8628V25.9208L43.8271 25.9416V25.9405ZM27.3213 7.99165L19.8177 12.3039L20.1484 12.4824L27.3213 8.36177L34.8861 12.7102H34.8872L35.2112 12.5273L27.3213 7.99384V7.99165ZM27.1821 28.9486V43.9979H27.5006V28.9486H27.1821ZM11.1027 36.3205V28.0343L10.7787 27.8481V36.5034L18.1999 40.7664V40.3973L11.1027 36.3194V36.3205ZM11.253 17.2141L11.1862 17.1758L11.1172 17.293L11.1083 17.3072L11.2619 17.2196L11.253 17.2152V17.2141ZM10.7787 26.0041V26.1902H11.1027L10.7787 26.0041ZM10.6952 18.0026L10.7787 18.0507V17.8613L10.6952 18.0026ZM10.782 18.0398V18.0529L11.1038 18.238V18.2248L10.782 18.0398ZM10.0527 15.6635C9.83338 14.8576 8.99161 14.379 8.171 14.5948C7.3515 14.8105 6.86492 15.6394 7.08427 16.4454C7.30362 17.2503 8.14539 17.7299 8.966 17.5142C9.78551 17.2984 10.2721 16.4695 10.0527 15.6635ZM10.0527 15.6635C9.83338 14.8576 8.99161 14.379 8.171 14.5948C7.3515 14.8105 6.86492 15.6394 7.08427 16.4454C7.30362 17.2503 8.14539 17.7299 8.966 17.5142C9.78551 17.2984 10.2721 16.4695 10.0527 15.6635ZM10.6941 18.0026L10.7776 18.0507V17.8613L10.6941 18.0026ZM10.7809 18.0398V18.0529L11.1027 18.238V18.2248L10.7809 18.0398ZM10.7776 26.0041V26.1902H11.1016L10.7776 26.0041ZM11.2519 17.2141L11.1851 17.1758L11.1161 17.293L11.1072 17.3072L11.2608 17.2196L11.2519 17.2152V17.2141ZM11.1016 36.3205V28.0343L10.7776 27.8481V36.5034L18.1988 40.7664V40.3973L11.1016 36.3194V36.3205ZM27.181 28.9486V43.9979H27.4994V28.9486H27.181ZM27.3202 7.99165L19.8166 12.3039L20.1473 12.4824L27.3202 8.36177L34.885 12.7102H34.8861L35.2101 12.5273L27.3202 7.99384V7.99165ZM43.8271 25.9405H43.8238V26.1902H43.8628V25.9208L43.8271 25.9416V25.9405ZM43.5387 27.951V36.3205L36.2968 40.4828V40.8518L43.7826 36.5515L43.8628 36.5045V27.7671L43.5387 27.9521V27.951ZM48.1162 15.6624C47.8968 14.8565 47.055 14.378 46.2344 14.5937C45.4149 14.8094 44.9283 15.6384 45.1477 16.4443C45.367 17.2492 46.2088 17.7288 47.0294 17.5131C47.8489 17.2973 48.3355 16.4684 48.1162 15.6624ZM48.1162 15.6624C47.8968 14.8565 47.055 14.378 46.2344 14.5937C45.4149 14.8094 44.9283 15.6384 45.1477 16.4443C45.367 17.2492 46.2088 17.7288 47.0294 17.5131C47.8489 17.2973 48.3355 16.4684 48.1162 15.6624ZM43.5387 27.951V36.3205L36.2968 40.4828V40.8518L43.7826 36.5515L43.8628 36.5045V27.7671L43.5387 27.9521V27.951ZM10.6941 18.0026L10.7776 18.0507V17.8613L10.6941 18.0026ZM10.7809 18.0398V18.0529L11.1027 18.238V18.2248L10.7809 18.0398ZM43.8282 25.9416H43.8249V26.1913H43.8639V25.9219L43.8282 25.9427V25.9416ZM27.3213 7.99165L19.8177 12.3039L20.1484 12.4824L27.3213 8.36177L34.8861 12.7102H34.8872L35.2112 12.5273L27.3213 7.99384V7.99165ZM27.1821 28.9486V43.9979H27.5006V28.9486H27.1821ZM11.1027 36.3205V28.0343L10.7787 27.8481V36.5034L18.1999 40.7664V40.3973L11.1027 36.3194V36.3205ZM11.253 17.2141L11.1862 17.1758L11.1172 17.293L11.1083 17.3072L11.2619 17.2196L11.253 17.2152V17.2141ZM10.7787 26.0041V26.1902H11.1027L10.7787 26.0041ZM10.0527 15.6635C9.83338 14.8576 8.99161 14.379 8.171 14.5948C7.3515 14.8105 6.86492 15.6394 7.08427 16.4454C7.30362 17.2503 8.14539 17.7299 8.966 17.5142C9.78551 17.2984 10.2721 16.4695 10.0527 15.6635ZM43.3806 17.2196L43.4096 17.2437L43.4163 17.2404L43.3806 17.2196ZM43.0711 17.3981L43.0622 17.3937L43.0511 17.4003L43.0577 17.4047L43.07 17.3992L43.0711 17.3981ZM43.885 18.0091L43.8672 18.0398H43.8639V18.042V18.0507L43.8861 18.0124V18.008L43.885 18.0091ZM43.8461 17.8142L43.8527 17.8252H43.8639V17.8142H43.8449H43.8461ZM43.5154 17.2984L43.5176 17.3017L43.5343 17.3083L43.5154 17.2973V17.2984ZM43.885 18.0091L43.8672 18.0398H43.8639V18.042V18.0507L43.8861 18.0124V18.008L43.885 18.0091ZM43.8461 17.8142L43.8527 17.8252H43.8639V17.8142H43.8449H43.8461ZM43.0633 17.3937L43.0522 17.4003L43.0588 17.4047L43.07 17.3981L43.0611 17.3937H43.0633ZM43.0633 17.3937L43.0522 17.4003L43.0588 17.4047L43.07 17.3981L43.0611 17.3937H43.0633ZM43.5165 17.2984L43.4174 17.2404L43.3818 17.2196L43.4107 17.2437L43.4374 17.2656L43.5187 17.3017L43.5354 17.3083L43.5165 17.2973V17.2984ZM43.8861 18.0091L43.8683 18.0398H43.865V18.042V18.0507L43.8873 18.0124V18.008L43.8861 18.0091ZM43.8472 17.8142L43.8539 17.8252H43.865V17.8142H43.8461H43.8472ZM43.8472 17.8142L43.8539 17.8252H43.865V17.8142H43.8461H43.8472ZM43.8873 18.0091L43.8694 18.0398H43.8661V18.042V18.0507L43.8884 18.0124V18.008L43.8873 18.0091ZM43.5176 17.2984L43.4185 17.2404L43.3829 17.2196L43.4118 17.2437L43.4385 17.2656L43.5198 17.3017L43.5365 17.3083L43.5176 17.2973V17.2984ZM43.0644 17.3937L43.0533 17.4003L43.06 17.4047L43.0711 17.3981L43.0622 17.3937H43.0644ZM43.0644 17.3937L43.0533 17.4003L43.06 17.4047L43.0711 17.3981L43.0622 17.3937H43.0644ZM43.5176 17.2984L43.4185 17.2404L43.3829 17.2196L43.4118 17.2437L43.4385 17.2656L43.5198 17.3017L43.5365 17.3083L43.5176 17.2973V17.2984ZM43.8873 18.0091L43.8694 18.0398H43.8661V18.042V18.0507L43.8884 18.0124V18.008L43.8873 18.0091ZM43.8483 17.8142L43.855 17.8252H43.8661V17.8142H43.8472H43.8483ZM43.0655 17.3937L43.0544 17.4003L43.0611 17.4047L43.0722 17.3981L43.0633 17.3937H43.0655ZM43.5187 17.2984L43.4196 17.2404L43.384 17.2196L43.4129 17.2437L43.4396 17.2656L43.5209 17.3017L43.5376 17.3083L43.5187 17.2973V17.2984ZM43.8884 18.0091L43.8706 18.0398H43.8672V18.042V18.0507L43.8895 18.0124V18.008L43.8884 18.0091ZM43.8494 17.8142L43.8561 17.8252H43.8672V17.8142H43.8483H43.8494ZM43.8494 17.8142L43.8561 17.8252H43.8672V17.8142H43.8483H43.8494ZM43.8895 18.0091L43.8717 18.0398H43.8683V18.042V18.0507L43.8906 18.0124V18.008L43.8895 18.0091ZM43.5198 17.2984L43.4207 17.2404L43.3851 17.2196L43.414 17.2437L43.4408 17.2656L43.522 17.3017L43.5387 17.3083L43.5198 17.2973V17.2984ZM43.0666 17.3937L43.0555 17.4003L43.0622 17.4047L43.0733 17.3981L43.0644 17.3937H43.0666ZM43.0666 17.3937L43.0555 17.4003L43.0622 17.4047L43.0733 17.3981L43.0644 17.3937H43.0666ZM43.5198 17.2984L43.4207 17.2404L43.3851 17.2196L43.414 17.2437L43.4408 17.2656L43.522 17.3017L43.5387 17.3083L43.5198 17.2973V17.2984ZM43.8895 18.0091L43.8717 18.0398H43.8683V18.042V18.0507L43.8906 18.0124V18.008L43.8895 18.0091ZM43.8505 17.8142L43.8572 17.8252H43.8683V17.8142H43.8494H43.8505ZM43.8505 17.8142L43.8572 17.8252H43.8683V17.8142H43.8494H43.8505ZM43.0678 17.3937L43.0566 17.4003L43.0633 17.4047L43.0744 17.3981L43.0655 17.3937H43.0678ZM43.0678 17.3937L43.0566 17.4003L43.0633 17.4047L43.0744 17.3981L43.0655 17.3937H43.0678ZM43.8516 17.8142L43.8583 17.8252H43.8694V17.8142H43.8505H43.8516ZM43.8917 18.0091L43.8739 18.0398H43.8706V18.042V18.0507L43.8928 18.0124V18.008L43.8917 18.0091ZM43.0689 17.3937L43.0577 17.4003L43.0644 17.4047L43.0756 17.3981L43.0666 17.3937H43.0689ZM43.8639 17.8142H43.8527L43.8594 17.8252H43.8706L43.8639 17.8142ZM43.8706 18.042V18.0507V18.0409V18.042ZM43.522 17.2984L43.4229 17.2404L43.3873 17.2196L43.4163 17.2437L43.443 17.2656L43.5243 17.3017L43.541 17.3083L43.522 17.2973V17.2984ZM43.8917 18.0091L43.8739 18.0398H43.8706V18.042V18.0507L43.8928 18.0124V18.008L43.8917 18.0091ZM43.8706 18.042V18.0507V18.0409V18.042ZM43.8706 17.8142V17.8252H43.8594L43.8527 17.8142H43.8717H43.8706ZM43.8917 18.0135L43.8706 18.0518V18.0431H43.8739L43.8917 18.0102V18.0146V18.0135ZM43.0778 17.3992L43.0655 17.4058L43.0588 17.4003L43.07 17.3937L43.0789 17.3981L43.0778 17.3992ZM43.8739 25.9099V26.1793H43.8349V25.9318L43.8739 25.9099ZM11.2642 17.2076L11.253 17.2141L11.1172 17.2919L11.1116 17.2952L11.1027 17.3083L11.1072 17.3061L11.2608 17.2185L11.272 17.2119L11.2631 17.2076H11.2642ZM43.8249 25.9427V26.1793H43.8282V25.9416H43.8249V25.9427ZM43.8661 17.4901L43.8271 17.4638V17.4769H43.8238L43.5354 17.3105L43.5332 17.3083L43.5165 17.3017L43.4352 17.2656L43.4085 17.2437L43.3795 17.2196L36.8291 13.4548L36.5051 13.6377L43.0522 17.3992L43.0633 17.3926L43.0722 17.397L43.06 17.4036L43.0533 17.3981L27.3269 26.4344L11.5971 17.397L18.5194 13.4198L18.1876 13.2402L11.2764 17.2108L11.2653 17.2174L11.1116 17.305L11.1072 17.3072L10.8622 17.4485L10.7832 17.4956V17.823H10.8043L10.7832 17.8591V18.0485H10.7865V18.0376L11.1083 18.2227V18.2358L10.7865 18.0507V25.9909L11.1105 26.1771H11.7597V18.5972L27.3291 27.5426L42.8985 18.5972V26.1771H43.8305V25.9405H43.8338V25.9296L43.8728 25.9077V26.1771H43.9118V17.5142L43.8728 17.4879L43.8661 17.4901ZM43.885 18.0124L43.8639 18.0507V18.042H43.8672L43.885 18.0091L43.8639 17.8624L43.8427 17.8263H43.8527L43.8461 17.8153H43.865V17.8263H43.8539L43.8683 17.8514L43.8895 18.0026L43.8861 18.0091V18.0135L43.885 18.0124ZM43.8884 18.0015L43.885 18.008L43.8639 17.8613L43.8427 17.8252H43.8527L43.8672 17.8503L43.8884 18.0015Z" fill="black"/>
</svg>
