<svg width="54" height="54" viewBox="0 0 54 54" fill="none" xmlns="http://www.w3.org/2000/svg">
<path d="M25.0188 24.2438L23.2649 27.311L25.0188 30.3765H28.5265L30.2804 27.311L28.5265 24.2438H25.0188Z" fill="#1D1D1B"/>
<path d="M46.2557 9.29671C45.8315 8.92966 45.3922 8.58131 44.9394 8.24994C42.3608 6.35013 39.358 5.00598 36.1027 4.38914C34.773 4.13255 33.4012 4.0017 31.9974 4.0017H29.2067V7.8812H29.2403V8.04093H24.3069V4H22.0043C20.6022 4 19.227 4.13255 17.8956 4.38744C14.6858 4.99749 11.7234 6.31105 9.17 8.16668C8.59435 8.58471 8.03722 9.03332 7.50365 9.50743C2.9035 13.5755 0 19.552 0 26.2132V27.7834C0 34.516 2.96577 40.5485 7.65177 44.6234C8.19544 45.0958 8.76099 45.541 9.34842 45.9591C9.34842 45.9591 9.34842 45.9591 9.35179 45.9591C11.8648 47.745 14.7615 49.0161 17.899 49.6109C19.2304 49.8675 20.6039 50 22.0077 50H24.3422V46.129H29.2437V50.0017H31.9991C33.4028 50.0017 34.7746 49.8692 36.1044 49.6126C39.2822 49.011 42.2194 47.7144 44.7576 45.8894C45.2222 45.5546 45.6699 45.2029 46.1075 44.8324C50.9332 40.7609 54.0034 34.6349 54.0034 27.7868V26.2166C54.0034 19.4381 50.9955 13.3716 46.2573 9.29841L46.2557 9.29671ZM29.2403 8.04093H31.4167C32.9029 8.04093 34.3471 8.22276 35.729 8.56771C36.8281 8.8396 37.8885 9.21175 38.9001 9.67736L29.2403 19.4296V8.04093ZM18.579 8.53373C19.9222 8.21256 21.3226 8.04093 22.7634 8.04093H24.3069V19.4296L14.8491 9.88127C16.0256 9.30011 17.2745 8.8464 18.579 8.53373ZM24.3086 45.9574H22.7617C21.3697 45.9574 20.0131 45.7976 18.712 45.4986C17.4715 45.2114 16.2815 44.7951 15.1537 44.2632L24.3086 35.0207V45.9574ZM35.6011 45.4663C34.2579 45.7874 32.8575 45.9591 31.4167 45.9591H29.242V35.0224L38.5904 44.4603C37.6344 44.8783 36.6362 45.2182 35.6011 45.4663ZM49.4739 27.7273C49.4739 33.3401 46.9609 38.3615 43.0088 41.704C42.9785 41.7295 42.9465 41.755 42.9162 41.7805L33.9583 32.7368H19.5923L10.9205 41.4916C10.8902 41.4661 10.8599 41.4406 10.8296 41.4134C7.07107 38.0726 4.70114 33.1786 4.70114 27.729V26.2727C4.70114 20.8927 7.00879 16.0565 10.6815 12.7174L19.5906 21.7118H33.9566L43.1586 12.4217C47.0266 15.7642 49.4739 20.7296 49.4739 26.271V27.7273Z" fill="#1D1D1B"/>
</svg>
