<svg width="290" height="272" viewBox="0 0 290 272" fill="none" xmlns="http://www.w3.org/2000/svg">
<path d="M8.77651 0H0V8.2197H8.77651V0Z" fill="#042254"/>
<path d="M17.553 0H8.77651V8.2197H17.553V0Z" fill="#042254"/>
<path d="M26.3295 0H17.553V8.2197H26.3295V0Z" fill="#042254"/>
<path d="M35.1061 0H26.3295V8.2197H35.1061V0Z" fill="#042254"/>
<path d="M43.8826 0H35.1061V8.2197H43.8826V0Z" fill="#042254"/>
<path d="M52.6591 0H43.8826V8.2197H52.6591V0Z" fill="#042254"/>
<path d="M61.4356 0H52.6591V8.2197H61.4356V0Z" fill="#042254"/>
<path d="M87.7652 0H78.9886V8.2197H87.7652V0Z" fill="#042254"/>
<path d="M96.5417 0H87.7652V8.2197H96.5417V0Z" fill="#042254"/>
<path d="M114.095 0H105.318V8.2197H114.095V0Z" fill="#042254"/>
<path d="M122.871 0H114.095V8.2197H122.871V0Z" fill="#042254"/>
<path d="M157.977 0H149.201V8.2197H157.977V0Z" fill="#042254"/>
<path d="M166.754 0H157.977V8.2197H166.754V0Z" fill="#042254"/>
<path d="M184.307 0H175.53V8.2197H184.307V0Z" fill="#042254"/>
<path d="M193.083 0H184.307V8.2197H193.083V0Z" fill="#042254"/>
<path d="M219.413 0H210.636V8.2197H219.413V0Z" fill="#042254"/>
<path d="M236.966 0H228.189V8.2197H236.966V0Z" fill="#042254"/>
<path d="M245.742 0H236.966V8.2197H245.742V0Z" fill="#042254"/>
<path d="M254.519 0H245.742V8.2197H254.519V0Z" fill="#042254"/>
<path d="M263.295 0H254.519V8.2197H263.295V0Z" fill="#042254"/>
<path d="M272.072 0H263.295V8.2197H272.072V0Z" fill="#042254"/>
<path d="M280.848 0H272.072V8.2197H280.848V0Z" fill="#042254"/>
<path d="M289.625 0H280.848V8.2197H289.625V0Z" fill="#042254"/>
<path d="M8.77651 8.2197H0V16.4394H8.77651V8.2197Z" fill="#042254"/>
<path d="M61.4356 8.2197H52.6591V16.4394H61.4356V8.2197Z" fill="#042254"/>
<path d="M78.9886 8.2197H70.2121V16.4394H78.9886V8.2197Z" fill="#042254"/>
<path d="M87.7652 8.2197H78.9886V16.4394H87.7652V8.2197Z" fill="#042254"/>
<path d="M105.318 8.2197H96.5417V16.4394H105.318V8.2197Z" fill="#042254"/>
<path d="M114.095 8.2197H105.318V16.4394H114.095V8.2197Z" fill="#042254"/>
<path d="M140.424 8.2197H131.648V16.4394H140.424V8.2197Z" fill="#042254"/>
<path d="M175.53 8.2197H166.754L166.754 16.4394H175.53V8.2197Z" fill="#042254"/>
<path d="M184.307 8.2197H175.53V16.4394H184.307V8.2197Z" fill="#042254"/>
<path d="M193.083 8.2197H184.307V16.4394H193.083V8.2197Z" fill="#042254"/>
<path d="M219.413 8.2197H210.636V16.4394H219.413V8.2197Z" fill="#042254"/>
<path d="M236.966 8.2197H228.189V16.4394H236.966V8.2197Z" fill="#042254"/>
<path d="M289.625 8.2197H280.848V16.4394H289.625V8.2197Z" fill="#042254"/>
<path d="M8.77651 16.4394H0V24.6591H8.77651V16.4394Z" fill="#042254"/>
<path d="M26.3295 16.4394H17.553V24.6591H26.3295V16.4394Z" fill="#042254"/>
<path d="M35.1061 16.4394H26.3295V24.6591H35.1061V16.4394Z" fill="#042254"/>
<path d="M43.8826 16.4394H35.1061V24.6591H43.8826V16.4394Z" fill="#042254"/>
<path d="M61.4356 16.4394H52.6591V24.6591H61.4356V16.4394Z" fill="#042254"/>
<path d="M87.7652 16.4394H78.9886V24.6591H87.7652V16.4394Z" fill="#042254"/>
<path d="M96.5417 16.4394H87.7652V24.6591H96.5417V16.4394Z" fill="#042254"/>
<path d="M122.871 16.4394H114.095V24.6591H122.871V16.4394Z" fill="#042254"/>
<path d="M131.648 16.4394H122.871V24.6591H131.648V16.4394Z" fill="#042254"/>
<path d="M149.201 16.4394H140.424V24.6591H149.201V16.4394Z" fill="#042254"/>
<path d="M157.977 16.4394H149.201V24.6591H157.977V16.4394Z" fill="#042254"/>
<path d="M166.754 16.4394H157.977V24.6591H166.754L166.754 16.4394Z" fill="#042254"/>
<path d="M175.53 16.4394H166.754L166.754 24.6591H175.53V16.4394Z" fill="#042254"/>
<path d="M184.307 16.4394H175.53V24.6591H184.307V16.4394Z" fill="#042254"/>
<path d="M201.86 16.4394H193.083V24.6591H201.86V16.4394Z" fill="#042254"/>
<path d="M219.413 16.4394H210.636V24.6591H219.413V16.4394Z" fill="#042254"/>
<path d="M236.966 16.4394H228.189V24.6591H236.966V16.4394Z" fill="#042254"/>
<path d="M254.519 16.4394H245.742V24.6591H254.519V16.4394Z" fill="#042254"/>
<path d="M263.295 16.4394H254.519V24.6591H263.295V16.4394Z" fill="#042254"/>
<path d="M272.072 16.4394H263.295V24.6591H272.072V16.4394Z" fill="#042254"/>
<path d="M289.625 16.4394H280.848V24.6591H289.625V16.4394Z" fill="#042254"/>
<path d="M8.77651 24.6591H0V32.8788H8.77651V24.6591Z" fill="#042254"/>
<path d="M26.3295 24.6591H17.553V32.8788H26.3295V24.6591Z" fill="#042254"/>
<path d="M35.1061 24.6591H26.3295V32.8788H35.1061V24.6591Z" fill="#042254"/>
<path d="M43.8826 24.6591H35.1061V32.8788H43.8826V24.6591Z" fill="#042254"/>
<path d="M61.4356 24.6591H52.6591V32.8788H61.4356V24.6591Z" fill="#042254"/>
<path d="M87.7652 24.6591H78.9886V32.8788H87.7652V24.6591Z" fill="#042254"/>
<path d="M105.318 24.6591H96.5417V32.8788H105.318V24.6591Z" fill="#042254"/>
<path d="M122.871 24.6591H114.095V32.8788H122.871V24.6591Z" fill="#042254"/>
<path d="M131.648 24.6591H122.871V32.8788H131.648V24.6591Z" fill="#042254"/>
<path d="M149.201 24.6591H140.424V32.8788H149.201V24.6591Z" fill="#042254"/>
<path d="M166.754 24.6591H157.977V32.8788H166.754V24.6591Z" fill="#042254"/>
<path d="M184.307 24.6591H175.53V32.8788H184.307V24.6591Z" fill="#042254"/>
<path d="M219.413 24.6591H210.636V32.8788H219.413V24.6591Z" fill="#042254"/>
<path d="M236.966 24.6591H228.189V32.8788H236.966V24.6591Z" fill="#042254"/>
<path d="M254.519 24.6591H245.742V32.8788H254.519V24.6591Z" fill="#042254"/>
<path d="M263.295 24.6591H254.519V32.8788H263.295V24.6591Z" fill="#042254"/>
<path d="M272.072 24.6591H263.295V32.8788H272.072V24.6591Z" fill="#042254"/>
<path d="M289.625 24.6591H280.848V32.8788H289.625V24.6591Z" fill="#042254"/>
<path d="M8.77651 32.8788H0V41.0985H8.77651V32.8788Z" fill="#042254"/>
<path d="M26.3295 32.8788H17.553V41.0985H26.3295V32.8788Z" fill="#042254"/>
<path d="M35.1061 32.8788H26.3295V41.0985H35.1061V32.8788Z" fill="#042254"/>
<path d="M43.8826 32.8788H35.1061V41.0985H43.8826V32.8788Z" fill="#042254"/>
<path d="M61.4356 32.8788H52.6591V41.0985H61.4356V32.8788Z" fill="#042254"/>
<path d="M78.9886 32.8788H70.2121V41.0985H78.9886V32.8788Z" fill="#042254"/>
<path d="M96.5417 32.8788H87.7652V41.0985H96.5417V32.8788Z" fill="#042254"/>
<path d="M157.977 32.8788H149.201V41.0985H157.977V32.8788Z" fill="#042254"/>
<path d="M175.53 32.8788H166.754L166.754 41.0985H175.53V32.8788Z" fill="#042254"/>
<path d="M184.307 32.8788H175.53V41.0985H184.307V32.8788Z" fill="#042254"/>
<path d="M193.083 32.8788H184.307V41.0985H193.083V32.8788Z" fill="#042254"/>
<path d="M201.86 32.8788H193.083V41.0985H201.86V32.8788Z" fill="#042254"/>
<path d="M210.636 32.8788H201.86V41.0985H210.636V32.8788Z" fill="#042254"/>
<path d="M219.413 32.8788H210.636V41.0985H219.413V32.8788Z" fill="#042254"/>
<path d="M236.966 32.8788H228.189V41.0985H236.966V32.8788Z" fill="#042254"/>
<path d="M254.519 32.8788H245.742V41.0985H254.519V32.8788Z" fill="#042254"/>
<path d="M263.295 32.8788H254.519V41.0985H263.295V32.8788Z" fill="#042254"/>
<path d="M272.072 32.8788H263.295V41.0985H272.072V32.8788Z" fill="#042254"/>
<path d="M289.625 32.8788H280.848V41.0985H289.625V32.8788Z" fill="#042254"/>
<path d="M8.77651 41.0985H0V49.3182H8.77651V41.0985Z" fill="#042254"/>
<path d="M61.4356 41.0985H52.6591V49.3182H61.4356V41.0985Z" fill="#042254"/>
<path d="M96.5417 41.0985H87.7652V49.3182H96.5417V41.0985Z" fill="#042254"/>
<path d="M105.318 41.0985H96.5417V49.3182H105.318V41.0985Z" fill="#042254"/>
<path d="M114.095 41.0985H105.318V49.3182H114.095V41.0985Z" fill="#042254"/>
<path d="M122.871 41.0985H114.095V49.3182H122.871V41.0985Z" fill="#042254"/>
<path d="M131.648 41.0985H122.871V49.3182H131.648V41.0985Z" fill="#042254"/>
<path d="M166.754 41.0985H157.977V49.3182H166.754L166.754 41.0985Z" fill="#042254"/>
<path d="M175.53 41.0985H166.754L166.754 49.3182H175.53V41.0985Z" fill="#042254"/>
<path d="M184.307 41.0985H175.53V49.3182H184.307V41.0985Z" fill="#042254"/>
<path d="M193.083 41.0985H184.307V49.3182H193.083V41.0985Z" fill="#042254"/>
<path d="M201.86 41.0985H193.083V49.3182H201.86V41.0985Z" fill="#042254"/>
<path d="M210.636 41.0985H201.86V49.3182H210.636V41.0985Z" fill="#042254"/>
<path d="M236.966 41.0985H228.189V49.3182H236.966V41.0985Z" fill="#042254"/>
<path d="M289.625 41.0985H280.848V49.3182H289.625V41.0985Z" fill="#042254"/>
<path d="M8.77651 49.3182H0V57.5379H8.77651V49.3182Z" fill="#042254"/>
<path d="M17.553 49.3182H8.77651V57.5379H17.553V49.3182Z" fill="#042254"/>
<path d="M26.3295 49.3182H17.553V57.5379H26.3295V49.3182Z" fill="#042254"/>
<path d="M35.1061 49.3182H26.3295V57.5379H35.1061V49.3182Z" fill="#042254"/>
<path d="M43.8826 49.3182H35.1061V57.5379H43.8826V49.3182Z" fill="#042254"/>
<path d="M52.6591 49.3182H43.8826V57.5379H52.6591V49.3182Z" fill="#042254"/>
<path d="M61.4356 49.3182H52.6591V57.5379H61.4356V49.3182Z" fill="#042254"/>
<path d="M78.9886 49.3182H70.2121V57.5379H78.9886V49.3182Z" fill="#042254"/>
<path d="M96.5417 49.3182H87.7652V57.5379H96.5417V49.3182Z" fill="#042254"/>
<path d="M114.095 49.3182H105.318V57.5379H114.095V49.3182Z" fill="#042254"/>
<path d="M131.648 49.3182H122.871V57.5379H131.648V49.3182Z" fill="#042254"/>
<path d="M149.201 49.3182H140.424V57.5379H149.201V49.3182Z" fill="#042254"/>
<path d="M166.754 49.3182H157.977V57.5379H166.754V49.3182Z" fill="#042254"/>
<path d="M184.307 49.3182H175.53V57.5379H184.307V49.3182Z" fill="#042254"/>
<path d="M201.86 49.3182H193.083V57.5379H201.86V49.3182Z" fill="#042254"/>
<path d="M219.413 49.3182H210.636V57.5379H219.413V49.3182Z" fill="#042254"/>
<path d="M236.966 49.3182H228.189V57.5379H236.966V49.3182Z" fill="#042254"/>
<path d="M245.742 49.3182H236.966V57.5379H245.742V49.3182Z" fill="#042254"/>
<path d="M254.519 49.3182H245.742V57.5379H254.519V49.3182Z" fill="#042254"/>
<path d="M263.295 49.3182H254.519V57.5379H263.295V49.3182Z" fill="#042254"/>
<path d="M272.072 49.3182H263.295V57.5379H272.072V49.3182Z" fill="#042254"/>
<path d="M280.848 49.3182H272.072V57.5379H280.848V49.3182Z" fill="#042254"/>
<path d="M289.625 49.3182H280.848V57.5379H289.625V49.3182Z" fill="#042254"/>
<path d="M149.201 57.5379H140.424V65.7576H149.201V57.5379Z" fill="#042254"/>
<path d="M157.977 57.5379H149.201V65.7576H157.977V57.5379Z" fill="#042254"/>
<path d="M166.754 57.5379H157.977V65.7576H166.754V57.5379Z" fill="#042254"/>
<path d="M175.53 57.5379H166.754V65.7576H175.53V57.5379Z" fill="#042254"/>
<path d="M201.86 57.5379H193.083V65.7576H201.86V57.5379Z" fill="#042254"/>
<path d="M210.636 57.5379H201.86V65.7576H210.636V57.5379Z" fill="#042254"/>
<path d="M219.413 57.5379H210.636V65.7576H219.413V57.5379Z" fill="#042254"/>
<path d="M26.3295 65.7576H17.553V73.9773H26.3295V65.7576Z" fill="#042254"/>
<path d="M43.8826 65.7576H35.1061V73.9773H43.8826V65.7576Z" fill="#042254"/>
<path d="M52.6591 65.7576H43.8826V73.9773H52.6591V65.7576Z" fill="#042254"/>
<path d="M61.4356 65.7576H52.6591V73.9773H61.4356V65.7576Z" fill="#042254"/>
<path d="M78.9886 65.7576H70.2121V73.9773H78.9886V65.7576Z" fill="#042254"/>
<path d="M105.318 65.7576H96.5417V73.9773H105.318V65.7576Z" fill="#042254"/>
<path d="M122.871 65.7576H114.095V73.9773H122.871V65.7576Z" fill="#042254"/>
<path d="M131.648 65.7576H122.871V73.9773H131.648V65.7576Z" fill="#042254"/>
<path d="M140.424 65.7576H131.648V73.9773H140.424V65.7576Z" fill="#042254"/>
<path d="M149.201 65.7576H140.424V73.9773H149.201V65.7576Z" fill="#042254"/>
<path d="M157.977 65.7576H149.201V73.9773H157.977V65.7576Z" fill="#042254"/>
<path d="M166.754 65.7576H157.977V73.9773H166.754V65.7576Z" fill="#042254"/>
<path d="M175.53 65.7576H166.754V73.9773H175.53V65.7576Z" fill="#042254"/>
<path d="M228.189 65.7576H219.413V73.9773H228.189V65.7576Z" fill="#042254"/>
<path d="M254.519 65.7576H245.742V73.9773H254.519V65.7576Z" fill="#042254"/>
<path d="M280.848 65.7576H272.072V73.9773H280.848V65.7576Z" fill="#042254"/>
<path d="M17.553 73.9773H8.77651V82.197H17.553V73.9773Z" fill="#042254"/>
<path d="M26.3295 73.9773H17.553V82.197H26.3295V73.9773Z" fill="#042254"/>
<path d="M35.1061 73.9773H26.3295V82.197H35.1061V73.9773Z" fill="#042254"/>
<path d="M43.8826 73.9773H35.1061V82.197H43.8826V73.9773Z" fill="#042254"/>
<path d="M52.6591 73.9773H43.8826V82.197H52.6591V73.9773Z" fill="#042254"/>
<path d="M78.9886 73.9773H70.2121V82.197H78.9886V73.9773Z" fill="#042254"/>
<path d="M96.5417 73.9773H87.7652V82.197H96.5417V73.9773Z" fill="#042254"/>
<path d="M131.648 73.9773H122.871V82.197H131.648V73.9773Z" fill="#042254"/>
<path d="M245.742 73.9773H236.966V82.197H245.742V73.9773Z" fill="#042254"/>
<path d="M272.072 73.9773H263.295V82.197H272.072V73.9773Z" fill="#042254"/>
<path d="M289.625 73.9773H280.848V82.197H289.625V73.9773Z" fill="#042254"/>
<path d="M17.553 82.197H8.77651V90.4167H17.553V82.197Z" fill="#042254"/>
<path d="M35.1061 82.197H26.3295V90.4167H35.1061V82.197Z" fill="#042254"/>
<path d="M43.8826 82.197H35.1061V90.4167H43.8826V82.197Z" fill="#042254"/>
<path d="M52.6591 82.197H43.8826V90.4167H52.6591V82.197Z" fill="#042254"/>
<path d="M61.4356 82.197H52.6591V90.4167H61.4356V82.197Z" fill="#042254"/>
<path d="M70.2121 82.197H61.4356V90.4167H70.2121V82.197Z" fill="#042254"/>
<path d="M78.9886 82.197H70.2121V90.4167H78.9886V82.197Z" fill="#042254"/>
<path d="M87.7652 82.197H78.9886V90.4167H87.7652V82.197Z" fill="#042254"/>
<path d="M114.095 82.197H105.318V90.4167H114.095V82.197Z" fill="#042254"/>
<path d="M122.871 82.197H114.095V90.4167H122.871V82.197Z" fill="#042254"/>
<path d="M131.648 82.197H122.871V90.4167H131.648V82.197Z" fill="#042254"/>
<path d="M140.424 82.197H131.648V90.4167H140.424V82.197Z" fill="#042254"/>
<path d="M184.307 82.197H175.53V90.4167H184.307V82.197Z" fill="#042254"/>
<path d="M201.86 82.197H193.083V90.4167H201.86V82.197Z" fill="#042254"/>
<path d="M219.413 82.197H210.636V90.4167H219.413V82.197Z" fill="#042254"/>
<path d="M228.189 82.197H219.413V90.4167H228.189V82.197Z" fill="#042254"/>
<path d="M263.295 82.197H254.519V90.4167H263.295V82.197Z" fill="#042254"/>
<path d="M272.072 82.197H263.295V90.4167H272.072V82.197Z" fill="#042254"/>
<path d="M289.625 82.197H280.848V90.4167H289.625V82.197Z" fill="#042254"/>
<path d="M8.77651 90.4167H0V98.6364H8.77651V90.4167Z" fill="#042254"/>
<path d="M17.553 90.4167H8.77651V98.6364H17.553V90.4167Z" fill="#042254"/>
<path d="M35.1061 90.4167H26.3295V98.6364H35.1061V90.4167Z" fill="#042254"/>
<path d="M43.8826 90.4167H35.1061V98.6364H43.8826V90.4167Z" fill="#042254"/>
<path d="M70.2121 90.4167H61.4356V98.6364H70.2121V90.4167Z" fill="#042254"/>
<path d="M96.5417 90.4167H87.7652V98.6364H96.5417V90.4167Z" fill="#042254"/>
<path d="M105.318 90.4167H96.5417V98.6364H105.318V90.4167Z" fill="#042254"/>
<path d="M114.095 90.4167H105.318V98.6364H114.095V90.4167Z" fill="#042254"/>
<path d="M140.424 90.4167H131.648V98.6364H140.424V90.4167Z" fill="#042254"/>
<path d="M157.977 90.4167H149.201V98.6364H157.977V90.4167Z" fill="#042254"/>
<path d="M166.754 90.4167H157.977V98.6364H166.754V90.4167Z" fill="#042254"/>
<path d="M175.53 90.4167H166.754V98.6364H175.53V90.4167Z" fill="#042254"/>
<path d="M184.307 90.4167H175.53V98.6364H184.307V90.4167Z" fill="#042254"/>
<path d="M193.083 90.4167H184.307V98.6364H193.083V90.4167Z" fill="#042254"/>
<path d="M219.413 90.4167H210.636V98.6364H219.413V90.4167Z" fill="#042254"/>
<path d="M245.742 90.4167H236.966V98.6364H245.742V90.4167Z" fill="#042254"/>
<path d="M254.519 90.4167H245.742V98.6364H254.519V90.4167Z" fill="#042254"/>
<path d="M8.77651 98.6364H0V106.856H8.77651V98.6364Z" fill="#042254"/>
<path d="M17.553 98.6364H8.77651V106.856H17.553V98.6364Z" fill="#042254"/>
<path d="M26.3295 98.6364H17.553V106.856H26.3295V98.6364Z" fill="#042254"/>
<path d="M35.1061 98.6364H26.3295V106.856H35.1061V98.6364Z" fill="#042254"/>
<path d="M43.8826 98.6364H35.1061V106.856H43.8826V98.6364Z" fill="#042254"/>
<path d="M52.6591 98.6364H43.8826V106.856H52.6591V98.6364Z" fill="#042254"/>
<path d="M61.4356 98.6364H52.6591V106.856H61.4356V98.6364Z" fill="#042254"/>
<path d="M70.2121 98.6364H61.4356V106.856H70.2121V98.6364Z" fill="#042254"/>
<path d="M114.095 98.6364H105.318V106.856H114.095V98.6364Z" fill="#042254"/>
<path d="M140.424 98.6364H131.648V106.856H140.424V98.6364Z" fill="#042254"/>
<path d="M149.201 98.6364H140.424V106.856H149.201V98.6364Z" fill="#042254"/>
<path d="M157.977 98.6364H149.201V106.856H157.977V98.6364Z" fill="#042254"/>
<path d="M166.754 98.6364H157.977V106.856H166.754V98.6364Z" fill="#042254"/>
<path d="M201.86 98.6364H193.083V106.856H201.86V98.6364Z" fill="#042254"/>
<path d="M210.636 98.6364H201.86V106.856H210.636V98.6364Z" fill="#042254"/>
<path d="M228.189 98.6364H219.413V106.856H228.189V98.6364Z" fill="#042254"/>
<path d="M236.966 98.6364H228.189V106.856H236.966V98.6364Z" fill="#042254"/>
<path d="M272.072 98.6364H263.295V106.856H272.072V98.6364Z" fill="#042254"/>
<path d="M289.625 98.6364H280.848V106.856H289.625V98.6364Z" fill="#042254"/>
<path d="M17.553 106.856H8.77651V115.076H17.553V106.856Z" fill="#042254"/>
<path d="M26.3295 106.856H17.553V115.076H26.3295V106.856Z" fill="#042254"/>
<path d="M35.1061 106.856H26.3295V115.076H35.1061V106.856Z" fill="#042254"/>
<path d="M43.8826 106.856H35.1061V115.076H43.8826V106.856Z" fill="#042254"/>
<path d="M87.7652 106.856H78.9886V115.076H87.7652V106.856Z" fill="#042254"/>
<path d="M96.5417 106.856H87.7652V115.076H96.5417V106.856Z" fill="#042254"/>
<path d="M105.318 106.856H96.5417V115.076H105.318V106.856Z" fill="#042254"/>
<path d="M122.871 106.856H114.095V115.076H122.871V106.856Z" fill="#042254"/>
<path d="M140.424 106.856H131.648V115.076H140.424V106.856Z" fill="#042254"/>
<path d="M184.307 106.856H175.53V115.076H184.307V106.856Z" fill="#042254"/>
<path d="M193.083 106.856H184.307V115.076H193.083V106.856Z" fill="#042254"/>
<path d="M210.636 106.856H201.86V115.076H210.636V106.856Z" fill="#042254"/>
<path d="M236.966 106.856H228.189V115.076H236.966V106.856Z" fill="#042254"/>
<path d="M263.295 106.856H254.519V115.076H263.295V106.856Z" fill="#042254"/>
<path d="M272.072 106.856H263.295V115.076H272.072V106.856Z" fill="#042254"/>
<path d="M280.848 106.856H272.072V115.076H280.848V106.856Z" fill="#042254"/>
<path d="M289.625 106.856H280.848V115.076H289.625V106.856Z" fill="#042254"/>
<path d="M8.77651 115.076H0V123.295H8.77651V115.076Z" fill="#042254"/>
<path d="M17.553 115.076H8.77651V123.295H17.553V115.076Z" fill="#042254"/>
<path d="M35.1061 115.076H26.3295V123.295H35.1061V115.076Z" fill="#042254"/>
<path d="M61.4356 115.076H52.6591V123.295H61.4356V115.076Z" fill="#042254"/>
<path d="M122.871 115.076H114.095V123.295H122.871V115.076Z" fill="#042254"/>
<path d="M149.201 115.076H140.424V123.295H149.201V115.076Z" fill="#042254"/>
<path d="M157.977 115.076H149.201V123.295H157.977V115.076Z" fill="#042254"/>
<path d="M166.754 115.076H157.977V123.295H166.754V115.076Z" fill="#042254"/>
<path d="M245.742 115.076H236.966V123.295H245.742V115.076Z" fill="#042254"/>
<path d="M254.519 115.076H245.742V123.295H254.519V115.076Z" fill="#042254"/>
<path d="M280.848 115.076H272.072V123.295H280.848V115.076Z" fill="#042254"/>
<path d="M17.553 123.295H8.77651V131.515H17.553V123.295Z" fill="#042254"/>
<path d="M26.3295 123.295H17.553V131.515H26.3295V123.295Z" fill="#042254"/>
<path d="M35.1061 123.295H26.3295V131.515H35.1061V123.295Z" fill="#042254"/>
<path d="M43.8826 123.295H35.1061V131.515H43.8826V123.295Z" fill="#042254"/>
<path d="M52.6591 123.295H43.8826V131.515H52.6591V123.295Z" fill="#042254"/>
<path d="M78.9886 123.295H70.2121V131.515H78.9886V123.295Z" fill="#042254"/>
<path d="M105.318 123.295H96.5417V131.515H105.318V123.295Z" fill="#042254"/>
<path d="M114.095 123.295H105.318V131.515H114.095V123.295Z" fill="#042254"/>
<path d="M122.871 123.295H114.095V131.515H122.871V123.295Z" fill="#042254"/>
<path d="M131.648 123.295H122.871V131.515H131.648V123.295Z" fill="#042254"/>
<path d="M140.424 123.295H131.648V131.515H140.424V123.295Z" fill="#042254"/>
<path d="M157.977 123.295H149.201V131.515H157.977V123.295Z" fill="#042254"/>
<path d="M166.754 123.295H157.977V131.515H166.754V123.295Z" fill="#042254"/>
<path d="M193.083 123.295H184.307V131.515H193.083V123.295Z" fill="#042254"/>
<path d="M201.86 123.295H193.083V131.515H201.86V123.295Z" fill="#042254"/>
<path d="M210.636 123.295H201.86V131.515H210.636V123.295Z" fill="#042254"/>
<path d="M219.413 123.295H210.636V131.515H219.413V123.295Z" fill="#042254"/>
<path d="M245.742 123.295H236.966V131.515H245.742V123.295Z" fill="#042254"/>
<path d="M254.519 123.295H245.742V131.515H254.519V123.295Z" fill="#042254"/>
<path d="M263.295 123.295H254.519V131.515H263.295V123.295Z" fill="#042254"/>
<path d="M272.072 123.295H263.295V131.515H272.072V123.295Z" fill="#042254"/>
<path d="M280.848 123.295H272.072V131.515H280.848V123.295Z" fill="#042254"/>
<path d="M8.77651 131.515H0V139.735H8.77651V131.515Z" fill="#042254"/>
<path d="M35.1061 131.515H26.3295V139.735H35.1061V131.515Z" fill="#042254"/>
<path d="M43.8826 131.515H35.1061V139.735H43.8826V131.515Z" fill="#042254"/>
<path d="M52.6591 131.515H43.8826V139.735H52.6591V131.515Z" fill="#042254"/>
<path d="M61.4356 131.515H52.6591V139.735H61.4356V131.515Z" fill="#042254"/>
<path d="M78.9886 131.515H70.2121V139.735H78.9886V131.515Z" fill="#042254"/>
<path d="M105.318 131.515H96.5417V139.735H105.318V131.515Z" fill="#042254"/>
<path d="M122.871 131.515H114.095V139.735H122.871V131.515Z" fill="#042254"/>
<path d="M149.201 131.515H140.424V139.735H149.201V131.515Z" fill="#042254"/>
<path d="M166.754 131.515H157.977V139.735H166.754V131.515Z" fill="#042254"/>
<path d="M175.53 131.515H166.754V139.735H175.53V131.515Z" fill="#042254"/>
<path d="M219.413 131.515H210.636V139.735H219.413V131.515Z" fill="#042254"/>
<path d="M236.966 131.515H228.189V139.735H236.966V131.515Z" fill="#042254"/>
<path d="M263.295 131.515H254.519V139.735H263.295V131.515Z" fill="#042254"/>
<path d="M272.072 131.515H263.295V139.735H272.072V131.515Z" fill="#042254"/>
<path d="M280.848 131.515H272.072V139.735H280.848V131.515Z" fill="#042254"/>
<path d="M289.625 131.515H280.848V139.735H289.625V131.515Z" fill="#042254"/>
<path d="M8.77651 139.735H0V147.955H8.77651V139.735Z" fill="#042254"/>
<path d="M17.553 139.735H8.77651V147.955H17.553V139.735Z" fill="#042254"/>
<path d="M35.1061 139.735H26.3295V147.955H35.1061V139.735Z" fill="#042254"/>
<path d="M43.8826 139.735H35.1061V147.955H43.8826V139.735Z" fill="#042254"/>
<path d="M70.2121 139.735H61.4356V147.955H70.2121V139.735Z" fill="#042254"/>
<path d="M78.9886 139.735H70.2121V147.955H78.9886V139.735Z" fill="#042254"/>
<path d="M96.5417 139.735H87.7652V147.955H96.5417V139.735Z" fill="#042254"/>
<path d="M105.318 139.735H96.5417V147.955H105.318V139.735Z" fill="#042254"/>
<path d="M140.424 139.735H131.648V147.955H140.424V139.735Z" fill="#042254"/>
<path d="M149.201 139.735H140.424V147.955H149.201V139.735Z" fill="#042254"/>
<path d="M184.307 139.735H175.53V147.955H184.307V139.735Z" fill="#042254"/>
<path d="M193.083 139.735H184.307V147.955H193.083V139.735Z" fill="#042254"/>
<path d="M201.86 139.735H193.083V147.955H201.86V139.735Z" fill="#042254"/>
<path d="M219.413 139.735H210.636V147.955H219.413V139.735Z" fill="#042254"/>
<path d="M236.966 139.735H228.189V147.955H236.966V139.735Z" fill="#042254"/>
<path d="M254.519 139.735H245.742V147.955H254.519V139.735Z" fill="#042254"/>
<path d="M272.072 139.735H263.295V147.955H272.072V139.735Z" fill="#042254"/>
<path d="M289.625 139.735H280.848V147.955H289.625V139.735Z" fill="#042254"/>
<path d="M8.77651 147.955H0V156.174H8.77651V147.955Z" fill="#042254"/>
<path d="M35.1061 147.955H26.3295V156.174H35.1061V147.955Z" fill="#042254"/>
<path d="M43.8826 147.955H35.1061V156.174H43.8826V147.955Z" fill="#042254"/>
<path d="M61.4356 147.955H52.6591V156.174H61.4356V147.955Z" fill="#042254"/>
<path d="M70.2121 147.955H61.4356V156.174H70.2121V147.955Z" fill="#042254"/>
<path d="M105.318 147.955H96.5417V156.174H105.318V147.955Z" fill="#042254"/>
<path d="M114.095 147.955H105.318V156.174H114.095V147.955Z" fill="#042254"/>
<path d="M140.424 147.955H131.648V156.174H140.424V147.955Z" fill="#042254"/>
<path d="M149.201 147.955H140.424V156.174H149.201V147.955Z" fill="#042254"/>
<path d="M166.754 147.955H157.977V156.174H166.754V147.955Z" fill="#042254"/>
<path d="M175.53 147.955H166.754V156.174H175.53V147.955Z" fill="#042254"/>
<path d="M184.307 147.955H175.53V156.174H184.307V147.955Z" fill="#042254"/>
<path d="M201.86 147.955H193.083V156.174H201.86V147.955Z" fill="#042254"/>
<path d="M210.636 147.955H201.86V156.174H210.636V147.955Z" fill="#042254"/>
<path d="M219.413 147.955H210.636V156.174H219.413V147.955Z" fill="#042254"/>
<path d="M228.189 147.955H219.413V156.174H228.189V147.955Z" fill="#042254"/>
<path d="M236.966 147.955H228.189V156.174H236.966V147.955Z" fill="#042254"/>
<path d="M254.519 147.955H245.742V156.174H254.519V147.955Z" fill="#042254"/>
<path d="M263.295 147.955H254.519V156.174H263.295V147.955Z" fill="#042254"/>
<path d="M17.553 156.174L8.77651 156.174V164.394H17.553V156.174Z" fill="#042254"/>
<path d="M35.1061 156.174H26.3295V164.394H35.1061V156.174Z" fill="#042254"/>
<path d="M43.8826 156.174H35.1061V164.394H43.8826V156.174Z" fill="#042254"/>
<path d="M52.6591 156.174H43.8826V164.394H52.6591V156.174Z" fill="#042254"/>
<path d="M78.9886 156.174L70.2121 156.174V164.394H78.9886V156.174Z" fill="#042254"/>
<path d="M114.095 156.174H105.318V164.394H114.095V156.174Z" fill="#042254"/>
<path d="M122.871 156.174L114.095 156.174V164.394H122.871V156.174Z" fill="#042254"/>
<path d="M131.648 156.174L122.871 156.174V164.394H131.648V156.174Z" fill="#042254"/>
<path d="M140.424 156.174H131.648V164.394H140.424V156.174Z" fill="#042254"/>
<path d="M157.977 156.174H149.201V164.394H157.977V156.174Z" fill="#042254"/>
<path d="M175.53 156.174H166.754L166.754 164.394H175.53V156.174Z" fill="#042254"/>
<path d="M193.083 156.174H184.307V164.394H193.083V156.174Z" fill="#042254"/>
<path d="M219.413 156.174H210.636V164.394H219.413V156.174Z" fill="#042254"/>
<path d="M228.189 156.174H219.413V164.394H228.189V156.174Z" fill="#042254"/>
<path d="M263.295 156.174H254.519V164.394H263.295V156.174Z" fill="#042254"/>
<path d="M272.072 156.174L263.295 156.174V164.394H272.072V156.174Z" fill="#042254"/>
<path d="M280.848 156.174H272.072V164.394H280.848V156.174Z" fill="#042254"/>
<path d="M17.553 164.394H8.77651V172.614H17.553V164.394Z" fill="#042254"/>
<path d="M35.1061 164.394H26.3295V172.614H35.1061V164.394Z" fill="#042254"/>
<path d="M43.8826 164.394H35.1061V172.614H43.8826V164.394Z" fill="#042254"/>
<path d="M61.4356 164.394H52.6591V172.614H61.4356V164.394Z" fill="#042254"/>
<path d="M78.9886 164.394H70.2121V172.614H78.9886V164.394Z" fill="#042254"/>
<path d="M114.095 164.394H105.318V172.614H114.095V164.394Z" fill="#042254"/>
<path d="M140.424 164.394H131.648V172.614H140.424V164.394Z" fill="#042254"/>
<path d="M193.083 164.394H184.307V172.614H193.083V164.394Z" fill="#042254"/>
<path d="M201.86 164.394H193.083V172.614H201.86V164.394Z" fill="#042254"/>
<path d="M219.413 164.394H210.636V172.614H219.413V164.394Z" fill="#042254"/>
<path d="M236.966 164.394H228.189V172.614H236.966V164.394Z" fill="#042254"/>
<path d="M254.519 164.394H245.742V172.614H254.519V164.394Z" fill="#042254"/>
<path d="M280.848 164.394H272.072V172.614H280.848V164.394Z" fill="#042254"/>
<path d="M8.77651 172.614H0V180.833H8.77651V172.614Z" fill="#042254"/>
<path d="M17.553 172.614H8.77651V180.833H17.553V172.614Z" fill="#042254"/>
<path d="M35.1061 172.614H26.3295V180.833H35.1061V172.614Z" fill="#042254"/>
<path d="M52.6591 172.614H43.8826V180.833H52.6591V172.614Z" fill="#042254"/>
<path d="M70.2121 172.614H61.4356V180.833H70.2121V172.614Z" fill="#042254"/>
<path d="M78.9886 172.614H70.2121V180.833H78.9886V172.614Z" fill="#042254"/>
<path d="M96.5417 172.614H87.7652V180.833H96.5417V172.614Z" fill="#042254"/>
<path d="M105.318 172.614H96.5417V180.833H105.318V172.614Z" fill="#042254"/>
<path d="M122.871 172.614H114.095V180.833H122.871V172.614Z" fill="#042254"/>
<path d="M131.648 172.614H122.871V180.833H131.648V172.614Z" fill="#042254"/>
<path d="M140.424 172.614H131.648V180.833H140.424V172.614Z" fill="#042254"/>
<path d="M157.977 172.614H149.201V180.833H157.977V172.614Z" fill="#042254"/>
<path d="M201.86 172.614H193.083V180.833H201.86V172.614Z" fill="#042254"/>
<path d="M210.636 172.614H201.86V180.833H210.636V172.614Z" fill="#042254"/>
<path d="M236.966 172.614H228.189V180.833H236.966V172.614Z" fill="#042254"/>
<path d="M245.742 172.614H236.966V180.833H245.742V172.614Z" fill="#042254"/>
<path d="M280.848 172.614H272.072V180.833H280.848V172.614Z" fill="#042254"/>
<path d="M289.625 172.614H280.848V180.833H289.625V172.614Z" fill="#042254"/>
<path d="M17.553 180.833H8.77651V189.053H17.553V180.833Z" fill="#042254"/>
<path d="M26.3295 180.833H17.553V189.053H26.3295V180.833Z" fill="#042254"/>
<path d="M61.4356 180.833H52.6591V189.053H61.4356V180.833Z" fill="#042254"/>
<path d="M87.7652 180.833H78.9886V189.053H87.7652V180.833Z" fill="#042254"/>
<path d="M96.5417 180.833H87.7652V189.053H96.5417V180.833Z" fill="#042254"/>
<path d="M122.871 180.833H114.095V189.053H122.871V180.833Z" fill="#042254"/>
<path d="M131.648 180.833H122.871V189.053H131.648V180.833Z" fill="#042254"/>
<path d="M149.201 180.833H140.424V189.053H149.201V180.833Z" fill="#042254"/>
<path d="M157.977 180.833H149.201V189.053H157.977V180.833Z" fill="#042254"/>
<path d="M175.53 180.833H166.754V189.053H175.53V180.833Z" fill="#042254"/>
<path d="M184.307 180.833H175.53V189.053H184.307V180.833Z" fill="#042254"/>
<path d="M219.413 180.833H210.636V189.053H219.413V180.833Z" fill="#042254"/>
<path d="M236.966 180.833H228.189V189.053H236.966V180.833Z" fill="#042254"/>
<path d="M263.295 180.833H254.519V189.053H263.295V180.833Z" fill="#042254"/>
<path d="M280.848 180.833H272.072V189.053H280.848V180.833Z" fill="#042254"/>
<path d="M35.1061 189.053H26.3295V197.273H35.1061V189.053Z" fill="#042254"/>
<path d="M70.2121 189.053H61.4356V197.273H70.2121V189.053Z" fill="#042254"/>
<path d="M87.7652 189.053H78.9886V197.273H87.7652V189.053Z" fill="#042254"/>
<path d="M96.5417 189.053H87.7652V197.273H96.5417V189.053Z" fill="#042254"/>
<path d="M105.318 189.053H96.5417V197.273H105.318V189.053Z" fill="#042254"/>
<path d="M149.201 189.053H140.424V197.273H149.201V189.053Z" fill="#042254"/>
<path d="M166.754 189.053H157.977V197.273H166.754L166.754 189.053Z" fill="#042254"/>
<path d="M175.53 189.053H166.754L166.754 197.273H175.53V189.053Z" fill="#042254"/>
<path d="M184.307 189.053H175.53V197.273H184.307V189.053Z" fill="#042254"/>
<path d="M201.86 189.053H193.083V197.273H201.86V189.053Z" fill="#042254"/>
<path d="M210.636 189.053H201.86V197.273H210.636V189.053Z" fill="#042254"/>
<path d="M219.413 189.053H210.636V197.273H219.413V189.053Z" fill="#042254"/>
<path d="M228.189 189.053H219.413V197.273H228.189V189.053Z" fill="#042254"/>
<path d="M263.295 189.053H254.519V197.273H263.295V189.053Z" fill="#042254"/>
<path d="M272.072 189.053H263.295V197.273H272.072V189.053Z" fill="#042254"/>
<path d="M289.625 189.053H280.848V197.273H289.625V189.053Z" fill="#042254"/>
<path d="M17.553 197.273H8.77651V205.492H17.553V197.273Z" fill="#042254"/>
<path d="M35.1061 197.273H26.3295V205.492H35.1061V197.273Z" fill="#042254"/>
<path d="M43.8826 197.273H35.1061V205.492H43.8826V197.273Z" fill="#042254"/>
<path d="M61.4356 197.273H52.6591V205.492H61.4356V197.273Z" fill="#042254"/>
<path d="M87.7652 197.273H78.9886V205.492H87.7652V197.273Z" fill="#042254"/>
<path d="M96.5417 197.273H87.7652V205.492H96.5417V197.273Z" fill="#042254"/>
<path d="M114.095 197.273H105.318V205.492H114.095V197.273Z" fill="#042254"/>
<path d="M140.424 197.273H131.648V205.492H140.424V197.273Z" fill="#042254"/>
<path d="M166.754 197.273H157.977V205.492H166.754V197.273Z" fill="#042254"/>
<path d="M184.307 197.273H175.53V205.492H184.307V197.273Z" fill="#042254"/>
<path d="M193.083 197.273H184.307V205.492H193.083V197.273Z" fill="#042254"/>
<path d="M219.413 197.273H210.636V205.492H219.413V197.273Z" fill="#042254"/>
<path d="M228.189 197.273H219.413V205.492H228.189V197.273Z" fill="#042254"/>
<path d="M236.966 197.273H228.189V205.492H236.966V197.273Z" fill="#042254"/>
<path d="M245.742 197.273H236.966V205.492H245.742V197.273Z" fill="#042254"/>
<path d="M254.519 197.273H245.742V205.492H254.519V197.273Z" fill="#042254"/>
<path d="M263.295 197.273H254.519V205.492H263.295V197.273Z" fill="#042254"/>
<path d="M272.072 197.273H263.295V205.492H272.072V197.273Z" fill="#042254"/>
<path d="M289.625 197.273H280.848V205.492H289.625V197.273Z" fill="#042254"/>
<path d="M78.9886 205.492H70.2121V213.712H78.9886V205.492Z" fill="#042254"/>
<path d="M105.318 205.492H96.5417V213.712H105.318V205.492Z" fill="#042254"/>
<path d="M122.871 205.492H114.095V213.712H122.871V205.492Z" fill="#042254"/>
<path d="M166.754 205.492H157.977V213.712H166.754V205.492Z" fill="#042254"/>
<path d="M193.083 205.492H184.307V213.712H193.083V205.492Z" fill="#042254"/>
<path d="M210.636 205.492H201.86V213.712H210.636V205.492Z" fill="#042254"/>
<path d="M219.413 205.492H210.636V213.712H219.413V205.492Z" fill="#042254"/>
<path d="M254.519 205.492H245.742V213.712H254.519V205.492Z" fill="#042254"/>
<path d="M272.072 205.492H263.295V213.712H272.072V205.492Z" fill="#042254"/>
<path d="M280.848 205.492H272.072V213.712H280.848V205.492Z" fill="#042254"/>
<path d="M289.625 205.492H280.848V213.712H289.625V205.492Z" fill="#042254"/>
<path d="M8.77651 213.712H0V221.932H8.77651V213.712Z" fill="#042254"/>
<path d="M17.553 213.712H8.77651V221.932H17.553V213.712Z" fill="#042254"/>
<path d="M26.3295 213.712H17.553V221.932H26.3295V213.712Z" fill="#042254"/>
<path d="M35.1061 213.712H26.3295V221.932H35.1061V213.712Z" fill="#042254"/>
<path d="M43.8826 213.712H35.1061V221.932H43.8826V213.712Z" fill="#042254"/>
<path d="M52.6591 213.712H43.8826V221.932H52.6591V213.712Z" fill="#042254"/>
<path d="M61.4356 213.712H52.6591V221.932H61.4356V213.712Z" fill="#042254"/>
<path d="M87.7652 213.712H78.9886V221.932H87.7652V213.712Z" fill="#042254"/>
<path d="M114.095 213.712H105.318V221.932H114.095V213.712Z" fill="#042254"/>
<path d="M122.871 213.712H114.095V221.932H122.871V213.712Z" fill="#042254"/>
<path d="M131.648 213.712H122.871V221.932H131.648V213.712Z" fill="#042254"/>
<path d="M149.201 213.712H140.424V221.932H149.201V213.712Z" fill="#042254"/>
<path d="M175.53 213.712H166.754L166.754 221.932H175.53V213.712Z" fill="#042254"/>
<path d="M184.307 213.712H175.53V221.932H184.307V213.712Z" fill="#042254"/>
<path d="M210.636 213.712H201.86V221.932H210.636V213.712Z" fill="#042254"/>
<path d="M219.413 213.712H210.636V221.932H219.413V213.712Z" fill="#042254"/>
<path d="M236.966 213.712H228.189V221.932H236.966V213.712Z" fill="#042254"/>
<path d="M254.519 213.712H245.742V221.932H254.519V213.712Z" fill="#042254"/>
<path d="M263.295 213.712H254.519V221.932H263.295V213.712Z" fill="#042254"/>
<path d="M8.77651 221.932H0V230.152H8.77651V221.932Z" fill="#042254"/>
<path d="M61.4356 221.932H52.6591V230.152H61.4356V221.932Z" fill="#042254"/>
<path d="M78.9886 221.932H70.2121V230.152H78.9886V221.932Z" fill="#042254"/>
<path d="M87.7652 221.932H78.9886V230.152H87.7652V221.932Z" fill="#042254"/>
<path d="M114.095 221.932H105.318V230.152H114.095V221.932Z" fill="#042254"/>
<path d="M122.871 221.932H114.095V230.152H122.871V221.932Z" fill="#042254"/>
<path d="M140.424 221.932H131.648V230.152H140.424V221.932Z" fill="#042254"/>
<path d="M149.201 221.932H140.424V230.152H149.201V221.932Z" fill="#042254"/>
<path d="M157.977 221.932H149.201V230.152H157.977V221.932Z" fill="#042254"/>
<path d="M175.53 221.932H166.754V230.152H175.53V221.932Z" fill="#042254"/>
<path d="M193.083 221.932H184.307V230.152H193.083V221.932Z" fill="#042254"/>
<path d="M201.86 221.932H193.083V230.152H201.86V221.932Z" fill="#042254"/>
<path d="M210.636 221.932H201.86V230.152H210.636V221.932Z" fill="#042254"/>
<path d="M219.413 221.932H210.636V230.152H219.413V221.932Z" fill="#042254"/>
<path d="M254.519 221.932H245.742V230.152H254.519V221.932Z" fill="#042254"/>
<path d="M263.295 221.932H254.519V230.152H263.295V221.932Z" fill="#042254"/>
<path d="M280.848 221.932H272.072V230.152H280.848V221.932Z" fill="#042254"/>
<path d="M8.77651 230.152H0V238.371H8.77651V230.152Z" fill="#042254"/>
<path d="M26.3295 230.152H17.553V238.371H26.3295V230.152Z" fill="#042254"/>
<path d="M35.1061 230.152H26.3295V238.371H35.1061V230.152Z" fill="#042254"/>
<path d="M43.8826 230.152H35.1061V238.371H43.8826V230.152Z" fill="#042254"/>
<path d="M61.4356 230.152H52.6591V238.371H61.4356V230.152Z" fill="#042254"/>
<path d="M78.9886 230.152H70.2121V238.371H78.9886V230.152Z" fill="#042254"/>
<path d="M105.318 230.152H96.5417V238.371H105.318V230.152Z" fill="#042254"/>
<path d="M131.648 230.152H122.871V238.371H131.648V230.152Z" fill="#042254"/>
<path d="M140.424 230.152H131.648V238.371H140.424V230.152Z" fill="#042254"/>
<path d="M166.754 230.152H157.977V238.371H166.754L166.754 230.152Z" fill="#042254"/>
<path d="M175.53 230.152H166.754L166.754 238.371H175.53V230.152Z" fill="#042254"/>
<path d="M201.86 230.152H193.083V238.371H201.86V230.152Z" fill="#042254"/>
<path d="M219.413 230.152H210.636V238.371H219.413V230.152Z" fill="#042254"/>
<path d="M228.189 230.152H219.413V238.371H228.189V230.152Z" fill="#042254"/>
<path d="M236.966 230.152H228.189V238.371H236.966V230.152Z" fill="#042254"/>
<path d="M245.742 230.152H236.966V238.371H245.742V230.152Z" fill="#042254"/>
<path d="M254.519 230.152H245.742V238.371H254.519V230.152Z" fill="#042254"/>
<path d="M263.295 230.152H254.519V238.371H263.295V230.152Z" fill="#042254"/>
<path d="M272.072 230.152H263.295V238.371H272.072V230.152Z" fill="#042254"/>
<path d="M8.77651 238.371H0V246.591H8.77651V238.371Z" fill="#042254"/>
<path d="M26.3295 238.371H17.553V246.591H26.3295V238.371Z" fill="#042254"/>
<path d="M35.1061 238.371H26.3295V246.591H35.1061V238.371Z" fill="#042254"/>
<path d="M43.8826 238.371H35.1061V246.591H43.8826V238.371Z" fill="#042254"/>
<path d="M61.4356 238.371H52.6591V246.591H61.4356V238.371Z" fill="#042254"/>
<path d="M96.5417 238.371H87.7652V246.591H96.5417V238.371Z" fill="#042254"/>
<path d="M131.648 238.371H122.871V246.591H131.648V238.371Z" fill="#042254"/>
<path d="M149.201 238.371H140.424V246.591H149.201V238.371Z" fill="#042254"/>
<path d="M157.977 238.371H149.201V246.591H157.977V238.371Z" fill="#042254"/>
<path d="M193.083 238.371H184.307V246.591H193.083V238.371Z" fill="#042254"/>
<path d="M201.86 238.371H193.083V246.591H201.86V238.371Z" fill="#042254"/>
<path d="M236.966 238.371H228.189V246.591H236.966V238.371Z" fill="#042254"/>
<path d="M254.519 238.371H245.742V246.591H254.519V238.371Z" fill="#042254"/>
<path d="M272.072 238.371H263.295V246.591H272.072V238.371Z" fill="#042254"/>
<path d="M280.848 238.371H272.072V246.591H280.848V238.371Z" fill="#042254"/>
<path d="M289.625 238.371H280.848V246.591H289.625V238.371Z" fill="#042254"/>
<path d="M8.77651 246.591H0V254.811H8.77651V246.591Z" fill="#042254"/>
<path d="M26.3295 246.591H17.553V254.811H26.3295V246.591Z" fill="#042254"/>
<path d="M35.1061 246.591H26.3295V254.811H35.1061V246.591Z" fill="#042254"/>
<path d="M43.8826 246.591H35.1061V254.811H43.8826V246.591Z" fill="#042254"/>
<path d="M61.4356 246.591H52.6591V254.811H61.4356V246.591Z" fill="#042254"/>
<path d="M78.9886 246.591H70.2121V254.811H78.9886V246.591Z" fill="#042254"/>
<path d="M87.7652 246.591H78.9886V254.811H87.7652V246.591Z" fill="#042254"/>
<path d="M96.5417 246.591H87.7652V254.811H96.5417V246.591Z" fill="#042254"/>
<path d="M131.648 246.591H122.871V254.811H131.648V246.591Z" fill="#042254"/>
<path d="M157.977 246.591H149.201V254.811H157.977V246.591Z" fill="#042254"/>
<path d="M166.754 246.591H157.977V254.811H166.754V246.591Z" fill="#042254"/>
<path d="M184.307 246.591H175.53V254.811H184.307V246.591Z" fill="#042254"/>
<path d="M193.083 246.591H184.307V254.811H193.083V246.591Z" fill="#042254"/>
<path d="M219.413 246.591H210.636V254.811H219.413V246.591Z" fill="#042254"/>
<path d="M8.77651 254.811H0V263.03H8.77651V254.811Z" fill="#042254"/>
<path d="M61.4356 254.811H52.6591V263.03H61.4356V254.811Z" fill="#042254"/>
<path d="M87.7652 254.811H78.9886V263.03H87.7652V254.811Z" fill="#042254"/>
<path d="M96.5417 254.811H87.7652V263.03H96.5417V254.811Z" fill="#042254"/>
<path d="M105.318 254.811H96.5417V263.03H105.318V254.811Z" fill="#042254"/>
<path d="M114.095 254.811H105.318V263.03H114.095V254.811Z" fill="#042254"/>
<path d="M122.871 254.811H114.095V263.03H122.871V254.811Z" fill="#042254"/>
<path d="M131.648 254.811H122.871V263.03H131.648V254.811Z" fill="#042254"/>
<path d="M201.86 254.811H193.083V263.03H201.86V254.811Z" fill="#042254"/>
<path d="M219.413 254.811H210.636V263.03H219.413V254.811Z" fill="#042254"/>
<path d="M236.966 254.811H228.189V263.03H236.966V254.811Z" fill="#042254"/>
<path d="M254.519 254.811H245.742V263.03H254.519V254.811Z" fill="#042254"/>
<path d="M263.295 254.811H254.519V263.03H263.295V254.811Z" fill="#042254"/>
<path d="M8.77651 263.03H0V271.25H8.77651V263.03Z" fill="#042254"/>
<path d="M17.553 263.03H8.77651V271.25H17.553V263.03Z" fill="#042254"/>
<path d="M26.3295 263.03H17.553V271.25H26.3295V263.03Z" fill="#042254"/>
<path d="M35.1061 263.03H26.3295V271.25H35.1061V263.03Z" fill="#042254"/>
<path d="M43.8826 263.03H35.1061V271.25H43.8826V263.03Z" fill="#042254"/>
<path d="M52.6591 263.03H43.8826V271.25H52.6591V263.03Z" fill="#042254"/>
<path d="M61.4356 263.03H52.6591V271.25H61.4356V263.03Z" fill="#042254"/>
<path d="M87.7652 263.03H78.9886V271.25H87.7652V263.03Z" fill="#042254"/>
<path d="M114.095 263.03H105.318V271.25H114.095V263.03Z" fill="#042254"/>
<path d="M122.871 263.03H114.095V271.25H122.871V263.03Z" fill="#042254"/>
<path d="M149.201 263.03H140.424V271.25H149.201V263.03Z" fill="#042254"/>
<path d="M184.307 263.03H175.53V271.25H184.307V263.03Z" fill="#042254"/>
<path d="M193.083 263.03H184.307V271.25H193.083V263.03Z" fill="#042254"/>
<path d="M210.636 263.03H201.86V271.25H210.636V263.03Z" fill="#042254"/>
<path d="M219.413 263.03H210.636V271.25H219.413V263.03Z" fill="#042254"/>
<path d="M289.625 263.03H280.848V271.25H289.625V263.03Z" fill="#042254"/>
</svg>
