<svg width="54" height="54" viewBox="0 0 54 54" fill="none" xmlns="http://www.w3.org/2000/svg">
<g clip-path="url(#clip0_362_10887)">
<path d="M27 54C41.9117 54 54 41.9117 54 27C54 12.0883 41.9117 0 27 0C12.0883 0 0 12.0883 0 27C0 41.9117 12.0883 54 27 54Z" fill="#3E73C4"/>
<path d="M33.7871 30.5843C33.7871 27.0001 31.6271 25.7716 27.3071 25.2586C24.2224 24.8485 23.6064 24.0301 23.6064 22.5957C23.6064 21.1613 24.6358 20.2399 26.6912 20.2399C28.5424 20.2399 29.5718 20.8542 30.0848 22.3915C30.1382 22.5401 30.2359 22.6688 30.3648 22.7603C30.4936 22.8517 30.6474 22.9014 30.8053 22.9028H32.4506C32.5457 22.9053 32.6402 22.8886 32.7286 22.8534C32.8169 22.8183 32.8972 22.7657 32.9646 22.6986C33.032 22.6315 33.085 22.5515 33.1205 22.4633C33.156 22.3751 33.1733 22.2807 33.1712 22.1856V22.0844C32.9701 20.9721 32.4074 19.9574 31.5703 19.1979C30.7333 18.4384 29.6689 17.9766 28.5424 17.8842V15.4272C28.5424 15.0171 28.2336 14.71 27.7206 14.6071H26.1765C25.7664 14.6071 25.4576 14.9142 25.3547 15.4272V17.7829C22.2683 18.1913 20.3158 20.2399 20.3158 22.8016C20.3158 26.1799 22.3712 27.5114 26.6912 28.0244C29.5718 28.5357 30.4965 29.1516 30.4965 30.7902C30.4965 32.4271 29.0571 33.5543 27.1029 33.5543C24.4283 33.5543 23.5035 32.4287 23.1947 30.8914C23.0934 30.4831 22.7829 30.2772 22.4741 30.2772H20.7259C20.631 30.2749 20.5366 30.2918 20.4485 30.327C20.3603 30.3622 20.2802 30.415 20.213 30.482C20.1458 30.549 20.0929 30.629 20.0575 30.7171C20.0221 30.8051 20.0049 30.8995 20.007 30.9944V31.0956C20.4171 33.6572 22.0641 35.5 25.4576 36.013V38.4717C25.4576 38.8801 25.7664 39.1889 26.2794 39.2901H27.8235C28.2336 39.2901 28.5424 38.983 28.6453 38.4717V36.0113C31.7318 35.5 33.7871 33.3484 33.7871 30.5826V30.5843Z" fill="white"/>
<path d="M21.7553 41.3387C13.7329 38.4699 9.61881 29.5599 12.6023 21.6742C14.1447 17.3711 17.5382 14.0957 21.7553 12.5584C22.1671 12.3542 22.3712 12.0471 22.3712 11.5341V10.0997C22.3712 9.69131 22.1671 9.38419 21.7553 9.28125C21.6524 9.28125 21.4465 9.28125 21.3436 9.3825C19.029 10.1053 16.8803 11.2788 15.0212 12.8354C13.1621 14.392 11.6292 16.301 10.5109 18.4525C9.39257 20.604 8.71088 22.9554 8.50507 25.3714C8.29926 27.7874 8.57339 30.2203 9.31168 32.5299C11.1612 38.2674 15.5841 42.6718 21.3436 44.5146C21.7553 44.7188 22.1671 44.5146 22.2683 44.1045C22.3712 44.0033 22.3712 43.8986 22.3712 43.6944V42.2601C22.3712 41.9529 22.0641 41.5446 21.7553 41.3387ZM32.6566 9.38419C32.2448 9.17831 31.8331 9.38419 31.7318 9.79256C31.6289 9.8955 31.6289 9.99844 31.6289 10.2026V11.637C31.6289 12.0471 31.936 12.4554 32.2448 12.6613C40.2672 15.5301 44.3813 24.4401 41.3978 32.3258C39.8554 36.6289 36.4619 39.9043 32.2448 41.4416C31.8331 41.6458 31.6289 41.9529 31.6289 42.4659V43.9003C31.6289 44.3087 31.8331 44.6158 32.2448 44.7188C32.3477 44.7188 32.5536 44.7188 32.6566 44.6175C34.9711 43.8947 37.1198 42.7212 38.9789 41.1646C40.838 39.608 42.3709 37.699 43.4892 35.5475C44.6075 33.396 45.2892 31.0446 45.495 28.6286C45.7009 26.2126 45.4267 23.7797 44.6884 21.4701C42.8389 15.6313 38.3131 11.2269 32.6566 9.38419Z" fill="white"/>
</g>
<defs>
<clipPath id="clip0_362_10887">
<rect width="54" height="54" fill="white"/>
</clipPath>
</defs>
</svg>
