<svg width="54" height="54" viewBox="0 0 54 54" fill="none" xmlns="http://www.w3.org/2000/svg">
<g clip-path="url(#clip0_362_10886)">
<path d="M27 54C41.9117 54 54 41.9117 54 27C54 12.0883 41.9117 0 27 0C12.0883 0 0 12.0883 0 27C0 41.9117 12.0883 54 27 54Z" fill="#26A17B"/>
<path fill-rule="evenodd" clip-rule="evenodd" d="M30.2435 29.3338V29.3305C30.0578 29.344 29.101 29.4013 26.9663 29.4013C25.262 29.4013 24.0622 29.3507 23.6403 29.3305V29.3355C17.0793 29.047 12.1822 27.9045 12.1822 26.5376C12.1822 25.1725 17.0793 24.03 23.6403 23.7364V28.1981C24.0689 28.2285 25.2974 28.3011 26.995 28.3011C29.0318 28.3011 30.0528 28.2167 30.2435 28.1998V23.7398C36.791 24.0317 41.6763 25.1741 41.6763 26.5376C41.6763 27.9045 36.791 29.0436 30.2435 29.3338ZM30.2435 23.2757V19.2831H39.3796V13.1946H14.5042V19.2831H23.6403V23.274C16.2153 23.6149 10.6313 25.0864 10.6313 26.8481C10.6313 28.6099 16.2153 30.0797 23.6403 30.4223V43.2169H30.2435V30.4189C37.6567 30.078 43.2271 28.6082 43.2271 26.8481C43.2271 25.0881 37.6567 23.6183 30.2435 23.2757Z" fill="white"/>
</g>
<defs>
<clipPath id="clip0_362_10886">
<rect width="54" height="54" fill="white"/>
</clipPath>
</defs>
</svg>
