<svg preserveAspectRatio="none" width="100%" height="100%" overflow="visible" style="display: block;" viewBox="0 0 47 54" fill="none" xmlns="http://www.w3.org/2000/svg">
<path id="Vector" d="M24.8044 48.3824C24.5851 47.5765 23.7433 47.0979 22.9227 47.3137C22.1032 47.5294 21.6166 48.3583 21.8359 49.1643C22.0553 49.9702 22.8971 50.4488 23.7177 50.233C24.5372 50.0173 25.0238 49.1884 24.8044 48.3824ZM23.8079 45.3601L23.3213 45.6393L22.8347 45.3601L15.8222 41.3314V41.7004L22.8347 45.7291L22.9984 45.8233L23.3213 46.0095L23.6431 45.8233L23.8079 45.7291L30.6734 41.7848V41.4146L23.8079 45.3601ZM23.8079 45.3601L23.3213 45.6393L22.8347 45.3601L15.8222 41.3314V41.7004L22.8347 45.7291L22.9984 45.8233L23.3213 46.0095L23.6431 45.8233L23.8079 45.7291L30.6734 41.7848V41.4146L23.8079 45.3601ZM24.8044 48.3824C24.5851 47.5765 23.7433 47.0979 22.9227 47.3137C22.1032 47.5294 21.6166 48.3583 21.8359 49.1643C22.0553 49.9702 22.8971 50.4488 23.7177 50.233C24.5372 50.0173 25.0238 49.1884 24.8044 48.3824ZM24.8044 48.3824C24.5851 47.5765 23.7433 47.0979 22.9227 47.3137C22.1032 47.5294 21.6166 48.3583 21.8359 49.1643C22.0553 49.9702 22.8971 50.4488 23.7177 50.233C24.5372 50.0173 25.0238 49.1884 24.8044 48.3824ZM23.8079 45.3601L23.3213 45.6393L22.8347 45.3601L15.8222 41.3314V41.7004L22.8347 45.7291L22.9984 45.8233L23.3213 46.0095L23.6431 45.8233L23.8079 45.7291L30.6734 41.7848V41.4146L23.8079 45.3601ZM23.8079 45.3601L23.3213 45.6393L22.8347 45.3601L15.8222 41.3314V41.7004L22.8347 45.7291L22.9984 45.8233L23.3213 46.0095L23.6431 45.8233L23.8079 45.7291L30.6734 41.7848V41.4146L23.8079 45.3601ZM24.8044 48.3824C24.5851 47.5765 23.7433 47.0979 22.9227 47.3137C22.1032 47.5294 21.6166 48.3583 21.8359 49.1643C22.0553 49.9702 22.8971 50.4488 23.7177 50.233C24.5372 50.0173 25.0238 49.1884 24.8044 48.3824ZM24.8044 48.3824C24.5851 47.5765 23.7433 47.0979 22.9227 47.3137C22.1032 47.5294 21.6166 48.3583 21.8359 49.1643C22.0553 49.9702 22.8971 50.4488 23.7177 50.233C24.5372 50.0173 25.0238 49.1884 24.8044 48.3824ZM23.8079 45.3601L23.3213 45.6393L22.8347 45.3601L15.8222 41.3314V41.7004L22.8347 45.7291L22.9984 45.8233L23.3213 46.0095L23.6431 45.8233L23.8079 45.7291L30.6734 41.7848V41.4146L23.8079 45.3601ZM23.3213 45.6393L22.8347 45.3601L15.8222 41.3314V41.7004L22.8347 45.7291L22.9984 45.8233L23.3213 46.0095L23.6431 45.8233L23.8079 45.7291L30.6734 41.7848V41.4146L23.8079 45.3601L23.3213 45.6393ZM22.9227 47.3126C22.1032 47.5283 21.6166 48.3572 21.8359 49.1632C22.0553 49.9691 22.8971 50.4477 23.7177 50.2319C24.5372 50.0162 25.0238 49.1873 24.8044 48.3813C24.5851 47.5754 23.7433 47.0968 22.9227 47.3126ZM23.3213 45.6393L22.8347 45.3601L15.8222 41.3314V41.7004L22.8347 45.7291L22.9984 45.8233L23.3213 46.0095L23.6431 45.8233L23.8079 45.7291L30.6734 41.7848V41.4146L23.8079 45.3601L23.3213 45.6393ZM22.9227 47.3126C22.1032 47.5283 21.6166 48.3572 21.8359 49.1632C22.0553 49.9691 22.8971 50.4477 23.7177 50.2319C24.5372 50.0162 25.0238 49.1873 24.8044 48.3813C24.5851 47.5754 23.7433 47.0968 22.9227 47.3126ZM24.8044 48.3813C24.5851 47.5754 23.7433 47.0968 22.9227 47.3126C22.1032 47.5283 21.6166 48.3572 21.8359 49.1632C22.0553 49.9691 22.8971 50.4477 23.7177 50.2319C24.5372 50.0162 25.0238 49.1873 24.8044 48.3813ZM23.8079 45.359L23.3213 45.6382L22.8347 45.359L15.8222 41.3303V41.6993L22.8347 45.728L22.9984 45.8222L23.3213 46.0084L23.6431 45.8222L23.8079 45.728L30.6734 41.7837V41.4135L23.8079 45.359ZM23.8079 45.359L23.3213 45.6382L22.8347 45.359L15.8222 41.3303V41.6993L22.8347 45.728L22.9984 45.8222L23.3213 46.0084L23.6431 45.8222L23.8079 45.728L30.6734 41.7837V41.4135L23.8079 45.359ZM24.8044 48.3813C24.5851 47.5754 23.7433 47.0968 22.9227 47.3126C22.1032 47.5283 21.6166 48.3572 21.8359 49.1632C22.0553 49.9691 22.8971 50.4477 23.7177 50.2319C24.5372 50.0162 25.0238 49.1873 24.8044 48.3813ZM24.8044 48.3813C24.5851 47.5754 23.7433 47.0968 22.9227 47.3126C22.1032 47.5283 21.6166 48.3572 21.8359 49.1632C22.0553 49.9691 22.8971 50.4477 23.7177 50.2319C24.5372 50.0162 25.0238 49.1873 24.8044 48.3813ZM23.8079 45.359L23.3213 45.6382L22.8347 45.359L15.8222 41.3303V41.6993L22.8347 45.728L22.9984 45.8222L23.3213 46.0084L23.6431 45.8222L23.8079 45.728L30.6734 41.7837V41.4135L23.8079 45.359ZM23.8079 45.359L23.3213 45.6382L22.8347 45.359L15.8222 41.3303V41.6993L22.8347 45.728L22.9984 45.8222L23.3213 46.0084L23.6431 45.8222L23.8079 45.728L30.6734 41.7837V41.4135L23.8079 45.359ZM24.8044 48.3813C24.5851 47.5754 23.7433 47.0968 22.9227 47.3126C22.1032 47.5283 21.6166 48.3572 21.8359 49.1632C22.0553 49.9691 22.8971 50.4477 23.7177 50.2319C24.5372 50.0162 25.0238 49.1873 24.8044 48.3813ZM23.1821 28.9475V43.9968H23.5006V28.9475H23.1821ZM6.78093 18.0387V18.0518L7.10272 18.2369V18.2238L6.78093 18.0387ZM6.77759 26.003V26.1891H7.10161L6.77759 26.003ZM39.8282 25.9405H39.8249V26.1902H39.8639V25.9208L39.8282 25.9416V25.9405ZM6.05274 15.6635C5.83338 14.8576 4.99161 14.379 4.171 14.5948C3.3515 14.8105 2.86492 15.6394 3.08427 16.4454C3.30362 17.2503 4.14539 17.7299 4.966 17.5142C5.78551 17.2984 6.27209 16.4695 6.05274 15.6635ZM44.1162 15.6635C43.8968 14.8576 43.055 14.379 42.2344 14.5948C41.4149 14.8105 40.9283 15.6394 41.1477 16.4454C41.367 17.2503 42.2088 17.7299 43.0294 17.5142C43.8489 17.2984 44.3355 16.4695 44.1162 15.6635ZM6.69408 18.0026L6.77759 18.0507V17.8613L6.69408 18.0026ZM6.78093 18.0398V18.0529L7.10272 18.238V18.2248L6.78093 18.0398ZM7.25192 17.2152L7.18512 17.1769L7.11608 17.2941L7.10718 17.3083L7.26083 17.2207L7.25192 17.2163V17.2152ZM6.78093 18.0398V18.0529L7.10272 18.238V18.2248L6.78093 18.0398ZM23.3213 7.99274L15.8177 12.305L16.1484 12.4835L23.3213 8.36287L30.8861 12.7113H30.8872L31.2112 12.5284L23.3213 7.99493V7.99274ZM39.5387 27.9521V36.3216L32.2968 40.4839V40.8529L39.7826 36.5526L39.8628 36.5055V27.7682L39.5387 27.9532V27.9521ZM7.10272 36.3205V28.0343L6.77871 27.8481V36.5034L14.1999 40.7664V40.3973L7.10272 36.3194V36.3205ZM44.1162 15.6624C43.8968 14.8565 43.055 14.378 42.2344 14.5937C41.4149 14.8094 40.9283 15.6384 41.1477 16.4443C41.367 17.2492 42.2088 17.7288 43.0294 17.5131C43.8489 17.2973 44.3355 16.4684 44.1162 15.6624ZM39.5387 27.951V36.3205L32.2968 40.4828V40.8518L39.7826 36.5515L39.8628 36.5045V27.7671L39.5387 27.9521V27.951ZM6.69408 18.0026L6.77759 18.0507V17.8613L6.69408 18.0026ZM6.78093 18.0398V18.0529L7.10272 18.238V18.2248L6.78093 18.0398ZM39.8282 25.9416H39.8249V26.1913H39.8639V25.9219L39.8282 25.9427V25.9416ZM23.3213 7.99165L15.8177 12.3039L16.1484 12.4824L23.3213 8.36177L30.8861 12.7102H30.8872L31.2112 12.5273L23.3213 7.99384V7.99165ZM23.1821 28.9486V43.9979H23.5006V28.9486H23.1821ZM7.10272 36.3205V28.0343L6.77871 27.8481V36.5034L14.1999 40.7664V40.3973L7.10272 36.3194V36.3205ZM7.25304 17.2141L7.18623 17.1758L7.1172 17.293L7.10829 17.3072L7.26195 17.2196L7.25304 17.2152V17.2141ZM6.77871 26.0041V26.1902H7.10272L6.77871 26.0041ZM6.05274 15.6635C5.83338 14.8576 4.99161 14.379 4.171 14.5948C3.3515 14.8105 2.86492 15.6394 3.08427 16.4454C3.30362 17.2503 4.14539 17.7299 4.966 17.5142C5.78551 17.2984 6.27209 16.4695 6.05274 15.6635ZM6.05274 15.6635C5.83338 14.8576 4.99161 14.379 4.171 14.5948C3.3515 14.8105 2.86492 15.6394 3.08427 16.4454C3.30362 17.2503 4.14539 17.7299 4.966 17.5142C5.78551 17.2984 6.27209 16.4695 6.05274 15.6635ZM6.69408 18.0026L6.77759 18.0507V17.8613L6.69408 18.0026ZM6.78093 18.0398V18.0529L7.10272 18.238V18.2248L6.78093 18.0398ZM6.77759 26.0041V26.1902H7.10161L6.77759 26.0041ZM7.25192 17.2141L7.18512 17.1758L7.11608 17.293L7.10718 17.3072L7.26083 17.2196L7.25192 17.2152V17.2141ZM7.10161 36.3205V28.0343L6.77759 27.8481V36.5034L14.1988 40.7664V40.3973L7.10161 36.3194V36.3205ZM23.181 28.9486V43.9979H23.4994V28.9486H23.181ZM23.3202 7.99165L15.8166 12.3039L16.1473 12.4824L23.3202 8.36177L30.885 12.7102H30.8861L31.2101 12.5273L23.3202 7.99384V7.99165ZM39.8271 25.9405H39.8238V26.1902H39.8628V25.9208L39.8271 25.9416V25.9405ZM39.5387 27.951V36.3205L32.2968 40.4828V40.8518L39.7826 36.5515L39.8628 36.5045V27.7671L39.5387 27.9521V27.951ZM44.1162 15.6624C43.8968 14.8565 43.055 14.378 42.2344 14.5937C41.4149 14.8094 40.9283 15.6384 41.1477 16.4443C41.367 17.2492 42.2088 17.7288 43.0294 17.5131C43.8489 17.2973 44.3355 16.4684 44.1162 15.6624ZM44.1162 15.6624C43.8968 14.8565 43.055 14.378 42.2344 14.5937C41.4149 14.8094 40.9283 15.6384 41.1477 16.4443C41.367 17.2492 42.2088 17.7288 43.0294 17.5131C43.8489 17.2973 44.3355 16.4684 44.1162 15.6624ZM39.5387 27.951V36.3205L32.2968 40.4828V40.8518L39.7826 36.5515L39.8628 36.5045V27.7671L39.5387 27.9521V27.951ZM39.8271 25.9405H39.8238V26.1902H39.8628V25.9208L39.8271 25.9416V25.9405ZM23.3213 7.99165L15.8177 12.3039L16.1484 12.4824L23.3213 8.36177L30.8861 12.7102H30.8872L31.2112 12.5273L23.3213 7.99384V7.99165ZM23.1821 28.9486V43.9979H23.5006V28.9486H23.1821ZM7.10272 36.3205V28.0343L6.77871 27.8481V36.5034L14.1999 40.7664V40.3973L7.10272 36.3194V36.3205ZM7.25304 17.2141L7.18623 17.1758L7.1172 17.293L7.10829 17.3072L7.26195 17.2196L7.25304 17.2152V17.2141ZM6.77871 26.0041V26.1902H7.10272L6.77871 26.0041ZM6.6952 18.0026L6.77871 18.0507V17.8613L6.6952 18.0026ZM6.78205 18.0398V18.0529L7.10384 18.238V18.2248L6.78205 18.0398ZM6.05274 15.6635C5.83338 14.8576 4.99161 14.379 4.171 14.5948C3.3515 14.8105 2.86492 15.6394 3.08427 16.4454C3.30362 17.2503 4.14539 17.7299 4.966 17.5142C5.78551 17.2984 6.27209 16.4695 6.05274 15.6635ZM6.05274 15.6635C5.83338 14.8576 4.99161 14.379 4.171 14.5948C3.3515 14.8105 2.86492 15.6394 3.08427 16.4454C3.30362 17.2503 4.14539 17.7299 4.966 17.5142C5.78551 17.2984 6.27209 16.4695 6.05274 15.6635ZM6.69408 18.0026L6.77759 18.0507V17.8613L6.69408 18.0026ZM6.78093 18.0398V18.0529L7.10272 18.238V18.2248L6.78093 18.0398ZM6.77759 26.0041V26.1902H7.10161L6.77759 26.0041ZM7.25192 17.2141L7.18512 17.1758L7.11608 17.293L7.10718 17.3072L7.26083 17.2196L7.25192 17.2152V17.2141ZM7.10161 36.3205V28.0343L6.77759 27.8481V36.5034L14.1988 40.7664V40.3973L7.10161 36.3194V36.3205ZM23.181 28.9486V43.9979H23.4994V28.9486H23.181ZM23.3202 7.99165L15.8166 12.3039L16.1473 12.4824L23.3202 8.36177L30.885 12.7102H30.8861L31.2101 12.5273L23.3202 7.99384V7.99165ZM39.8271 25.9405H39.8238V26.1902H39.8628V25.9208L39.8271 25.9416V25.9405ZM39.5387 27.951V36.3205L32.2968 40.4828V40.8518L39.7826 36.5515L39.8628 36.5045V27.7671L39.5387 27.9521V27.951ZM44.1162 15.6624C43.8968 14.8565 43.055 14.378 42.2344 14.5937C41.4149 14.8094 40.9283 15.6384 41.1477 16.4443C41.367 17.2492 42.2088 17.7288 43.0294 17.5131C43.8489 17.2973 44.3355 16.4684 44.1162 15.6624ZM44.1162 15.6624C43.8968 14.8565 43.055 14.378 42.2344 14.5937C41.4149 14.8094 40.9283 15.6384 41.1477 16.4443C41.367 17.2492 42.2088 17.7288 43.0294 17.5131C43.8489 17.2973 44.3355 16.4684 44.1162 15.6624ZM39.5387 27.951V36.3205L32.2968 40.4828V40.8518L39.7826 36.5515L39.8628 36.5045V27.7671L39.5387 27.9521V27.951ZM39.8271 25.9405H39.8238V26.1902H39.8628V25.9208L39.8271 25.9416V25.9405ZM23.3213 7.99165L15.8177 12.3039L16.1484 12.4824L23.3213 8.36177L30.8861 12.7102H30.8872L31.2112 12.5273L23.3213 7.99384V7.99165ZM23.1821 28.9486V43.9979H23.5006V28.9486H23.1821ZM7.10272 36.3205V28.0343L6.77871 27.8481V36.5034L14.1999 40.7664V40.3973L7.10272 36.3194V36.3205ZM7.25304 17.2141L7.18623 17.1758L7.1172 17.293L7.10829 17.3072L7.26195 17.2196L7.25304 17.2152V17.2141ZM6.77871 26.0041V26.1902H7.10272L6.77871 26.0041ZM6.6952 18.0026L6.77871 18.0507V17.8613L6.6952 18.0026ZM6.78205 18.0398V18.0529L7.10384 18.238V18.2248L6.78205 18.0398ZM6.05274 15.6635C5.83338 14.8576 4.99161 14.379 4.171 14.5948C3.3515 14.8105 2.86492 15.6394 3.08427 16.4454C3.30362 17.2503 4.14539 17.7299 4.966 17.5142C5.78551 17.2984 6.27209 16.4695 6.05274 15.6635ZM6.05274 15.6635C5.83338 14.8576 4.99161 14.379 4.171 14.5948C3.3515 14.8105 2.86492 15.6394 3.08427 16.4454C3.30362 17.2503 4.14539 17.7299 4.966 17.5142C5.78551 17.2984 6.27209 16.4695 6.05274 15.6635ZM6.69408 18.0026L6.77759 18.0507V17.8613L6.69408 18.0026ZM6.77759 26.0041V26.1902H7.10161L6.77759 26.0041ZM6.78093 18.0398V18.0529L7.10272 18.238V18.2248L6.78093 18.0398ZM7.25192 17.2152L7.18512 17.1769L7.11608 17.2941L7.10718 17.3083L7.26083 17.2207L7.25192 17.2163V17.2152ZM7.10161 36.3216V28.0354L6.77759 27.8492V36.5045L14.1988 40.7675V40.3984L7.10161 36.3205V36.3216ZM23.181 28.9497V43.9989H23.4994V28.9497H23.181ZM23.3202 7.99274L15.8166 12.305L16.1473 12.4835L23.3202 8.36287L30.885 12.7113H30.8861L31.2101 12.5284L23.3202 7.99493V7.99274ZM39.0689 17.3981L39.06 17.3937L39.0488 17.4003L39.0555 17.4047L39.0678 17.3992L39.0689 17.3981ZM39.5131 17.2984L39.414 17.2404L39.3784 17.2196L39.4074 17.2437L39.4341 17.2656L39.5154 17.3017L39.5321 17.3083L39.5131 17.2973V17.2984ZM39.826 25.9416H39.8227V26.1913H39.8616V25.9219L39.826 25.9427V25.9416ZM39.8427 17.8142L39.8494 17.8252H39.8605V17.8142H39.8416H39.8427ZM39.8817 18.0091L39.8639 18.0398H39.8605V18.042V18.0507L39.8828 18.0124V18.008L39.8817 18.0091ZM39.5365 27.9532V36.3227L32.2946 40.4849V40.854L39.7804 36.5537L39.8605 36.5066V27.7693L39.5365 27.9543V27.9532ZM44.1139 15.6646C43.8946 14.8587 43.0528 14.3801 42.2322 14.5959C41.4127 14.8116 40.9261 15.6405 41.1455 16.4465C41.3648 17.2514 42.2066 17.731 43.0272 17.5153C43.8467 17.2995 44.3333 16.4706 44.1139 15.6646ZM44.1139 15.6646C43.8946 14.8587 43.0528 14.3801 42.2322 14.5959C41.4127 14.8116 40.9261 15.6405 41.1455 16.4465C41.3648 17.2514 42.2066 17.731 43.0272 17.5153C43.8467 17.2995 44.3333 16.4706 44.1139 15.6646ZM39.8817 18.0091L39.8639 18.0398H39.8605V18.042V18.0507L39.8828 18.0124V18.008L39.8817 18.0091ZM39.5365 27.9532V36.3227L32.2946 40.4849V40.854L39.7804 36.5537L39.8605 36.5066V27.7693L39.5365 27.9543V27.9532ZM39.8427 17.8153L39.8494 17.8263H39.8605V17.8153H39.8416H39.8427ZM39.826 25.9427H39.8227V26.1924H39.8616V25.923L39.826 25.9438V25.9427ZM39.5131 17.2995L39.414 17.2415L39.3784 17.2207L39.4074 17.2448L39.4341 17.2667L39.5154 17.3028L39.5321 17.3094L39.5131 17.2984V17.2995ZM39.0689 17.3992L39.06 17.3948L39.0488 17.4014L39.0555 17.4058L39.0678 17.4003L39.0689 17.3992ZM23.3202 7.99384L15.8166 12.3061L16.1473 12.4846L23.3202 8.36396L30.885 12.7124H30.8861L31.2101 12.5295L23.3202 7.99603V7.99384ZM23.181 28.9508V44H23.4994V28.9508H23.181ZM7.10161 36.3227V28.0365L6.77759 27.8503V36.5055L14.1988 40.7686V40.3995L7.10161 36.3216V36.3227ZM7.25192 17.2163L7.18512 17.178L7.11608 17.2952L7.10718 17.3094L7.26083 17.2218L7.25192 17.2174V17.2163ZM6.78093 18.0409V18.054L7.10272 18.2391V18.2259L6.78093 18.0409ZM6.77759 26.0052V26.1913H7.10161L6.77759 26.0052ZM6.69408 18.0037L6.77759 18.0518V17.8624L6.69408 18.0037ZM6.05274 15.6646C5.83338 14.8587 4.99161 14.3801 4.171 14.5959C3.3515 14.8116 2.86492 15.6405 3.08427 16.4465C3.30362 17.2514 4.14539 17.731 4.966 17.5153C5.78551 17.2995 6.27209 16.4706 6.05274 15.6646ZM6.05274 15.6646C5.83338 14.8587 4.99161 14.3801 4.171 14.5959C3.3515 14.8116 2.86492 15.6405 3.08427 16.4465C3.30362 17.2514 4.14539 17.731 4.966 17.5153C5.78551 17.2995 6.27209 16.4706 6.05274 15.6646ZM6.69408 18.0037L6.77759 18.0518V17.8624L6.69408 18.0037ZM6.77759 26.0052V26.1913H7.10161L6.77759 26.0052ZM6.78093 18.0409V18.054L7.10272 18.2391V18.2259L6.78093 18.0409ZM7.25192 17.2163L7.18512 17.178L7.11608 17.2952L7.10718 17.3094L7.26083 17.2218L7.25192 17.2174V17.2163ZM7.10161 36.3227V28.0365L6.77759 27.8503V36.5055L14.1988 40.7686V40.3995L7.10161 36.3216V36.3227ZM23.181 28.9508V44H23.4994V28.9508H23.181ZM23.3202 7.99384L15.8166 12.3061L16.1473 12.4846L23.3202 8.36396L30.885 12.7124H30.8861L31.2101 12.5295L23.3202 7.99603V7.99384ZM39.0689 17.3992L39.06 17.3948L39.0488 17.4014L39.0555 17.4058L39.0678 17.4003L39.0689 17.3992ZM39.5131 17.2995L39.414 17.2415L39.3784 17.2207L39.4074 17.2448L39.4341 17.2667L39.5154 17.3028L39.5321 17.3094L39.5131 17.2984V17.2995ZM39.826 25.9427H39.8227V26.1924H39.8616V25.923L39.826 25.9438V25.9427ZM39.8427 17.8153L39.8494 17.8263H39.8605V17.8153H39.8416H39.8427ZM39.8817 18.0102L39.8639 18.0409H39.8605V18.0431V18.0518L39.8828 18.0135V18.0091L39.8817 18.0102ZM39.5365 27.9543V36.3238L32.2946 40.486V40.8551L39.7804 36.5548L39.8605 36.5077V27.7704L39.5365 27.9554V27.9543ZM44.1139 15.6657C43.8946 14.8598 43.0528 14.3812 42.2322 14.597C41.4127 14.8127 40.9261 15.6416 41.1455 16.4476C41.3648 17.2524 42.2066 17.7321 43.0272 17.5164C43.8467 17.3006 44.3333 16.4717 44.1139 15.6657ZM44.1139 15.6657C43.8946 14.8598 43.0528 14.3812 42.2322 14.597C41.4127 14.8127 40.9261 15.6416 41.1455 16.4476C41.3648 17.2524 42.2066 17.7321 43.0272 17.5164C43.8467 17.3006 44.3333 16.4717 44.1139 15.6657ZM39.8639 18.042H39.8605V18.0442V18.0529L39.8828 18.0146V18.0102L39.8639 18.0409V18.042ZM39.5365 36.3238L32.2946 40.486V40.8551L39.7804 36.5548L39.8605 36.5077V27.7704L39.5365 27.9554V36.3249V36.3238ZM39.8605 17.8273V17.8164H39.8416L39.8483 17.8273H39.8594H39.8605ZM39.8216 25.9449V26.1924H39.8605V25.923L39.8249 25.9438H39.8216V25.9449ZM39.4319 17.2678L39.5131 17.3039L39.5298 17.3105L39.5109 17.2995L39.4118 17.2415L39.3762 17.2207L39.4051 17.2448L39.4319 17.2667V17.2678ZM39.0555 17.4069L39.0678 17.4003L39.0588 17.3948L39.0477 17.4014L39.0544 17.4058L39.0555 17.4069ZM15.8144 12.3061L16.1451 12.4846L23.318 8.36396L30.8828 12.7124H30.8839L31.2079 12.5295L23.318 7.99603L15.8144 12.3083V12.3061ZM23.1788 44.0011H23.4972V28.9519H23.1788V44.0011ZM7.10272 28.0354L6.77871 27.8492V36.5045L14.1999 40.7675V40.3984L7.10272 36.3205V28.0343V28.0354ZM7.25304 17.2141L7.18623 17.1758L7.1172 17.293L7.10829 17.3072L7.26195 17.2196L7.25304 17.2152V17.2141ZM7.10272 18.2238L6.78093 18.0387V18.0518L7.10272 18.2369V18.2238ZM6.77871 26.1902H7.10272L6.77871 26.0041V26.1902ZM6.77871 17.8613L6.6952 18.0026L6.77871 18.0507V17.8613ZM4.17211 14.5948C3.35261 14.8105 2.86603 15.6394 3.08538 16.4454C3.30473 17.2503 4.1465 17.7299 4.96712 17.5142C5.78662 17.2984 6.2732 16.4695 6.05385 15.6635C5.8345 14.8576 4.99273 14.379 4.17211 14.5948ZM23.4994 0L0 13.5019V40.4981L23.4994 54L47 40.4981V13.5019L23.4994 0ZM46.0268 39.9484L23.4994 52.8918L0.974272 39.9484V14.0527L23.4994 1.10928L46.0268 14.0527V39.9484ZM43.0305 17.5142C43.85 17.2984 44.3366 16.4695 44.1173 15.6635C43.8979 14.8576 43.0561 14.379 42.2355 14.5948C41.416 14.8105 40.9295 15.6394 41.1488 16.4454C41.3682 17.2503 42.2099 17.7299 43.0305 17.5142ZM39.8639 36.5045V27.7671L39.5399 27.9521V36.3216L32.298 40.4839V40.8529L39.7837 36.5526L39.8639 36.5055V36.5045ZM39.8639 18.042V18.0507L39.8861 18.0124V18.008L39.8672 18.0387H39.8639V18.0409V18.042ZM39.8639 17.8252V17.8142H39.8449L39.8516 17.8252H39.8628H39.8639ZM39.8249 26.1902H39.8639V25.9208L39.8282 25.9416H39.8249V26.1913V26.1902ZM39.4352 17.2656L39.5165 17.3017L39.5332 17.3083L39.5143 17.2973L39.4152 17.2393L39.3795 17.2185L39.4085 17.2426L39.4352 17.2645V17.2656ZM39.0588 17.4047L39.0711 17.3981L39.0622 17.3926L39.0511 17.3992L39.0577 17.4036L39.0588 17.4047ZM15.8177 12.3039L16.1484 12.4824L23.3213 8.36177L30.8861 12.7102H30.8872L31.2112 12.5273L23.3213 7.99384L15.8177 12.3061V12.3039ZM23.1821 43.9989H23.5006V28.9497H23.1821V43.9989ZM7.10272 28.0354L6.77871 27.8492V36.5045L14.1999 40.7675V40.3984L7.10272 36.3205V28.0343V28.0354ZM7.25304 17.2141L7.18623 17.1758L7.1172 17.293L7.10829 17.3072L7.26195 17.2196L7.25304 17.2152V17.2141ZM7.10272 18.2238L6.78093 18.0387V18.0518L7.10272 18.2369V18.2238ZM6.77871 26.1902H7.10272L6.77871 26.0041V26.1902ZM6.77871 17.8613L6.6952 18.0026L6.77871 18.0507V17.8613ZM4.17211 14.5948C3.35261 14.8105 2.86603 15.6394 3.08538 16.4454C3.30473 17.2503 4.1465 17.7299 4.96712 17.5142C5.78662 17.2984 6.2732 16.4695 6.05385 15.6635C5.8345 14.8576 4.99273 14.379 4.17211 14.5948ZM6.05385 15.6635C5.8345 14.8576 4.99273 14.379 4.17211 14.5948C3.35261 14.8105 2.86603 15.6394 3.08538 16.4454C3.30473 17.2503 4.1465 17.7299 4.96712 17.5142C5.78662 17.2984 6.2732 16.4695 6.05385 15.6635ZM6.6952 18.0026L6.77871 18.0507V17.8613L6.6952 18.0026ZM6.77871 26.0041V26.1902H7.10272L6.77871 26.0041ZM6.78205 18.0398V18.0529L7.10384 18.238V18.2248L6.78205 18.0398ZM7.25304 17.2152L7.18623 17.1769L7.1172 17.2941L7.10829 17.3083L7.26195 17.2207L7.25304 17.2163V17.2152ZM7.10272 36.3216V28.0354L6.77871 27.8492V36.5045L14.1999 40.7675V40.3984L7.10272 36.3205V36.3216ZM23.1821 28.9497V43.9989H23.5006V28.9497H23.1821ZM23.3213 7.99274L15.8177 12.305L16.1484 12.4835L23.3213 8.36287L30.8861 12.7113H30.8872L31.2112 12.5284L23.3213 7.99493V7.99274ZM39.07 17.3981L39.0611 17.3937L39.0499 17.4003L39.0566 17.4047L39.0689 17.3992L39.07 17.3981ZM39.5143 17.2984L39.4152 17.2404L39.3795 17.2196L39.4085 17.2437L39.4352 17.2656L39.5165 17.3017L39.5332 17.3083L39.5143 17.2973V17.2984ZM39.8271 25.9416H39.8238V26.1913H39.8628V25.9219L39.8271 25.9427V25.9416ZM39.8438 17.8142L39.8505 17.8252H39.8616V17.8142H39.8427H39.8438ZM39.5376 27.9521V36.3216L32.2957 40.4839V40.8529L39.7815 36.5526L39.8616 36.5055V27.7682L39.5376 27.9532V27.9521ZM39.8828 18.008L39.865 18.0387H39.8616V18.0409V18.0496L39.8839 18.0113V18.0069L39.8828 18.008ZM44.115 15.6635C43.8957 14.8576 43.0539 14.379 42.2333 14.5948C41.4138 14.8105 40.9272 15.6394 41.1466 16.4454C41.3659 17.2503 42.2077 17.7299 43.0283 17.5142C43.8478 17.2984 44.3344 16.4695 44.115 15.6635ZM44.115 15.6635C43.8957 14.8576 43.0539 14.379 42.2333 14.5948C41.4138 14.8105 40.9272 15.6394 41.1466 16.4454C41.3659 17.2503 42.2077 17.7299 43.0283 17.5142C43.8478 17.2984 44.3344 16.4695 44.115 15.6635ZM39.5376 27.9521V36.3216L32.2957 40.4839V40.8529L39.7815 36.5526L39.8616 36.5055V27.7682L39.5376 27.9532V27.9521ZM39.8828 18.008L39.865 18.0387H39.8616V18.0409V18.0496L39.8839 18.0113V18.0069L39.8828 18.008ZM39.8438 17.8131L39.8505 17.8241H39.8616V17.8131H39.8427H39.8438ZM39.8271 25.9405H39.8238V26.1902H39.8628V25.9208L39.8271 25.9416V25.9405ZM39.5143 17.2973L39.4152 17.2393L39.3795 17.2185L39.4085 17.2426L39.4352 17.2645L39.5165 17.3006L39.5332 17.3072L39.5143 17.2963V17.2973ZM39.07 17.397L39.0611 17.3926L39.0499 17.3992L39.0566 17.4036L39.0689 17.3981L39.07 17.397ZM23.3213 7.99165L15.8177 12.3039L16.1484 12.4824L23.3213 8.36177L30.8861 12.7102H30.8872L31.2112 12.5273L23.3213 7.99384V7.99165ZM23.1821 28.9486V43.9979H23.5006V28.9486H23.1821ZM7.10272 36.3205V28.0343L6.77871 27.8481V36.5034L14.1999 40.7664V40.3973L7.10272 36.3194V36.3205ZM7.25304 17.2141L7.18623 17.1758L7.1172 17.293L7.10829 17.3072L7.26195 17.2196L7.25304 17.2152V17.2141ZM6.78205 18.0387V18.0518L7.10384 18.2369V18.2238L6.78205 18.0387ZM6.77871 26.003V26.1891H7.10272L6.77871 26.003ZM6.6952 18.0015L6.77871 18.0496V17.8602L6.6952 18.0015ZM6.05385 15.6624C5.8345 14.8565 4.99273 14.378 4.17211 14.5937C3.35261 14.8094 2.86603 15.6384 3.08538 16.4443C3.30473 17.2492 4.1465 17.7288 4.96712 17.5131C5.78662 17.2973 6.2732 16.4684 6.05385 15.6624ZM6.05385 15.6624C5.8345 14.8565 4.99273 14.378 4.17211 14.5937C3.35261 14.8094 2.86603 15.6384 3.08538 16.4443C3.30473 17.2492 4.1465 17.7288 4.96712 17.5131C5.78662 17.2973 6.2732 16.4684 6.05385 15.6624ZM6.6952 18.0015L6.77871 18.0496V17.8602L6.6952 18.0015ZM6.77871 26.003V26.1891H7.10272L6.77871 26.003ZM6.78205 18.0387V18.0518L7.10384 18.2369V18.2238L6.78205 18.0387ZM7.25304 17.2141L7.18623 17.1758L7.1172 17.293L7.10829 17.3072L7.26195 17.2196L7.25304 17.2152V17.2141ZM7.10272 36.3205V28.0343L6.77871 27.8481V36.5034L14.1999 40.7664V40.3973L7.10272 36.3194V36.3205ZM23.1821 28.9486V43.9979H23.5006V28.9486H23.1821ZM23.3213 7.99165L15.8177 12.3039L16.1484 12.4824L23.3213 8.36177L30.8861 12.7102H30.8872L31.2112 12.5273L23.3213 7.99384V7.99165ZM39.07 17.397L39.0611 17.3926L39.0499 17.3992L39.0566 17.4036L39.0689 17.3981L39.07 17.397ZM39.5143 17.2973L39.4152 17.2393L39.3795 17.2185L39.4085 17.2426L39.4352 17.2645L39.5165 17.3006L39.5332 17.3072L39.5143 17.2963V17.2973ZM39.8271 25.9405H39.8238V26.1902H39.8628V25.9208L39.8271 25.9416V25.9405ZM39.8438 17.8131L39.8505 17.8241H39.8616V17.8131H39.8427H39.8438ZM39.5376 27.951V36.3205L32.2957 40.4828V40.8518L39.7815 36.5515L39.8616 36.5045V27.7671L39.5376 27.9521V27.951ZM39.8828 18.0069L39.865 18.0376H39.8616V18.0398V18.0485L39.8839 18.0102V18.0058L39.8828 18.0069ZM44.115 15.6624C43.8957 14.8565 43.0539 14.378 42.2333 14.5937C41.4138 14.8094 40.9272 15.6384 41.1466 16.4443C41.3659 17.2492 42.2077 17.7288 43.0283 17.5131C43.8478 17.2973 44.3344 16.4684 44.115 15.6624ZM44.115 15.6624C43.8957 14.8565 43.0539 14.378 42.2333 14.5937C41.4138 14.8094 40.9272 15.6384 41.1466 16.4443C41.3659 17.2492 42.2077 17.7288 43.0283 17.5131C43.8478 17.2973 44.3344 16.4684 44.115 15.6624ZM39.5376 27.951V36.3205L32.2957 40.4828V40.8518L39.7815 36.5515L39.8616 36.5045V27.7671L39.5376 27.9521V27.951ZM39.826 25.9405H39.8227V26.1902H39.8616V25.9208L39.826 25.9416V25.9405ZM23.3213 7.99165L15.8177 12.3039L16.1484 12.4824L23.3213 8.36177L30.8861 12.7102H30.8872L31.2112 12.5273L23.3213 7.99384V7.99165ZM23.1821 28.9486V43.9979H23.5006V28.9486H23.1821ZM7.10272 36.3205V28.0343L6.77871 27.8481V36.5034L14.1999 40.7664V40.3973L7.10272 36.3194V36.3205ZM7.25304 17.2141L7.18623 17.1758L7.1172 17.293L7.10829 17.3072L7.26195 17.2196L7.25304 17.2152V17.2141ZM6.77871 26.0041V26.1902H7.10272L6.77871 26.0041ZM6.6952 18.0026L6.77871 18.0507V17.8613L6.6952 18.0026ZM6.78205 18.0398V18.0529L7.10384 18.238V18.2248L6.78205 18.0398ZM6.05274 15.6635C5.83338 14.8576 4.99161 14.379 4.171 14.5948C3.3515 14.8105 2.86492 15.6394 3.08427 16.4454C3.30362 17.2503 4.14539 17.7299 4.966 17.5142C5.78551 17.2984 6.27209 16.4695 6.05274 15.6635ZM6.05274 15.6635C5.83338 14.8576 4.99161 14.379 4.171 14.5948C3.3515 14.8105 2.86492 15.6394 3.08427 16.4454C3.30362 17.2503 4.14539 17.7299 4.966 17.5142C5.78551 17.2984 6.27209 16.4695 6.05274 15.6635ZM6.69408 18.0026L6.77759 18.0507V17.8613L6.69408 18.0026ZM6.78093 18.0398V18.0529L7.10272 18.238V18.2248L6.78093 18.0398ZM6.77759 26.0041V26.1902H7.10161L6.77759 26.0041ZM7.25192 17.2141L7.18512 17.1758L7.11608 17.293L7.10718 17.3072L7.26083 17.2196L7.25192 17.2152V17.2141ZM7.10161 36.3205V28.0343L6.77759 27.8481V36.5034L14.1988 40.7664V40.3973L7.10161 36.3194V36.3205ZM23.181 28.9486V43.9979H23.4994V28.9486H23.181ZM23.3202 7.99165L15.8166 12.3039L16.1473 12.4824L23.3202 8.36177L30.885 12.7102H30.8861L31.2101 12.5273L23.3202 7.99384V7.99165ZM39.8271 25.9405H39.8238V26.1902H39.8628V25.9208L39.8271 25.9416V25.9405ZM39.5387 27.951V36.3205L32.2968 40.4828V40.8518L39.7826 36.5515L39.8628 36.5045V27.7671L39.5387 27.9521V27.951ZM44.1162 15.6624C43.8968 14.8565 43.055 14.378 42.2344 14.5937C41.4149 14.8094 40.9283 15.6384 41.1477 16.4443C41.367 17.2492 42.2088 17.7288 43.0294 17.5131C43.8489 17.2973 44.3355 16.4684 44.1162 15.6624ZM44.1162 15.6624C43.8968 14.8565 43.055 14.378 42.2344 14.5937C41.4149 14.8094 40.9283 15.6384 41.1477 16.4443C41.367 17.2492 42.2088 17.7288 43.0294 17.5131C43.8489 17.2973 44.3355 16.4684 44.1162 15.6624ZM39.5387 27.951V36.3205L32.2968 40.4828V40.8518L39.7826 36.5515L39.8628 36.5045V27.7671L39.5387 27.9521V27.951ZM39.8271 25.9405H39.8238V26.1902H39.8628V25.9208L39.8271 25.9416V25.9405ZM23.3213 7.99165L15.8177 12.3039L16.1484 12.4824L23.3213 8.36177L30.8861 12.7102H30.8872L31.2112 12.5273L23.3213 7.99384V7.99165ZM23.1821 28.9486V43.9979H23.5006V28.9486H23.1821ZM7.10272 36.3205V28.0343L6.77871 27.8481V36.5034L14.1999 40.7664V40.3973L7.10272 36.3194V36.3205ZM7.25304 17.2141L7.18623 17.1758L7.1172 17.293L7.10829 17.3072L7.26195 17.2196L7.25304 17.2152V17.2141ZM6.77871 26.0041V26.1902H7.10272L6.77871 26.0041ZM6.6952 18.0026L6.77871 18.0507V17.8613L6.6952 18.0026ZM6.78205 18.0398V18.0529L7.10384 18.238V18.2248L6.78205 18.0398ZM6.05274 15.6635C5.83338 14.8576 4.99161 14.379 4.171 14.5948C3.3515 14.8105 2.86492 15.6394 3.08427 16.4454C3.30362 17.2503 4.14539 17.7299 4.966 17.5142C5.78551 17.2984 6.27209 16.4695 6.05274 15.6635ZM6.05274 15.6635C5.83338 14.8576 4.99161 14.379 4.171 14.5948C3.3515 14.8105 2.86492 15.6394 3.08427 16.4454C3.30362 17.2503 4.14539 17.7299 4.966 17.5142C5.78551 17.2984 6.27209 16.4695 6.05274 15.6635ZM6.69408 18.0026L6.77759 18.0507V17.8613L6.69408 18.0026ZM6.78093 18.0398V18.0529L7.10272 18.238V18.2248L6.78093 18.0398ZM6.77759 26.0041V26.1902H7.10161L6.77759 26.0041ZM7.25192 17.2141L7.18512 17.1758L7.11608 17.293L7.10718 17.3072L7.26083 17.2196L7.25192 17.2152V17.2141ZM7.10161 36.3205V28.0343L6.77759 27.8481V36.5034L14.1988 40.7664V40.3973L7.10161 36.3194V36.3205ZM23.181 28.9486V43.9979H23.4994V28.9486H23.181ZM23.3202 7.99165L15.8166 12.3039L16.1473 12.4824L23.3202 8.36177L30.885 12.7102H30.8861L31.2101 12.5273L23.3202 7.99384V7.99165ZM39.8271 25.9405H39.8238V26.1902H39.8628V25.9208L39.8271 25.9416V25.9405ZM39.5387 27.951V36.3205L32.2968 40.4828V40.8518L39.7826 36.5515L39.8628 36.5045V27.7671L39.5387 27.9521V27.951ZM44.1162 15.6624C43.8968 14.8565 43.055 14.378 42.2344 14.5937C41.4149 14.8094 40.9283 15.6384 41.1477 16.4443C41.367 17.2492 42.2088 17.7288 43.0294 17.5131C43.8489 17.2973 44.3355 16.4684 44.1162 15.6624ZM44.1162 15.6624C43.8968 14.8565 43.055 14.378 42.2344 14.5937C41.4149 14.8094 40.9283 15.6384 41.1477 16.4443C41.367 17.2492 42.2088 17.7288 43.0294 17.5131C43.8489 17.2973 44.3355 16.4684 44.1162 15.6624ZM39.5387 27.951V36.3205L32.2968 40.4828V40.8518L39.7826 36.5515L39.8628 36.5045V27.7671L39.5387 27.9521V27.951ZM6.69408 18.0026L6.77759 18.0507V17.8613L6.69408 18.0026ZM6.78093 18.0398V18.0529L7.10272 18.238V18.2248L6.78093 18.0398ZM39.8282 25.9416H39.8249V26.1913H39.8639V25.9219L39.8282 25.9427V25.9416ZM23.3213 7.99165L15.8177 12.3039L16.1484 12.4824L23.3213 8.36177L30.8861 12.7102H30.8872L31.2112 12.5273L23.3213 7.99384V7.99165ZM23.1821 28.9486V43.9979H23.5006V28.9486H23.1821ZM7.10272 36.3205V28.0343L6.77871 27.8481V36.5034L14.1999 40.7664V40.3973L7.10272 36.3194V36.3205ZM7.25304 17.2141L7.18623 17.1758L7.1172 17.293L7.10829 17.3072L7.26195 17.2196L7.25304 17.2152V17.2141ZM6.77871 26.0041V26.1902H7.10272L6.77871 26.0041ZM6.05274 15.6635C5.83338 14.8576 4.99161 14.379 4.171 14.5948C3.3515 14.8105 2.86492 15.6394 3.08427 16.4454C3.30362 17.2503 4.14539 17.7299 4.966 17.5142C5.78551 17.2984 6.27209 16.4695 6.05274 15.6635ZM39.3806 17.2196L39.4096 17.2437L39.4163 17.2404L39.3806 17.2196ZM39.0711 17.3981L39.0622 17.3937L39.0511 17.4003L39.0577 17.4047L39.07 17.3992L39.0711 17.3981ZM39.885 18.0091L39.8672 18.0398H39.8639V18.042V18.0507L39.8861 18.0124V18.008L39.885 18.0091ZM39.8461 17.8142L39.8527 17.8252H39.8639V17.8142H39.8449H39.8461ZM39.5154 17.2984L39.5176 17.3017L39.5343 17.3083L39.5154 17.2973V17.2984ZM39.885 18.0091L39.8672 18.0398H39.8639V18.042V18.0507L39.8861 18.0124V18.008L39.885 18.0091ZM39.8461 17.8142L39.8527 17.8252H39.8639V17.8142H39.8449H39.8461ZM39.0633 17.3937L39.0522 17.4003L39.0588 17.4047L39.07 17.3981L39.0611 17.3937H39.0633ZM39.0633 17.3937L39.0522 17.4003L39.0588 17.4047L39.07 17.3981L39.0611 17.3937H39.0633ZM39.5165 17.2984L39.4174 17.2404L39.3818 17.2196L39.4107 17.2437L39.4374 17.2656L39.5187 17.3017L39.5354 17.3083L39.5165 17.2973V17.2984ZM39.8861 18.0091L39.8683 18.0398H39.865V18.042V18.0507L39.8873 18.0124V18.008L39.8861 18.0091ZM39.8472 17.8142L39.8539 17.8252H39.865V17.8142H39.8461H39.8472ZM39.8472 17.8142L39.8539 17.8252H39.865V17.8142H39.8461H39.8472ZM39.8873 18.0091L39.8694 18.0398H39.8661V18.042V18.0507L39.8884 18.0124V18.008L39.8873 18.0091ZM39.5176 17.2984L39.4185 17.2404L39.3829 17.2196L39.4118 17.2437L39.4385 17.2656L39.5198 17.3017L39.5365 17.3083L39.5176 17.2973V17.2984ZM39.0644 17.3937L39.0533 17.4003L39.06 17.4047L39.0711 17.3981L39.0622 17.3937H39.0644ZM39.0644 17.3937L39.0533 17.4003L39.06 17.4047L39.0711 17.3981L39.0622 17.3937H39.0644ZM39.5176 17.2984L39.4185 17.2404L39.3829 17.2196L39.4118 17.2437L39.4385 17.2656L39.5198 17.3017L39.5365 17.3083L39.5176 17.2973V17.2984ZM39.8873 18.0091L39.8694 18.0398H39.8661V18.042V18.0507L39.8884 18.0124V18.008L39.8873 18.0091ZM39.8483 17.8142L39.855 17.8252H39.8661V17.8142H39.8472H39.8483ZM39.0655 17.3937L39.0544 17.4003L39.0611 17.4047L39.0722 17.3981L39.0633 17.3937H39.0655ZM39.5187 17.2984L39.4196 17.2404L39.384 17.2196L39.4129 17.2437L39.4396 17.2656L39.5209 17.3017L39.5376 17.3083L39.5187 17.2973V17.2984ZM39.8884 18.0091L39.8706 18.0398H39.8672V18.042V18.0507L39.8895 18.0124V18.008L39.8884 18.0091ZM39.8494 17.8142L39.8561 17.8252H39.8672V17.8142H39.8483H39.8494ZM39.8494 17.8142L39.8561 17.8252H39.8672V17.8142H39.8483H39.8494ZM39.8895 18.0091L39.8717 18.0398H39.8683V18.042V18.0507L39.8906 18.0124V18.008L39.8895 18.0091ZM39.5198 17.2984L39.4207 17.2404L39.3851 17.2196L39.414 17.2437L39.4408 17.2656L39.522 17.3017L39.5387 17.3083L39.5198 17.2973V17.2984ZM39.0666 17.3937L39.0555 17.4003L39.0622 17.4047L39.0733 17.3981L39.0644 17.3937H39.0666ZM39.0666 17.3937L39.0555 17.4003L39.0622 17.4047L39.0733 17.3981L39.0644 17.3937H39.0666ZM39.5198 17.2984L39.4207 17.2404L39.3851 17.2196L39.414 17.2437L39.4408 17.2656L39.522 17.3017L39.5387 17.3083L39.5198 17.2973V17.2984ZM39.8895 18.0091L39.8717 18.0398H39.8683V18.042V18.0507L39.8906 18.0124V18.008L39.8895 18.0091ZM39.8505 17.8142L39.8572 17.8252H39.8683V17.8142H39.8494H39.8505ZM39.8505 17.8142L39.8572 17.8252H39.8683V17.8142H39.8494H39.8505ZM39.0678 17.3937L39.0566 17.4003L39.0633 17.4047L39.0744 17.3981L39.0655 17.3937H39.0678ZM39.0678 17.3937L39.0566 17.4003L39.0633 17.4047L39.0744 17.3981L39.0655 17.3937H39.0678ZM39.8516 17.8142L39.8583 17.8252H39.8694V17.8142H39.8505H39.8516ZM39.8917 18.0091L39.8739 18.0398H39.8706V18.042V18.0507L39.8928 18.0124V18.008L39.8917 18.0091ZM39.0689 17.3937L39.0577 17.4003L39.0644 17.4047L39.0756 17.3981L39.0666 17.3937H39.0689ZM39.8639 17.8142H39.8527L39.8594 17.8252H39.8706L39.8639 17.8142ZM39.8706 18.042V18.0507V18.0409V18.042ZM39.522 17.2984L39.4229 17.2404L39.3873 17.2196L39.4163 17.2437L39.443 17.2656L39.5243 17.3017L39.541 17.3083L39.522 17.2973V17.2984ZM39.8917 18.0091L39.8739 18.0398H39.8706V18.042V18.0507L39.8928 18.0124V18.008L39.8917 18.0091ZM39.8706 18.042V18.0507V18.0409V18.042ZM39.8706 17.8142V17.8252H39.8594L39.8527 17.8142H39.8717H39.8706ZM39.8917 18.0135L39.8706 18.0518V18.0431H39.8739L39.8917 18.0102V18.0146V18.0135ZM39.0778 17.3992L39.0655 17.4058L39.0588 17.4003L39.07 17.3937L39.0789 17.3981L39.0778 17.3992ZM39.8739 25.9099V26.1793H39.8349V25.9318L39.8739 25.9099ZM7.26417 17.2076L7.25304 17.2141L7.1172 17.2919L7.11163 17.2952L7.10272 17.3083L7.10718 17.3061L7.26083 17.2185L7.27197 17.2119L7.26306 17.2076H7.26417ZM39.8249 25.9427V26.1793H39.8282V25.9416H39.8249V25.9427ZM39.8661 17.4901L39.8271 17.4638V17.4769H39.8238L39.5354 17.3105L39.5332 17.3083L39.5165 17.3017L39.4352 17.2656L39.4085 17.2437L39.3795 17.2196L32.8291 13.4548L32.5051 13.6377L39.0522 17.3992L39.0633 17.3926L39.0722 17.397L39.06 17.4036L39.0533 17.3981L23.3269 26.4344L7.5971 17.397L14.5194 13.4198L14.1876 13.2402L7.27642 17.2108L7.26529 17.2174L7.11163 17.305L7.10718 17.3072L6.86222 17.4485L6.78316 17.4955V17.823H6.80432L6.78316 17.8591V18.0485H6.7865V18.0376L7.10829 18.2227V18.2358L6.7865 18.0507V25.9909L7.11052 26.1771H7.75966V18.5972L23.3291 27.5426L38.8985 18.5972V26.1771H39.8305V25.9405H39.8338V25.9296L39.8728 25.9077V26.1771H39.9118V17.5142L39.8728 17.4879L39.8661 17.4901ZM39.885 18.0124L39.8639 18.0507V18.042H39.8672L39.885 18.0091L39.8639 17.8624L39.8427 17.8263H39.8527L39.8461 17.8153H39.865V17.8263H39.8539L39.8683 17.8514L39.8895 18.0026L39.8861 18.0091V18.0135L39.885 18.0124ZM39.8884 18.0015L39.885 18.008L39.8639 17.8613L39.8427 17.8252H39.8527L39.8672 17.8503L39.8884 18.0015Z" fill="var(--fill-0, white)"/>
</svg>
