<svg preserveAspectRatio="none" width="100%" height="100%" overflow="visible" style="display: block;" viewBox="0 0 54.0034 46.0017" fill="none" xmlns="http://www.w3.org/2000/svg">
<g id="Group">
<path id="Vector" d="M25.0189 20.2437L23.265 23.311L25.0189 26.3765H28.5266L30.2805 23.311L28.5266 20.2437H25.0189Z" fill="var(--fill-0, white)"/>
<path id="Vector_2" d="M46.2557 5.29671C45.8315 4.92966 45.3922 4.58131 44.9394 4.24994C42.3608 2.35013 39.358 1.00598 36.1027 0.389139C34.773 0.132545 33.4012 0.0016993 31.9974 0.0016993H29.2067V3.8812H29.2403V4.04093H24.3069V0H22.0043C20.6022 0 19.227 0.132545 17.8956 0.38744C14.6858 0.997488 11.7234 2.31105 9.17 4.16668C8.59435 4.58471 8.03722 5.03332 7.50365 5.50743C2.9035 9.57555 0 15.552 0 22.2132V23.7834C0 30.516 2.96577 36.5485 7.65177 40.6234C8.19544 41.0958 8.76099 41.541 9.34842 41.9591C9.34842 41.9591 9.34842 41.9591 9.35179 41.9591C11.8648 43.745 14.7615 45.0161 17.899 45.6109C19.2304 45.8675 20.6039 46 22.0077 46H24.3422V42.129H29.2437V46.0017H31.9991C33.4028 46.0017 34.7746 45.8692 36.1044 45.6126C39.2822 45.011 42.2194 43.7144 44.7576 41.8894C45.2222 41.5546 45.6699 41.2029 46.1075 40.8324C50.9332 36.7609 54.0034 30.6349 54.0034 23.7868V22.2166C54.0034 15.4381 50.9955 9.37163 46.2573 5.29841L46.2557 5.29671ZM29.2403 4.04093H31.4167C32.9029 4.04093 34.3471 4.22276 35.729 4.56771C36.8281 4.8396 37.8885 5.21175 38.9001 5.67736L29.2403 15.4296V4.04093ZM18.579 4.53373C19.9222 4.21256 21.3226 4.04093 22.7634 4.04093H24.3069V15.4296L14.8491 5.88127C16.0256 5.30011 17.2745 4.8464 18.579 4.53373ZM24.3086 41.9574H22.7617C21.3697 41.9574 20.0131 41.7976 18.712 41.4986C17.4715 41.2114 16.2815 40.7951 15.1537 40.2632L24.3086 31.0207V41.9574ZM35.6011 41.4663C34.2579 41.7874 32.8575 41.9591 31.4167 41.9591H29.242V31.0224L38.5904 40.4603C37.6344 40.8783 36.6362 41.2182 35.6011 41.4663ZM49.4739 23.7273C49.4739 29.3401 46.9609 34.3615 43.0088 37.704C42.9785 37.7295 42.9465 37.755 42.9162 37.7805L33.9583 28.7368H19.5923L10.9205 37.4916C10.8902 37.4661 10.8599 37.4406 10.8296 37.4134C7.07107 34.0726 4.70114 29.1786 4.70114 23.729V22.2727C4.70114 16.8927 7.00879 12.0565 10.6815 8.7174L19.5906 17.7118H33.9566L43.1586 8.42172C47.0266 11.7642 49.4739 16.7296 49.4739 22.271V23.7273Z" fill="var(--fill-0, white)"/>
</g>
</svg>
