<svg preserveAspectRatio="none" width="100%" height="100%" overflow="visible" style="display: block;" viewBox="0 0 54 54" fill="none" xmlns="http://www.w3.org/2000/svg">
<g id="Group">
<path id="Vector" d="M27 54C41.9117 54 54 41.9117 54 27C54 12.0883 41.9117 0 27 0C12.0883 0 0 12.0883 0 27C0 41.9117 12.0883 54 27 54Z" fill="var(--fill-0, #3E73C4)"/>
<g id="Group_2">
<path id="Vector_2" d="M33.7871 30.5843C33.7871 27 31.6271 25.7715 27.3071 25.2585C24.2224 24.8484 23.6064 24.03 23.6064 22.5956C23.6064 21.1613 24.6358 20.2399 26.6912 20.2399C28.5424 20.2399 29.5717 20.8541 30.0847 22.3914C30.1382 22.5401 30.2359 22.6688 30.3648 22.7602C30.4936 22.8516 30.6473 22.9014 30.8053 22.9027H32.4506C32.5457 22.9053 32.6402 22.8885 32.7286 22.8534C32.8169 22.8183 32.8972 22.7656 32.9646 22.6986C33.032 22.6315 33.085 22.5514 33.1205 22.4633C33.156 22.3751 33.1733 22.2806 33.1712 22.1856V22.0843C32.9701 20.9721 32.4073 19.9574 31.5703 19.1979C30.7333 18.4383 29.6689 17.9765 28.5424 17.8841V15.4271C28.5424 15.0171 28.2336 14.7099 27.7206 14.607H26.1765C25.7664 14.607 25.4576 14.9141 25.3547 15.4271V17.7829C22.2683 18.1913 20.3158 20.2399 20.3158 22.8015C20.3158 26.1799 22.3712 27.5113 26.6912 28.0243C29.5718 28.5356 30.4965 29.1516 30.4965 30.7901C30.4965 32.427 29.0571 33.5543 27.1029 33.5543C24.4283 33.5543 23.5035 32.4287 23.1947 30.8914C23.0934 30.483 22.7829 30.2771 22.4741 30.2771H20.7259C20.631 30.2748 20.5366 30.2918 20.4485 30.327C20.3603 30.3622 20.2802 30.4149 20.213 30.4819C20.1458 30.549 20.0929 30.629 20.0575 30.717C20.0221 30.8051 20.0049 30.8994 20.007 30.9943V31.0956C20.4171 33.6572 22.0641 35.4999 25.4576 36.0129V38.4716C25.4576 38.88 25.7664 39.1888 26.2794 39.2901H27.8235C28.2336 39.2901 28.5424 38.9829 28.6453 38.4716V36.0113C31.7318 35.4999 33.7871 33.3484 33.7871 30.5826V30.5843Z" fill="var(--fill-0, white)"/>
<path id="Vector_3" d="M21.7553 41.3387C13.7329 38.4699 9.61875 29.5599 12.6022 21.6742C14.1446 17.3711 17.5382 14.0957 21.7553 12.5584C22.167 12.3542 22.3712 12.0471 22.3712 11.5341V10.0997C22.3712 9.69131 22.167 9.38419 21.7553 9.28125C21.6523 9.28125 21.4464 9.28125 21.3435 9.3825C19.029 10.1053 16.8803 11.2788 15.0212 12.8354C13.162 14.392 11.6292 16.301 10.5108 18.4525C9.39252 20.604 8.71083 22.9554 8.50501 25.3714C8.2992 27.7874 8.57333 30.2203 9.31163 32.5299C11.1611 38.2674 15.5841 42.6718 21.3435 44.5146C21.7552 44.7187 22.167 44.5146 22.2682 44.1045C22.3712 44.0032 22.3712 43.8986 22.3712 43.6944V42.2601C22.3712 41.9529 22.0641 41.5446 21.7553 41.3387ZM32.6565 9.38419C32.2447 9.17831 31.833 9.38419 31.7318 9.79256C31.6288 9.8955 31.6288 9.99844 31.6288 10.2026V11.637C31.6288 12.0471 31.9359 12.4554 32.2447 12.6613C40.2671 15.5301 44.3812 24.4401 41.3977 32.3258C39.8554 36.6289 36.4618 39.9043 32.2447 41.4416C31.833 41.6458 31.6288 41.9529 31.6288 42.4659V43.9003C31.6288 44.3087 31.833 44.6158 32.2447 44.7188C32.3477 44.7188 32.5536 44.7188 32.6565 44.6175C34.971 43.8947 37.1197 42.7212 38.9788 41.1646C40.838 39.608 42.3708 37.699 43.4892 35.5475C44.6075 33.396 45.2892 31.0446 45.495 28.6286C45.7008 26.2126 45.4267 23.7797 44.6884 21.4701C42.8389 15.6313 38.313 11.2269 32.6565 9.38419Z" fill="var(--fill-0, white)"/>
</g>
</g>
</svg>
