<svg preserveAspectRatio="none" width="100%" height="100%" overflow="visible" style="display: block;" viewBox="0 0 26.1741 26.1646" fill="none" xmlns="http://www.w3.org/2000/svg">
<g id="Group">
<path id="Vector" d="M3.24863 8.99338C3.07226 8.19894 3.09934 7.37282 3.32736 6.59163C3.55538 5.81044 3.97695 5.09946 4.55299 4.52463C5.12903 3.9498 5.84088 3.52972 6.62255 3.30334C7.40421 3.07696 8.23039 3.0516 9.02446 3.22963C9.46153 2.54608 10.0636 1.98355 10.7753 1.5939C11.4869 1.20424 12.2852 1 13.0965 1C13.9079 1 14.7062 1.20424 15.4178 1.5939C16.1295 1.98355 16.7316 2.54608 17.1686 3.22963C17.9639 3.05083 18.7915 3.07607 19.5744 3.303C20.3573 3.52993 21.0701 3.95118 21.6465 4.52757C22.2229 5.10396 22.6442 5.81676 22.8711 6.59968C23.098 7.38259 23.1233 8.21018 22.9445 9.00547C23.628 9.44253 24.1905 10.0446 24.5802 10.7563C24.9699 11.4679 25.1741 12.2662 25.1741 13.0776C25.1741 13.8889 24.9699 14.6872 24.5802 15.3988C24.1905 16.1105 23.628 16.7126 22.9445 17.1496C23.1225 17.9437 23.0971 18.7699 22.8708 19.5516C22.6444 20.3332 22.2243 21.0451 21.6495 21.6211C21.0746 22.1971 20.3637 22.6187 19.5825 22.8467C18.8013 23.0748 17.9752 23.1018 17.1807 22.9255C16.7442 23.6116 16.1416 24.1766 15.4288 24.568C14.7159 24.9594 13.9158 25.1646 13.1026 25.1646C12.2893 25.1646 11.4893 24.9594 10.7764 24.568C10.0635 24.1766 9.46096 23.6116 9.02446 22.9255C8.23039 23.1035 7.40421 23.0781 6.62255 22.8518C5.84088 22.6254 5.12903 22.2053 4.55299 21.6305C3.97695 21.0556 3.55538 20.3447 3.32736 19.5635C3.09934 18.7823 3.07226 17.9562 3.24863 17.1617C2.55983 16.7258 1.99246 16.1228 1.59931 15.4087C1.20616 14.6946 1 13.8927 1 13.0776C1 12.2624 1.20616 11.4605 1.59931 10.7464C1.99246 10.0323 2.55983 9.4293 3.24863 8.99338Z" stroke="var(--stroke-0, #C1E7FE)" stroke-width="2" stroke-linecap="round" stroke-linejoin="round"/>
<path id="Vector_2" d="M9.47155 13.0776L11.8882 15.4942L16.7215 10.6609" stroke="var(--stroke-0, #C1E7FE)" stroke-width="2" stroke-linecap="round" stroke-linejoin="round"/>
</g>
</svg>
