<svg preserveAspectRatio="none" width="100%" height="100%" overflow="visible" style="display: block;" viewBox="0 0 196 184" fill="none" xmlns="http://www.w3.org/2000/svg">
<g id="QR Code">
<g clip-path="url(#clip0_465_708)">
<path id="Vector" d="M196 0.5H0V184.5H196V0.5Z" fill="var(--fill-0, white)"/>
<g id="Vector_2">
<path d="M17.447 12H12.25V16.8788H17.447V12Z" fill="#042254"/>
<path d="M22.6439 12H17.447V16.8788H22.6439V12Z" fill="#042254"/>
<path d="M27.8409 12H22.6439V16.8788H27.8409V12Z" fill="#042254"/>
<path d="M33.0379 12H27.8409V16.8788H33.0379V12Z" fill="#042254"/>
<path d="M38.2349 12H33.0379V16.8788H38.2349V12Z" fill="#042254"/>
<path d="M43.4318 12H38.2349V16.8788H43.4318V12Z" fill="#042254"/>
<path d="M48.6288 12H43.4318V16.8788H48.6288V12Z" fill="#042254"/>
<path d="M64.2197 12H59.0227V16.8788H64.2197V12Z" fill="#042254"/>
<path d="M69.4167 12H64.2197V16.8788H69.4167V12Z" fill="#042254"/>
<path d="M79.8106 12H74.6136V16.8788H79.8106V12Z" fill="#042254"/>
<path d="M85.0076 12H79.8106V16.8788H85.0076V12Z" fill="#042254"/>
<path d="M105.795 12H100.598V16.8788H105.795V12Z" fill="#042254"/>
<path d="M110.992 12H105.795V16.8788H110.992V12Z" fill="#042254"/>
<path d="M121.386 12H116.189V16.8788H121.386V12Z" fill="#042254"/>
<path d="M126.583 12H121.386V16.8788H126.583V12Z" fill="#042254"/>
<path d="M142.174 12H136.977V16.8788H142.174V12Z" fill="#042254"/>
<path d="M152.568 12H147.371V16.8788H152.568V12Z" fill="#042254"/>
<path d="M157.765 12H152.568V16.8788H157.765V12Z" fill="#042254"/>
<path d="M162.962 12H157.765V16.8788H162.962V12Z" fill="#042254"/>
<path d="M168.159 12H162.962V16.8788H168.159V12Z" fill="#042254"/>
<path d="M173.356 12H168.159V16.8788H173.356V12Z" fill="#042254"/>
<path d="M178.553 12H173.356V16.8788H178.553V12Z" fill="#042254"/>
<path d="M183.75 12H178.553V16.8788H183.75V12Z" fill="#042254"/>
<path d="M17.447 16.8788H12.25V21.7576H17.447V16.8788Z" fill="#042254"/>
<path d="M48.6288 16.8788H43.4318V21.7576H48.6288V16.8788Z" fill="#042254"/>
<path d="M59.0227 16.8788H53.8258V21.7576H59.0227V16.8788Z" fill="#042254"/>
<path d="M64.2197 16.8788H59.0227V21.7576H64.2197V16.8788Z" fill="#042254"/>
<path d="M74.6136 16.8788H69.4167V21.7576H74.6136V16.8788Z" fill="#042254"/>
<path d="M79.8106 16.8788H74.6136V21.7576H79.8106V16.8788Z" fill="#042254"/>
<path d="M95.4015 16.8788H90.2045V21.7576H95.4015V16.8788Z" fill="#042254"/>
<path d="M116.189 16.8788H110.992L110.992 21.7576H116.189V16.8788Z" fill="#042254"/>
<path d="M121.386 16.8788H116.189V21.7576H121.386V16.8788Z" fill="#042254"/>
<path d="M126.583 16.8788H121.386V21.7576H126.583V16.8788Z" fill="#042254"/>
<path d="M142.174 16.8788H136.977V21.7576H142.174V16.8788Z" fill="#042254"/>
<path d="M152.568 16.8788H147.371V21.7576H152.568V16.8788Z" fill="#042254"/>
<path d="M183.75 16.8788H178.553V21.7576H183.75V16.8788Z" fill="#042254"/>
<path d="M17.447 21.7576H12.25V26.6364H17.447V21.7576Z" fill="#042254"/>
<path d="M27.8409 21.7576H22.6439V26.6364H27.8409V21.7576Z" fill="#042254"/>
<path d="M33.0379 21.7576H27.8409V26.6364H33.0379V21.7576Z" fill="#042254"/>
<path d="M38.2349 21.7576H33.0379V26.6364H38.2349V21.7576Z" fill="#042254"/>
<path d="M48.6288 21.7576H43.4318V26.6364H48.6288V21.7576Z" fill="#042254"/>
<path d="M64.2197 21.7576H59.0227V26.6364H64.2197V21.7576Z" fill="#042254"/>
<path d="M69.4167 21.7576H64.2197V26.6364H69.4167V21.7576Z" fill="#042254"/>
<path d="M85.0076 21.7576H79.8106V26.6364H85.0076V21.7576Z" fill="#042254"/>
<path d="M90.2045 21.7576H85.0076V26.6364H90.2045V21.7576Z" fill="#042254"/>
<path d="M100.598 21.7576H95.4015V26.6364H100.598V21.7576Z" fill="#042254"/>
<path d="M105.795 21.7576H100.598V26.6364H105.795V21.7576Z" fill="#042254"/>
<path d="M110.992 21.7576H105.795V26.6364H110.992L110.992 21.7576Z" fill="#042254"/>
<path d="M116.189 21.7576H110.992L110.992 26.6364H116.189V21.7576Z" fill="#042254"/>
<path d="M121.386 21.7576H116.189V26.6364H121.386V21.7576Z" fill="#042254"/>
<path d="M131.78 21.7576H126.583V26.6364H131.78V21.7576Z" fill="#042254"/>
<path d="M142.174 21.7576H136.977V26.6364H142.174V21.7576Z" fill="#042254"/>
<path d="M152.568 21.7576H147.371V26.6364H152.568V21.7576Z" fill="#042254"/>
<path d="M162.962 21.7576H157.765V26.6364H162.962V21.7576Z" fill="#042254"/>
<path d="M168.159 21.7576H162.962V26.6364H168.159V21.7576Z" fill="#042254"/>
<path d="M173.356 21.7576H168.159V26.6364H173.356V21.7576Z" fill="#042254"/>
<path d="M183.75 21.7576H178.553V26.6364H183.75V21.7576Z" fill="#042254"/>
<path d="M17.447 26.6364H12.25V31.5152H17.447V26.6364Z" fill="#042254"/>
<path d="M27.8409 26.6364H22.6439V31.5152H27.8409V26.6364Z" fill="#042254"/>
<path d="M33.0379 26.6364H27.8409V31.5152H33.0379V26.6364Z" fill="#042254"/>
<path d="M38.2349 26.6364H33.0379V31.5152H38.2349V26.6364Z" fill="#042254"/>
<path d="M48.6288 26.6364H43.4318V31.5152H48.6288V26.6364Z" fill="#042254"/>
<path d="M64.2197 26.6364H59.0227V31.5152H64.2197V26.6364Z" fill="#042254"/>
<path d="M74.6136 26.6364H69.4167V31.5152H74.6136V26.6364Z" fill="#042254"/>
<path d="M85.0076 26.6364H79.8106V31.5152H85.0076V26.6364Z" fill="#042254"/>
<path d="M90.2045 26.6364H85.0076V31.5152H90.2045V26.6364Z" fill="#042254"/>
<path d="M100.598 26.6364H95.4015V31.5152H100.598V26.6364Z" fill="#042254"/>
<path d="M110.992 26.6364H105.795V31.5152H110.992V26.6364Z" fill="#042254"/>
<path d="M121.386 26.6364H116.189V31.5152H121.386V26.6364Z" fill="#042254"/>
<path d="M142.174 26.6364H136.977V31.5152H142.174V26.6364Z" fill="#042254"/>
<path d="M152.568 26.6364H147.371V31.5152H152.568V26.6364Z" fill="#042254"/>
<path d="M162.962 26.6364H157.765V31.5152H162.962V26.6364Z" fill="#042254"/>
<path d="M168.159 26.6364H162.962V31.5152H168.159V26.6364Z" fill="#042254"/>
<path d="M173.356 26.6364H168.159V31.5152H173.356V26.6364Z" fill="#042254"/>
<path d="M183.75 26.6364H178.553V31.5152H183.75V26.6364Z" fill="#042254"/>
<path d="M17.447 31.5152H12.25V36.3939H17.447V31.5152Z" fill="#042254"/>
<path d="M27.8409 31.5152H22.6439V36.3939H27.8409V31.5152Z" fill="#042254"/>
<path d="M33.0379 31.5152H27.8409V36.3939H33.0379V31.5152Z" fill="#042254"/>
<path d="M38.2349 31.5152H33.0379V36.3939H38.2349V31.5152Z" fill="#042254"/>
<path d="M48.6288 31.5152H43.4318V36.3939H48.6288V31.5152Z" fill="#042254"/>
<path d="M59.0227 31.5152H53.8258V36.3939H59.0227V31.5152Z" fill="#042254"/>
<path d="M69.4167 31.5152H64.2197V36.3939H69.4167V31.5152Z" fill="#042254"/>
<path d="M105.795 31.5152H100.598V36.3939H105.795V31.5152Z" fill="#042254"/>
<path d="M116.189 31.5152H110.992L110.992 36.3939H116.189V31.5152Z" fill="#042254"/>
<path d="M121.386 31.5152H116.189V36.3939H121.386V31.5152Z" fill="#042254"/>
<path d="M126.583 31.5152H121.386V36.3939H126.583V31.5152Z" fill="#042254"/>
<path d="M131.78 31.5152H126.583V36.3939H131.78V31.5152Z" fill="#042254"/>
<path d="M136.977 31.5152H131.78V36.3939H136.977V31.5152Z" fill="#042254"/>
<path d="M142.174 31.5152H136.977V36.3939H142.174V31.5152Z" fill="#042254"/>
<path d="M152.568 31.5152H147.371V36.3939H152.568V31.5152Z" fill="#042254"/>
<path d="M162.962 31.5152H157.765V36.3939H162.962V31.5152Z" fill="#042254"/>
<path d="M168.159 31.5152H162.962V36.3939H168.159V31.5152Z" fill="#042254"/>
<path d="M173.356 31.5152H168.159V36.3939H173.356V31.5152Z" fill="#042254"/>
<path d="M183.75 31.5152H178.553V36.3939H183.75V31.5152Z" fill="#042254"/>
<path d="M17.447 36.3939H12.25V41.2727H17.447V36.3939Z" fill="#042254"/>
<path d="M48.6288 36.3939H43.4318V41.2727H48.6288V36.3939Z" fill="#042254"/>
<path d="M69.4167 36.3939H64.2197V41.2727H69.4167V36.3939Z" fill="#042254"/>
<path d="M74.6136 36.3939H69.4167V41.2727H74.6136V36.3939Z" fill="#042254"/>
<path d="M79.8106 36.3939H74.6136V41.2727H79.8106V36.3939Z" fill="#042254"/>
<path d="M85.0076 36.3939H79.8106V41.2727H85.0076V36.3939Z" fill="#042254"/>
<path d="M90.2045 36.3939H85.0076V41.2727H90.2045V36.3939Z" fill="#042254"/>
<path d="M110.992 36.3939H105.795V41.2727H110.992L110.992 36.3939Z" fill="#042254"/>
<path d="M116.189 36.3939H110.992L110.992 41.2727H116.189V36.3939Z" fill="#042254"/>
<path d="M121.386 36.3939H116.189V41.2727H121.386V36.3939Z" fill="#042254"/>
<path d="M126.583 36.3939H121.386V41.2727H126.583V36.3939Z" fill="#042254"/>
<path d="M131.78 36.3939H126.583V41.2727H131.78V36.3939Z" fill="#042254"/>
<path d="M136.977 36.3939H131.78V41.2727H136.977V36.3939Z" fill="#042254"/>
<path d="M152.568 36.3939H147.371V41.2727H152.568V36.3939Z" fill="#042254"/>
<path d="M183.75 36.3939H178.553V41.2727H183.75V36.3939Z" fill="#042254"/>
<path d="M17.447 41.2727H12.25V46.1515H17.447V41.2727Z" fill="#042254"/>
<path d="M22.6439 41.2727H17.447V46.1515H22.6439V41.2727Z" fill="#042254"/>
<path d="M27.8409 41.2727H22.6439V46.1515H27.8409V41.2727Z" fill="#042254"/>
<path d="M33.0379 41.2727H27.8409V46.1515H33.0379V41.2727Z" fill="#042254"/>
<path d="M38.2349 41.2727H33.0379V46.1515H38.2349V41.2727Z" fill="#042254"/>
<path d="M43.4318 41.2727H38.2349V46.1515H43.4318V41.2727Z" fill="#042254"/>
<path d="M48.6288 41.2727H43.4318V46.1515H48.6288V41.2727Z" fill="#042254"/>
<path d="M59.0227 41.2727H53.8258V46.1515H59.0227V41.2727Z" fill="#042254"/>
<path d="M69.4167 41.2727H64.2197V46.1515H69.4167V41.2727Z" fill="#042254"/>
<path d="M79.8106 41.2727H74.6136V46.1515H79.8106V41.2727Z" fill="#042254"/>
<path d="M90.2045 41.2727H85.0076V46.1515H90.2045V41.2727Z" fill="#042254"/>
<path d="M100.598 41.2727H95.4015V46.1515H100.598V41.2727Z" fill="#042254"/>
<path d="M110.992 41.2727H105.795V46.1515H110.992V41.2727Z" fill="#042254"/>
<path d="M121.386 41.2727H116.189V46.1515H121.386V41.2727Z" fill="#042254"/>
<path d="M131.78 41.2727H126.583V46.1515H131.78V41.2727Z" fill="#042254"/>
<path d="M142.174 41.2727H136.977V46.1515H142.174V41.2727Z" fill="#042254"/>
<path d="M152.568 41.2727H147.371V46.1515H152.568V41.2727Z" fill="#042254"/>
<path d="M157.765 41.2727H152.568V46.1515H157.765V41.2727Z" fill="#042254"/>
<path d="M162.962 41.2727H157.765V46.1515H162.962V41.2727Z" fill="#042254"/>
<path d="M168.159 41.2727H162.962V46.1515H168.159V41.2727Z" fill="#042254"/>
<path d="M173.356 41.2727H168.159V46.1515H173.356V41.2727Z" fill="#042254"/>
<path d="M178.553 41.2727H173.356V46.1515H178.553V41.2727Z" fill="#042254"/>
<path d="M183.75 41.2727H178.553V46.1515H183.75V41.2727Z" fill="#042254"/>
<path d="M100.598 46.1515H95.4015V51.0303H100.598V46.1515Z" fill="#042254"/>
<path d="M105.795 46.1515H100.598V51.0303H105.795V46.1515Z" fill="#042254"/>
<path d="M110.992 46.1515H105.795V51.0303H110.992V46.1515Z" fill="#042254"/>
<path d="M116.189 46.1515H110.992V51.0303H116.189V46.1515Z" fill="#042254"/>
<path d="M131.78 46.1515H126.583V51.0303H131.78V46.1515Z" fill="#042254"/>
<path d="M136.977 46.1515H131.78V51.0303H136.977V46.1515Z" fill="#042254"/>
<path d="M142.174 46.1515H136.977V51.0303H142.174V46.1515Z" fill="#042254"/>
<path d="M27.8409 51.0303H22.6439V55.9091H27.8409V51.0303Z" fill="#042254"/>
<path d="M38.2349 51.0303H33.0379V55.9091H38.2349V51.0303Z" fill="#042254"/>
<path d="M43.4318 51.0303H38.2349V55.9091H43.4318V51.0303Z" fill="#042254"/>
<path d="M48.6288 51.0303H43.4318V55.9091H48.6288V51.0303Z" fill="#042254"/>
<path d="M59.0227 51.0303H53.8258V55.9091H59.0227V51.0303Z" fill="#042254"/>
<path d="M74.6136 51.0303H69.4167V55.9091H74.6136V51.0303Z" fill="#042254"/>
<path d="M85.0076 51.0303H79.8106V55.9091H85.0076V51.0303Z" fill="#042254"/>
<path d="M90.2045 51.0303H85.0076V55.9091H90.2045V51.0303Z" fill="#042254"/>
<path d="M95.4015 51.0303H90.2045V55.9091H95.4015V51.0303Z" fill="#042254"/>
<path d="M100.598 51.0303H95.4015V55.9091H100.598V51.0303Z" fill="#042254"/>
<path d="M105.795 51.0303H100.598V55.9091H105.795V51.0303Z" fill="#042254"/>
<path d="M110.992 51.0303H105.795V55.9091H110.992V51.0303Z" fill="#042254"/>
<path d="M116.189 51.0303H110.992V55.9091H116.189V51.0303Z" fill="#042254"/>
<path d="M147.371 51.0303H142.174V55.9091H147.371V51.0303Z" fill="#042254"/>
<path d="M162.962 51.0303H157.765V55.9091H162.962V51.0303Z" fill="#042254"/>
<path d="M178.553 51.0303H173.356V55.9091H178.553V51.0303Z" fill="#042254"/>
<path d="M22.6439 55.9091H17.447V60.7879H22.6439V55.9091Z" fill="#042254"/>
<path d="M27.8409 55.9091H22.6439V60.7879H27.8409V55.9091Z" fill="#042254"/>
<path d="M33.0379 55.9091H27.8409V60.7879H33.0379V55.9091Z" fill="#042254"/>
<path d="M38.2349 55.9091H33.0379V60.7879H38.2349V55.9091Z" fill="#042254"/>
<path d="M43.4318 55.9091H38.2349V60.7879H43.4318V55.9091Z" fill="#042254"/>
<path d="M59.0227 55.9091H53.8258V60.7879H59.0227V55.9091Z" fill="#042254"/>
<path d="M69.4167 55.9091H64.2197V60.7879H69.4167V55.9091Z" fill="#042254"/>
<path d="M90.2045 55.9091H85.0076V60.7879H90.2045V55.9091Z" fill="#042254"/>
<path d="M157.765 55.9091H152.568V60.7879H157.765V55.9091Z" fill="#042254"/>
<path d="M173.356 55.9091H168.159V60.7879H173.356V55.9091Z" fill="#042254"/>
<path d="M183.75 55.9091H178.553V60.7879H183.75V55.9091Z" fill="#042254"/>
<path d="M22.6439 60.7879H17.447V65.6667H22.6439V60.7879Z" fill="#042254"/>
<path d="M33.0379 60.7879H27.8409V65.6667H33.0379V60.7879Z" fill="#042254"/>
<path d="M38.2349 60.7879H33.0379V65.6667H38.2349V60.7879Z" fill="#042254"/>
<path d="M43.4318 60.7879H38.2349V65.6667H43.4318V60.7879Z" fill="#042254"/>
<path d="M48.6288 60.7879H43.4318V65.6667H48.6288V60.7879Z" fill="#042254"/>
<path d="M53.8258 60.7879H48.6288V65.6667H53.8258V60.7879Z" fill="#042254"/>
<path d="M59.0227 60.7879H53.8258V65.6667H59.0227V60.7879Z" fill="#042254"/>
<path d="M64.2197 60.7879H59.0227V65.6667H64.2197V60.7879Z" fill="#042254"/>
<path d="M79.8106 60.7879H74.6136V65.6667H79.8106V60.7879Z" fill="#042254"/>
<path d="M85.0076 60.7879H79.8106V65.6667H85.0076V60.7879Z" fill="#042254"/>
<path d="M90.2045 60.7879H85.0076V65.6667H90.2045V60.7879Z" fill="#042254"/>
<path d="M95.4015 60.7879H90.2045V65.6667H95.4015V60.7879Z" fill="#042254"/>
<path d="M121.386 60.7879H116.189V65.6667H121.386V60.7879Z" fill="#042254"/>
<path d="M131.78 60.7879H126.583V65.6667H131.78V60.7879Z" fill="#042254"/>
<path d="M142.174 60.7879H136.977V65.6667H142.174V60.7879Z" fill="#042254"/>
<path d="M147.371 60.7879H142.174V65.6667H147.371V60.7879Z" fill="#042254"/>
<path d="M168.159 60.7879H162.962V65.6667H168.159V60.7879Z" fill="#042254"/>
<path d="M173.356 60.7879H168.159V65.6667H173.356V60.7879Z" fill="#042254"/>
<path d="M183.75 60.7879H178.553V65.6667H183.75V60.7879Z" fill="#042254"/>
<path d="M17.447 65.6667H12.25V70.5455H17.447V65.6667Z" fill="#042254"/>
<path d="M22.6439 65.6667H17.447V70.5455H22.6439V65.6667Z" fill="#042254"/>
<path d="M33.0379 65.6667H27.8409V70.5455H33.0379V65.6667Z" fill="#042254"/>
<path d="M38.2349 65.6667H33.0379V70.5455H38.2349V65.6667Z" fill="#042254"/>
<path d="M53.8258 65.6667H48.6288V70.5455H53.8258V65.6667Z" fill="#042254"/>
<path d="M69.4167 65.6667H64.2197V70.5455H69.4167V65.6667Z" fill="#042254"/>
<path d="M74.6136 65.6667H69.4167V70.5455H74.6136V65.6667Z" fill="#042254"/>
<path d="M79.8106 65.6667H74.6136V70.5455H79.8106V65.6667Z" fill="#042254"/>
<path d="M95.4015 65.6667H90.2045V70.5455H95.4015V65.6667Z" fill="#042254"/>
<path d="M105.795 65.6667H100.598V70.5455H105.795V65.6667Z" fill="#042254"/>
<path d="M110.992 65.6667H105.795V70.5455H110.992V65.6667Z" fill="#042254"/>
<path d="M116.189 65.6667H110.992V70.5455H116.189V65.6667Z" fill="#042254"/>
<path d="M121.386 65.6667H116.189V70.5455H121.386V65.6667Z" fill="#042254"/>
<path d="M126.583 65.6667H121.386V70.5455H126.583V65.6667Z" fill="#042254"/>
<path d="M142.174 65.6667H136.977V70.5455H142.174V65.6667Z" fill="#042254"/>
<path d="M157.765 65.6667H152.568V70.5455H157.765V65.6667Z" fill="#042254"/>
<path d="M162.962 65.6667H157.765V70.5455H162.962V65.6667Z" fill="#042254"/>
<path d="M17.447 70.5455H12.25V75.4242H17.447V70.5455Z" fill="#042254"/>
<path d="M22.6439 70.5455H17.447V75.4242H22.6439V70.5455Z" fill="#042254"/>
<path d="M27.8409 70.5455H22.6439V75.4242H27.8409V70.5455Z" fill="#042254"/>
<path d="M33.0379 70.5455H27.8409V75.4242H33.0379V70.5455Z" fill="#042254"/>
<path d="M38.2349 70.5455H33.0379V75.4242H38.2349V70.5455Z" fill="#042254"/>
<path d="M43.4318 70.5455H38.2349V75.4242H43.4318V70.5455Z" fill="#042254"/>
<path d="M48.6288 70.5455H43.4318V75.4242H48.6288V70.5455Z" fill="#042254"/>
<path d="M53.8258 70.5455H48.6288V75.4242H53.8258V70.5455Z" fill="#042254"/>
<path d="M79.8106 70.5455H74.6136V75.4242H79.8106V70.5455Z" fill="#042254"/>
<path d="M95.4015 70.5455H90.2045V75.4242H95.4015V70.5455Z" fill="#042254"/>
<path d="M100.598 70.5455H95.4015V75.4242H100.598V70.5455Z" fill="#042254"/>
<path d="M105.795 70.5455H100.598V75.4242H105.795V70.5455Z" fill="#042254"/>
<path d="M110.992 70.5455H105.795V75.4242H110.992V70.5455Z" fill="#042254"/>
<path d="M131.78 70.5455H126.583V75.4242H131.78V70.5455Z" fill="#042254"/>
<path d="M136.977 70.5455H131.78V75.4242H136.977V70.5455Z" fill="#042254"/>
<path d="M147.371 70.5455H142.174V75.4242H147.371V70.5455Z" fill="#042254"/>
<path d="M152.568 70.5455H147.371V75.4242H152.568V70.5455Z" fill="#042254"/>
<path d="M173.356 70.5455H168.159V75.4242H173.356V70.5455Z" fill="#042254"/>
<path d="M183.75 70.5455H178.553V75.4242H183.75V70.5455Z" fill="#042254"/>
<path d="M22.6439 75.4242H17.447V80.303H22.6439V75.4242Z" fill="#042254"/>
<path d="M27.8409 75.4242H22.6439V80.303H27.8409V75.4242Z" fill="#042254"/>
<path d="M33.0379 75.4242H27.8409V80.303H33.0379V75.4242Z" fill="#042254"/>
<path d="M38.2349 75.4242H33.0379V80.303H38.2349V75.4242Z" fill="#042254"/>
<path d="M64.2197 75.4242H59.0227V80.303H64.2197V75.4242Z" fill="#042254"/>
<path d="M69.4167 75.4242H64.2197V80.303H69.4167V75.4242Z" fill="#042254"/>
<path d="M74.6136 75.4242H69.4167V80.303H74.6136V75.4242Z" fill="#042254"/>
<path d="M85.0076 75.4242H79.8106V80.303H85.0076V75.4242Z" fill="#042254"/>
<path d="M95.4015 75.4242H90.2045V80.303H95.4015V75.4242Z" fill="#042254"/>
<path d="M121.386 75.4242H116.189V80.303H121.386V75.4242Z" fill="#042254"/>
<path d="M126.583 75.4242H121.386V80.303H126.583V75.4242Z" fill="#042254"/>
<path d="M136.977 75.4242H131.78V80.303H136.977V75.4242Z" fill="#042254"/>
<path d="M152.568 75.4242H147.371V80.303H152.568V75.4242Z" fill="#042254"/>
<path d="M168.159 75.4242H162.962V80.303H168.159V75.4242Z" fill="#042254"/>
<path d="M173.356 75.4242H168.159V80.303H173.356V75.4242Z" fill="#042254"/>
<path d="M178.553 75.4242H173.356V80.303H178.553V75.4242Z" fill="#042254"/>
<path d="M183.75 75.4242H178.553V80.303H183.75V75.4242Z" fill="#042254"/>
<path d="M17.447 80.303H12.25V85.1818H17.447V80.303Z" fill="#042254"/>
<path d="M22.6439 80.303H17.447V85.1818H22.6439V80.303Z" fill="#042254"/>
<path d="M33.0379 80.303H27.8409V85.1818H33.0379V80.303Z" fill="#042254"/>
<path d="M48.6288 80.303H43.4318V85.1818H48.6288V80.303Z" fill="#042254"/>
<path d="M85.0076 80.303H79.8106V85.1818H85.0076V80.303Z" fill="#042254"/>
<path d="M100.598 80.303H95.4015V85.1818H100.598V80.303Z" fill="#042254"/>
<path d="M105.795 80.303H100.598V85.1818H105.795V80.303Z" fill="#042254"/>
<path d="M110.992 80.303H105.795V85.1818H110.992V80.303Z" fill="#042254"/>
<path d="M157.765 80.303H152.568V85.1818H157.765V80.303Z" fill="#042254"/>
<path d="M162.962 80.303H157.765V85.1818H162.962V80.303Z" fill="#042254"/>
<path d="M178.553 80.303H173.356V85.1818H178.553V80.303Z" fill="#042254"/>
<path d="M22.6439 85.1818H17.447V90.0606H22.6439V85.1818Z" fill="#042254"/>
<path d="M27.8409 85.1818H22.6439V90.0606H27.8409V85.1818Z" fill="#042254"/>
<path d="M33.0379 85.1818H27.8409V90.0606H33.0379V85.1818Z" fill="#042254"/>
<path d="M38.2349 85.1818H33.0379V90.0606H38.2349V85.1818Z" fill="#042254"/>
<path d="M43.4318 85.1818H38.2349V90.0606H43.4318V85.1818Z" fill="#042254"/>
<path d="M59.0227 85.1818H53.8258V90.0606H59.0227V85.1818Z" fill="#042254"/>
<path d="M74.6136 85.1818H69.4167V90.0606H74.6136V85.1818Z" fill="#042254"/>
<path d="M79.8106 85.1818H74.6136V90.0606H79.8106V85.1818Z" fill="#042254"/>
<path d="M85.0076 85.1818H79.8106V90.0606H85.0076V85.1818Z" fill="#042254"/>
<path d="M90.2045 85.1818H85.0076V90.0606H90.2045V85.1818Z" fill="#042254"/>
<path d="M95.4015 85.1818H90.2045V90.0606H95.4015V85.1818Z" fill="#042254"/>
<path d="M105.795 85.1818H100.598V90.0606H105.795V85.1818Z" fill="#042254"/>
<path d="M110.992 85.1818H105.795V90.0606H110.992V85.1818Z" fill="#042254"/>
<path d="M126.583 85.1818H121.386V90.0606H126.583V85.1818Z" fill="#042254"/>
<path d="M131.78 85.1818H126.583V90.0606H131.78V85.1818Z" fill="#042254"/>
<path d="M136.977 85.1818H131.78V90.0606H136.977V85.1818Z" fill="#042254"/>
<path d="M142.174 85.1818H136.977V90.0606H142.174V85.1818Z" fill="#042254"/>
<path d="M157.765 85.1818H152.568V90.0606H157.765V85.1818Z" fill="#042254"/>
<path d="M162.962 85.1818H157.765V90.0606H162.962V85.1818Z" fill="#042254"/>
<path d="M168.159 85.1818H162.962V90.0606H168.159V85.1818Z" fill="#042254"/>
<path d="M173.356 85.1818H168.159V90.0606H173.356V85.1818Z" fill="#042254"/>
<path d="M178.553 85.1818H173.356V90.0606H178.553V85.1818Z" fill="#042254"/>
<path d="M17.447 90.0606H12.25V94.9394H17.447V90.0606Z" fill="#042254"/>
<path d="M33.0379 90.0606H27.8409V94.9394H33.0379V90.0606Z" fill="#042254"/>
<path d="M38.2349 90.0606H33.0379V94.9394H38.2349V90.0606Z" fill="#042254"/>
<path d="M43.4318 90.0606H38.2349V94.9394H43.4318V90.0606Z" fill="#042254"/>
<path d="M48.6288 90.0606H43.4318V94.9394H48.6288V90.0606Z" fill="#042254"/>
<path d="M59.0227 90.0606H53.8258V94.9394H59.0227V90.0606Z" fill="#042254"/>
<path d="M74.6136 90.0606H69.4167V94.9394H74.6136V90.0606Z" fill="#042254"/>
<path d="M85.0076 90.0606H79.8106V94.9394H85.0076V90.0606Z" fill="#042254"/>
<path d="M100.598 90.0606H95.4015V94.9394H100.598V90.0606Z" fill="#042254"/>
<path d="M110.992 90.0606H105.795V94.9394H110.992V90.0606Z" fill="#042254"/>
<path d="M116.189 90.0606H110.992V94.9394H116.189V90.0606Z" fill="#042254"/>
<path d="M142.174 90.0606H136.977V94.9394H142.174V90.0606Z" fill="#042254"/>
<path d="M152.568 90.0606H147.371V94.9394H152.568V90.0606Z" fill="#042254"/>
<path d="M168.159 90.0606H162.962V94.9394H168.159V90.0606Z" fill="#042254"/>
<path d="M173.356 90.0606H168.159V94.9394H173.356V90.0606Z" fill="#042254"/>
<path d="M178.553 90.0606H173.356V94.9394H178.553V90.0606Z" fill="#042254"/>
<path d="M183.75 90.0606H178.553V94.9394H183.75V90.0606Z" fill="#042254"/>
<path d="M17.447 94.9394H12.25V99.8182H17.447V94.9394Z" fill="#042254"/>
<path d="M22.6439 94.9394H17.447V99.8182H22.6439V94.9394Z" fill="#042254"/>
<path d="M33.0379 94.9394H27.8409V99.8182H33.0379V94.9394Z" fill="#042254"/>
<path d="M38.2349 94.9394H33.0379V99.8182H38.2349V94.9394Z" fill="#042254"/>
<path d="M53.8258 94.9394H48.6288V99.8182H53.8258V94.9394Z" fill="#042254"/>
<path d="M59.0227 94.9394H53.8258V99.8182H59.0227V94.9394Z" fill="#042254"/>
<path d="M69.4167 94.9394H64.2197V99.8182H69.4167V94.9394Z" fill="#042254"/>
<path d="M74.6136 94.9394H69.4167V99.8182H74.6136V94.9394Z" fill="#042254"/>
<path d="M95.4015 94.9394H90.2045V99.8182H95.4015V94.9394Z" fill="#042254"/>
<path d="M100.598 94.9394H95.4015V99.8182H100.598V94.9394Z" fill="#042254"/>
<path d="M121.386 94.9394H116.189V99.8182H121.386V94.9394Z" fill="#042254"/>
<path d="M126.583 94.9394H121.386V99.8182H126.583V94.9394Z" fill="#042254"/>
<path d="M131.78 94.9394H126.583V99.8182H131.78V94.9394Z" fill="#042254"/>
<path d="M142.174 94.9394H136.977V99.8182H142.174V94.9394Z" fill="#042254"/>
<path d="M152.568 94.9394H147.371V99.8182H152.568V94.9394Z" fill="#042254"/>
<path d="M162.962 94.9394H157.765V99.8182H162.962V94.9394Z" fill="#042254"/>
<path d="M173.356 94.9394H168.159V99.8182H173.356V94.9394Z" fill="#042254"/>
<path d="M183.75 94.9394H178.553V99.8182H183.75V94.9394Z" fill="#042254"/>
<path d="M17.447 99.8182H12.25V104.697H17.447V99.8182Z" fill="#042254"/>
<path d="M33.0379 99.8182H27.8409V104.697H33.0379V99.8182Z" fill="#042254"/>
<path d="M38.2349 99.8182H33.0379V104.697H38.2349V99.8182Z" fill="#042254"/>
<path d="M48.6288 99.8182H43.4318V104.697H48.6288V99.8182Z" fill="#042254"/>
<path d="M53.8258 99.8182H48.6288V104.697H53.8258V99.8182Z" fill="#042254"/>
<path d="M74.6136 99.8182H69.4167V104.697H74.6136V99.8182Z" fill="#042254"/>
<path d="M79.8106 99.8182H74.6136V104.697H79.8106V99.8182Z" fill="#042254"/>
<path d="M95.4015 99.8182H90.2045V104.697H95.4015V99.8182Z" fill="#042254"/>
<path d="M100.598 99.8182H95.4015V104.697H100.598V99.8182Z" fill="#042254"/>
<path d="M110.992 99.8182H105.795V104.697H110.992V99.8182Z" fill="#042254"/>
<path d="M116.189 99.8182H110.992V104.697H116.189V99.8182Z" fill="#042254"/>
<path d="M121.386 99.8182H116.189V104.697H121.386V99.8182Z" fill="#042254"/>
<path d="M131.78 99.8182H126.583V104.697H131.78V99.8182Z" fill="#042254"/>
<path d="M136.977 99.8182H131.78V104.697H136.977V99.8182Z" fill="#042254"/>
<path d="M142.174 99.8182H136.977V104.697H142.174V99.8182Z" fill="#042254"/>
<path d="M147.371 99.8182H142.174V104.697H147.371V99.8182Z" fill="#042254"/>
<path d="M152.568 99.8182H147.371V104.697H152.568V99.8182Z" fill="#042254"/>
<path d="M162.962 99.8182H157.765V104.697H162.962V99.8182Z" fill="#042254"/>
<path d="M168.159 99.8182H162.962V104.697H168.159V99.8182Z" fill="#042254"/>
<path d="M22.6439 104.697L17.447 104.697V109.576H22.6439V104.697Z" fill="#042254"/>
<path d="M33.0379 104.697H27.8409V109.576H33.0379V104.697Z" fill="#042254"/>
<path d="M38.2349 104.697H33.0379V109.576H38.2349V104.697Z" fill="#042254"/>
<path d="M43.4318 104.697H38.2349V109.576H43.4318V104.697Z" fill="#042254"/>
<path d="M59.0227 104.697L53.8258 104.697V109.576H59.0227V104.697Z" fill="#042254"/>
<path d="M79.8106 104.697H74.6136V109.576H79.8106V104.697Z" fill="#042254"/>
<path d="M85.0076 104.697L79.8106 104.697V109.576H85.0076V104.697Z" fill="#042254"/>
<path d="M90.2045 104.697L85.0076 104.697V109.576H90.2045V104.697Z" fill="#042254"/>
<path d="M95.4015 104.697H90.2045V109.576H95.4015V104.697Z" fill="#042254"/>
<path d="M105.795 104.697H100.598V109.576H105.795V104.697Z" fill="#042254"/>
<path d="M116.189 104.697H110.992L110.992 109.576H116.189V104.697Z" fill="#042254"/>
<path d="M126.583 104.697H121.386V109.576H126.583V104.697Z" fill="#042254"/>
<path d="M142.174 104.697H136.977V109.576H142.174V104.697Z" fill="#042254"/>
<path d="M147.371 104.697H142.174V109.576H147.371V104.697Z" fill="#042254"/>
<path d="M168.159 104.697H162.962V109.576H168.159V104.697Z" fill="#042254"/>
<path d="M173.356 104.697L168.159 104.697V109.576H173.356V104.697Z" fill="#042254"/>
<path d="M178.553 104.697H173.356V109.576H178.553V104.697Z" fill="#042254"/>
<path d="M22.6439 109.576H17.447V114.455H22.6439V109.576Z" fill="#042254"/>
<path d="M33.0379 109.576H27.8409V114.455H33.0379V109.576Z" fill="#042254"/>
<path d="M38.2349 109.576H33.0379V114.455H38.2349V109.576Z" fill="#042254"/>
<path d="M48.6288 109.576H43.4318V114.455H48.6288V109.576Z" fill="#042254"/>
<path d="M59.0227 109.576H53.8258V114.455H59.0227V109.576Z" fill="#042254"/>
<path d="M79.8106 109.576H74.6136V114.455H79.8106V109.576Z" fill="#042254"/>
<path d="M95.4015 109.576H90.2045V114.455H95.4015V109.576Z" fill="#042254"/>
<path d="M126.583 109.576H121.386V114.455H126.583V109.576Z" fill="#042254"/>
<path d="M131.78 109.576H126.583V114.455H131.78V109.576Z" fill="#042254"/>
<path d="M142.174 109.576H136.977V114.455H142.174V109.576Z" fill="#042254"/>
<path d="M152.568 109.576H147.371V114.455H152.568V109.576Z" fill="#042254"/>
<path d="M162.962 109.576H157.765V114.455H162.962V109.576Z" fill="#042254"/>
<path d="M178.553 109.576H173.356V114.455H178.553V109.576Z" fill="#042254"/>
<path d="M17.447 114.455H12.25V119.333H17.447V114.455Z" fill="#042254"/>
<path d="M22.6439 114.455H17.447V119.333H22.6439V114.455Z" fill="#042254"/>
<path d="M33.0379 114.455H27.8409V119.333H33.0379V114.455Z" fill="#042254"/>
<path d="M43.4318 114.455H38.2349V119.333H43.4318V114.455Z" fill="#042254"/>
<path d="M53.8258 114.455H48.6288V119.333H53.8258V114.455Z" fill="#042254"/>
<path d="M59.0227 114.455H53.8258V119.333H59.0227V114.455Z" fill="#042254"/>
<path d="M69.4167 114.455H64.2197V119.333H69.4167V114.455Z" fill="#042254"/>
<path d="M74.6136 114.455H69.4167V119.333H74.6136V114.455Z" fill="#042254"/>
<path d="M85.0076 114.455H79.8106V119.333H85.0076V114.455Z" fill="#042254"/>
<path d="M90.2045 114.455H85.0076V119.333H90.2045V114.455Z" fill="#042254"/>
<path d="M95.4015 114.455H90.2045V119.333H95.4015V114.455Z" fill="#042254"/>
<path d="M105.795 114.455H100.598V119.333H105.795V114.455Z" fill="#042254"/>
<path d="M131.78 114.455H126.583V119.333H131.78V114.455Z" fill="#042254"/>
<path d="M136.977 114.455H131.78V119.333H136.977V114.455Z" fill="#042254"/>
<path d="M152.568 114.455H147.371V119.333H152.568V114.455Z" fill="#042254"/>
<path d="M157.765 114.455H152.568V119.333H157.765V114.455Z" fill="#042254"/>
<path d="M178.553 114.455H173.356V119.333H178.553V114.455Z" fill="#042254"/>
<path d="M183.75 114.455H178.553V119.333H183.75V114.455Z" fill="#042254"/>
<path d="M22.6439 119.333H17.447V124.212H22.6439V119.333Z" fill="#042254"/>
<path d="M27.8409 119.333H22.6439V124.212H27.8409V119.333Z" fill="#042254"/>
<path d="M48.6288 119.333H43.4318V124.212H48.6288V119.333Z" fill="#042254"/>
<path d="M64.2197 119.333H59.0227V124.212H64.2197V119.333Z" fill="#042254"/>
<path d="M69.4167 119.333H64.2197V124.212H69.4167V119.333Z" fill="#042254"/>
<path d="M85.0076 119.333H79.8106V124.212H85.0076V119.333Z" fill="#042254"/>
<path d="M90.2045 119.333H85.0076V124.212H90.2045V119.333Z" fill="#042254"/>
<path d="M100.598 119.333H95.4015V124.212H100.598V119.333Z" fill="#042254"/>
<path d="M105.795 119.333H100.598V124.212H105.795V119.333Z" fill="#042254"/>
<path d="M116.189 119.333H110.992V124.212H116.189V119.333Z" fill="#042254"/>
<path d="M121.386 119.333H116.189V124.212H121.386V119.333Z" fill="#042254"/>
<path d="M142.174 119.333H136.977V124.212H142.174V119.333Z" fill="#042254"/>
<path d="M152.568 119.333H147.371V124.212H152.568V119.333Z" fill="#042254"/>
<path d="M168.159 119.333H162.962V124.212H168.159V119.333Z" fill="#042254"/>
<path d="M178.553 119.333H173.356V124.212H178.553V119.333Z" fill="#042254"/>
<path d="M33.0379 124.212H27.8409V129.091H33.0379V124.212Z" fill="#042254"/>
<path d="M53.8258 124.212H48.6288V129.091H53.8258V124.212Z" fill="#042254"/>
<path d="M64.2197 124.212H59.0227V129.091H64.2197V124.212Z" fill="#042254"/>
<path d="M69.4167 124.212H64.2197V129.091H69.4167V124.212Z" fill="#042254"/>
<path d="M74.6136 124.212H69.4167V129.091H74.6136V124.212Z" fill="#042254"/>
<path d="M100.598 124.212H95.4015V129.091H100.598V124.212Z" fill="#042254"/>
<path d="M110.992 124.212H105.795V129.091H110.992L110.992 124.212Z" fill="#042254"/>
<path d="M116.189 124.212H110.992L110.992 129.091H116.189V124.212Z" fill="#042254"/>
<path d="M121.386 124.212H116.189V129.091H121.386V124.212Z" fill="#042254"/>
<path d="M131.78 124.212H126.583V129.091H131.78V124.212Z" fill="#042254"/>
<path d="M136.977 124.212H131.78V129.091H136.977V124.212Z" fill="#042254"/>
<path d="M142.174 124.212H136.977V129.091H142.174V124.212Z" fill="#042254"/>
<path d="M147.371 124.212H142.174V129.091H147.371V124.212Z" fill="#042254"/>
<path d="M168.159 124.212H162.962V129.091H168.159V124.212Z" fill="#042254"/>
<path d="M173.356 124.212H168.159V129.091H173.356V124.212Z" fill="#042254"/>
<path d="M183.75 124.212H178.553V129.091H183.75V124.212Z" fill="#042254"/>
<path d="M22.6439 129.091H17.447V133.97H22.6439V129.091Z" fill="#042254"/>
<path d="M33.0379 129.091H27.8409V133.97H33.0379V129.091Z" fill="#042254"/>
<path d="M38.2349 129.091H33.0379V133.97H38.2349V129.091Z" fill="#042254"/>
<path d="M48.6288 129.091H43.4318V133.97H48.6288V129.091Z" fill="#042254"/>
<path d="M64.2197 129.091H59.0227V133.97H64.2197V129.091Z" fill="#042254"/>
<path d="M69.4167 129.091H64.2197V133.97H69.4167V129.091Z" fill="#042254"/>
<path d="M79.8106 129.091H74.6136V133.97H79.8106V129.091Z" fill="#042254"/>
<path d="M95.4015 129.091H90.2045V133.97H95.4015V129.091Z" fill="#042254"/>
<path d="M110.992 129.091H105.795V133.97H110.992V129.091Z" fill="#042254"/>
<path d="M121.386 129.091H116.189V133.97H121.386V129.091Z" fill="#042254"/>
<path d="M126.583 129.091H121.386V133.97H126.583V129.091Z" fill="#042254"/>
<path d="M142.174 129.091H136.977V133.97H142.174V129.091Z" fill="#042254"/>
<path d="M147.371 129.091H142.174V133.97H147.371V129.091Z" fill="#042254"/>
<path d="M152.568 129.091H147.371V133.97H152.568V129.091Z" fill="#042254"/>
<path d="M157.765 129.091H152.568V133.97H157.765V129.091Z" fill="#042254"/>
<path d="M162.962 129.091H157.765V133.97H162.962V129.091Z" fill="#042254"/>
<path d="M168.159 129.091H162.962V133.97H168.159V129.091Z" fill="#042254"/>
<path d="M173.356 129.091H168.159V133.97H173.356V129.091Z" fill="#042254"/>
<path d="M183.75 129.091H178.553V133.97H183.75V129.091Z" fill="#042254"/>
<path d="M59.0227 133.97H53.8258V138.848H59.0227V133.97Z" fill="#042254"/>
<path d="M74.6136 133.97H69.4167V138.848H74.6136V133.97Z" fill="#042254"/>
<path d="M85.0076 133.97H79.8106V138.848H85.0076V133.97Z" fill="#042254"/>
<path d="M110.992 133.97H105.795V138.848H110.992V133.97Z" fill="#042254"/>
<path d="M126.583 133.97H121.386V138.848H126.583V133.97Z" fill="#042254"/>
<path d="M136.977 133.97H131.78V138.848H136.977V133.97Z" fill="#042254"/>
<path d="M142.174 133.97H136.977V138.848H142.174V133.97Z" fill="#042254"/>
<path d="M162.962 133.97H157.765V138.848H162.962V133.97Z" fill="#042254"/>
<path d="M173.356 133.97H168.159V138.848H173.356V133.97Z" fill="#042254"/>
<path d="M178.553 133.97H173.356V138.848H178.553V133.97Z" fill="#042254"/>
<path d="M183.75 133.97H178.553V138.848H183.75V133.97Z" fill="#042254"/>
<path d="M17.447 138.848H12.25V143.727H17.447V138.848Z" fill="#042254"/>
<path d="M22.6439 138.848H17.447V143.727H22.6439V138.848Z" fill="#042254"/>
<path d="M27.8409 138.848H22.6439V143.727H27.8409V138.848Z" fill="#042254"/>
<path d="M33.0379 138.848H27.8409V143.727H33.0379V138.848Z" fill="#042254"/>
<path d="M38.2349 138.848H33.0379V143.727H38.2349V138.848Z" fill="#042254"/>
<path d="M43.4318 138.848H38.2349V143.727H43.4318V138.848Z" fill="#042254"/>
<path d="M48.6288 138.848H43.4318V143.727H48.6288V138.848Z" fill="#042254"/>
<path d="M64.2197 138.848H59.0227V143.727H64.2197V138.848Z" fill="#042254"/>
<path d="M79.8106 138.848H74.6136V143.727H79.8106V138.848Z" fill="#042254"/>
<path d="M85.0076 138.848H79.8106V143.727H85.0076V138.848Z" fill="#042254"/>
<path d="M90.2045 138.848H85.0076V143.727H90.2045V138.848Z" fill="#042254"/>
<path d="M100.598 138.848H95.4015V143.727H100.598V138.848Z" fill="#042254"/>
<path d="M116.189 138.848H110.992L110.992 143.727H116.189V138.848Z" fill="#042254"/>
<path d="M121.386 138.848H116.189V143.727H121.386V138.848Z" fill="#042254"/>
<path d="M136.977 138.848H131.78V143.727H136.977V138.848Z" fill="#042254"/>
<path d="M142.174 138.848H136.977V143.727H142.174V138.848Z" fill="#042254"/>
<path d="M152.568 138.848H147.371V143.727H152.568V138.848Z" fill="#042254"/>
<path d="M162.962 138.848H157.765V143.727H162.962V138.848Z" fill="#042254"/>
<path d="M168.159 138.848H162.962V143.727H168.159V138.848Z" fill="#042254"/>
<path d="M17.447 143.727H12.25V148.606H17.447V143.727Z" fill="#042254"/>
<path d="M48.6288 143.727H43.4318V148.606H48.6288V143.727Z" fill="#042254"/>
<path d="M59.0227 143.727H53.8258V148.606H59.0227V143.727Z" fill="#042254"/>
<path d="M64.2197 143.727H59.0227V148.606H64.2197V143.727Z" fill="#042254"/>
<path d="M79.8106 143.727H74.6136V148.606H79.8106V143.727Z" fill="#042254"/>
<path d="M85.0076 143.727H79.8106V148.606H85.0076V143.727Z" fill="#042254"/>
<path d="M95.4015 143.727H90.2045V148.606H95.4015V143.727Z" fill="#042254"/>
<path d="M100.598 143.727H95.4015V148.606H100.598V143.727Z" fill="#042254"/>
<path d="M105.795 143.727H100.598V148.606H105.795V143.727Z" fill="#042254"/>
<path d="M116.189 143.727H110.992V148.606H116.189V143.727Z" fill="#042254"/>
<path d="M126.583 143.727H121.386V148.606H126.583V143.727Z" fill="#042254"/>
<path d="M131.78 143.727H126.583V148.606H131.78V143.727Z" fill="#042254"/>
<path d="M136.977 143.727H131.78V148.606H136.977V143.727Z" fill="#042254"/>
<path d="M142.174 143.727H136.977V148.606H142.174V143.727Z" fill="#042254"/>
<path d="M162.962 143.727H157.765V148.606H162.962V143.727Z" fill="#042254"/>
<path d="M168.159 143.727H162.962V148.606H168.159V143.727Z" fill="#042254"/>
<path d="M178.553 143.727H173.356V148.606H178.553V143.727Z" fill="#042254"/>
<path d="M17.447 148.606H12.25V153.485H17.447V148.606Z" fill="#042254"/>
<path d="M27.8409 148.606H22.6439V153.485H27.8409V148.606Z" fill="#042254"/>
<path d="M33.0379 148.606H27.8409V153.485H33.0379V148.606Z" fill="#042254"/>
<path d="M38.2349 148.606H33.0379V153.485H38.2349V148.606Z" fill="#042254"/>
<path d="M48.6288 148.606H43.4318V153.485H48.6288V148.606Z" fill="#042254"/>
<path d="M59.0227 148.606H53.8258V153.485H59.0227V148.606Z" fill="#042254"/>
<path d="M74.6136 148.606H69.4167V153.485H74.6136V148.606Z" fill="#042254"/>
<path d="M90.2045 148.606H85.0076V153.485H90.2045V148.606Z" fill="#042254"/>
<path d="M95.4015 148.606H90.2045V153.485H95.4015V148.606Z" fill="#042254"/>
<path d="M110.992 148.606H105.795V153.485H110.992L110.992 148.606Z" fill="#042254"/>
<path d="M116.189 148.606H110.992L110.992 153.485H116.189V148.606Z" fill="#042254"/>
<path d="M131.78 148.606H126.583V153.485H131.78V148.606Z" fill="#042254"/>
<path d="M142.174 148.606H136.977V153.485H142.174V148.606Z" fill="#042254"/>
<path d="M147.371 148.606H142.174V153.485H147.371V148.606Z" fill="#042254"/>
<path d="M152.568 148.606H147.371V153.485H152.568V148.606Z" fill="#042254"/>
<path d="M157.765 148.606H152.568V153.485H157.765V148.606Z" fill="#042254"/>
<path d="M162.962 148.606H157.765V153.485H162.962V148.606Z" fill="#042254"/>
<path d="M168.159 148.606H162.962V153.485H168.159V148.606Z" fill="#042254"/>
<path d="M173.356 148.606H168.159V153.485H173.356V148.606Z" fill="#042254"/>
<path d="M17.447 153.485H12.25V158.364H17.447V153.485Z" fill="#042254"/>
<path d="M27.8409 153.485H22.6439V158.364H27.8409V153.485Z" fill="#042254"/>
<path d="M33.0379 153.485H27.8409V158.364H33.0379V153.485Z" fill="#042254"/>
<path d="M38.2349 153.485H33.0379V158.364H38.2349V153.485Z" fill="#042254"/>
<path d="M48.6288 153.485H43.4318V158.364H48.6288V153.485Z" fill="#042254"/>
<path d="M69.4167 153.485H64.2197V158.364H69.4167V153.485Z" fill="#042254"/>
<path d="M90.2045 153.485H85.0076V158.364H90.2045V153.485Z" fill="#042254"/>
<path d="M100.598 153.485H95.4015V158.364H100.598V153.485Z" fill="#042254"/>
<path d="M105.795 153.485H100.598V158.364H105.795V153.485Z" fill="#042254"/>
<path d="M126.583 153.485H121.386V158.364H126.583V153.485Z" fill="#042254"/>
<path d="M131.78 153.485H126.583V158.364H131.78V153.485Z" fill="#042254"/>
<path d="M152.568 153.485H147.371V158.364H152.568V153.485Z" fill="#042254"/>
<path d="M162.962 153.485H157.765V158.364H162.962V153.485Z" fill="#042254"/>
<path d="M173.356 153.485H168.159V158.364H173.356V153.485Z" fill="#042254"/>
<path d="M178.553 153.485H173.356V158.364H178.553V153.485Z" fill="#042254"/>
<path d="M183.75 153.485H178.553V158.364H183.75V153.485Z" fill="#042254"/>
<path d="M17.447 158.364H12.25V163.242H17.447V158.364Z" fill="#042254"/>
<path d="M27.8409 158.364H22.6439V163.242H27.8409V158.364Z" fill="#042254"/>
<path d="M33.0379 158.364H27.8409V163.242H33.0379V158.364Z" fill="#042254"/>
<path d="M38.2349 158.364H33.0379V163.242H38.2349V158.364Z" fill="#042254"/>
<path d="M48.6288 158.364H43.4318V163.242H48.6288V158.364Z" fill="#042254"/>
<path d="M59.0227 158.364H53.8258V163.242H59.0227V158.364Z" fill="#042254"/>
<path d="M64.2197 158.364H59.0227V163.242H64.2197V158.364Z" fill="#042254"/>
<path d="M69.4167 158.364H64.2197V163.242H69.4167V158.364Z" fill="#042254"/>
<path d="M90.2045 158.364H85.0076V163.242H90.2045V158.364Z" fill="#042254"/>
<path d="M105.795 158.364H100.598V163.242H105.795V158.364Z" fill="#042254"/>
<path d="M110.992 158.364H105.795V163.242H110.992V158.364Z" fill="#042254"/>
<path d="M121.386 158.364H116.189V163.242H121.386V158.364Z" fill="#042254"/>
<path d="M126.583 158.364H121.386V163.242H126.583V158.364Z" fill="#042254"/>
<path d="M142.174 158.364H136.977V163.242H142.174V158.364Z" fill="#042254"/>
<path d="M17.447 163.242H12.25V168.121H17.447V163.242Z" fill="#042254"/>
<path d="M48.6288 163.242H43.4318V168.121H48.6288V163.242Z" fill="#042254"/>
<path d="M64.2197 163.242H59.0227V168.121H64.2197V163.242Z" fill="#042254"/>
<path d="M69.4167 163.242H64.2197V168.121H69.4167V163.242Z" fill="#042254"/>
<path d="M74.6136 163.242H69.4167V168.121H74.6136V163.242Z" fill="#042254"/>
<path d="M79.8106 163.242H74.6136V168.121H79.8106V163.242Z" fill="#042254"/>
<path d="M85.0076 163.242H79.8106V168.121H85.0076V163.242Z" fill="#042254"/>
<path d="M90.2045 163.242H85.0076V168.121H90.2045V163.242Z" fill="#042254"/>
<path d="M131.78 163.242H126.583V168.121H131.78V163.242Z" fill="#042254"/>
<path d="M142.174 163.242H136.977V168.121H142.174V163.242Z" fill="#042254"/>
<path d="M152.568 163.242H147.371V168.121H152.568V163.242Z" fill="#042254"/>
<path d="M162.962 163.242H157.765V168.121H162.962V163.242Z" fill="#042254"/>
<path d="M168.159 163.242H162.962V168.121H168.159V163.242Z" fill="#042254"/>
<path d="M17.447 168.121H12.25V173H17.447V168.121Z" fill="#042254"/>
<path d="M22.6439 168.121H17.447V173H22.6439V168.121Z" fill="#042254"/>
<path d="M27.8409 168.121H22.6439V173H27.8409V168.121Z" fill="#042254"/>
<path d="M33.0379 168.121H27.8409V173H33.0379V168.121Z" fill="#042254"/>
<path d="M38.2349 168.121H33.0379V173H38.2349V168.121Z" fill="#042254"/>
<path d="M43.4318 168.121H38.2349V173H43.4318V168.121Z" fill="#042254"/>
<path d="M48.6288 168.121H43.4318V173H48.6288V168.121Z" fill="#042254"/>
<path d="M64.2197 168.121H59.0227V173H64.2197V168.121Z" fill="#042254"/>
<path d="M79.8106 168.121H74.6136V173H79.8106V168.121Z" fill="#042254"/>
<path d="M85.0076 168.121H79.8106V173H85.0076V168.121Z" fill="#042254"/>
<path d="M100.598 168.121H95.4015V173H100.598V168.121Z" fill="#042254"/>
<path d="M121.386 168.121H116.189V173H121.386V168.121Z" fill="#042254"/>
<path d="M126.583 168.121H121.386V173H126.583V168.121Z" fill="#042254"/>
<path d="M136.977 168.121H131.78V173H136.977V168.121Z" fill="#042254"/>
<path d="M142.174 168.121H136.977V173H142.174V168.121Z" fill="#042254"/>
<path d="M183.75 168.121H178.553V173H183.75V168.121Z" fill="#042254"/>
</g>
</g>
</g>
<defs>
<clipPath id="clip0_465_708">
<rect width="196" height="184" rx="16" fill="white"/>
</clipPath>
</defs>
</svg>
