<svg preserveAspectRatio="none" width="100%" height="100%" overflow="visible" style="display: block;" viewBox="0 0 331 310" fill="none" xmlns="http://www.w3.org/2000/svg">
<g id="QR Code">
<g clip-path="url(#clip0_465_704)">
<path id="Vector" d="M331 0H0V310H331V0Z" fill="var(--fill-0, white)"/>
<g id="Vector_2">
<path d="M29.464 19.375H20.6875V27.5947H29.464V19.375Z" fill="#042254"/>
<path d="M38.2405 19.375H29.464V27.5947H38.2405V19.375Z" fill="#042254"/>
<path d="M47.017 19.375H38.2405V27.5947H47.017V19.375Z" fill="#042254"/>
<path d="M55.7936 19.375H47.017V27.5947H55.7936V19.375Z" fill="#042254"/>
<path d="M64.5701 19.375H55.7936V27.5947H64.5701V19.375Z" fill="#042254"/>
<path d="M73.3466 19.375H64.5701V27.5947H73.3466V19.375Z" fill="#042254"/>
<path d="M82.1231 19.375H73.3466V27.5947H82.1231V19.375Z" fill="#042254"/>
<path d="M108.453 19.375H99.6761V27.5947H108.453V19.375Z" fill="#042254"/>
<path d="M117.229 19.375H108.453V27.5947H117.229V19.375Z" fill="#042254"/>
<path d="M134.782 19.375H126.006V27.5947H134.782V19.375Z" fill="#042254"/>
<path d="M143.559 19.375H134.782V27.5947H143.559V19.375Z" fill="#042254"/>
<path d="M178.665 19.375H169.888V27.5947H178.665V19.375Z" fill="#042254"/>
<path d="M187.441 19.375H178.665V27.5947H187.441V19.375Z" fill="#042254"/>
<path d="M204.994 19.375H196.218V27.5947H204.994V19.375Z" fill="#042254"/>
<path d="M213.771 19.375H204.994V27.5947H213.771V19.375Z" fill="#042254"/>
<path d="M240.1 19.375H231.324V27.5947H240.1V19.375Z" fill="#042254"/>
<path d="M257.653 19.375H248.877V27.5947H257.653V19.375Z" fill="#042254"/>
<path d="M266.43 19.375H257.653V27.5947H266.43V19.375Z" fill="#042254"/>
<path d="M275.206 19.375H266.43V27.5947H275.206V19.375Z" fill="#042254"/>
<path d="M283.983 19.375H275.206V27.5947H283.983V19.375Z" fill="#042254"/>
<path d="M292.759 19.375H283.983V27.5947H292.759V19.375Z" fill="#042254"/>
<path d="M301.536 19.375H292.759V27.5947H301.536V19.375Z" fill="#042254"/>
<path d="M310.312 19.375H301.536V27.5947H310.312V19.375Z" fill="#042254"/>
<path d="M29.464 27.5947H20.6875V35.8144H29.464V27.5947Z" fill="#042254"/>
<path d="M82.1231 27.5947H73.3466V35.8144H82.1231V27.5947Z" fill="#042254"/>
<path d="M99.6761 27.5947H90.8996V35.8144H99.6761V27.5947Z" fill="#042254"/>
<path d="M108.453 27.5947H99.6761V35.8144H108.453V27.5947Z" fill="#042254"/>
<path d="M126.006 27.5947H117.229V35.8144H126.006V27.5947Z" fill="#042254"/>
<path d="M134.782 27.5947H126.006V35.8144H134.782V27.5947Z" fill="#042254"/>
<path d="M161.112 27.5947H152.335V35.8144H161.112V27.5947Z" fill="#042254"/>
<path d="M196.218 27.5947H187.441L187.441 35.8144H196.218V27.5947Z" fill="#042254"/>
<path d="M204.994 27.5947H196.218V35.8144H204.994V27.5947Z" fill="#042254"/>
<path d="M213.771 27.5947H204.994V35.8144H213.771V27.5947Z" fill="#042254"/>
<path d="M240.1 27.5947H231.324V35.8144H240.1V27.5947Z" fill="#042254"/>
<path d="M257.653 27.5947H248.877V35.8144H257.653V27.5947Z" fill="#042254"/>
<path d="M310.312 27.5947H301.536V35.8144H310.312V27.5947Z" fill="#042254"/>
<path d="M29.464 35.8144H20.6875V44.0341H29.464V35.8144Z" fill="#042254"/>
<path d="M47.017 35.8144H38.2405V44.0341H47.017V35.8144Z" fill="#042254"/>
<path d="M55.7936 35.8144H47.017V44.0341H55.7936V35.8144Z" fill="#042254"/>
<path d="M64.5701 35.8144H55.7936V44.0341H64.5701V35.8144Z" fill="#042254"/>
<path d="M82.1231 35.8144H73.3466V44.0341H82.1231V35.8144Z" fill="#042254"/>
<path d="M108.453 35.8144H99.6761V44.0341H108.453V35.8144Z" fill="#042254"/>
<path d="M117.229 35.8144H108.453V44.0341H117.229V35.8144Z" fill="#042254"/>
<path d="M143.559 35.8144H134.782V44.0341H143.559V35.8144Z" fill="#042254"/>
<path d="M152.335 35.8144H143.559V44.0341H152.335V35.8144Z" fill="#042254"/>
<path d="M169.888 35.8144H161.112V44.0341H169.888V35.8144Z" fill="#042254"/>
<path d="M178.665 35.8144H169.888V44.0341H178.665V35.8144Z" fill="#042254"/>
<path d="M187.441 35.8144H178.665V44.0341H187.441L187.441 35.8144Z" fill="#042254"/>
<path d="M196.218 35.8144H187.441L187.441 44.0341H196.218V35.8144Z" fill="#042254"/>
<path d="M204.994 35.8144H196.218V44.0341H204.994V35.8144Z" fill="#042254"/>
<path d="M222.547 35.8144H213.771V44.0341H222.547V35.8144Z" fill="#042254"/>
<path d="M240.1 35.8144H231.324V44.0341H240.1V35.8144Z" fill="#042254"/>
<path d="M257.653 35.8144H248.877V44.0341H257.653V35.8144Z" fill="#042254"/>
<path d="M275.206 35.8144H266.43V44.0341H275.206V35.8144Z" fill="#042254"/>
<path d="M283.983 35.8144H275.206V44.0341H283.983V35.8144Z" fill="#042254"/>
<path d="M292.759 35.8144H283.983V44.0341H292.759V35.8144Z" fill="#042254"/>
<path d="M310.312 35.8144H301.536V44.0341H310.312V35.8144Z" fill="#042254"/>
<path d="M29.464 44.0341H20.6875V52.2538H29.464V44.0341Z" fill="#042254"/>
<path d="M47.017 44.0341H38.2405V52.2538H47.017V44.0341Z" fill="#042254"/>
<path d="M55.7936 44.0341H47.017V52.2538H55.7936V44.0341Z" fill="#042254"/>
<path d="M64.5701 44.0341H55.7936V52.2538H64.5701V44.0341Z" fill="#042254"/>
<path d="M82.1231 44.0341H73.3466V52.2538H82.1231V44.0341Z" fill="#042254"/>
<path d="M108.453 44.0341H99.6761V52.2538H108.453V44.0341Z" fill="#042254"/>
<path d="M126.006 44.0341H117.229V52.2538H126.006V44.0341Z" fill="#042254"/>
<path d="M143.559 44.0341H134.782V52.2538H143.559V44.0341Z" fill="#042254"/>
<path d="M152.335 44.0341H143.559V52.2538H152.335V44.0341Z" fill="#042254"/>
<path d="M169.888 44.0341H161.112V52.2538H169.888V44.0341Z" fill="#042254"/>
<path d="M187.441 44.0341H178.665V52.2538H187.441V44.0341Z" fill="#042254"/>
<path d="M204.994 44.0341H196.218V52.2538H204.994V44.0341Z" fill="#042254"/>
<path d="M240.1 44.0341H231.324V52.2538H240.1V44.0341Z" fill="#042254"/>
<path d="M257.653 44.0341H248.877V52.2538H257.653V44.0341Z" fill="#042254"/>
<path d="M275.206 44.0341H266.43V52.2538H275.206V44.0341Z" fill="#042254"/>
<path d="M283.983 44.0341H275.206V52.2538H283.983V44.0341Z" fill="#042254"/>
<path d="M292.759 44.0341H283.983V52.2538H292.759V44.0341Z" fill="#042254"/>
<path d="M310.312 44.0341H301.536V52.2538H310.312V44.0341Z" fill="#042254"/>
<path d="M29.464 52.2538H20.6875V60.4735H29.464V52.2538Z" fill="#042254"/>
<path d="M47.017 52.2538H38.2405V60.4735H47.017V52.2538Z" fill="#042254"/>
<path d="M55.7936 52.2538H47.017V60.4735H55.7936V52.2538Z" fill="#042254"/>
<path d="M64.5701 52.2538H55.7936V60.4735H64.5701V52.2538Z" fill="#042254"/>
<path d="M82.1231 52.2538H73.3466V60.4735H82.1231V52.2538Z" fill="#042254"/>
<path d="M99.6761 52.2538H90.8996V60.4735H99.6761V52.2538Z" fill="#042254"/>
<path d="M117.229 52.2538H108.453V60.4735H117.229V52.2538Z" fill="#042254"/>
<path d="M178.665 52.2538H169.888V60.4735H178.665V52.2538Z" fill="#042254"/>
<path d="M196.218 52.2538H187.441L187.441 60.4735H196.218V52.2538Z" fill="#042254"/>
<path d="M204.994 52.2538H196.218V60.4735H204.994V52.2538Z" fill="#042254"/>
<path d="M213.771 52.2538H204.994V60.4735H213.771V52.2538Z" fill="#042254"/>
<path d="M222.547 52.2538H213.771V60.4735H222.547V52.2538Z" fill="#042254"/>
<path d="M231.324 52.2538H222.547V60.4735H231.324V52.2538Z" fill="#042254"/>
<path d="M240.1 52.2538H231.324V60.4735H240.1V52.2538Z" fill="#042254"/>
<path d="M257.653 52.2538H248.877V60.4735H257.653V52.2538Z" fill="#042254"/>
<path d="M275.206 52.2538H266.43V60.4735H275.206V52.2538Z" fill="#042254"/>
<path d="M283.983 52.2538H275.206V60.4735H283.983V52.2538Z" fill="#042254"/>
<path d="M292.759 52.2538H283.983V60.4735H292.759V52.2538Z" fill="#042254"/>
<path d="M310.312 52.2538H301.536V60.4735H310.312V52.2538Z" fill="#042254"/>
<path d="M29.464 60.4735H20.6875V68.6932H29.464V60.4735Z" fill="#042254"/>
<path d="M82.1231 60.4735H73.3466V68.6932H82.1231V60.4735Z" fill="#042254"/>
<path d="M117.229 60.4735H108.453V68.6932H117.229V60.4735Z" fill="#042254"/>
<path d="M126.006 60.4735H117.229V68.6932H126.006V60.4735Z" fill="#042254"/>
<path d="M134.782 60.4735H126.006V68.6932H134.782V60.4735Z" fill="#042254"/>
<path d="M143.559 60.4735H134.782V68.6932H143.559V60.4735Z" fill="#042254"/>
<path d="M152.335 60.4735H143.559V68.6932H152.335V60.4735Z" fill="#042254"/>
<path d="M187.441 60.4735H178.665V68.6932H187.441L187.441 60.4735Z" fill="#042254"/>
<path d="M196.218 60.4735H187.441L187.441 68.6932H196.218V60.4735Z" fill="#042254"/>
<path d="M204.994 60.4735H196.218V68.6932H204.994V60.4735Z" fill="#042254"/>
<path d="M213.771 60.4735H204.994V68.6932H213.771V60.4735Z" fill="#042254"/>
<path d="M222.547 60.4735H213.771V68.6932H222.547V60.4735Z" fill="#042254"/>
<path d="M231.324 60.4735H222.547V68.6932H231.324V60.4735Z" fill="#042254"/>
<path d="M257.653 60.4735H248.877V68.6932H257.653V60.4735Z" fill="#042254"/>
<path d="M310.312 60.4735H301.536V68.6932H310.312V60.4735Z" fill="#042254"/>
<path d="M29.464 68.6932H20.6875V76.9129H29.464V68.6932Z" fill="#042254"/>
<path d="M38.2405 68.6932H29.464V76.9129H38.2405V68.6932Z" fill="#042254"/>
<path d="M47.017 68.6932H38.2405V76.9129H47.017V68.6932Z" fill="#042254"/>
<path d="M55.7936 68.6932H47.017V76.9129H55.7936V68.6932Z" fill="#042254"/>
<path d="M64.5701 68.6932H55.7936V76.9129H64.5701V68.6932Z" fill="#042254"/>
<path d="M73.3466 68.6932H64.5701V76.9129H73.3466V68.6932Z" fill="#042254"/>
<path d="M82.1231 68.6932H73.3466V76.9129H82.1231V68.6932Z" fill="#042254"/>
<path d="M99.6761 68.6932H90.8996V76.9129H99.6761V68.6932Z" fill="#042254"/>
<path d="M117.229 68.6932H108.453V76.9129H117.229V68.6932Z" fill="#042254"/>
<path d="M134.782 68.6932H126.006V76.9129H134.782V68.6932Z" fill="#042254"/>
<path d="M152.335 68.6932H143.559V76.9129H152.335V68.6932Z" fill="#042254"/>
<path d="M169.888 68.6932H161.112V76.9129H169.888V68.6932Z" fill="#042254"/>
<path d="M187.441 68.6932H178.665V76.9129H187.441V68.6932Z" fill="#042254"/>
<path d="M204.994 68.6932H196.218V76.9129H204.994V68.6932Z" fill="#042254"/>
<path d="M222.547 68.6932H213.771V76.9129H222.547V68.6932Z" fill="#042254"/>
<path d="M240.1 68.6932H231.324V76.9129H240.1V68.6932Z" fill="#042254"/>
<path d="M257.653 68.6932H248.877V76.9129H257.653V68.6932Z" fill="#042254"/>
<path d="M266.43 68.6932H257.653V76.9129H266.43V68.6932Z" fill="#042254"/>
<path d="M275.206 68.6932H266.43V76.9129H275.206V68.6932Z" fill="#042254"/>
<path d="M283.983 68.6932H275.206V76.9129H283.983V68.6932Z" fill="#042254"/>
<path d="M292.759 68.6932H283.983V76.9129H292.759V68.6932Z" fill="#042254"/>
<path d="M301.536 68.6932H292.759V76.9129H301.536V68.6932Z" fill="#042254"/>
<path d="M310.312 68.6932H301.536V76.9129H310.312V68.6932Z" fill="#042254"/>
<path d="M169.888 76.9129H161.112V85.1326H169.888V76.9129Z" fill="#042254"/>
<path d="M178.665 76.9129H169.888V85.1326H178.665V76.9129Z" fill="#042254"/>
<path d="M187.441 76.9129H178.665V85.1326H187.441V76.9129Z" fill="#042254"/>
<path d="M196.218 76.9129H187.441V85.1326H196.218V76.9129Z" fill="#042254"/>
<path d="M222.547 76.9129H213.771V85.1326H222.547V76.9129Z" fill="#042254"/>
<path d="M231.324 76.9129H222.547V85.1326H231.324V76.9129Z" fill="#042254"/>
<path d="M240.1 76.9129H231.324V85.1326H240.1V76.9129Z" fill="#042254"/>
<path d="M47.017 85.1326H38.2405V93.3523H47.017V85.1326Z" fill="#042254"/>
<path d="M64.5701 85.1326H55.7936V93.3523H64.5701V85.1326Z" fill="#042254"/>
<path d="M73.3466 85.1326H64.5701V93.3523H73.3466V85.1326Z" fill="#042254"/>
<path d="M82.1231 85.1326H73.3466V93.3523H82.1231V85.1326Z" fill="#042254"/>
<path d="M99.6761 85.1326H90.8996V93.3523H99.6761V85.1326Z" fill="#042254"/>
<path d="M126.006 85.1326H117.229V93.3523H126.006V85.1326Z" fill="#042254"/>
<path d="M143.559 85.1326H134.782V93.3523H143.559V85.1326Z" fill="#042254"/>
<path d="M152.335 85.1326H143.559V93.3523H152.335V85.1326Z" fill="#042254"/>
<path d="M161.112 85.1326H152.335V93.3523H161.112V85.1326Z" fill="#042254"/>
<path d="M169.888 85.1326H161.112V93.3523H169.888V85.1326Z" fill="#042254"/>
<path d="M178.665 85.1326H169.888V93.3523H178.665V85.1326Z" fill="#042254"/>
<path d="M187.441 85.1326H178.665V93.3523H187.441V85.1326Z" fill="#042254"/>
<path d="M196.218 85.1326H187.441V93.3523H196.218V85.1326Z" fill="#042254"/>
<path d="M248.877 85.1326H240.1V93.3523H248.877V85.1326Z" fill="#042254"/>
<path d="M275.206 85.1326H266.43V93.3523H275.206V85.1326Z" fill="#042254"/>
<path d="M301.536 85.1326H292.759V93.3523H301.536V85.1326Z" fill="#042254"/>
<path d="M38.2405 93.3523H29.464V101.572H38.2405V93.3523Z" fill="#042254"/>
<path d="M47.017 93.3523H38.2405V101.572H47.017V93.3523Z" fill="#042254"/>
<path d="M55.7936 93.3523H47.017V101.572H55.7936V93.3523Z" fill="#042254"/>
<path d="M64.5701 93.3523H55.7936V101.572H64.5701V93.3523Z" fill="#042254"/>
<path d="M73.3466 93.3523H64.5701V101.572H73.3466V93.3523Z" fill="#042254"/>
<path d="M99.6761 93.3523H90.8996V101.572H99.6761V93.3523Z" fill="#042254"/>
<path d="M117.229 93.3523H108.453V101.572H117.229V93.3523Z" fill="#042254"/>
<path d="M152.335 93.3523H143.559V101.572H152.335V93.3523Z" fill="#042254"/>
<path d="M266.43 93.3523H257.653V101.572H266.43V93.3523Z" fill="#042254"/>
<path d="M292.759 93.3523H283.983V101.572H292.759V93.3523Z" fill="#042254"/>
<path d="M310.312 93.3523H301.536V101.572H310.312V93.3523Z" fill="#042254"/>
<path d="M38.2405 101.572H29.464V109.792H38.2405V101.572Z" fill="#042254"/>
<path d="M55.7936 101.572H47.017V109.792H55.7936V101.572Z" fill="#042254"/>
<path d="M64.5701 101.572H55.7936V109.792H64.5701V101.572Z" fill="#042254"/>
<path d="M73.3466 101.572H64.5701V109.792H73.3466V101.572Z" fill="#042254"/>
<path d="M82.1231 101.572H73.3466V109.792H82.1231V101.572Z" fill="#042254"/>
<path d="M90.8996 101.572H82.1231V109.792H90.8996V101.572Z" fill="#042254"/>
<path d="M99.6761 101.572H90.8996V109.792H99.6761V101.572Z" fill="#042254"/>
<path d="M108.453 101.572H99.6761V109.792H108.453V101.572Z" fill="#042254"/>
<path d="M134.782 101.572H126.006V109.792H134.782V101.572Z" fill="#042254"/>
<path d="M143.559 101.572H134.782V109.792H143.559V101.572Z" fill="#042254"/>
<path d="M152.335 101.572H143.559V109.792H152.335V101.572Z" fill="#042254"/>
<path d="M161.112 101.572H152.335V109.792H161.112V101.572Z" fill="#042254"/>
<path d="M204.994 101.572H196.218V109.792H204.994V101.572Z" fill="#042254"/>
<path d="M222.547 101.572H213.771V109.792H222.547V101.572Z" fill="#042254"/>
<path d="M240.1 101.572H231.324V109.792H240.1V101.572Z" fill="#042254"/>
<path d="M248.877 101.572H240.1V109.792H248.877V101.572Z" fill="#042254"/>
<path d="M283.983 101.572H275.206V109.792H283.983V101.572Z" fill="#042254"/>
<path d="M292.759 101.572H283.983V109.792H292.759V101.572Z" fill="#042254"/>
<path d="M310.312 101.572H301.536V109.792H310.312V101.572Z" fill="#042254"/>
<path d="M29.464 109.792H20.6875V118.011H29.464V109.792Z" fill="#042254"/>
<path d="M38.2405 109.792H29.464V118.011H38.2405V109.792Z" fill="#042254"/>
<path d="M55.7936 109.792H47.017V118.011H55.7936V109.792Z" fill="#042254"/>
<path d="M64.5701 109.792H55.7936V118.011H64.5701V109.792Z" fill="#042254"/>
<path d="M90.8996 109.792H82.1231V118.011H90.8996V109.792Z" fill="#042254"/>
<path d="M117.229 109.792H108.453V118.011H117.229V109.792Z" fill="#042254"/>
<path d="M126.006 109.792H117.229V118.011H126.006V109.792Z" fill="#042254"/>
<path d="M134.782 109.792H126.006V118.011H134.782V109.792Z" fill="#042254"/>
<path d="M161.112 109.792H152.335V118.011H161.112V109.792Z" fill="#042254"/>
<path d="M178.665 109.792H169.888V118.011H178.665V109.792Z" fill="#042254"/>
<path d="M187.441 109.792H178.665V118.011H187.441V109.792Z" fill="#042254"/>
<path d="M196.218 109.792H187.441V118.011H196.218V109.792Z" fill="#042254"/>
<path d="M204.994 109.792H196.218V118.011H204.994V109.792Z" fill="#042254"/>
<path d="M213.771 109.792H204.994V118.011H213.771V109.792Z" fill="#042254"/>
<path d="M240.1 109.792H231.324V118.011H240.1V109.792Z" fill="#042254"/>
<path d="M266.43 109.792H257.653V118.011H266.43V109.792Z" fill="#042254"/>
<path d="M275.206 109.792H266.43V118.011H275.206V109.792Z" fill="#042254"/>
<path d="M29.464 118.011H20.6875V126.231H29.464V118.011Z" fill="#042254"/>
<path d="M38.2405 118.011H29.464V126.231H38.2405V118.011Z" fill="#042254"/>
<path d="M47.017 118.011H38.2405V126.231H47.017V118.011Z" fill="#042254"/>
<path d="M55.7936 118.011H47.017V126.231H55.7936V118.011Z" fill="#042254"/>
<path d="M64.5701 118.011H55.7936V126.231H64.5701V118.011Z" fill="#042254"/>
<path d="M73.3466 118.011H64.5701V126.231H73.3466V118.011Z" fill="#042254"/>
<path d="M82.1231 118.011H73.3466V126.231H82.1231V118.011Z" fill="#042254"/>
<path d="M90.8996 118.011H82.1231V126.231H90.8996V118.011Z" fill="#042254"/>
<path d="M134.782 118.011H126.006V126.231H134.782V118.011Z" fill="#042254"/>
<path d="M161.112 118.011H152.335V126.231H161.112V118.011Z" fill="#042254"/>
<path d="M169.888 118.011H161.112V126.231H169.888V118.011Z" fill="#042254"/>
<path d="M178.665 118.011H169.888V126.231H178.665V118.011Z" fill="#042254"/>
<path d="M187.441 118.011H178.665V126.231H187.441V118.011Z" fill="#042254"/>
<path d="M222.547 118.011H213.771V126.231H222.547V118.011Z" fill="#042254"/>
<path d="M231.324 118.011H222.547V126.231H231.324V118.011Z" fill="#042254"/>
<path d="M248.877 118.011H240.1V126.231H248.877V118.011Z" fill="#042254"/>
<path d="M257.653 118.011H248.877V126.231H257.653V118.011Z" fill="#042254"/>
<path d="M292.759 118.011H283.983V126.231H292.759V118.011Z" fill="#042254"/>
<path d="M310.312 118.011H301.536V126.231H310.312V118.011Z" fill="#042254"/>
<path d="M38.2405 126.231H29.464V134.451H38.2405V126.231Z" fill="#042254"/>
<path d="M47.017 126.231H38.2405V134.451H47.017V126.231Z" fill="#042254"/>
<path d="M55.7936 126.231H47.017V134.451H55.7936V126.231Z" fill="#042254"/>
<path d="M64.5701 126.231H55.7936V134.451H64.5701V126.231Z" fill="#042254"/>
<path d="M108.453 126.231H99.6761V134.451H108.453V126.231Z" fill="#042254"/>
<path d="M117.229 126.231H108.453V134.451H117.229V126.231Z" fill="#042254"/>
<path d="M126.006 126.231H117.229V134.451H126.006V126.231Z" fill="#042254"/>
<path d="M143.559 126.231H134.782V134.451H143.559V126.231Z" fill="#042254"/>
<path d="M161.112 126.231H152.335V134.451H161.112V126.231Z" fill="#042254"/>
<path d="M204.994 126.231H196.218V134.451H204.994V126.231Z" fill="#042254"/>
<path d="M213.771 126.231H204.994V134.451H213.771V126.231Z" fill="#042254"/>
<path d="M231.324 126.231H222.547V134.451H231.324V126.231Z" fill="#042254"/>
<path d="M257.653 126.231H248.877V134.451H257.653V126.231Z" fill="#042254"/>
<path d="M283.983 126.231H275.206V134.451H283.983V126.231Z" fill="#042254"/>
<path d="M292.759 126.231H283.983V134.451H292.759V126.231Z" fill="#042254"/>
<path d="M301.536 126.231H292.759V134.451H301.536V126.231Z" fill="#042254"/>
<path d="M310.312 126.231H301.536V134.451H310.312V126.231Z" fill="#042254"/>
<path d="M29.464 134.451H20.6875V142.67H29.464V134.451Z" fill="#042254"/>
<path d="M38.2405 134.451H29.464V142.67H38.2405V134.451Z" fill="#042254"/>
<path d="M55.7936 134.451H47.017V142.67H55.7936V134.451Z" fill="#042254"/>
<path d="M82.1231 134.451H73.3466V142.67H82.1231V134.451Z" fill="#042254"/>
<path d="M143.559 134.451H134.782V142.67H143.559V134.451Z" fill="#042254"/>
<path d="M169.888 134.451H161.112V142.67H169.888V134.451Z" fill="#042254"/>
<path d="M178.665 134.451H169.888V142.67H178.665V134.451Z" fill="#042254"/>
<path d="M187.441 134.451H178.665V142.67H187.441V134.451Z" fill="#042254"/>
<path d="M266.43 134.451H257.653V142.67H266.43V134.451Z" fill="#042254"/>
<path d="M275.206 134.451H266.43V142.67H275.206V134.451Z" fill="#042254"/>
<path d="M301.536 134.451H292.759V142.67H301.536V134.451Z" fill="#042254"/>
<path d="M38.2405 142.67H29.464V150.89H38.2405V142.67Z" fill="#042254"/>
<path d="M47.017 142.67H38.2405V150.89H47.017V142.67Z" fill="#042254"/>
<path d="M55.7936 142.67H47.017V150.89H55.7936V142.67Z" fill="#042254"/>
<path d="M64.5701 142.67H55.7936V150.89H64.5701V142.67Z" fill="#042254"/>
<path d="M73.3466 142.67H64.5701V150.89H73.3466V142.67Z" fill="#042254"/>
<path d="M99.6761 142.67H90.8996V150.89H99.6761V142.67Z" fill="#042254"/>
<path d="M126.006 142.67H117.229V150.89H126.006V142.67Z" fill="#042254"/>
<path d="M134.782 142.67H126.006V150.89H134.782V142.67Z" fill="#042254"/>
<path d="M143.559 142.67H134.782V150.89H143.559V142.67Z" fill="#042254"/>
<path d="M152.335 142.67H143.559V150.89H152.335V142.67Z" fill="#042254"/>
<path d="M161.112 142.67H152.335V150.89H161.112V142.67Z" fill="#042254"/>
<path d="M178.665 142.67H169.888V150.89H178.665V142.67Z" fill="#042254"/>
<path d="M187.441 142.67H178.665V150.89H187.441V142.67Z" fill="#042254"/>
<path d="M213.771 142.67H204.994V150.89H213.771V142.67Z" fill="#042254"/>
<path d="M222.547 142.67H213.771V150.89H222.547V142.67Z" fill="#042254"/>
<path d="M231.324 142.67H222.547V150.89H231.324V142.67Z" fill="#042254"/>
<path d="M240.1 142.67H231.324V150.89H240.1V142.67Z" fill="#042254"/>
<path d="M266.43 142.67H257.653V150.89H266.43V142.67Z" fill="#042254"/>
<path d="M275.206 142.67H266.43V150.89H275.206V142.67Z" fill="#042254"/>
<path d="M283.983 142.67H275.206V150.89H283.983V142.67Z" fill="#042254"/>
<path d="M292.759 142.67H283.983V150.89H292.759V142.67Z" fill="#042254"/>
<path d="M301.536 142.67H292.759V150.89H301.536V142.67Z" fill="#042254"/>
<path d="M29.464 150.89H20.6875V159.11H29.464V150.89Z" fill="#042254"/>
<path d="M55.7936 150.89H47.017V159.11H55.7936V150.89Z" fill="#042254"/>
<path d="M64.5701 150.89H55.7936V159.11H64.5701V150.89Z" fill="#042254"/>
<path d="M73.3466 150.89H64.5701V159.11H73.3466V150.89Z" fill="#042254"/>
<path d="M82.1231 150.89H73.3466V159.11H82.1231V150.89Z" fill="#042254"/>
<path d="M99.6761 150.89H90.8996V159.11H99.6761V150.89Z" fill="#042254"/>
<path d="M126.006 150.89H117.229V159.11H126.006V150.89Z" fill="#042254"/>
<path d="M143.559 150.89H134.782V159.11H143.559V150.89Z" fill="#042254"/>
<path d="M169.888 150.89H161.112V159.11H169.888V150.89Z" fill="#042254"/>
<path d="M187.441 150.89H178.665V159.11H187.441V150.89Z" fill="#042254"/>
<path d="M196.218 150.89H187.441V159.11H196.218V150.89Z" fill="#042254"/>
<path d="M240.1 150.89H231.324V159.11H240.1V150.89Z" fill="#042254"/>
<path d="M257.653 150.89H248.877V159.11H257.653V150.89Z" fill="#042254"/>
<path d="M283.983 150.89H275.206V159.11H283.983V150.89Z" fill="#042254"/>
<path d="M292.759 150.89H283.983V159.11H292.759V150.89Z" fill="#042254"/>
<path d="M301.536 150.89H292.759V159.11H301.536V150.89Z" fill="#042254"/>
<path d="M310.312 150.89H301.536V159.11H310.312V150.89Z" fill="#042254"/>
<path d="M29.464 159.11H20.6875V167.33H29.464V159.11Z" fill="#042254"/>
<path d="M38.2405 159.11H29.464V167.33H38.2405V159.11Z" fill="#042254"/>
<path d="M55.7936 159.11H47.017V167.33H55.7936V159.11Z" fill="#042254"/>
<path d="M64.5701 159.11H55.7936V167.33H64.5701V159.11Z" fill="#042254"/>
<path d="M90.8996 159.11H82.1231V167.33H90.8996V159.11Z" fill="#042254"/>
<path d="M99.6761 159.11H90.8996V167.33H99.6761V159.11Z" fill="#042254"/>
<path d="M117.229 159.11H108.453V167.33H117.229V159.11Z" fill="#042254"/>
<path d="M126.006 159.11H117.229V167.33H126.006V159.11Z" fill="#042254"/>
<path d="M161.112 159.11H152.335V167.33H161.112V159.11Z" fill="#042254"/>
<path d="M169.888 159.11H161.112V167.33H169.888V159.11Z" fill="#042254"/>
<path d="M204.994 159.11H196.218V167.33H204.994V159.11Z" fill="#042254"/>
<path d="M213.771 159.11H204.994V167.33H213.771V159.11Z" fill="#042254"/>
<path d="M222.547 159.11H213.771V167.33H222.547V159.11Z" fill="#042254"/>
<path d="M240.1 159.11H231.324V167.33H240.1V159.11Z" fill="#042254"/>
<path d="M257.653 159.11H248.877V167.33H257.653V159.11Z" fill="#042254"/>
<path d="M275.206 159.11H266.43V167.33H275.206V159.11Z" fill="#042254"/>
<path d="M292.759 159.11H283.983V167.33H292.759V159.11Z" fill="#042254"/>
<path d="M310.312 159.11H301.536V167.33H310.312V159.11Z" fill="#042254"/>
<path d="M29.464 167.33H20.6875V175.549H29.464V167.33Z" fill="#042254"/>
<path d="M55.7936 167.33H47.017V175.549H55.7936V167.33Z" fill="#042254"/>
<path d="M64.5701 167.33H55.7936V175.549H64.5701V167.33Z" fill="#042254"/>
<path d="M82.1231 167.33H73.3466V175.549H82.1231V167.33Z" fill="#042254"/>
<path d="M90.8996 167.33H82.1231V175.549H90.8996V167.33Z" fill="#042254"/>
<path d="M126.006 167.33H117.229V175.549H126.006V167.33Z" fill="#042254"/>
<path d="M134.782 167.33H126.006V175.549H134.782V167.33Z" fill="#042254"/>
<path d="M161.112 167.33H152.335V175.549H161.112V167.33Z" fill="#042254"/>
<path d="M169.888 167.33H161.112V175.549H169.888V167.33Z" fill="#042254"/>
<path d="M187.441 167.33H178.665V175.549H187.441V167.33Z" fill="#042254"/>
<path d="M196.218 167.33H187.441V175.549H196.218V167.33Z" fill="#042254"/>
<path d="M204.994 167.33H196.218V175.549H204.994V167.33Z" fill="#042254"/>
<path d="M222.547 167.33H213.771V175.549H222.547V167.33Z" fill="#042254"/>
<path d="M231.324 167.33H222.547V175.549H231.324V167.33Z" fill="#042254"/>
<path d="M240.1 167.33H231.324V175.549H240.1V167.33Z" fill="#042254"/>
<path d="M248.877 167.33H240.1V175.549H248.877V167.33Z" fill="#042254"/>
<path d="M257.653 167.33H248.877V175.549H257.653V167.33Z" fill="#042254"/>
<path d="M275.206 167.33H266.43V175.549H275.206V167.33Z" fill="#042254"/>
<path d="M283.983 167.33H275.206V175.549H283.983V167.33Z" fill="#042254"/>
<path d="M38.2405 175.549L29.464 175.549V183.769H38.2405V175.549Z" fill="#042254"/>
<path d="M55.7936 175.549H47.017V183.769H55.7936V175.549Z" fill="#042254"/>
<path d="M64.5701 175.549H55.7936V183.769H64.5701V175.549Z" fill="#042254"/>
<path d="M73.3466 175.549H64.5701V183.769H73.3466V175.549Z" fill="#042254"/>
<path d="M99.6761 175.549L90.8996 175.549V183.769H99.6761V175.549Z" fill="#042254"/>
<path d="M134.782 175.549H126.006V183.769H134.782V175.549Z" fill="#042254"/>
<path d="M143.559 175.549L134.782 175.549V183.769H143.559V175.549Z" fill="#042254"/>
<path d="M152.335 175.549L143.559 175.549V183.769H152.335V175.549Z" fill="#042254"/>
<path d="M161.112 175.549H152.335V183.769H161.112V175.549Z" fill="#042254"/>
<path d="M178.665 175.549H169.888V183.769H178.665V175.549Z" fill="#042254"/>
<path d="M196.218 175.549H187.441L187.441 183.769H196.218V175.549Z" fill="#042254"/>
<path d="M213.771 175.549H204.994V183.769H213.771V175.549Z" fill="#042254"/>
<path d="M240.1 175.549H231.324V183.769H240.1V175.549Z" fill="#042254"/>
<path d="M248.877 175.549H240.1V183.769H248.877V175.549Z" fill="#042254"/>
<path d="M283.983 175.549H275.206V183.769H283.983V175.549Z" fill="#042254"/>
<path d="M292.759 175.549L283.983 175.549V183.769H292.759V175.549Z" fill="#042254"/>
<path d="M301.536 175.549H292.759V183.769H301.536V175.549Z" fill="#042254"/>
<path d="M38.2405 183.769H29.464V191.989H38.2405V183.769Z" fill="#042254"/>
<path d="M55.7936 183.769H47.017V191.989H55.7936V183.769Z" fill="#042254"/>
<path d="M64.5701 183.769H55.7936V191.989H64.5701V183.769Z" fill="#042254"/>
<path d="M82.1231 183.769H73.3466V191.989H82.1231V183.769Z" fill="#042254"/>
<path d="M99.6761 183.769H90.8996V191.989H99.6761V183.769Z" fill="#042254"/>
<path d="M134.782 183.769H126.006V191.989H134.782V183.769Z" fill="#042254"/>
<path d="M161.112 183.769H152.335V191.989H161.112V183.769Z" fill="#042254"/>
<path d="M213.771 183.769H204.994V191.989H213.771V183.769Z" fill="#042254"/>
<path d="M222.547 183.769H213.771V191.989H222.547V183.769Z" fill="#042254"/>
<path d="M240.1 183.769H231.324V191.989H240.1V183.769Z" fill="#042254"/>
<path d="M257.653 183.769H248.877V191.989H257.653V183.769Z" fill="#042254"/>
<path d="M275.206 183.769H266.43V191.989H275.206V183.769Z" fill="#042254"/>
<path d="M301.536 183.769H292.759V191.989H301.536V183.769Z" fill="#042254"/>
<path d="M29.464 191.989H20.6875V200.208H29.464V191.989Z" fill="#042254"/>
<path d="M38.2405 191.989H29.464V200.208H38.2405V191.989Z" fill="#042254"/>
<path d="M55.7936 191.989H47.017V200.208H55.7936V191.989Z" fill="#042254"/>
<path d="M73.3466 191.989H64.5701V200.208H73.3466V191.989Z" fill="#042254"/>
<path d="M90.8996 191.989H82.1231V200.208H90.8996V191.989Z" fill="#042254"/>
<path d="M99.6761 191.989H90.8996V200.208H99.6761V191.989Z" fill="#042254"/>
<path d="M117.229 191.989H108.453V200.208H117.229V191.989Z" fill="#042254"/>
<path d="M126.006 191.989H117.229V200.208H126.006V191.989Z" fill="#042254"/>
<path d="M143.559 191.989H134.782V200.208H143.559V191.989Z" fill="#042254"/>
<path d="M152.335 191.989H143.559V200.208H152.335V191.989Z" fill="#042254"/>
<path d="M161.112 191.989H152.335V200.208H161.112V191.989Z" fill="#042254"/>
<path d="M178.665 191.989H169.888V200.208H178.665V191.989Z" fill="#042254"/>
<path d="M222.547 191.989H213.771V200.208H222.547V191.989Z" fill="#042254"/>
<path d="M231.324 191.989H222.547V200.208H231.324V191.989Z" fill="#042254"/>
<path d="M257.653 191.989H248.877V200.208H257.653V191.989Z" fill="#042254"/>
<path d="M266.43 191.989H257.653V200.208H266.43V191.989Z" fill="#042254"/>
<path d="M301.536 191.989H292.759V200.208H301.536V191.989Z" fill="#042254"/>
<path d="M310.312 191.989H301.536V200.208H310.312V191.989Z" fill="#042254"/>
<path d="M38.2405 200.208H29.464V208.428H38.2405V200.208Z" fill="#042254"/>
<path d="M47.017 200.208H38.2405V208.428H47.017V200.208Z" fill="#042254"/>
<path d="M82.1231 200.208H73.3466V208.428H82.1231V200.208Z" fill="#042254"/>
<path d="M108.453 200.208H99.6761V208.428H108.453V200.208Z" fill="#042254"/>
<path d="M117.229 200.208H108.453V208.428H117.229V200.208Z" fill="#042254"/>
<path d="M143.559 200.208H134.782V208.428H143.559V200.208Z" fill="#042254"/>
<path d="M152.335 200.208H143.559V208.428H152.335V200.208Z" fill="#042254"/>
<path d="M169.888 200.208H161.112V208.428H169.888V200.208Z" fill="#042254"/>
<path d="M178.665 200.208H169.888V208.428H178.665V200.208Z" fill="#042254"/>
<path d="M196.218 200.208H187.441V208.428H196.218V200.208Z" fill="#042254"/>
<path d="M204.994 200.208H196.218V208.428H204.994V200.208Z" fill="#042254"/>
<path d="M240.1 200.208H231.324V208.428H240.1V200.208Z" fill="#042254"/>
<path d="M257.653 200.208H248.877V208.428H257.653V200.208Z" fill="#042254"/>
<path d="M283.983 200.208H275.206V208.428H283.983V200.208Z" fill="#042254"/>
<path d="M301.536 200.208H292.759V208.428H301.536V200.208Z" fill="#042254"/>
<path d="M55.7936 208.428H47.017V216.648H55.7936V208.428Z" fill="#042254"/>
<path d="M90.8996 208.428H82.1231V216.648H90.8996V208.428Z" fill="#042254"/>
<path d="M108.453 208.428H99.6761V216.648H108.453V208.428Z" fill="#042254"/>
<path d="M117.229 208.428H108.453V216.648H117.229V208.428Z" fill="#042254"/>
<path d="M126.006 208.428H117.229V216.648H126.006V208.428Z" fill="#042254"/>
<path d="M169.888 208.428H161.112V216.648H169.888V208.428Z" fill="#042254"/>
<path d="M187.441 208.428H178.665V216.648H187.441L187.441 208.428Z" fill="#042254"/>
<path d="M196.218 208.428H187.441L187.441 216.648H196.218V208.428Z" fill="#042254"/>
<path d="M204.994 208.428H196.218V216.648H204.994V208.428Z" fill="#042254"/>
<path d="M222.547 208.428H213.771V216.648H222.547V208.428Z" fill="#042254"/>
<path d="M231.324 208.428H222.547V216.648H231.324V208.428Z" fill="#042254"/>
<path d="M240.1 208.428H231.324V216.648H240.1V208.428Z" fill="#042254"/>
<path d="M248.877 208.428H240.1V216.648H248.877V208.428Z" fill="#042254"/>
<path d="M283.983 208.428H275.206V216.648H283.983V208.428Z" fill="#042254"/>
<path d="M292.759 208.428H283.983V216.648H292.759V208.428Z" fill="#042254"/>
<path d="M310.312 208.428H301.536V216.648H310.312V208.428Z" fill="#042254"/>
<path d="M38.2405 216.648H29.464V224.867H38.2405V216.648Z" fill="#042254"/>
<path d="M55.7936 216.648H47.017V224.867H55.7936V216.648Z" fill="#042254"/>
<path d="M64.5701 216.648H55.7936V224.867H64.5701V216.648Z" fill="#042254"/>
<path d="M82.1231 216.648H73.3466V224.867H82.1231V216.648Z" fill="#042254"/>
<path d="M108.453 216.648H99.6761V224.867H108.453V216.648Z" fill="#042254"/>
<path d="M117.229 216.648H108.453V224.867H117.229V216.648Z" fill="#042254"/>
<path d="M134.782 216.648H126.006V224.867H134.782V216.648Z" fill="#042254"/>
<path d="M161.112 216.648H152.335V224.867H161.112V216.648Z" fill="#042254"/>
<path d="M187.441 216.648H178.665V224.867H187.441V216.648Z" fill="#042254"/>
<path d="M204.994 216.648H196.218V224.867H204.994V216.648Z" fill="#042254"/>
<path d="M213.771 216.648H204.994V224.867H213.771V216.648Z" fill="#042254"/>
<path d="M240.1 216.648H231.324V224.867H240.1V216.648Z" fill="#042254"/>
<path d="M248.877 216.648H240.1V224.867H248.877V216.648Z" fill="#042254"/>
<path d="M257.653 216.648H248.877V224.867H257.653V216.648Z" fill="#042254"/>
<path d="M266.43 216.648H257.653V224.867H266.43V216.648Z" fill="#042254"/>
<path d="M275.206 216.648H266.43V224.867H275.206V216.648Z" fill="#042254"/>
<path d="M283.983 216.648H275.206V224.867H283.983V216.648Z" fill="#042254"/>
<path d="M292.759 216.648H283.983V224.867H292.759V216.648Z" fill="#042254"/>
<path d="M310.312 216.648H301.536V224.867H310.312V216.648Z" fill="#042254"/>
<path d="M99.6761 224.867H90.8996V233.087H99.6761V224.867Z" fill="#042254"/>
<path d="M126.006 224.867H117.229V233.087H126.006V224.867Z" fill="#042254"/>
<path d="M143.559 224.867H134.782V233.087H143.559V224.867Z" fill="#042254"/>
<path d="M187.441 224.867H178.665V233.087H187.441V224.867Z" fill="#042254"/>
<path d="M213.771 224.867H204.994V233.087H213.771V224.867Z" fill="#042254"/>
<path d="M231.324 224.867H222.547V233.087H231.324V224.867Z" fill="#042254"/>
<path d="M240.1 224.867H231.324V233.087H240.1V224.867Z" fill="#042254"/>
<path d="M275.206 224.867H266.43V233.087H275.206V224.867Z" fill="#042254"/>
<path d="M292.759 224.867H283.983V233.087H292.759V224.867Z" fill="#042254"/>
<path d="M301.536 224.867H292.759V233.087H301.536V224.867Z" fill="#042254"/>
<path d="M310.312 224.867H301.536V233.087H310.312V224.867Z" fill="#042254"/>
<path d="M29.464 233.087H20.6875V241.307H29.464V233.087Z" fill="#042254"/>
<path d="M38.2405 233.087H29.464V241.307H38.2405V233.087Z" fill="#042254"/>
<path d="M47.017 233.087H38.2405V241.307H47.017V233.087Z" fill="#042254"/>
<path d="M55.7936 233.087H47.017V241.307H55.7936V233.087Z" fill="#042254"/>
<path d="M64.5701 233.087H55.7936V241.307H64.5701V233.087Z" fill="#042254"/>
<path d="M73.3466 233.087H64.5701V241.307H73.3466V233.087Z" fill="#042254"/>
<path d="M82.1231 233.087H73.3466V241.307H82.1231V233.087Z" fill="#042254"/>
<path d="M108.453 233.087H99.6761V241.307H108.453V233.087Z" fill="#042254"/>
<path d="M134.782 233.087H126.006V241.307H134.782V233.087Z" fill="#042254"/>
<path d="M143.559 233.087H134.782V241.307H143.559V233.087Z" fill="#042254"/>
<path d="M152.335 233.087H143.559V241.307H152.335V233.087Z" fill="#042254"/>
<path d="M169.888 233.087H161.112V241.307H169.888V233.087Z" fill="#042254"/>
<path d="M196.218 233.087H187.441L187.441 241.307H196.218V233.087Z" fill="#042254"/>
<path d="M204.994 233.087H196.218V241.307H204.994V233.087Z" fill="#042254"/>
<path d="M231.324 233.087H222.547V241.307H231.324V233.087Z" fill="#042254"/>
<path d="M240.1 233.087H231.324V241.307H240.1V233.087Z" fill="#042254"/>
<path d="M257.653 233.087H248.877V241.307H257.653V233.087Z" fill="#042254"/>
<path d="M275.206 233.087H266.43V241.307H275.206V233.087Z" fill="#042254"/>
<path d="M283.983 233.087H275.206V241.307H283.983V233.087Z" fill="#042254"/>
<path d="M29.464 241.307H20.6875V249.527H29.464V241.307Z" fill="#042254"/>
<path d="M82.1231 241.307H73.3466V249.527H82.1231V241.307Z" fill="#042254"/>
<path d="M99.6761 241.307H90.8996V249.527H99.6761V241.307Z" fill="#042254"/>
<path d="M108.453 241.307H99.6761V249.527H108.453V241.307Z" fill="#042254"/>
<path d="M134.782 241.307H126.006V249.527H134.782V241.307Z" fill="#042254"/>
<path d="M143.559 241.307H134.782V249.527H143.559V241.307Z" fill="#042254"/>
<path d="M161.112 241.307H152.335V249.527H161.112V241.307Z" fill="#042254"/>
<path d="M169.888 241.307H161.112V249.527H169.888V241.307Z" fill="#042254"/>
<path d="M178.665 241.307H169.888V249.527H178.665V241.307Z" fill="#042254"/>
<path d="M196.218 241.307H187.441V249.527H196.218V241.307Z" fill="#042254"/>
<path d="M213.771 241.307H204.994V249.527H213.771V241.307Z" fill="#042254"/>
<path d="M222.547 241.307H213.771V249.527H222.547V241.307Z" fill="#042254"/>
<path d="M231.324 241.307H222.547V249.527H231.324V241.307Z" fill="#042254"/>
<path d="M240.1 241.307H231.324V249.527H240.1V241.307Z" fill="#042254"/>
<path d="M275.206 241.307H266.43V249.527H275.206V241.307Z" fill="#042254"/>
<path d="M283.983 241.307H275.206V249.527H283.983V241.307Z" fill="#042254"/>
<path d="M301.536 241.307H292.759V249.527H301.536V241.307Z" fill="#042254"/>
<path d="M29.464 249.527H20.6875V257.746H29.464V249.527Z" fill="#042254"/>
<path d="M47.017 249.527H38.2405V257.746H47.017V249.527Z" fill="#042254"/>
<path d="M55.7936 249.527H47.017V257.746H55.7936V249.527Z" fill="#042254"/>
<path d="M64.5701 249.527H55.7936V257.746H64.5701V249.527Z" fill="#042254"/>
<path d="M82.1231 249.527H73.3466V257.746H82.1231V249.527Z" fill="#042254"/>
<path d="M99.6761 249.527H90.8996V257.746H99.6761V249.527Z" fill="#042254"/>
<path d="M126.006 249.527H117.229V257.746H126.006V249.527Z" fill="#042254"/>
<path d="M152.335 249.527H143.559V257.746H152.335V249.527Z" fill="#042254"/>
<path d="M161.112 249.527H152.335V257.746H161.112V249.527Z" fill="#042254"/>
<path d="M187.441 249.527H178.665V257.746H187.441L187.441 249.527Z" fill="#042254"/>
<path d="M196.218 249.527H187.441L187.441 257.746H196.218V249.527Z" fill="#042254"/>
<path d="M222.547 249.527H213.771V257.746H222.547V249.527Z" fill="#042254"/>
<path d="M240.1 249.527H231.324V257.746H240.1V249.527Z" fill="#042254"/>
<path d="M248.877 249.527H240.1V257.746H248.877V249.527Z" fill="#042254"/>
<path d="M257.653 249.527H248.877V257.746H257.653V249.527Z" fill="#042254"/>
<path d="M266.43 249.527H257.653V257.746H266.43V249.527Z" fill="#042254"/>
<path d="M275.206 249.527H266.43V257.746H275.206V249.527Z" fill="#042254"/>
<path d="M283.983 249.527H275.206V257.746H283.983V249.527Z" fill="#042254"/>
<path d="M292.759 249.527H283.983V257.746H292.759V249.527Z" fill="#042254"/>
<path d="M29.464 257.746H20.6875V265.966H29.464V257.746Z" fill="#042254"/>
<path d="M47.017 257.746H38.2405V265.966H47.017V257.746Z" fill="#042254"/>
<path d="M55.7936 257.746H47.017V265.966H55.7936V257.746Z" fill="#042254"/>
<path d="M64.5701 257.746H55.7936V265.966H64.5701V257.746Z" fill="#042254"/>
<path d="M82.1231 257.746H73.3466V265.966H82.1231V257.746Z" fill="#042254"/>
<path d="M117.229 257.746H108.453V265.966H117.229V257.746Z" fill="#042254"/>
<path d="M152.335 257.746H143.559V265.966H152.335V257.746Z" fill="#042254"/>
<path d="M169.888 257.746H161.112V265.966H169.888V257.746Z" fill="#042254"/>
<path d="M178.665 257.746H169.888V265.966H178.665V257.746Z" fill="#042254"/>
<path d="M213.771 257.746H204.994V265.966H213.771V257.746Z" fill="#042254"/>
<path d="M222.547 257.746H213.771V265.966H222.547V257.746Z" fill="#042254"/>
<path d="M257.653 257.746H248.877V265.966H257.653V257.746Z" fill="#042254"/>
<path d="M275.206 257.746H266.43V265.966H275.206V257.746Z" fill="#042254"/>
<path d="M292.759 257.746H283.983V265.966H292.759V257.746Z" fill="#042254"/>
<path d="M301.536 257.746H292.759V265.966H301.536V257.746Z" fill="#042254"/>
<path d="M310.312 257.746H301.536V265.966H310.312V257.746Z" fill="#042254"/>
<path d="M29.464 265.966H20.6875V274.186H29.464V265.966Z" fill="#042254"/>
<path d="M47.017 265.966H38.2405V274.186H47.017V265.966Z" fill="#042254"/>
<path d="M55.7936 265.966H47.017V274.186H55.7936V265.966Z" fill="#042254"/>
<path d="M64.5701 265.966H55.7936V274.186H64.5701V265.966Z" fill="#042254"/>
<path d="M82.1231 265.966H73.3466V274.186H82.1231V265.966Z" fill="#042254"/>
<path d="M99.6761 265.966H90.8996V274.186H99.6761V265.966Z" fill="#042254"/>
<path d="M108.453 265.966H99.6761V274.186H108.453V265.966Z" fill="#042254"/>
<path d="M117.229 265.966H108.453V274.186H117.229V265.966Z" fill="#042254"/>
<path d="M152.335 265.966H143.559V274.186H152.335V265.966Z" fill="#042254"/>
<path d="M178.665 265.966H169.888V274.186H178.665V265.966Z" fill="#042254"/>
<path d="M187.441 265.966H178.665V274.186H187.441V265.966Z" fill="#042254"/>
<path d="M204.994 265.966H196.218V274.186H204.994V265.966Z" fill="#042254"/>
<path d="M213.771 265.966H204.994V274.186H213.771V265.966Z" fill="#042254"/>
<path d="M240.1 265.966H231.324V274.186H240.1V265.966Z" fill="#042254"/>
<path d="M29.464 274.186H20.6875V282.405H29.464V274.186Z" fill="#042254"/>
<path d="M82.1231 274.186H73.3466V282.405H82.1231V274.186Z" fill="#042254"/>
<path d="M108.453 274.186H99.6761V282.405H108.453V274.186Z" fill="#042254"/>
<path d="M117.229 274.186H108.453V282.405H117.229V274.186Z" fill="#042254"/>
<path d="M126.006 274.186H117.229V282.405H126.006V274.186Z" fill="#042254"/>
<path d="M134.782 274.186H126.006V282.405H134.782V274.186Z" fill="#042254"/>
<path d="M143.559 274.186H134.782V282.405H143.559V274.186Z" fill="#042254"/>
<path d="M152.335 274.186H143.559V282.405H152.335V274.186Z" fill="#042254"/>
<path d="M222.547 274.186H213.771V282.405H222.547V274.186Z" fill="#042254"/>
<path d="M240.1 274.186H231.324V282.405H240.1V274.186Z" fill="#042254"/>
<path d="M257.653 274.186H248.877V282.405H257.653V274.186Z" fill="#042254"/>
<path d="M275.206 274.186H266.43V282.405H275.206V274.186Z" fill="#042254"/>
<path d="M283.983 274.186H275.206V282.405H283.983V274.186Z" fill="#042254"/>
<path d="M29.464 282.405H20.6875V290.625H29.464V282.405Z" fill="#042254"/>
<path d="M38.2405 282.405H29.464V290.625H38.2405V282.405Z" fill="#042254"/>
<path d="M47.017 282.405H38.2405V290.625H47.017V282.405Z" fill="#042254"/>
<path d="M55.7936 282.405H47.017V290.625H55.7936V282.405Z" fill="#042254"/>
<path d="M64.5701 282.405H55.7936V290.625H64.5701V282.405Z" fill="#042254"/>
<path d="M73.3466 282.405H64.5701V290.625H73.3466V282.405Z" fill="#042254"/>
<path d="M82.1231 282.405H73.3466V290.625H82.1231V282.405Z" fill="#042254"/>
<path d="M108.453 282.405H99.6761V290.625H108.453V282.405Z" fill="#042254"/>
<path d="M134.782 282.405H126.006V290.625H134.782V282.405Z" fill="#042254"/>
<path d="M143.559 282.405H134.782V290.625H143.559V282.405Z" fill="#042254"/>
<path d="M169.888 282.405H161.112V290.625H169.888V282.405Z" fill="#042254"/>
<path d="M204.994 282.405H196.218V290.625H204.994V282.405Z" fill="#042254"/>
<path d="M213.771 282.405H204.994V290.625H213.771V282.405Z" fill="#042254"/>
<path d="M231.324 282.405H222.547V290.625H231.324V282.405Z" fill="#042254"/>
<path d="M240.1 282.405H231.324V290.625H240.1V282.405Z" fill="#042254"/>
<path d="M310.312 282.405H301.536V290.625H310.312V282.405Z" fill="#042254"/>
</g>
</g>
</g>
<defs>
<clipPath id="clip0_465_704">
<rect width="331" height="310" rx="16" fill="white"/>
</clipPath>
</defs>
</svg>
