<svg preserveAspectRatio="none" width="100%" height="100%" overflow="visible" style="display: block;" viewBox="0 0 54 54" fill="none" xmlns="http://www.w3.org/2000/svg">
<g id="Group">
<path id="Vector" d="M27 54C41.9117 54 54 41.9117 54 27C54 12.0883 41.9117 0 27 0C12.0883 0 0 12.0883 0 27C0 41.9117 12.0883 54 27 54Z" fill="var(--fill-0, #26A17B)"/>
<path id="Vector_2" fill-rule="evenodd" clip-rule="evenodd" d="M30.2434 29.3338V29.3304C30.0577 29.3439 29.1009 29.4013 26.9662 29.4013C25.2619 29.4013 24.0621 29.3507 23.6402 29.3304V29.3355C17.0792 29.0469 12.1821 27.9045 12.1821 26.5376C12.1821 25.1724 17.0792 24.03 23.6402 23.7364V28.1981C24.0688 28.2285 25.2973 28.3011 26.9949 28.3011C29.0317 28.3011 30.0527 28.2167 30.2434 28.1998V23.7397C36.7909 24.0317 41.6762 25.1741 41.6762 26.5376C41.6762 27.9045 36.7909 29.0436 30.2434 29.3338ZM30.2434 23.2757V19.2831H39.3795V13.1946H14.5041V19.2831H23.6402V23.274C16.2152 23.6149 10.6312 25.0864 10.6312 26.8481C10.6312 28.6099 16.2152 30.0797 23.6402 30.4222V43.2169H30.2434V30.4189C37.6566 30.078 43.227 28.6082 43.227 26.8481C43.227 25.0881 37.6566 23.6183 30.2434 23.2757Z" fill="var(--fill-0, white)"/>
</g>
</svg>
