<svg preserveAspectRatio="none" width="100%" height="100%" overflow="visible" style="display: block;" viewBox="0 0 21.1667 21.1667" fill="none" xmlns="http://www.w3.org/2000/svg">
<path id="Icon" d="M3.875 13.4583H2.91667C2.40834 13.4583 1.92082 13.2564 1.56138 12.897C1.20193 12.5375 1 12.05 1 11.5417V2.91667C1 2.40834 1.20193 1.92082 1.56138 1.56138C1.92082 1.20193 2.40834 1 2.91667 1H11.5417C12.05 1 12.5375 1.20193 12.897 1.56138C13.2564 1.92082 13.4583 2.40834 13.4583 2.91667V3.875M9.625 7.70833H18.25C19.3085 7.70833 20.1667 8.56645 20.1667 9.625V18.25C20.1667 19.3085 19.3085 20.1667 18.25 20.1667H9.625C8.56645 20.1667 7.70833 19.3085 7.70833 18.25V9.625C7.70833 8.56645 8.56645 7.70833 9.625 7.70833Z" stroke="var(--stroke-0, #C8CFDA)" stroke-width="2" stroke-linecap="round" stroke-linejoin="round"/>
</svg>
