<svg preserveAspectRatio="none" width="100%" height="100%" overflow="visible" style="display: block;" viewBox="0 0 16 16" fill="none" xmlns="http://www.w3.org/2000/svg">
<path id="Primary" d="M8 16C5.87827 16 3.84344 15.1571 2.34315 13.6569C0.842855 12.1566 0 10.1217 0 8C0 5.87827 0.842855 3.84344 2.34315 2.34315C3.84344 0.842855 5.87827 0 8 0C10.1217 0 12.1566 0.842855 13.6569 2.34315C15.1571 3.84344 16 5.87827 16 8C16 10.1217 15.1571 12.1566 13.6569 13.6569C12.1566 15.1571 10.1217 16 8 16ZM8 1.5C6.27609 1.5 4.62279 2.18482 3.40381 3.40381C2.18482 4.62279 1.5 6.27609 1.5 8C1.5 9.72391 2.18482 11.3772 3.40381 12.5962C4.62279 13.8152 6.27609 14.5 8 14.5C9.72391 14.5 11.3772 13.8152 12.5962 12.5962C13.8152 11.3772 14.5 9.72391 14.5 8C14.5 6.27609 13.8152 4.62279 12.5962 3.40381C11.3772 2.18482 9.72391 1.5 8 1.5ZM10.2094 5.30937C10.4531 4.975 10.9219 4.9 11.2563 5.14375C11.5906 5.3875 11.6656 5.85625 11.4219 6.19063L7.60625 11.4406C7.47812 11.6188 7.27812 11.7312 7.05937 11.7469C6.84062 11.7625 6.625 11.6844 6.47188 11.5312L4.725 9.78438C4.43125 9.49063 4.43125 9.01563 4.725 8.725C5.01875 8.43438 5.49375 8.43125 5.78438 8.725L6.90938 9.85L10.2094 5.3125V5.30937Z" fill="var(--fill-0, black)"/>
</svg>
